<?xml version="1.0" standalone="no"?>
<!DOCTYPE svg PUBLIC "-//W3C//DTD SVG 1.1//EN" "http://www.w3.org/Graphics/SVG/1.1/DTD/svg11.dtd" >
<svg>
<metadata>
Created by FontForge 20090914 at Wed Nov 18 17:06:54 2020
 By www-data
Webb Ellis Cup is a licensed version of FS Elliot Pro Copyright (c) 2012 by Fontsmith Ltd for Rugby World Cup Ltd. All rights reserved. This font may not be altered in any way without prior permission of Fontsmith Ltd.
</metadata>
<defs>
<font id="WebbEllisCup-Bold" horiz-adv-x="601" >
  <font-face 
    font-family="Webb Ellis Cup"
    font-weight="700"
    font-stretch="normal"
    units-per-em="1000"
    panose-1="2 2 5 3 4 2 2 9 2 4"
    ascent="750"
    descent="-250"
    x-height="490"
    cap-height="672"
    bbox="-189 -302.002 1252.6 1008"
    underline-thickness="98"
    underline-position="-2"
    unicode-range="U+000D-U+FB04"
  />
<missing-glyph horiz-adv-x="500" 
d="M12 672h476v-672h-476v672zM250 380l162 244h-324zM60 92l162 244l-162 244v-488zM278 336l162 -244v488zM250 292l-162 -244h324z" />
    <glyph glyph-name="f_b" unicode="fb" horiz-adv-x="961" 
d="M113 393l-91 0.000976562v97h91v45c0 26.667 5.16699 51.167 15.5 73.5s24.833 41.5 43.5 57.5s40.834 28.333 66.501 37s54.167 13 85.5 13c34 0 69.833 -2.16699 107.5 -6.5s78.5 -10.166 122.5 -17.499v-257c17.333 21.333 38.666 37.833 63.999 49.5s53 17.5 83 17.5
c32.667 0 62.834 -6.33301 90.501 -19s51.5 -30.334 71.5 -53.001s35.5 -49.667 46.5 -81s16.5 -66 16.5 -104s-5.5 -72.667 -16.5 -104s-26.5 -58.333 -46.5 -81s-43.833 -40.334 -71.5 -53.001s-57.834 -19 -90.501 -19s-62.5 6.5 -89.5 19.5s-49.5 31.5 -67.5 55.5
l-16 -63h-102v607c-33.333 6 -64 9 -92 9s-50.5 -8 -67.5 -24s-25.5 -36.667 -25.5 -62v-40h120v-97h-120v-393h-128v393zM795 245.001c0 22.667 -3.16699 43.666 -9.5 62.999s-15 35.833 -26 49.5s-24.333 24.334 -40 32.001s-32.834 11.5 -51.501 11.5
c-34.667 0 -62.667 -11.5 -84 -34.5s-32 -52.5 -32 -88.5v-66c0 -36 10.667 -65.5 32 -88.5s49.333 -34.5 84 -34.5c18.667 0 35.834 3.83301 51.501 11.5s29 18.5 40 32.5s19.667 30.5 26 49.5s9.5 39.833 9.5 62.5z" />
    <glyph glyph-name="f_f_b" unicode="ffb" horiz-adv-x="1290" 
d="M113 393l-91.001 -0.00195312v97h91v68c0 48 15.333 86.333 46 115s70.667 43 120 43c34.667 0 71.667 -5 111 -15l-17 -96c-23.333 6 -44.333 9 -63 9c-20.667 0 -37.334 -6.16699 -50.001 -18.5s-19 -29.166 -19 -50.499v-55h201v45c0 26.667 5.16699 51.167 15.5 73.5
s24.666 41.5 42.999 57.5s40.333 28.333 66 37s54.167 13 85.5 13c34 0 70 -2.16699 108 -6.5s79 -10.166 123 -17.499v-257c32 35.333 71.667 56 119 62c24 3.33301 46.667 3 68 -1c24.667 -4 47.667 -12.333 69 -25s39.833 -28.5 55.5 -47.5s28.334 -41.167 38.001 -66.5
s15.834 -52.666 18.501 -81.999c1.33301 -12.667 1.83301 -25.334 1.5 -38.001s-1.5 -25.334 -3.5 -38.001c-4 -31.333 -12.167 -60 -24.5 -86s-28.166 -48.167 -47.499 -66.5s-41.5 -32.666 -66.5 -42.999s-51.833 -15.5 -80.5 -15.5c-33.333 0 -63.333 6.5 -90 19.5
s-49 31.5 -67 55.5l-16 -63h-102v607c-33.333 6 -64.333 9 -93 9c-28 0 -50.333 -8 -67 -24s-25 -36.667 -25 -62v-40h119v-97h-119v-393h-128v393h-201v-393h-128v393zM1124 244.998c0 22.667 -3.16699 43.666 -9.5 62.999s-15.166 35.833 -26.499 49.5
s-24.666 24.334 -39.999 32.001s-32.333 11.5 -51 11.5c-34.667 0 -62.834 -11.5 -84.501 -34.5s-32.5 -52.5 -32.5 -88.5v-66c0 -36 10.833 -65.5 32.5 -88.5s49.834 -34.5 84.501 -34.5c18.667 0 35.667 3.83301 51 11.5s28.666 18.5 39.999 32.5s20.166 30.5 26.499 49.5
s9.5 39.833 9.5 62.5z" />
    <glyph glyph-name="f_h" unicode="fh" horiz-adv-x="961" 
d="M113 393l-91 -0.00195312v97h91v45c0 26.667 5.16699 51.167 15.5 73.5s24.833 41.5 43.5 57.5s40.834 28.333 66.501 37s54.167 13 85.5 13c34 0 69.833 -2.16699 107.5 -6.5s78.5 -10.166 122.5 -17.499v-265c17.333 24 39.666 42.5 66.999 55.5s58 19.5 92 19.5
c28 0 53.667 -4.66699 77 -14s43.5 -22.166 60.5 -38.499s30.167 -36 39.5 -59s14 -48.167 14 -75.5v-315h-128v295c0 30 -9.66699 54.5 -29 73.5s-44 28.5 -74 28.5c-34.667 0 -63.167 -11.667 -85.5 -35s-33.5 -54 -33.5 -92v-270h-128v607c-33.333 6 -64 9 -92 9
s-50.5 -8 -67.5 -24s-25.5 -36.667 -25.5 -62v-40h120v-97h-120v-393h-128v393z" />
    <glyph glyph-name="f_f_h" unicode="ffh" horiz-adv-x="1290" 
d="M113 393l-90.9961 -0.00292969v97h91v68c0 48 15.333 86.333 46 115s70.667 43 120 43c34.667 0 71.667 -5 111 -15l-17 -96c-23.333 6 -44.333 9 -63 9c-20.667 0 -37.334 -6.16699 -50.001 -18.5s-19 -29.166 -19 -50.499v-55h201v45
c0 26.667 5.16699 51.167 15.5 73.5s24.666 41.5 42.999 57.5s40.333 28.333 66 37s54.167 13 85.5 13c34 0 70 -2.16699 108 -6.5s79 -10.166 123 -17.499v-265c17.333 24 39.666 42.5 66.999 55.5s57.666 19.5 90.999 19.5c28 0 53.833 -4.66699 77.5 -14
s44 -22.166 61 -38.499s30.167 -36 39.5 -59s14 -48.167 14 -75.5v-315h-128v295c0 30 -9.66699 54.5 -29 73.5s-44 28.5 -74 28.5c-34.667 0 -63.167 -11.667 -85.5 -35s-33.5 -54 -33.5 -92v-270h-128v607c-33.333 6 -64.333 9 -93 9c-28 0 -50.333 -8 -67 -24
s-25 -36.667 -25 -62v-40h119v-97h-119v-393h-128v393h-201v-393h-128v393z" />
    <glyph glyph-name="f_j" unicode="fj" horiz-adv-x="620" 
d="M113 393l-90.9971 -0.000976562v97h91v45c0 26.667 5 51 15 73s24.167 41 42.5 57s40.166 28.5 65.499 37.5s53 13.5 83 13.5c50.667 0 106.667 -9 168 -27l-22 -97c-24.667 7.33301 -47.334 13.166 -68.001 17.499s-40 6.5 -58 6.5c-29.333 0 -53 -8 -71 -24
s-27 -36.667 -27 -62v-40h313v-552c0 -23.333 -4 -44.666 -12 -63.999s-19.333 -36 -34 -50s-32.167 -24.833 -52.5 -32.5s-42.833 -11.5 -67.5 -11.5c-34.667 0 -71.334 5 -110.001 15l17 96c22.667 -6 43.667 -9 63 -9c20.667 0 37.167 6.33301 49.5 19
s18.5 29.334 18.5 50.001v442h-185v-393h-128v393z" />
    <glyph glyph-name="f_f_j" unicode="ffj" horiz-adv-x="948" 
d="M113 393l-90.9971 0.000976562v97h91v68c0 23.333 4 44.666 12 63.999s19.333 36 34 50s32.167 24.833 52.5 32.5s42.833 11.5 67.5 11.5c34.667 0 71.667 -5 111 -15l-17 -96c-23.333 6 -44.333 9 -63 9c-20.667 0 -37.334 -6.33301 -50.001 -19
s-19 -29.334 -19 -50.001v-55h201v45c0 26.667 5 51 15 73s24.167 41 42.5 57s40 28.5 65 37.5s52.5 13.5 82.5 13.5c51.333 0 107.666 -9 168.999 -27l-23 -97c-24 7.33301 -46.333 13.166 -67 17.499s-40 6.5 -58 6.5c-30 0 -53.833 -8 -71.5 -24s-26.5 -36.667 -26.5 -62
v-40h313v-552c0 -23.333 -4 -44.666 -12 -63.999s-19.333 -36 -34 -50s-32.167 -24.833 -52.5 -32.5s-42.833 -11.5 -67.5 -11.5c-34 0 -71 5 -111 15l17 96c22.667 -6 43.667 -9 63 -9c21.333 0 38.166 6.33301 50.499 19s18.5 29.334 18.5 50.001v442h-185v-393h-128v393
h-201v-393h-128v393z" />
    <glyph glyph-name="f_k" unicode="fk" horiz-adv-x="892" 
d="M113 393h-91.001v97h91v45c0 26.667 5.16699 51.167 15.5 73.5s24.833 41.5 43.5 57.5s40.834 28.333 66.501 37s54.167 13 85.5 13c32 0 67 -2 105 -6s78 -10 120 -18v-411l187 209h145l-211 -229l219 -261h-148l-153 186l-39 -41v-145h-123v607c-33.333 6 -64 9 -92 9
s-50.5 -8 -67.5 -24s-25.5 -36.667 -25.5 -62v-40h120v-97h-120v-393h-128v393z" />
    <glyph glyph-name="f_f_k" unicode="ffk" horiz-adv-x="1220" 
d="M113 393l-90.998 0.00195312v97h91v68c0 23.333 4 44.666 12 63.999s19.333 36 34 50s32.167 24.833 52.5 32.5s42.833 11.5 67.5 11.5c34.667 0 71.667 -5 111 -15l-17 -96c-23.333 6 -44.333 9 -63 9c-20.667 0 -37.334 -6.33301 -50.001 -19s-19 -29.334 -19 -50.001
v-55h201v45c0 26.667 5.16699 51.167 15.5 73.5s24.666 41.5 42.999 57.5s40.333 28.333 66 37s54.167 13 85.5 13c66.667 0 142 -8 226 -24v-411l186 209h146l-211 -229l219 -261h-148l-154 186l-38 -41v-145h-123v607c-33.333 6 -64.333 9 -93 9c-28 0 -50.333 -8 -67 -24
s-25 -36.667 -25 -62v-40h119v-97h-119v-393h-128v393h-201v-393h-128v393z" />
    <glyph glyph-name="f_f" unicode="ff" horiz-adv-x="711" 
d="M113 393l-91 0.00390625v97h91v68c0 23.333 4 44.666 12 63.999s19.333 36 34 50s32.167 24.833 52.5 32.5s42.833 11.5 67.5 11.5c34.667 0 71.667 -5 111 -15l-17 -96c-23.333 6 -44.333 9 -63 9c-20.667 0 -37.334 -6.33301 -50.001 -19s-19 -29.334 -19 -50.001v-55
h201v68c0 23.333 4 44.666 12 63.999s19.333 36 34 50s32.167 24.833 52.5 32.5s42.833 11.5 67.5 11.5c34 0 70.667 -5 110 -15l-16 -96c-23.333 6 -44.666 9 -63.999 9c-20.667 0 -37.167 -6.33301 -49.5 -19s-18.5 -29.334 -18.5 -50.001v-55h119v-97h-119v-393h-128v393
h-201v-393h-128v393z" />
    <glyph glyph-name="fi" unicode="fi" horiz-adv-x="620" 
d="M113 393l-90.998 0.000976562v97h91v45c0 26.667 5 51 15 73s24.167 41 42.5 57s40.166 28.5 65.499 37.5s53 13.5 83 13.5c50.667 0 106.667 -9 168 -27l-22 -97c-24.667 7.33301 -47.334 13.166 -68.001 17.499s-40 6.5 -58 6.5c-29.333 0 -53 -8 -71 -24
s-27 -36.667 -27 -62v-40h313v-490h-128v393h-185v-393h-128v393z" />
    <glyph glyph-name="fl" unicode="fl" horiz-adv-x="668" 
d="M113 393l-91.002 -0.000976562v97h91v45c0 26.667 5.16699 51.167 15.5 73.5s24.833 41.5 43.5 57.5s40.834 28.333 66.501 37s54.167 13 85.5 13c34 0 69.833 -2.16699 107.5 -6.5s78.5 -10.166 122.5 -17.499v-552c0 -15.333 4.33301 -27.5 13 -36.5
s20.667 -13.5 36 -13.5c6.66699 0 13.834 0.666992 21.501 2l23.5 4l14 -97c-16 -3.33301 -31.333 -6 -46 -8s-29 -3 -43 -3c-22 0 -42 3.33301 -60 10s-33.5 16.167 -46.5 28.5s-23 27 -30 44s-10.5 35.833 -10.5 56.5v480c-34 6 -64.667 9 -92 9c-28 0 -50.5 -8 -67.5 -24
s-25.5 -36.667 -25.5 -62v-40h120v-97h-120v-393h-128v393z" />
    <glyph glyph-name="f_f_i" unicode="ffi" horiz-adv-x="948" 
d="M113 393l-90.998 0.00292969v97h91v68c0 23.333 4 44.666 12 63.999s19.333 36 34 50s32.167 24.833 52.5 32.5s42.833 11.5 67.5 11.5c34.667 0 71.667 -5 111 -15l-17 -96c-23.333 6 -44.333 9 -63 9c-20.667 0 -37.334 -6.33301 -50.001 -19s-19 -29.334 -19 -50.001
v-55h201v45c0 26.667 5 51 15 73s24.167 41 42.5 57s40 28.5 65 37.5s52.5 13.5 82.5 13.5c51.333 0 107.666 -9 168.999 -27l-23 -97c-24 7.33301 -46.333 13.166 -67 17.499s-40 6.5 -58 6.5c-30 0 -53.833 -8 -71.5 -24s-26.5 -36.667 -26.5 -62v-40h313v-490h-128v393
h-185v-393h-128v393h-201v-393h-128v393z" />
    <glyph glyph-name="f_f_l" unicode="ffl" horiz-adv-x="996" 
d="M113 393l-90.998 0.000976562v97h91v68c0 23.333 4 44.666 12 63.999s19.333 36 34 50s32.167 24.833 52.5 32.5s42.833 11.5 67.5 11.5c34.667 0 71.667 -5 111 -15l-17 -96c-23.333 6 -44.333 9 -63 9c-20.667 0 -37.334 -6.33301 -50.001 -19s-19 -29.334 -19 -50.001
v-55h201v45c0 26.667 5.16699 51.167 15.5 73.5s24.666 41.5 42.999 57.5s40.333 28.333 66 37s54.167 13 85.5 13c34 0 70 -2.16699 108 -6.5s79 -10.166 123 -17.499v-552c0 -15.333 4.33301 -27.5 13 -36.5s20.667 -13.5 36 -13.5c6.66699 0 13.834 0.666992 21.501 2
l22.5 4l14 -97c-15.333 -3.33301 -30.333 -6 -45 -8s-29.334 -3 -44.001 -3c-44 0 -79.333 12.833 -106 38.5s-40 59.167 -40 100.5v480c-34 6 -65 9 -93 9s-50.333 -8 -67 -24s-25 -36.667 -25 -62v-40h119v-97h-119v-393h-128v393h-201v-393h-128v393z" />
    <glyph glyph-name=".notdef" horiz-adv-x="500" 
d="M12 672h476v-672h-476v672zM250 380l162 244h-324zM60 92l162 244l-162 244v-488zM278 336l162 -244v488zM250 292l-162 -244h324z" />
    <glyph glyph-name=".null" horiz-adv-x="0" 
 />
    <glyph glyph-name=".null" horiz-adv-x="0" 
 />
    <glyph glyph-name="nonmarkingreturn" unicode="&#xd;" horiz-adv-x="240" 
 />
    <glyph glyph-name="space" unicode=" " horiz-adv-x="240" 
 />
    <glyph glyph-name="exclam" unicode="!" horiz-adv-x="281" 
d="M76 672h129l-11 -449h-107zM64 66c0 22.667 7.16699 41.167 21.5 55.5s32.5 21.5 54.5 21.5c22.667 0 41.167 -7.16699 55.5 -21.5s21.5 -32.833 21.5 -55.5s-7.16699 -41.167 -21.5 -55.5s-32.833 -21.5 -55.5 -21.5c-23.333 0 -41.833 7.16699 -55.5 21.5
s-20.5 32.833 -20.5 55.5z" />
    <glyph glyph-name="quotedbl" unicode="&#x22;" horiz-adv-x="444" 
d="M57 672h119l-11 -243h-97zM268 672h119l-11 -243h-97z" />
    <glyph glyph-name="numbersign" unicode="#" horiz-adv-x="660" 
d="M16 255h119l31 162h-100v98h119l32 165l96 -13l-29 -152h161l32 165l96 -13l-29 -152h100v-98h-119l-31 -162h101v-98h-119l-32 -165l-96 13l28 152h-161l-32 -165l-96 13l29 152h-100v98zM234 255h161l31 162h-161z" />
    <glyph glyph-name="dollar" unicode="$" horiz-adv-x="521" 
d="M207 39c-54.667 5.33301 -111.334 19.3281 -170.001 41.9951l31 100c32.667 -13.333 64.667 -23.833 96 -31.5s60.333 -11.5 87 -11.5c32.667 0 58 6.33301 76 19s27 30.334 27 53.001c0 18.667 -7.66699 32.834 -23 42.501s-34.666 17.834 -57.999 24.501
s-48.5 13.5 -75.5 20.5s-52.167 16.833 -75.5 29.5s-42.666 29.834 -57.999 51.501s-23 50.834 -23 87.501c0 43.333 15.167 79.666 45.5 108.999s70.5 47.666 120.5 54.999v170h108v-168c45.333 -4.66699 95.333 -17.667 150 -39l-31 -99c-30 12.667 -58.5 22.5 -85.5 29.5
s-52.833 10.5 -77.5 10.5c-31.333 0 -55.666 -6.16699 -72.999 -18.5s-26 -28.833 -26 -49.5c0 -18 7.66699 -31.667 23 -41s34.666 -17.166 57.999 -23.499s48.5 -12.833 75.5 -19.5s52.167 -16.5 75.5 -29.5s42.666 -30.667 57.999 -53s23 -52.166 23 -89.499
c0 -45.333 -15.5 -82.833 -46.5 -112.5s-72.167 -48.167 -123.5 -55.5v-170h-108v167z" />
    <glyph glyph-name="percent" unicode="%" horiz-adv-x="864" 
d="M473 168c0 26 4.33301 50 13 72s21 41 37 57s34.833 28.5 56.5 37.5s45.5 13.5 71.5 13.5s49.833 -4.5 71.5 -13.5s40.334 -21.5 56.001 -37.5s27.834 -35 36.501 -57s13 -46 13 -72s-4.33301 -50 -13 -72s-20.834 -41 -36.501 -57s-34.334 -28.5 -56.001 -37.5
s-45.5 -13.5 -71.5 -13.5s-49.833 4.5 -71.5 13.5s-40.5 21.5 -56.5 37.5s-28.333 35 -37 57s-13 46 -13 72zM568 168c0 -32 7.66699 -57.5 23 -76.5s35.333 -28.5 60 -28.5s44.5 9.5 59.5 28.5s22.5 44.5 22.5 76.5s-7.5 57.5 -22.5 76.5s-34.833 28.5 -59.5 28.5
s-44.667 -9.5 -60 -28.5s-23 -44.5 -23 -76.5zM36 504c0 26 4.33301 50 13 72s20.834 41 36.501 57s34.334 28.5 56.001 37.5s45.5 13.5 71.5 13.5s49.833 -4.5 71.5 -13.5s40.334 -21.5 56.001 -37.5s28 -35 37 -57s13.5 -46 13.5 -72s-4.5 -50 -13.5 -72
s-21.333 -41 -37 -57s-34.334 -28.5 -56.001 -37.5s-45.5 -13.5 -71.5 -13.5s-49.833 4.5 -71.5 13.5s-40.334 21.5 -56.001 37.5s-27.834 35 -36.501 57s-13 46 -13 72zM131 504c0 -32 7.5 -57.5 22.5 -76.5s34.833 -28.5 59.5 -28.5s44.667 9.5 60 28.5s23 44.5 23 76.5
s-7.66699 57.5 -23 76.5s-35.333 28.5 -60 28.5s-44.5 -9.5 -59.5 -28.5s-22.5 -44.5 -22.5 -76.5zM651 697l66 -50l-504 -672l-66 50z" />
    <glyph glyph-name="ampersand" unicode="&#x26;" horiz-adv-x="655" 
d="M460 69c-59.333 -54 -122.998 -81 -190.998 -81c-34.667 0 -66.667 4.83301 -96 14.5s-54.5 23.334 -75.5 41.001s-37.333 38.5 -49 62.5s-17.5 50.667 -17.5 80c0 39.333 12.5 75.166 37.5 107.499s61.167 60.166 108.5 83.499
c-22.667 23.333 -40.667 46.666 -54 69.999s-20 48 -20 74c0 24 4.66699 46 14 66s22.5 37.167 39.5 51.5s37.333 25.5 61 33.5s49.5 12 77.5 12c27.333 0 52.5 -3.66699 75.5 -11s42.667 -17.666 59 -30.999s29.166 -29.333 38.499 -48s14 -39.334 14 -62.001
c0 -35.333 -11 -67.5 -33 -96.5s-58.333 -56.5 -109 -82.5l129 -140c9.33301 17.333 16.166 35.833 20.499 55.5s6.83301 40.167 7.5 61.5h108c-1.33301 -37.333 -7.33301 -72.666 -18 -105.999s-25.667 -63.666 -45 -90.999l122 -133h-140zM151.002 196
c0 -16 3.50195 -30.834 10.502 -44.501s16.333 -25.5 28 -35.5s25.167 -17.667 40.5 -23s31.666 -8 48.999 -8c21.333 0 42 4.83301 62 14.5s38 23.167 54 40.5l-160 173c-26.667 -16 -47.334 -33.667 -62.001 -53s-22 -40.666 -22 -63.999zM295.004 586.999
c-23.333 0 -42 -6.50098 -56 -19.501s-21 -30.167 -21 -51.5c0 -15.333 5.33301 -30.666 16 -45.999s25.667 -31.666 45 -48.999c32 17.333 55 34 69 50s21 32.667 21 50c0 19.333 -7 35.166 -21 47.499s-31.667 18.5 -53 18.5z" />
    <glyph glyph-name="quotesingle" unicode="'" horiz-adv-x="233" 
d="M57 672h119l-11 -243h-97z" />
    <glyph glyph-name="parenleft" unicode="(" horiz-adv-x="351" 
d="M65 288c0 85.333 15 166.832 45 244.499s74 147.834 132 210.501l91 -60c-50.667 -56.667 -88.334 -118.5 -113.001 -185.5s-37 -136.833 -37 -209.5s12.333 -142.5 37 -209.5s62.334 -128.833 113.001 -185.5l-91 -60c-58 62.667 -102 132.667 -132 210s-45 159 -45 245
z" />
    <glyph glyph-name="parenright" unicode=")" horiz-adv-x="351" 
d="M285 288c0 -85.333 -14.833 -166.832 -44.5 -244.499s-73.834 -147.834 -132.501 -210.501l-91 60c51.333 56.667 89.166 118.5 113.499 185.5s36.5 136.833 36.5 209.5s-12.167 142.5 -36.5 209.5s-62.166 128.833 -113.499 185.5l91 60
c58.667 -62.667 102.834 -132.667 132.501 -210s44.5 -159 44.5 -245z" />
    <glyph glyph-name="asterisk" unicode="*" horiz-adv-x="500" 
d="M294 520l144 47l28 -83l-146 -48l90 -123l-70 -52l-90 127l-90 -127l-70 52l90 123l-145 48l27 83l145 -47v152h87v-152z" />
    <glyph glyph-name="plus" unicode="+" horiz-adv-x="576" 
d="M44 342h190v190h108v-190h190v-108h-190v-190h-108v190h-190v108z" />
    <glyph glyph-name="comma" unicode="," horiz-adv-x="265" 
d="M52 69c0 23.333 7.5 42.5 22.5 57.5s34.167 22.5 57.5 22.5c24.667 0 44.667 -9 60 -27s23 -41.667 23 -71c0 -42 -11.167 -81.333 -33.5 -118s-53.833 -67.667 -94.5 -93l-39 50c40 32.667 64.333 67.667 73 105c-20 2 -36.5 9.83301 -49.5 23.5s-19.5 30.5 -19.5 50.5z
" />
    <glyph glyph-name="hyphen" unicode="-" horiz-adv-x="320" 
d="M22 300h276v-98h-276v98z" />
    <glyph glyph-name="period" unicode="." horiz-adv-x="265" 
d="M52 69c0 23.333 7.5 42.5 22.5 57.5s34.167 22.5 57.5 22.5s42.5 -7.5 57.5 -22.5s22.5 -34.167 22.5 -57.5s-7.5 -42.5 -22.5 -57.5s-34.167 -22.5 -57.5 -22.5s-42.5 7.5 -57.5 22.5s-22.5 34.167 -22.5 57.5z" />
    <glyph glyph-name="slash" unicode="/" horiz-adv-x="384" 
d="M291 725l102 -32l-300 -842l-102 32z" />
    <glyph glyph-name="zero" unicode="0" horiz-adv-x="660" 
d="M55 336c0 53.333 6.5 101.5 19.5 144.5s31.5 79.5 55.5 109.5s52.833 53.167 86.5 69.5s71.5 24.5 113.5 24.5s80 -8.16699 114 -24.5s63 -39.5 87 -69.5s42.5 -66.5 55.5 -109.5s19.5 -91.167 19.5 -144.5s-6.5 -101.5 -19.5 -144.5s-31.5 -79.5 -55.5 -109.5
s-53 -53.167 -87 -69.5s-72 -24.5 -114 -24.5s-79.833 8.16699 -113.5 24.5s-62.5 39.5 -86.5 69.5s-42.5 66.5 -55.5 109.5s-19.5 91.167 -19.5 144.5zM185 336c0 -78.667 12.667 -139.667 38 -183s61 -65 107 -65s81.667 21.667 107 65s38 104.333 38 183
s-12.667 139.667 -38 183s-61 65 -107 65s-81.667 -21.667 -107 -65s-38 -104.333 -38 -183z" />
    <glyph glyph-name="one" unicode="1" horiz-adv-x="415" 
d="M194 546l-156 -68v112l183 82h101v-672h-128v546z" />
    <glyph glyph-name="two" unicode="2" horiz-adv-x="522" 
d="M22 81l239.001 239.001c25.333 25.333 44.333 49.666 57 72.999s19 46.666 19 69.999c0 34 -10.833 61.333 -32.5 82s-49.834 31 -84.501 31c-27.333 0 -53 -5.16699 -77 -15.5s-49.667 -23.5 -77 -39.5l-49 94c38.667 22.667 77 39.834 115 51.501s75.667 17.5 113 17.5
c32 0 61.333 -5 88 -15s49.5 -24 68.5 -42s33.833 -39.333 44.5 -64s16 -52 16 -82c0 -72 -32.333 -140.333 -97 -205l-173 -174h278v-102h-448v81z" />
    <glyph glyph-name="three" unicode="3" horiz-adv-x="522" 
d="M156 390h46.999c38 0 69 9.16699 93 27.5s36 42.166 36 71.499c0 28 -9.33301 50.5 -28 67.5s-43.334 25.5 -74.001 25.5c-25.333 0 -51.666 -3.66699 -78.999 -11s-55.666 -17.666 -84.999 -30.999l-41 95c39.333 17.333 77.666 29.833 114.999 37.5s74 11.5 110 11.5
c30.667 0 58.834 -4.5 84.501 -13.5s47.834 -21.5 66.501 -37.5s33.167 -35.167 43.5 -57.5s15.5 -46.833 15.5 -73.5c0 -37.333 -9.66699 -69.5 -29 -96.5s-46 -46.5 -80 -58.5c37.333 -12 67.5 -33.167 90.5 -63.5s34.5 -65.5 34.5 -105.5c0 -28 -5.66699 -53.667 -17 -77
s-27 -43.333 -47 -60s-43.833 -29.667 -71.5 -39s-57.834 -14 -90.501 -14c-38 0 -77.167 4 -117.5 12s-81.5 21.667 -123.5 41l41 95c30.667 -14.667 61 -26 91 -34s58.667 -12 86 -12c34.667 0 63 9.33301 85 28s33 43 33 73c0 32 -13.167 57.833 -39.5 77.5
s-60.5 29.5 -102.5 29.5h-47v92z" />
    <glyph glyph-name="four" unicode="4" horiz-adv-x="580" 
d="M340 145h-313v87l309 440h122v-429h89v-98h-89v-145h-118v145zM340 243v276l-194 -276h194z" />
    <glyph glyph-name="five" unicode="5" horiz-adv-x="522" 
d="M457 570l-276.998 -0.000976562v-162c12 2 24 3.33301 36 4s23.333 1 34 1c35.333 0 67.166 -5 95.499 -15s52.5 -24 72.5 -42s35.5 -40 46.5 -66s16.5 -55 16.5 -87c0 -31.333 -6 -60.166 -18 -86.499s-28.833 -49 -50.5 -68s-47.667 -33.833 -78 -44.5
s-63.5 -16 -99.5 -16c-37.333 0 -74 5.33301 -110 16s-70.333 25.667 -103 45l49 94c26.667 -16 53 -28.333 79 -37s51 -13 75 -13c40 0 71.833 10.167 95.5 30.5s35.5 47.833 35.5 82.5c0 36.667 -12.833 65.5 -38.5 86.5s-61.834 31.5 -108.501 31.5
c-41.333 0 -88.333 -6 -141 -18v366h389v-102z" />
    <glyph glyph-name="six" unicode="6" horiz-adv-x="596" 
d="M303 -12c-37.333 0 -71.3301 6.00293 -101.997 18.0029s-56.834 28.5 -78.501 49.5s-38.334 46.167 -50.001 75.5s-17.5 61.666 -17.5 96.999c0 34 5.5 66.833 16.5 98.5s27.167 65.167 48.5 100.5l147 245h131l-152 -252c12 6 25 10.667 39 14s27.333 5 40 5
c32 0 61.5 -5.33301 88.5 -16s50.167 -25.667 69.5 -45s34.333 -42.333 45 -69s16 -55.667 16 -87c0 -34 -6 -65.333 -18 -94s-28.667 -53.334 -50 -74.001s-46.833 -36.834 -76.5 -48.501s-61.834 -17.5 -96.501 -17.5zM300.003 88.0029c18 0 34.668 3.33301 50.001 10
s28.666 15.667 39.999 27s20.166 25 26.499 41s9.5 33 9.5 51c0 36.667 -11.333 66.5 -34 89.5s-52.667 34.5 -90 34.5c-36.667 0 -67.167 -10.833 -91.5 -32.5s-36.5 -50.5 -36.5 -86.5c0 -40.667 11.833 -73.167 35.5 -97.5s53.834 -36.5 90.501 -36.5z" />
    <glyph glyph-name="seven" unicode="7" horiz-adv-x="484" 
d="M317 570h-308v102h448v-81l-252 -591h-134z" />
    <glyph glyph-name="eight" unicode="8" horiz-adv-x="596" 
d="M298 390c33.333 7.33301 60.5 19.166 81.5 35.499s31.5 38.833 31.5 67.5c0 27.333 -10.667 49.833 -32 67.5s-48.333 26.5 -81 26.5s-59.667 -8.83301 -81 -26.5s-32 -40.167 -32 -67.5c0 -28.667 10.5 -51.167 31.5 -67.5s48.167 -28.166 81.5 -35.499zM46 179
c0 38.667 11.667 72.501 35 101.501s56.333 50.167 99 63.5c-35.333 12.667 -63.833 32.667 -85.5 60s-32.5 59.666 -32.5 96.999c0 26.667 5.66699 51.334 17 74.001s27.5 42 48.5 58s45.833 28.5 74.5 37.5s60.667 13.5 96 13.5c34.667 0 66.5 -4.5 95.5 -13.5
s54 -21.5 75 -37.5s37.167 -35.333 48.5 -58s17 -47.334 17 -74.001c0 -37.333 -10.833 -69.666 -32.5 -96.999s-50.167 -47.333 -85.5 -60c42.667 -14 75.667 -35.333 99 -64s35 -62.334 35 -101.001c0 -28.667 -6.16699 -54.667 -18.5 -78s-29.5 -43.333 -51.5 -60
s-48.5 -29.667 -79.5 -39s-65.167 -14 -102.5 -14s-71.5 4.66699 -102.5 14s-57.5 22.333 -79.5 39s-39.167 36.667 -51.5 60s-18.5 49.333 -18.5 78zM298 298.001c-38 -8 -68.167 -21.167 -90.5 -39.5s-33.5 -42.166 -33.5 -71.499c0 -30.667 11.5 -55.334 34.5 -74.001
s52.833 -28 89.5 -28s66.5 9.33301 89.5 28s34.5 43.334 34.5 74.001c0 29.333 -11.167 53.166 -33.5 71.499s-52.5 31.5 -90.5 39.5z" />
    <glyph glyph-name="nine" unicode="9" horiz-adv-x="596" 
d="M293 684c37.333 0 71.333 -6.00098 102 -18.001s56.834 -28.5 78.501 -49.5s38.334 -46.333 50.001 -76s17.5 -61.834 17.5 -96.501c0 -34 -5.5 -66.833 -16.5 -98.5s-27.167 -65.167 -48.5 -100.5l-147 -245h-131l152 252c-12 -6 -25 -10.667 -39 -14s-27.333 -5 -40 -5
c-32 0 -61.5 5.33301 -88.5 16s-50.167 25.667 -69.5 45s-34.333 42.333 -45 69s-16 55.667 -16 87c0 34 6 65.333 18 94s28.667 53.334 50 74.001s46.666 36.834 75.999 48.501s61.666 17.5 96.999 17.5zM296 583.999c-18 0 -34.668 -3.33301 -50.001 -10
s-28.666 -15.667 -39.999 -27s-20.166 -25 -26.499 -41s-9.5 -33 -9.5 -51c0 -36.667 11.333 -66.5 34 -89.5s52.667 -34.5 90 -34.5c36.667 0 67.167 10.833 91.5 32.5s36.5 50.5 36.5 86.5c0 40.667 -11.833 73.167 -35.5 97.5s-53.834 36.5 -90.501 36.5z" />
    <glyph glyph-name="colon" unicode=":" horiz-adv-x="281" 
d="M60 69c0 23.333 7.5 42.5 22.5 57.5s34.167 22.5 57.5 22.5s42.5 -7.5 57.5 -22.5s22.5 -34.167 22.5 -57.5s-7.5 -42.5 -22.5 -57.5s-34.167 -22.5 -57.5 -22.5s-42.5 7.5 -57.5 22.5s-22.5 34.167 -22.5 57.5zM60 420c0 23.333 7.5 42.5 22.5 57.5
s34.167 22.5 57.5 22.5s42.5 -7.5 57.5 -22.5s22.5 -34.167 22.5 -57.5s-7.5 -42.5 -22.5 -57.5s-34.167 -22.5 -57.5 -22.5s-42.5 7.5 -57.5 22.5s-22.5 34.167 -22.5 57.5z" />
    <glyph glyph-name="semicolon" unicode=";" horiz-adv-x="281" 
d="M60 69c0 23.333 7.5 42.5 22.5 57.5s34.167 22.5 57.5 22.5c24.667 0 44.667 -9 60 -27s23 -41.667 23 -71c0 -42 -11.167 -81.333 -33.5 -118s-53.833 -67.667 -94.5 -93l-39 50c40 32.667 64.333 67.667 73 105c-20 2 -36.5 9.83301 -49.5 23.5s-19.5 30.5 -19.5 50.5z
M60 420c0 23.333 7.5 42.5 22.5 57.5s34.167 22.5 57.5 22.5s42.5 -7.5 57.5 -22.5s22.5 -34.167 22.5 -57.5s-7.5 -42.5 -22.5 -57.5s-34.167 -22.5 -57.5 -22.5s-42.5 7.5 -57.5 22.5s-22.5 34.167 -22.5 57.5z" />
    <glyph glyph-name="less" unicode="&#x3c;" horiz-adv-x="576" 
d="M44 342l456 208l43 -102l-354 -160l354 -160l-43 -102l-456 208v108z" />
    <glyph glyph-name="equal" unicode="=" horiz-adv-x="576" 
d="M44 458h488v-107h-488v107zM44 225h488v-107h-488v107z" />
    <glyph glyph-name="greater" unicode="&#x3e;" horiz-adv-x="576" 
d="M532 234l-456 -208l-43 102l354 160l-354 160l43 102l456 -208v-108z" />
    <glyph glyph-name="question" unicode="?" horiz-adv-x="468" 
d="M165 223l0.00195312 18c0 29.333 7 54.333 21 75s29.5 39.667 46.5 57s32.5 34.5 46.5 51.5s21 36.833 21 59.5c0 28 -9.33301 50.333 -28 67s-42.334 25 -71.001 25c-21.333 0 -42.166 -4.16699 -62.499 -12.5s-41.833 -19.5 -64.5 -33.5l-49 91
c30.667 20.667 62.5 36.334 95.5 47.001s66.5 16 100.5 16c30 0 57.667 -4.5 83 -13.5s47.166 -21.5 65.499 -37.5s32.666 -35.167 42.999 -57.5s15.5 -46.833 15.5 -73.5c0 -36 -7.66699 -66.5 -23 -91.5s-32.333 -47.167 -51 -66.5l-52.5 -55.5
c-16.333 -17.667 -25.833 -36.834 -28.5 -57.501l-1 -8h-107zM141.002 69c0 22 7.16699 39.833 21.5 53.5s32.833 20.5 55.5 20.5s41.167 -6.83301 55.5 -20.5s21.5 -31.5 21.5 -53.5c0 -22.667 -7.16699 -41.667 -21.5 -57s-32.833 -23 -55.5 -23s-41.167 7.66699 -55.5 23
s-21.5 34.333 -21.5 57z" />
    <glyph glyph-name="at" unicode="@" horiz-adv-x="980" 
d="M39 245c0 66 11.3301 126.496 33.9971 181.496s54.5 102.333 95.5 142s89.833 70.5 146.5 92.5s119 33 187 33c64.667 0 123.834 -9.83301 177.501 -29.5s100 -47 139 -82s69.333 -76.667 91 -125s32.5 -101.5 32.5 -159.5c0 -40 -5.16699 -76.667 -15.5 -110
s-25 -61.833 -44 -85.5s-41.667 -42.167 -68 -55.5s-55.166 -20 -86.499 -20c-29.333 0 -54.833 6.33301 -76.5 19s-37.5 29.667 -47.5 51c-19.333 -22.667 -41.666 -40 -66.999 -52s-53.333 -18 -84 -18c-28 0 -54 5.5 -78 16.5s-44.5 26.167 -61.5 45.5
s-30.333 42.333 -40 69s-14.5 55.667 -14.5 87s4.83301 60.333 14.5 87s23 49.667 40 69s37.5 34.5 61.5 45.5s50 16.5 78 16.5c26.667 0 50.667 -5 72 -15s39.333 -24 54 -42l13 47h104v-279c0 -16.667 4.16699 -30 12.5 -40s19.833 -15 34.5 -15
c27.333 0 49.333 15.5 66 46.5s25 71.833 25 122.5c0 46 -8.16699 88 -24.5 126s-39.166 70.833 -68.499 98.5s-64.333 49 -105 64s-85.334 22.5 -134.001 22.5c-52 0 -99.833 -8.66699 -143.5 -26s-81.167 -41.666 -112.5 -72.999s-55.833 -68.666 -73.5 -111.999
s-26.5 -91 -26.5 -143s8.83301 -99.667 26.5 -143s42.167 -80.666 73.5 -111.999s68.833 -55.666 112.5 -72.999s91.5 -26 143.5 -26c74 0 154.667 24.333 242 73l49 -84c-104 -56 -201 -84 -291 -84c-68 0 -130.333 11 -187 33s-105.5 52.833 -146.5 92.5
s-72.833 87 -95.5 142s-34 115.5 -34 181.5zM386.997 244.996c0 -35.333 9.16699 -64 27.5 -86s41.5 -33 69.5 -33c26.667 0 47.834 9 63.501 27s23.5 40.333 23.5 67v50c0 27.333 -7.83301 49.833 -23.5 67.5s-36.834 26.5 -63.501 26.5c-28 0 -51.167 -11 -69.5 -33
s-27.5 -50.667 -27.5 -86z" />
    <glyph glyph-name="A" unicode="A" horiz-adv-x="681" 
d="M279 672h123l275 -672h-134l-62 160h-281l-62 -160h-134zM236 257h210l-105 269z" />
    <glyph glyph-name="B" unicode="B" horiz-adv-x="660" 
d="M84 672l293 0.00195312c31.333 0 60 -4.33301 86 -13s48.5 -20.834 67.5 -36.501s33.667 -34.5 44 -56.5s15.5 -46 15.5 -72c0 -34 -8.5 -63.333 -25.5 -88s-39.5 -43.334 -67.5 -56.001c36 -12.667 64.5 -33.5 85.5 -62.5s31.5 -62.833 31.5 -101.5
c0 -27.333 -5.5 -52.5 -16.5 -75.5s-26.333 -42.667 -46 -59s-43 -29 -70 -38s-56.5 -13.5 -88.5 -13.5h-309v672zM212 97.002h160c33.333 0 60.166 9.5 80.499 28.5s30.5 43.5 30.5 73.5s-10.167 54.333 -30.5 73s-47.166 28 -80.499 28h-160v-203zM212 388.002h147
c30 0 54.667 8.5 74 25.5s29 39.5 29 67.5s-9.66699 50.667 -29 68s-44 26 -74 26h-147v-187z" />
    <glyph glyph-name="C" unicode="C" horiz-adv-x="650" 
d="M39 336c0 51.333 8.33301 98.333 25 141s40.334 79.334 71.001 110.001s67 54.5 109 71.5s88.667 25.5 140 25.5c40.667 0 81.5 -6.33301 122.5 -19s80.5 -31.667 118.5 -57l-54 -89c-28 19.333 -56 34 -84 44s-56.667 15 -86 15c-33.333 0 -64 -5.83301 -92 -17.5
s-52 -28.167 -72 -49.5s-35.5 -46.833 -46.5 -76.5s-16.5 -62.5 -16.5 -98.5s5.5 -68.833 16.5 -98.5s26.5 -55.167 46.5 -76.5s44 -37.833 72 -49.5s58.667 -17.5 92 -17.5c29.333 0 58 5 86 15s56 24.667 84 44l54 -89c-38 -25.333 -77.5 -44.333 -118.5 -57
s-81.833 -19 -122.5 -19c-51.333 0 -98 8.5 -140 25.5s-78.333 41 -109 72s-54.334 67.667 -71.001 110s-25 89.166 -25 140.499z" />
    <glyph glyph-name="D" unicode="D" horiz-adv-x="729" 
d="M84 672l261 -0.00292969c51.333 0 98.333 -8.16699 141 -24.5s79.167 -39.166 109.5 -68.499s53.833 -64.666 70.5 -105.999s25 -87 25 -137c0 -49.333 -8.33301 -94.666 -25 -135.999s-40.167 -76.833 -70.5 -106.5s-66.833 -52.667 -109.5 -69
s-89.667 -24.5 -141 -24.5h-261v672zM555 335.997c0 34 -5.5 65.3291 -16.5 93.9961s-26.5 53.334 -46.5 74.001s-43.833 36.834 -71.5 48.501s-58.167 17.5 -91.5 17.5h-112v-468h112c33.333 0 63.833 5.83301 91.5 17.5s51.5 27.834 71.5 48.501s35.5 45.334 46.5 74.001
s16.5 60 16.5 94z" />
    <glyph glyph-name="E" unicode="E" horiz-adv-x="602" 
d="M84 672h459v-100h-326v-179h294v-98h-294v-195h342v-100h-475v672z" />
    <glyph glyph-name="F" unicode="F" horiz-adv-x="586" 
d="M84 672h459v-102h-326v-201h294v-103h-294v-266h-133v672z" />
    <glyph glyph-name="G" unicode="G" horiz-adv-x="713" 
d="M654 45c-42 -18 -83.832 -31.999 -125.499 -41.999s-84.5 -15 -128.5 -15c-53.333 0 -102.166 8.5 -146.499 25.5s-82.333 41 -114 72s-56.334 67.667 -74.001 110s-26.5 89.166 -26.5 140.499c0 50.667 8.66699 97.334 26 140.001s41.5 79.5 72.5 110.5
s68.167 55 111.5 72s91 25.5 143 25.5c41.333 0 82.666 -5.83301 123.999 -17.5s83 -28.834 125 -51.501l-49 -89c-33.333 17.333 -65 31 -95 41s-60 15 -90 15c-35.333 0 -67.5 -6 -96.5 -18s-54 -29 -75 -51s-37.333 -48 -49 -78s-17.5 -63 -17.5 -99
c0 -36.667 5.83301 -70 17.5 -100s28.167 -55.833 49.5 -77.5s46.833 -38.5 76.5 -50.5s62.167 -18 97.5 -18c42 0 82.333 8.33301 121 25v158h-151v98h274v-326z" />
    <glyph glyph-name="H" unicode="H" horiz-adv-x="777" 
d="M84 672h133v-277h343v277h133v-672h-133v293h-343v-293h-133v672z" />
    <glyph glyph-name="I" unicode="I" horiz-adv-x="302" 
d="M84 672h133v-672h-133v672z" />
    <glyph glyph-name="J" unicode="J" horiz-adv-x="546" 
d="M241 -12c-52.667 0 -98.332 11.8301 -136.999 35.4971s-68.334 54.5 -89.001 92.5l94 58c16 -23.333 34.833 -42.166 56.5 -56.499s45.5 -21.5 71.5 -21.5c30 0 53.167 9.66699 69.5 29s24.5 47 24.5 83v464h133v-477c0 -30 -4.83301 -57.667 -14.5 -83
s-24 -47.166 -43 -65.499s-42.333 -32.666 -70 -42.999s-59.5 -15.5 -95.5 -15.5z" />
    <glyph glyph-name="K" unicode="K" horiz-adv-x="681" 
d="M84 672h128v-319l297 319h153l-296 -314l310 -358h-156l-243 280l-65 -68v-212h-128v672z" />
    <glyph glyph-name="L" unicode="L" horiz-adv-x="538" 
d="M84 672h133v-570h299v-102h-432v672z" />
    <glyph glyph-name="M" unicode="M" horiz-adv-x="865" 
d="M84 672h129l220 -302l219 302h129v-672h-123v490l-188 -259h-74l-189 259v-490h-123v672z" />
    <glyph glyph-name="N" unicode="N" horiz-adv-x="777" 
d="M84 672h129l357 -490v490h123v-672h-129l-357 490v-490h-123v672z" />
    <glyph glyph-name="O" unicode="O" horiz-adv-x="777" 
d="M39 336c0 50.667 8.5 97.334 25.5 140.001s41 79.5 72 110.5s68 55 111 72s90.167 25.5 141.5 25.5s98.333 -8.5 141 -25.5s79.5 -41 110.5 -72s55.167 -67.833 72.5 -110.5s26 -89.334 26 -140.001c0 -51.333 -8.66699 -98.166 -26 -140.499s-41.5 -79 -72.5 -110
s-67.833 -55 -110.5 -72s-89.667 -25.5 -141 -25.5s-98.5 8.5 -141.5 25.5s-80 41 -111 72s-55 67.667 -72 110s-25.5 89.166 -25.5 140.499zM174 336c0 -35.333 5.33301 -68 16 -98s25.5 -55.667 44.5 -77s41.667 -38 68 -50s55.166 -18 86.499 -18s60.166 6 86.499 18
s49 28.667 68 50s33.667 47 44 77s15.5 62.667 15.5 98s-5.16699 67.833 -15.5 97.5s-25 55.334 -44 77.001s-41.667 38.5 -68 50.5s-55.166 18 -86.499 18s-60.166 -6 -86.499 -18s-49 -28.833 -68 -50.5s-33.833 -47.334 -44.5 -77.001s-16 -62.167 -16 -97.5z" />
    <glyph glyph-name="P" unicode="P" horiz-adv-x="628" 
d="M84 672l275 -0.000976562c34.667 0 66.667 -5.5 96 -16.5s54.666 -26.167 75.999 -45.5s37.833 -42.666 49.5 -69.999s17.5 -57 17.5 -89c0 -32.667 -5.83301 -62.5 -17.5 -89.5s-28.167 -50.333 -49.5 -70s-46.666 -35 -75.999 -46s-61.333 -16.5 -96 -16.5h-147v-229
h-128v672zM212 331.999h127c38 0 68.833 11 92.5 33s35.5 50.667 35.5 86c0 34.667 -11.833 63.167 -35.5 85.5s-54.5 33.5 -92.5 33.5h-127v-238z" />
    <glyph glyph-name="Q" unicode="Q" horiz-adv-x="777" 
d="M39 336c0 50.667 8.5 97.335 25.5 140.002s41 79.5 72 110.5s68 55 111 72s90.167 25.5 141.5 25.5s98.333 -8.5 141 -25.5s79.5 -41 110.5 -72s55.167 -67.833 72.5 -110.5s26 -89.334 26 -140.001c0 -63.333 -12.833 -119.333 -38.5 -168s-60.5 -88 -104.5 -118
l149 -107l-65 -81l-191 140c-32 -9.33301 -65.333 -14 -100 -14c-51.333 0 -98.5 8.5 -141.5 25.5s-80 41 -111 72s-55 67.667 -72 110s-25.5 89.166 -25.5 140.499zM174 336.001c0 -35.333 5.33301 -68 16 -98s25.5 -55.667 44.5 -77s41.667 -38 68 -50
s55.166 -18 86.499 -18s60.166 6 86.499 18s49 28.667 68 50s33.667 47 44 77s15.5 62.667 15.5 98s-5.16699 67.833 -15.5 97.5s-25 55.334 -44 77.001s-41.667 38.5 -68 50.5s-55.166 18 -86.499 18s-60.166 -6 -86.499 -18s-49 -28.833 -68 -50.5
s-33.833 -47.334 -44.5 -77.001s-16 -62.167 -16 -97.5z" />
    <glyph glyph-name="R" unicode="R" horiz-adv-x="660" 
d="M84 672h280c34 0 65 -5.16699 93 -15.5s52.333 -24.833 73 -43.5s36.667 -41 48 -67s17 -54.333 17 -85c0 -50 -14 -92.667 -42 -128s-65.667 -58 -113 -68l184 -265h-145l-163 245h-104v-245h-128v672zM212 348l132 -0.000976562c35.333 0 64.166 10 86.499 30
s33.5 47 33.5 81c0 32.667 -11.167 59.334 -33.5 80.001s-51.166 31 -86.499 31h-132v-222z" />
    <glyph glyph-name="S" unicode="S" horiz-adv-x="588" 
d="M45 492c0 28.667 5.99805 54.668 17.998 78.001s29 43.5 51 60.5s48.333 30.167 79 39.5s64.334 14 101.001 14s73.834 -4 111.501 -12s76.834 -19.667 117.501 -35l-30 -99c-68.667 27.333 -131.667 41 -189 41c-39.333 0 -70.5 -7.83301 -93.5 -23.5
s-34.5 -36.834 -34.5 -63.501c0 -18 5.33301 -32.667 16 -44s24.667 -20.833 42 -28.5s37.166 -14.334 59.499 -20.001s45 -11.834 68 -18.501s45.667 -14.667 68 -24s42.166 -21.5 59.499 -36.5s31.333 -33.5 42 -55.5s16 -49 16 -81c0 -29.333 -6.16699 -56 -18.5 -80
s-29.666 -44.667 -51.999 -62s-49 -30.666 -80 -39.999s-65.167 -14 -102.5 -14c-38.667 0 -79 4.33301 -121 13s-86 22.667 -132 42l30 99c39.333 -15.333 77 -27.333 113 -36s69.333 -13 100 -13c41.333 0 73.833 8.16699 97.5 24.5s35.5 38.5 35.5 66.5
c0 24.667 -9.16699 43.5 -27.5 56.5s-41.333 24 -69 33s-57.5 17.5 -89.5 25.5s-61.833 19.333 -89.5 34s-50.667 34.334 -69 59.001s-27.5 58 -27.5 100z" />
    <glyph glyph-name="T" unicode="T" horiz-adv-x="602" 
d="M235 570h-213v102h558v-102h-212v-570h-133v570z" />
    <glyph glyph-name="U" unicode="U" horiz-adv-x="777" 
d="M701 263c0 -40.667 -7.83203 -77.834 -23.499 -111.501s-37.334 -62.667 -65.001 -87s-60.5 -43.166 -98.5 -56.499s-79.667 -20 -125 -20s-87.166 6.66699 -125.499 20s-71.333 32.166 -99 56.499s-49.334 53.333 -65.001 87s-23.5 70.834 -23.5 111.501v409h133v-404
c0 -26 4.5 -49.667 13.5 -71s21.5 -39.666 37.5 -54.999s35 -27.333 57 -36s46 -13 72 -13s50 4.33301 72 13s40.833 20.667 56.5 36s28 33.666 37 54.999s13.5 45 13.5 71v404h133v-409z" />
    <glyph glyph-name="V" unicode="V" horiz-adv-x="681" 
d="M402 0h-123l-275 672h139l198 -511l197 511h139z" />
    <glyph glyph-name="W" unicode="W" horiz-adv-x="1017" 
d="M787 0h-130l-148 511l-149 -511h-130l-214 672h134l148 -511l149 511h124l148 -511l149 511h133z" />
    <glyph glyph-name="X" unicode="X" horiz-adv-x="689" 
d="M260 344l-238 328h147l176 -244l175 244h147l-237 -328l249 -344h-150l-184 260l-185 -260h-150z" />
    <glyph glyph-name="Y" unicode="Y" horiz-adv-x="617" 
d="M242 273l-246 399h145l167 -281l168 281h144l-245 -399v-273h-133v273z" />
    <glyph glyph-name="Z" unicode="Z" horiz-adv-x="636" 
d="M41 76l371 494h-359v102h530v-76l-371 -494h383v-102h-554v76z" />
    <glyph glyph-name="bracketleft" unicode="[" horiz-adv-x="351" 
d="M87 714h236v-102h-118v-648h118v-102h-236v852z" />
    <glyph glyph-name="backslash" unicode="\" horiz-adv-x="384" 
d="M-9 693l102 32l300 -842l-102 -32z" />
    <glyph glyph-name="bracketright" unicode="]" horiz-adv-x="351" 
d="M263 -138h-235v102h117v648h-117v102h235v-852z" />
    <glyph glyph-name="asciicircum" unicode="^" horiz-adv-x="576" 
d="M342 672l208 -467l-102 -38l-160 360l-160 -360l-102 38l208 467h108z" />
    <glyph glyph-name="underscore" unicode="_" horiz-adv-x="480" 
d="M0 -79h480v-98h-480v98z" />
    <glyph glyph-name="grave" unicode="`" horiz-adv-x="240" 
d="M211 605l-49 -70l-193 117l57 82z" />
    <glyph glyph-name="a" unicode="a" horiz-adv-x="551" 
d="M36 142c0 52 19.834 92.1602 59.501 120.493s95.167 42.5 166.5 42.5c15.333 0 31 -0.833008 47 -2.5s32 -4.16699 48 -7.5v26c0 25.333 -9.16699 46 -27.5 62s-42.833 24 -73.5 24c-49.333 0 -103 -11.667 -161 -35l-32 89c71.333 27.333 140.666 41 207.999 41
c30.667 0 58.667 -4.5 84 -13.5s47 -21.5 65 -37.5s32 -35.167 42 -57.5s15 -47.166 15 -74.499v-199c0 -10.667 3 -19.167 9 -25.5s14.333 -9.5 25 -9.5c5.33301 0 10.333 0.333008 15 1s8 1.33398 10 2.00098l9 -93c-10.667 -2 -21.667 -3.66699 -33 -5s-23 -2 -35 -2
c-25.333 0 -47 5.83301 -65 17.5s-31.333 27.834 -40 48.501c-21.333 -21.333 -46 -37.666 -74 -48.999s-57 -17 -87 -17c-25.333 0 -48.833 3.83301 -70.5 11.5s-40.167 18.334 -55.5 32.001s-27.333 29.834 -36 48.501s-13 39.334 -13 62.001zM159.001 148.993
c0 -20 8.16797 -36.833 24.501 -50.5s36.5 -20.5 60.5 -20.5c34 0 61.333 10.5 82 31.5s31 48.5 31 82.5v29c-24.667 6.66699 -51.334 10 -80.001 10c-36.667 0 -65.5 -7.33301 -86.5 -22s-31.5 -34.667 -31.5 -60z" />
    <glyph glyph-name="b" unicode="b" 
d="M65 704l128.001 0.00195312v-269c17.333 21.333 38.666 37.833 63.999 49.5s53 17.5 83 17.5c32.667 0 62.834 -6.33301 90.501 -19s51.5 -30.334 71.5 -53.001s35.5 -49.667 46.5 -81s16.5 -66 16.5 -104s-5.5 -72.667 -16.5 -104s-26.5 -58.333 -46.5 -81
s-43.833 -40.334 -71.5 -53.001s-57.834 -19 -90.501 -19s-62.5 6.5 -89.5 19.5s-49.5 31.5 -67.5 55.5l-16 -63h-102v704zM435.001 245.002c0 22.667 -3.16699 43.666 -9.5 62.999s-15.166 35.833 -26.499 49.5s-24.833 24.334 -40.5 32.001s-32.834 11.5 -51.501 11.5
c-34 0 -61.833 -11.5 -83.5 -34.5s-32.5 -52.5 -32.5 -88.5v-66c0 -18 2.83301 -34.5 8.5 -49.5s13.667 -28 24 -39s22.5 -19.5 36.5 -25.5s29.667 -9 47 -9c18.667 0 35.834 3.83301 51.501 11.5s29.167 18.5 40.5 32.5s20.166 30.5 26.499 49.5s9.5 39.833 9.5 62.5z" />
    <glyph glyph-name="c" unicode="c" horiz-adv-x="500" 
d="M36 245c0 38 6.33301 72.667 19 104s30.5 58.333 53.5 81s50.333 40.334 82 53.001s66.5 19 104.5 19c66 0 128.667 -19 188 -57l-52 -86c-19.333 13.333 -38.666 23.5 -57.999 30.5s-39.333 10.5 -60 10.5c-21.333 0 -41 -3.83301 -59 -11.5
s-33.5 -18.334 -46.5 -32.001s-23.167 -30 -30.5 -49s-11 -39.833 -11 -62.5s3.66699 -43.5 11 -62.5s17.5 -35.333 30.5 -49s28.5 -24.334 46.5 -32.001s37.667 -11.5 59 -11.5c20.667 0 40.667 3.66699 60 11s38.666 17.666 57.999 30.999l52 -87
c-59.333 -38 -122 -57 -188 -57c-38 0 -72.833 6.33301 -104.5 19s-59 30.334 -82 53.001s-40.833 49.834 -53.5 81.501s-19 66.167 -19 103.5z" />
    <glyph glyph-name="d" unicode="d" 
d="M535 0l-102 -0.00195312l-16 63c-18 -24 -40.333 -42.5 -67 -55.5s-56.667 -19.5 -90 -19.5c-32.667 0 -62.667 6.33301 -90 19s-51 30.334 -71 53.001s-35.5 49.667 -46.5 81s-16.5 66 -16.5 104s5.5 72.667 16.5 104s26.5 58.333 46.5 81s43.667 40.334 71 53.001
s57.333 19 90 19c30.667 0 58.5 -5.83301 83.5 -17.5s46.167 -28.167 63.5 -49.5v269h128v-704zM166 244.998c0 -22.667 3.16699 -43.499 9.5 -62.499s15.166 -35.5 26.499 -49.5s24.666 -24.833 39.999 -32.5s32.333 -11.5 51 -11.5c34.667 0 62.834 11.5 84.501 34.5
s32.5 52.5 32.5 88.5v66c0 36 -10.833 65.5 -32.5 88.5s-49.834 34.5 -84.501 34.5c-18.667 0 -35.667 -3.83301 -51 -11.5s-28.666 -18.334 -39.999 -32.001s-20.166 -30.167 -26.499 -49.5s-9.5 -40.333 -9.5 -63z" />
    <glyph glyph-name="e" unicode="e" horiz-adv-x="551" 
d="M36 245c0 38 6.16504 72.666 18.498 103.999s29.5 58.333 51.5 81s48.333 40.334 79 53.001s64.667 19 102 19c34.667 0 66.5 -6 95.5 -18s53.833 -29 74.5 -51s36.834 -48.167 48.501 -78.5s17.5 -63.833 17.5 -100.5c0 -7.33301 -0.166992 -14.333 -0.5 -21
s-0.833008 -13.334 -1.5 -20.001h-357c4.66699 -39.333 21.167 -70.833 49.5 -94.5s63.5 -35.5 105.5 -35.5c21.333 0 43.833 3.33301 67.5 10s48.167 17 73.5 31l39 -87c-34.667 -17.333 -68.667 -29.833 -102 -37.5s-64.666 -11.5 -93.999 -11.5
c-39.333 0 -75.5 6.33301 -108.5 19s-61.167 30.334 -84.5 53.001s-41.5 49.667 -54.5 81s-19.5 66 -19.5 104zM286.998 406.999c-33.333 0 -61.167 -10.667 -83.5 -32s-35.5 -49.666 -39.5 -84.999h236c-2 35.333 -13.333 63.666 -34 84.999s-47 32 -79 32z" />
    <glyph glyph-name="f" unicode="f" horiz-adv-x="383" 
d="M113 393l-90.999 0.00195312v97h91v68c0 23.333 4 44.666 12 63.999s19.333 36 34 50s32.167 24.833 52.5 32.5s42.833 11.5 67.5 11.5c34.667 0 71.667 -5 111 -15l-17 -96c-23.333 6 -44.333 9 -63 9c-20.667 0 -37.334 -6.33301 -50.001 -19s-19 -29.334 -19 -50.001
v-55h120v-97h-120v-393h-128v393z" />
    <glyph glyph-name="g" unicode="g" 
d="M535 9c0 -33.333 -6.49902 -64.002 -19.499 -92.002s-31.333 -52.167 -55 -72.5s-51.667 -36.166 -84 -47.499s-67.5 -17 -105.5 -17c-32 0 -65.333 3.66699 -100 11s-70.667 18.666 -108 33.999l35 95c31.333 -14 60.666 -24.167 87.999 -30.5s52.333 -9.5 75 -9.5
c43.333 0 78.5 11.5 105.5 34.5s40.5 52.833 40.5 89.5v52c-36 -45.333 -85 -68 -147 -68c-32.667 0 -62.667 6.33301 -90 19s-51 30.334 -71 53.001s-35.5 49.667 -46.5 81s-16.5 66 -16.5 104s5.5 72.667 16.5 104s26.5 58.333 46.5 81s43.667 40.334 71 53.001
s57.333 19 90 19c33.333 0 63.333 -6.5 90 -19.5s49 -31.5 67 -55.5l16 63h102v-481zM166.001 244.998c0 -22.667 3.16699 -43.499 9.5 -62.499s15.166 -35.5 26.499 -49.5s24.666 -24.833 39.999 -32.5s32.333 -11.5 51 -11.5c34.667 0 62.834 11.5 84.501 34.5
s32.5 52.5 32.5 88.5v66c0 36 -10.833 65.5 -32.5 88.5s-49.834 34.5 -84.501 34.5c-18.667 0 -35.667 -3.83301 -51 -11.5s-28.666 -18.334 -39.999 -32.001s-20.166 -30.167 -26.499 -49.5s-9.5 -40.333 -9.5 -63z" />
    <glyph glyph-name="h" unicode="h" 
d="M65 704l128.001 -0.000976562v-277c17.333 24 39.833 42.5 67.5 55.5s58.167 19.5 91.5 19.5c28 0 53.667 -4.66699 77 -14s43.5 -22.166 60.5 -38.499s30.167 -36 39.5 -59s14 -48.167 14 -75.5v-315h-128v295c0 30 -9.5 54.5 -28.5 73.5s-43.5 28.5 -73.5 28.5
c-34.667 0 -63.334 -11.667 -86.001 -35s-34 -54 -34 -92v-270h-128v704z" />
    <glyph glyph-name="i" unicode="i" horiz-adv-x="259" 
d="M65 490h128v-490h-128v490zM53 630c0 22.667 7.16699 41.167 21.5 55.5s32.5 21.5 54.5 21.5c22.667 0 41.167 -7.16699 55.5 -21.5s21.5 -32.833 21.5 -55.5s-7.16699 -41.167 -21.5 -55.5s-32.833 -21.5 -55.5 -21.5c-22 0 -40.167 7.16699 -54.5 21.5
s-21.5 32.833 -21.5 55.5z" />
    <glyph glyph-name="j" unicode="j" horiz-adv-x="267" 
d="M201 -62c0 -23.333 -4 -44.668 -12 -64.001s-19.333 -36 -34 -50s-32 -24.833 -52 -32.5s-42.333 -11.5 -67 -11.5c-35.333 0 -72.333 5 -111 15l17 96c22.667 -6 43.667 -9 63 -9c20.667 0 37.167 6.33301 49.5 19s18.5 29.334 18.5 50.001v539h128v-552zM61 629.998
c0 22.667 7.16699 41.167 21.5 55.5s32.5 21.5 54.5 21.5c22.667 0 41.167 -7.16699 55.5 -21.5s21.5 -32.833 21.5 -55.5s-7.16699 -41.167 -21.5 -55.5s-32.833 -21.5 -55.5 -21.5c-22 0 -40.167 7.16699 -54.5 21.5s-21.5 32.833 -21.5 55.5z" />
    <glyph glyph-name="k" unicode="k" horiz-adv-x="531" 
d="M65 704h123v-423l187 209h146l-211 -229l219 -261h-148l-154 186l-39 -40v-146h-123v704z" />
    <glyph glyph-name="l" unicode="l" horiz-adv-x="307" 
d="M193 140c0 -15.333 4.49902 -27.5 13.499 -36.5s21.167 -13.5 36.5 -13.5c6 0 12.833 0.666992 20.5 2l23.5 4l14 -97c-33.333 -7.33301 -63 -11 -89 -11c-45.333 0 -81.166 12.5 -107.499 37.5s-39.5 58.833 -39.5 101.5v577h128v-564z" />
    <glyph glyph-name="m" unicode="m" horiz-adv-x="919" 
d="M65 490l102 0.000976562l16 -67c19.333 25.333 42.833 44.833 70.5 58.5s57.834 20.5 90.501 20.5c36 0 67.667 -8 95 -24s48 -38 62 -66c22.667 29.333 48.834 51.666 78.501 66.999s62.5 23 98.5 23c26.667 0 51.167 -4.33301 73.5 -13s41.666 -21 57.999 -37
s29 -35 38 -57s13.5 -46 13.5 -72v-323h-128v303c0 28 -8.83301 50.667 -26.5 68s-40.5 26 -68.5 26c-32.667 0 -59.334 -11 -80.001 -33s-31 -50.667 -31 -86v-278h-128v303c0 28 -8.66699 50.667 -26 68s-40 26 -68 26c-33.333 0 -60.333 -11 -81 -33s-31 -50.667 -31 -86
v-278h-128v490z" />
    <glyph glyph-name="n" unicode="n" 
d="M65 490l102.001 -0.000976562l16 -71c18.667 26.667 42.5 47.167 71.5 61.5s61.5 21.5 97.5 21.5c28 0 53.667 -4.66699 77 -14s43.5 -22.166 60.5 -38.499s30.167 -36 39.5 -59s14 -48.167 14 -75.5v-315h-128v295c0 30 -9.5 54.5 -28.5 73.5s-43.5 28.5 -73.5 28.5
c-34.667 0 -63.334 -11.667 -86.001 -35s-34 -54 -34 -92v-270h-128v490z" />
    <glyph glyph-name="o" unicode="o" 
d="M36 245c0 38 6.5 72.667 19.5 104s31.167 58.333 54.5 81s51.166 40.334 83.499 53.001s67.833 19 106.5 19s74.334 -6.33301 107.001 -19s60.667 -30.334 84 -53.001s41.5 -49.667 54.5 -81s19.5 -66 19.5 -104s-6.5 -72.667 -19.5 -104s-31.167 -58.333 -54.5 -81
s-51.333 -40.334 -84 -53.001s-68.334 -19 -107.001 -19s-74.167 6.33301 -106.5 19s-60.166 30.334 -83.499 53.001s-41.5 49.667 -54.5 81s-19.5 66 -19.5 104zM166 245c0 -23.333 3.33301 -44.5 10 -63.5s16 -35.5 28 -49.5s26.167 -24.833 42.5 -32.5
s34.166 -11.5 53.499 -11.5c20 0 38.167 3.83301 54.5 11.5s30.5 18.5 42.5 32.5s21.333 30.5 28 49.5s10 40.167 10 63.5s-3.33301 44.666 -10 63.999s-16 35.833 -28 49.5s-26.167 24.334 -42.5 32.001s-34.5 11.5 -54.5 11.5c-19.333 0 -37.166 -3.83301 -53.499 -11.5
s-30.5 -18.334 -42.5 -32.001s-21.333 -30.167 -28 -49.5s-10 -40.666 -10 -63.999z" />
    <glyph glyph-name="p" unicode="p" 
d="M65 490l101.999 0.00195312l16 -63c18 24 40.5 42.5 67.5 55.5s56.833 19.5 89.5 19.5s62.834 -6.33301 90.501 -19s51.5 -30.334 71.5 -53.001s35.5 -49.667 46.5 -81s16.5 -66 16.5 -104s-5.5 -72.667 -16.5 -104s-26.5 -58.333 -46.5 -81
s-43.833 -40.334 -71.5 -53.001s-57.834 -19 -90.501 -19c-30 0 -57.667 5.83301 -83 17.5s-46.666 28.5 -63.999 50.5v-264h-128v698zM434.999 245.002c0 22.667 -3.16699 43.666 -9.5 62.999s-15.166 35.833 -26.499 49.5s-24.833 24.334 -40.5 32.001
s-32.834 11.5 -51.501 11.5c-34 0 -61.833 -11.5 -83.5 -34.5s-32.5 -52.5 -32.5 -88.5v-66c0 -18 2.83301 -34.5 8.5 -49.5s13.667 -28 24 -39s22.5 -19.5 36.5 -25.5s29.667 -9 47 -9c18.667 0 35.834 3.83301 51.501 11.5s29.167 18.5 40.5 32.5s20.166 30.5 26.499 49.5
s9.5 39.833 9.5 62.5z" />
    <glyph glyph-name="q" unicode="q" 
d="M535 -208l-128 -0.00195312v264c-36 -45.333 -85 -68 -147 -68c-32.667 0 -62.667 6.33301 -90 19s-51 30.334 -71 53.001s-35.5 49.667 -46.5 81s-16.5 66 -16.5 104s5.5 72.667 16.5 104s26.5 58.333 46.5 81s43.667 40.334 71 53.001s57.333 19 90 19
c33.333 0 63.333 -6.5 90 -19.5s49 -31.5 67 -55.5l16 63h102v-698zM166 244.998c0 -22.667 3.16699 -43.499 9.5 -62.499s15.166 -35.5 26.499 -49.5s24.666 -24.833 39.999 -32.5s32.333 -11.5 51 -11.5c34.667 0 62.834 11.5 84.501 34.5s32.5 52.5 32.5 88.5v66
c0 36 -10.833 65.5 -32.5 88.5s-49.834 34.5 -84.501 34.5c-18.667 0 -35.667 -3.83301 -51 -11.5s-28.666 -18.334 -39.999 -32.001s-20.166 -30.167 -26.499 -49.5s-9.5 -40.333 -9.5 -63z" />
    <glyph glyph-name="r" unicode="r" horiz-adv-x="401" 
d="M65 490l102 -0.000976562l16 -76c14 26.667 33.667 47.334 59 62.001s54 22 86 22c8.66699 0 18.167 -0.5 28.5 -1.5s20.5 -2.83301 30.5 -5.5l-12 -102c-8.66699 2 -18 3.66699 -28 5s-19.667 2 -29 2c-38 0 -68.333 -13.333 -91 -40s-34 -61 -34 -103v-253h-128v490z
" />
    <glyph glyph-name="s" unicode="s" horiz-adv-x="463" 
d="M40 354c0 21.333 4.66406 41.1689 13.9971 59.502s22.333 34 39 47s36.834 23.167 60.501 30.5s49.5 11 77.5 11c28.667 0 58 -2.83301 88 -8.5s60.667 -14.167 92 -25.5l-28 -92c-24.667 9.33301 -49 16.833 -73 22.5s-47 8.5 -69 8.5
c-23.333 0 -41.833 -4.83301 -55.5 -14.5s-20.5 -22.5 -20.5 -38.5c0 -14.667 6.5 -25.834 19.5 -33.501s29.167 -14.167 48.5 -19.5s40.333 -10.666 63 -15.999s43.667 -13.5 63 -24.5s35.5 -26 48.5 -45s19.5 -44.167 19.5 -75.5c0 -22 -4.83301 -42.333 -14.5 -61
s-23 -34.834 -40 -48.501s-37.667 -24.167 -62 -31.5s-50.833 -11 -79.5 -11c-61.333 0 -126.333 13 -195 39l27 91c58 -23.333 110.667 -35 158 -35c24.667 0 44.167 5.16699 58.5 15.5s21.5 24.166 21.5 41.499c0 15.333 -6.5 27 -19.5 35s-29.167 14.833 -48.5 20.5
s-40.166 11.167 -62.499 16.5s-43.166 13.5 -62.499 24.5s-35.5 25.5 -48.5 43.5s-19.5 42.667 -19.5 74z" />
    <glyph glyph-name="t" unicode="t" horiz-adv-x="415" 
d="M241 490l135.999 0.00195312v-97h-136v-234c0 -20.667 6.33301 -37.334 19 -50.001s29.334 -19 50.001 -19c18.667 0 39.667 3 63 9l17 -96c-39.333 -10 -76.333 -15 -111 -15c-24.667 0 -47.167 3.83301 -67.5 11.5s-37.833 18.5 -52.5 32.5s-26 30.667 -34 50
s-12 40.666 -12 63.999v247h-91v97h91v144h128v-144z" />
    <glyph glyph-name="u" unicode="u" 
d="M535 0h-102l-16 71c-18 -26.667 -41.5 -47.167 -70.5 -61.5s-61.5 -21.5 -97.5 -21.5c-28 0 -53.833 4.5 -77.5 13.5s-44 21.833 -61 38.5s-30.167 36.5 -39.5 59.5s-14 48.167 -14 75.5v315h128v-294c0 -30.667 9.66699 -55.5 29 -74.5s44 -28.5 74 -28.5
c34.667 0 63.167 11.667 85.5 35s33.5 54 33.5 92v270h128v-490z" />
    <glyph glyph-name="v" unicode="v" horiz-adv-x="537" 
d="M327 0h-118l-200 490h134l125 -345l126 345h133z" />
    <glyph glyph-name="w" unicode="w" horiz-adv-x="793" 
d="M616 0h-124l-96 344l-95 -344h-124l-160 490h129l95 -344l96 344h119l95 -344l96 344h128z" />
    <glyph glyph-name="x" unicode="x" horiz-adv-x="537" 
d="M186 251l-171 239h142l111 -159l111 159h142l-170 -239l178 -251h-144l-117 171l-116 -171h-145z" />
    <glyph glyph-name="y" unicode="y" horiz-adv-x="537" 
d="M309 -55c-22 -56 -48.832 -97.501 -80.499 -124.501s-70.167 -40.5 -115.5 -40.5c-22.667 0 -48 3 -76 9l17 100c8.66699 -2 17 -3.66699 25 -5s15.333 -2 22 -2c22 0 40.167 6.33301 54.5 19s27.166 33.334 38.499 62.001l17 43l-202 484h134l127 -345l124 345h133z" />
    <glyph glyph-name="z" unicode="z" horiz-adv-x="495" 
d="M36 71l249 322h-241v97h407v-70l-249 -323h257v-97h-423v71z" />
    <glyph glyph-name="braceleft" unicode="{" horiz-adv-x="351" 
d="M17 339l16 0.00195312c22 0 40.167 6.83301 54.5 20.5s21.5 30.5 21.5 50.5c0 23.333 -1.83301 46.333 -5.5 69s-5.5 45.667 -5.5 69c0 24 4.5 46.167 13.5 66.5s21.333 37.833 37 52.5s34.334 26.167 56.001 34.5s45.5 12.5 71.5 12.5h47v-102h-16
c-25.333 0 -46.333 -8.33301 -63 -25s-25 -38 -25 -64c0 -20 1.33301 -40.333 4 -61s4 -41.334 4 -62.001c0 -26.667 -6.5 -50 -19.5 -70s-32.167 -34 -57.5 -42c25.333 -8 44.5 -22 57.5 -42s19.5 -43.333 19.5 -70c0 -20.667 -1.33301 -41.334 -4 -62.001s-4 -41 -4 -61
c0 -26 8.33301 -47.333 25 -64s37.667 -25 63 -25h16v-102h-47c-26 0 -49.833 4.16699 -71.5 12.5s-40.334 19.833 -56.001 34.5s-28 32.167 -37 52.5s-13.5 42.5 -13.5 66.5c0 23.333 1.83301 46.333 5.5 69s5.5 45.667 5.5 69c0 20 -7.16699 36.833 -21.5 50.5
s-32.5 20.5 -54.5 20.5h-16v102z" />
    <glyph glyph-name="bar" unicode="|" horiz-adv-x="240" 
d="M66 736h108v-960h-108v960z" />
    <glyph glyph-name="braceright" unicode="}" horiz-adv-x="351" 
d="M333 237l-16 -0.00195312c-21.333 0 -39.333 -6.83301 -54 -20.5s-22 -30.5 -22 -50.5c0 -23.333 1.83301 -46.333 5.5 -69s5.5 -45.667 5.5 -69c0 -24 -4.5 -46.167 -13.5 -66.5s-21.333 -37.833 -37 -52.5s-34.334 -26.167 -56.001 -34.5s-45.5 -12.5 -71.5 -12.5h-46
v102h16c25.333 0 46.333 8.33301 63 25s25 38 25 64c0 20 -1.33301 40.333 -4 61s-4 41.334 -4 62.001c0 26.667 6.5 50 19.5 70s32.167 34 57.5 42c-25.333 8 -44.5 22 -57.5 42s-19.5 43.333 -19.5 70c0 20.667 1.33301 41.334 4 62.001s4 41 4 61
c0 26 -8.33301 47.333 -25 64s-37.667 25 -63 25h-16v102h46c26 0 49.833 -4.16699 71.5 -12.5s40.334 -19.833 56.001 -34.5s28 -32.167 37 -52.5s13.5 -42.5 13.5 -66.5c0 -23.333 -1.83301 -46.333 -5.5 -69s-5.5 -45.667 -5.5 -69c0 -20 7.16699 -36.833 21.5 -50.5
s32.5 -20.5 54.5 -20.5h16v-102z" />
    <glyph glyph-name="asciitilde" unicode="~" horiz-adv-x="576" 
d="M23 307c25.333 19.333 50.835 34 76.502 44s53.167 15 82.5 15c22.667 0 42.667 -2.5 60 -7.5s34 -10.5 50 -16.5s32.167 -11.5 48.5 -16.5s34.166 -7.5 53.499 -7.5c18.667 0 35.834 3.16699 51.501 9.5s32.167 17.166 49.5 32.499l58 -91
c-25.333 -19.333 -50.833 -34 -76.5 -44s-53.167 -15 -82.5 -15c-22.667 0 -42.834 2.5 -60.501 7.5s-34.5 10.5 -50.5 16.5s-32 11.5 -48 16.5s-33.667 7.5 -53 7.5c-18.667 0 -35.834 -3.16699 -51.501 -9.5s-32.167 -17.166 -49.5 -32.499z" />
    <glyph glyph-name="nonbreakingspace" unicode="&#xa0;" horiz-adv-x="240" 
 />
    <glyph glyph-name="exclamdown" unicode="&#xa1;" horiz-adv-x="281" 
d="M205 -182h-129l11 450h107zM217 424c0 -22.667 -7.16699 -41.167 -21.5 -55.5s-32.833 -21.5 -55.5 -21.5c-22 0 -40.167 7.16699 -54.5 21.5s-21.5 32.833 -21.5 55.5s7.16699 41.167 21.5 55.5s32.5 21.5 54.5 21.5c24 0 42.833 -7.16699 56.5 -21.5
s20.5 -32.833 20.5 -55.5z" />
    <glyph glyph-name="cent" unicode="&#xa2;" horiz-adv-x="548" 
d="M59 336c0 32 4.66699 61.8369 14 89.5039s22.333 52.167 39 73.5s36.834 39.333 60.501 54s50.167 25 79.5 31v152h108v-147c52 -5.33301 101 -23 147 -53l-52 -87c-20 13.333 -39.5 23.666 -58.5 30.999s-38.833 11 -59.5 11c-22 0 -42 -3.83301 -60 -11.5
s-33.5 -18.334 -46.5 -32.001s-23 -30 -30 -49s-10.5 -39.833 -10.5 -62.5s3.5 -43.5 10.5 -62.5s17 -35.333 30 -49s28.5 -24.334 46.5 -32.001s38 -11.5 60 -11.5c20.667 0 40.5 3.66699 59.5 11s38.5 17.666 58.5 30.999l52 -87c-23.333 -15.333 -47.333 -27.333 -72 -36
s-49.667 -14.667 -75 -18v-146h-108v151c-29.333 6 -55.833 16.5 -79.5 31.5s-43.834 33.167 -60.501 54.5s-29.667 45.833 -39 73.5s-14 57.5 -14 89.5z" />
    <glyph glyph-name="sterling" unicode="&#xa3;" horiz-adv-x="570" 
d="M57 100l91 -0.00195312v195h-75v98h75v91c0 29.333 5.33301 56.333 16 81s25.667 45.834 45 63.501s42.333 31.334 69 41.001s55.667 14.5 87 14.5c25.333 0 51.5 -2.83301 78.5 -8.5s55.5 -13.834 85.5 -24.501l-33 -95c-36.667 15.333 -72 23 -106 23
c-32 0 -58.167 -9.66699 -78.5 -29s-30.5 -44.666 -30.5 -75.999v-81h173v-98h-173v-195h248v-100h-472v100z" />
    <glyph glyph-name="currency" unicode="&#xa4;" horiz-adv-x="576" 
d="M32 156l78.001 78c-8 14.667 -14.333 30.5 -19 47.5s-7 35.167 -7 54.5s2.33301 37.5 7 54.5s11 32.5 19 46.5l-78 79l76 76l78 -79c29.333 18 63.333 27 102 27c38 0 71.667 -9 101 -27l79 79l76 -76l-79 -79c18 -29.333 27 -63 27 -101
c0 -19.333 -2.33301 -37.5 -7 -54.5s-11.334 -32.833 -20.001 -47.5l79 -78l-76 -76l-79 78c-29.333 -16.667 -63 -25 -101 -25s-72 8.33301 -102 25l-78 -78zM182.001 336c0 -31.333 9.83301 -56.833 29.5 -76.5s45.167 -29.5 76.5 -29.5s56.833 9.83301 76.5 29.5
s29.5 45.167 29.5 76.5s-9.83301 56.833 -29.5 76.5s-45.167 29.5 -76.5 29.5s-56.833 -9.83301 -76.5 -29.5s-29.5 -45.167 -29.5 -76.5z" />
    <glyph glyph-name="yen" unicode="&#xa5;" 
d="M233 128h-145v87h145v67h-145v87h113l-189 303h140l148 -259l148 259h140l-189 -303h113v-87h-145v-67h145v-87h-145v-128h-134v128z" />
    <glyph glyph-name="brokenbar" unicode="&#xa6;" horiz-adv-x="240" 
d="M174 688v-384h-108v384h108zM66 -176v384h108v-384h-108z" />
    <glyph glyph-name="section" unicode="&#xa7;" horiz-adv-x="543" 
d="M59 511c0 25.333 5.33301 48.6689 16 70.002s25.667 39.666 45 54.999s42.5 27.166 69.5 35.499s56.833 12.5 89.5 12.5s66 -3.66699 100 -11s69 -18 105 -32l-30 -99c-60.667 24.667 -115.667 37 -165 37c-32 0 -56.667 -6.16699 -74 -18.5s-26 -28.833 -26 -49.5
c0 -18 7.83301 -31.833 23.5 -41.5s35.167 -18 58.5 -25s48.5 -14.167 75.5 -21.5s52.167 -17.666 75.5 -30.999s42.833 -31.166 58.5 -53.499s23.5 -51.833 23.5 -88.5c0 -26 -6.16699 -49.667 -18.5 -71s-29.5 -39.666 -51.5 -54.999c16 -13.333 29 -29.5 39 -48.5
s15 -42.5 15 -70.5c0 -27.333 -5.5 -51.833 -16.5 -73.5s-26.333 -40.167 -46 -55.5s-43.334 -27.166 -71.001 -35.499s-58.167 -12.5 -91.5 -12.5c-34 0 -70 3.66699 -108 11s-76.667 18.666 -116 33.999l30 100c34 -12.667 66.5 -22.5 97.5 -29.5s59.833 -10.5 86.5 -10.5
c33.333 0 59 6.16699 77 18.5s27 30.166 27 53.499c0 18.667 -7.83301 33 -23.5 43s-35 18.833 -58 26.5s-48.167 15.167 -75.5 22.5s-52.5 17.666 -75.5 30.999s-42.333 30.666 -58 51.999s-23.5 50 -23.5 86c0 26 6.33301 49.833 19 71.5s30.667 39.5 54 53.5
c-17.333 13.333 -31.166 29.5 -41.499 48.5s-15.5 42.833 -15.5 71.5zM173 272.003c0 -16 4.49902 -29.002 13.499 -39.002s20.667 -18.333 35 -25s30.333 -12.334 48 -17.001s35.167 -10 52.5 -16c15.333 6.66699 27.666 16 36.999 28s14 25.667 14 41
c0 16 -4.33301 29 -13 39s-19.667 18.333 -33 25s-28.666 12.334 -45.999 17.001s-34.333 9.66699 -51 15c-17.333 -5.33301 -31.166 -14.166 -41.499 -26.499s-15.5 -26.166 -15.5 -41.499z" />
    <glyph glyph-name="dieresis" unicode="&#xa8;" horiz-adv-x="240" 
d="M-60 630c0 20.667 6.33301 37.334 19 50.001s29.334 19 50.001 19s37.334 -6.33301 50.001 -19s19 -29.334 19 -50.001s-6.33301 -37.334 -19 -50.001s-29.334 -19 -50.001 -19s-37.334 6.33301 -50.001 19s-19 29.334 -19 50.001zM162 630
c0 20.667 6.33301 37.334 19 50.001s29.334 19 50.001 19s37.334 -6.33301 50.001 -19s19 -29.334 19 -50.001s-6.33301 -37.334 -19 -50.001s-29.334 -19 -50.001 -19s-37.334 6.33301 -50.001 19s-19 29.334 -19 50.001z" />
    <glyph glyph-name="copyright" unicode="&#xa9;" horiz-adv-x="832" 
d="M48 336c0 54 9 103.5 27 148.5s43.333 83.833 76 116.5s71.5 58 116.5 76s94.5 27 148.5 27s103.5 -9 148.5 -27s83.833 -43.333 116.5 -76s58 -71.5 76 -116.5s27 -94.5 27 -148.5s-9 -103.5 -27 -148.5s-43.333 -83.833 -76 -116.5s-71.5 -58 -116.5 -76
s-94.5 -27 -148.5 -27s-103.5 9 -148.5 27s-83.833 43.333 -116.5 76s-58 71.5 -76 116.5s-27 94.5 -27 148.5zM115 336c0 -44 7.33301 -84.5 22 -121.5s35.334 -68.833 62.001 -95.5s58.5 -47.334 95.5 -62.001s77.5 -22 121.5 -22s84.5 7.33301 121.5 22
s68.833 35.334 95.5 62.001s47.334 58.5 62.001 95.5s22 77.5 22 121.5s-7.33301 84.5 -22 121.5s-35.334 68.833 -62.001 95.5s-58.5 47.334 -95.5 62.001s-77.5 22 -121.5 22s-84.5 -7.33301 -121.5 -22s-68.833 -35.334 -95.5 -62.001s-47.334 -58.5 -62.001 -95.5
s-22 -77.5 -22 -121.5zM212 336c0 31.333 5.16699 60.333 15.5 87s25 49.5 44 68.5s41.833 33.833 68.5 44.5s56 16 88 16c25.333 0 51.333 -4 78 -12s52 -20 76 -36l-40 -66c-32.667 22.667 -66.334 34 -101.001 34c-38.667 0 -70.167 -12.5 -94.5 -37.5
s-36.5 -57.833 -36.5 -98.5s12.167 -73.5 36.5 -98.5s55.833 -37.5 94.5 -37.5c34.667 0 68.334 11.333 101.001 34l40 -66c-24 -16 -49.333 -28 -76 -36s-52.667 -12 -78 -12c-32 0 -61.333 5.33301 -88 16s-49.5 25.5 -68.5 44.5s-33.667 41.833 -44 68.5
s-15.5 55.667 -15.5 87z" />
    <glyph glyph-name="ordfeminine" unicode="&#xaa;" horiz-adv-x="392" 
d="M22 284h349v-67h-349v67zM31 446c0 33.333 13.5 59.499 40.5 78.499s64.5 28.5 112.5 28.5c9.33301 0 19.166 -0.666992 29.499 -2s20.5 -3 30.5 -5v12c0 18 -5.83301 32.333 -17.5 43s-27.5 16 -47.5 16c-33.333 0 -69.333 -8 -108 -24l-22 64
c49.333 18.667 95.666 28 138.999 28s78 -11.5 104 -34.5s39 -54.5 39 -94.5v-120c0 -14 6.66699 -21 20 -21c4.66699 0 9.66699 0.666992 15 2l7 -68c-15.333 -3.33301 -31.333 -5 -48 -5s-31.167 3.66699 -43.5 11s-21.5 17.666 -27.5 30.999
c-12.667 -13.333 -28 -23.666 -46 -30.999s-37.667 -11 -59 -11c-17.333 0 -33.166 2.5 -47.499 7.5s-26.666 12 -36.999 21s-18.5 19.833 -24.5 32.5s-9 26.334 -9 41.001zM120 450.999c0 -12.667 5 -23 15 -31s22.667 -12 38 -12c20.667 0 37.667 6.33301 51 19
s20 28.667 20 48v20c-18.667 3.33301 -35.667 5 -51 5c-23.333 0 -41.333 -4.33301 -54 -13s-19 -20.667 -19 -36z" />
    <glyph glyph-name="guillemotleft" unicode="&#xab;" horiz-adv-x="582" 
d="M27 279l199 222l75 -60l-151 -190l151 -190l-75 -59l-199 221v56zM280 279l199 222l75 -60l-151 -190l151 -190l-75 -59l-199 221v56z" />
    <glyph glyph-name="logicalnot" unicode="&#xac;" horiz-adv-x="576" 
d="M44 342h488v-298h-107v190h-381v108z" />
    <glyph glyph-name="uni00AD" unicode="&#xad;" horiz-adv-x="320" 
d="M34 300h276v-98h-276v98z" />
    <glyph glyph-name="registered" unicode="&#xae;" horiz-adv-x="832" 
d="M48 336c0 54 9 103.5 27 148.5s43.333 83.833 76 116.5s71.5 58 116.5 76s94.5 27 148.5 27s103.5 -9 148.5 -27s83.833 -43.333 116.5 -76s58 -71.5 76 -116.5s27 -94.5 27 -148.5s-9 -103.5 -27 -148.5s-43.333 -83.833 -76 -116.5s-71.5 -58 -116.5 -76
s-94.5 -27 -148.5 -27s-103.5 9 -148.5 27s-83.833 43.333 -116.5 76s-58 71.5 -76 116.5s-27 94.5 -27 148.5zM115 336c0 -44 7.33301 -84.5 22 -121.5s35.334 -68.833 62.001 -95.5s58.5 -47.334 95.5 -62.001s77.5 -22 121.5 -22s84.5 7.33301 121.5 22
s68.833 35.334 95.5 62.001s47.334 58.5 62.001 95.5s22 77.5 22 121.5s-7.33301 84.5 -22 121.5s-35.334 68.833 -62.001 95.5s-58.5 47.334 -95.5 62.001s-77.5 22 -121.5 22s-84.5 -7.33301 -121.5 -22s-68.833 -35.334 -95.5 -62.001s-47.334 -58.5 -62.001 -95.5
s-22 -77.5 -22 -121.5zM260 544l180.999 0.000976562c21.333 0 40.833 -3.16699 58.5 -9.5s33 -15.333 46 -27s23.167 -25.667 30.5 -42s11 -34.5 11 -54.5c0 -31.333 -8.16699 -57.833 -24.5 -79.5s-38.166 -35.834 -65.499 -42.501l104 -161h-102l-89 147h-60v-147h-90
v416zM349.999 346.001l79 0.000976562c20 0 36.167 5.5 48.5 16.5s18.5 26.167 18.5 45.5s-6.16699 34.666 -18.5 45.999s-28.5 17 -48.5 17h-79v-125z" />
    <glyph glyph-name="macron" unicode="&#xaf;" horiz-adv-x="240" 
d="M-36 673h312v-87h-312v87z" />
    <glyph glyph-name="degree" unicode="&#xb0;" horiz-adv-x="340" 
d="M38 551c0 18.667 3.33301 36.167 10 52.5s15.834 30.333 27.501 42s25.5 20.834 41.5 27.501s33.667 10 53 10s37 -3.33301 53 -10s29.833 -15.834 41.5 -27.501s20.834 -25.667 27.501 -42s10 -33.833 10 -52.5c0 -38.667 -12.333 -70.334 -37 -95.001
s-56.334 -37 -95.001 -37s-70.334 12.333 -95.001 37s-37 56.334 -37 95.001zM108 551c0 -18.667 5.83301 -33.834 17.5 -45.501s26.5 -17.5 44.5 -17.5c18.667 0 33.834 5.83301 45.501 17.5s17.5 26.834 17.5 45.501c0 18 -5.83301 32.833 -17.5 44.5
s-26.834 17.5 -45.501 17.5s-33.667 -5.83301 -45 -17.5s-17 -26.5 -17 -44.5z" />
    <glyph glyph-name="plusminus" unicode="&#xb1;" horiz-adv-x="576" 
d="M44 108h488v-108h-488v108zM44 461h190v191h108v-191h190v-108h-190v-190h-108v190h-190v108z" />
    <glyph glyph-name="twosuperior" unicode="&#xb2;" horiz-adv-x="344" 
d="M22 443l141.001 142.001c29.333 28.667 44 55.334 44 80.001c0 19.333 -5.83301 34.666 -17.5 45.999s-27.167 17 -46.5 17c-15.333 0 -30.333 -3 -45 -9s-30 -13.667 -46 -23l-36 69c25.333 14 50 24.667 74 32s48 11 72 11c41.333 0 74.666 -12 99.999 -36
s38 -54.667 38 -92c0 -44.667 -19.667 -86.334 -59 -125.001l-96 -96h160v-75h-283v59z" />
    <glyph glyph-name="threesuperior" unicode="&#xb3;" horiz-adv-x="344" 
d="M101 629l35.0039 0.00195312c20.667 0 37.5 5.16699 50.5 15.5s19.5 23.166 19.5 38.499s-5.16699 27.833 -15.5 37.5s-24.166 14.5 -41.499 14.5c-28.667 0 -61.334 -8.33301 -98.001 -25l-29 66c47.333 21.333 95.333 32 144 32c40 0 72.167 -10.667 96.5 -32
s36.5 -49 36.5 -83c0 -22 -5.33301 -41.333 -16 -58s-25.667 -28.667 -45 -36c21.333 -7.33301 38.5 -20.333 51.5 -39s19.5 -40 19.5 -64c0 -18 -3.5 -34.333 -10.5 -49s-16.833 -27.167 -29.5 -37.5s-27.834 -18.5 -45.501 -24.5s-36.834 -9 -57.501 -9
c-24.667 0 -49.834 2.66699 -75.501 8s-51.5 14 -77.5 26l30 67c18.667 -9.33301 36.5 -16.333 53.5 -21s33.833 -7 50.5 -7c19.333 0 35.166 5.16699 47.499 15.5s18.5 23.833 18.5 40.5c0 17.333 -7 31.666 -21 42.999s-32.667 17 -56 17h-35v64z" />
    <glyph glyph-name="acute" unicode="&#xb4;" horiz-adv-x="240" 
d="M88 535l-49 70l185 129l57 -82z" />
    <glyph glyph-name="uni00B5" unicode="&#xb5;" horiz-adv-x="625" 
d="M65 490l128 0.000976562v-294c0 -30.667 9.66699 -55.5 29 -74.5s44 -28.5 74 -28.5c34.667 0 63.167 11.667 85.5 35s33.5 54 33.5 92v270h128v-365c0 -10.667 3.16699 -19.167 9.5 -25.5s14.833 -9.5 25.5 -9.5c4 0 8 0.166992 12 0.5s7.66699 0.833008 11 1.5l10 -97
c-10.667 -2 -21.667 -3.66699 -33 -5s-23 -2 -35 -2c-28 0 -51.833 6.5 -71.5 19.5s-33.167 31.167 -40.5 54.5c-18 -24 -39.333 -41.833 -64 -53.5s-49.667 -17.5 -75 -17.5c-20.667 0 -39.5 2.66699 -56.5 8s-31.167 13.666 -42.5 24.999v-232h-128v698z" />
    <glyph glyph-name="paragraph" unicode="&#xb6;" 
d="M269 237c-35.333 0 -67.5 5.33398 -96.5 16.001s-54 25.667 -75 45s-37.333 42.333 -49 69s-17.5 56 -17.5 88s5.83301 61.167 17.5 87.5s28 49.166 49 68.499s46 34.333 75 45s61.167 16 96.5 16h247v-832h-107v724h-102v-327h-38z" />
    <glyph glyph-name="periodcentered" unicode="&#xb7;" horiz-adv-x="265" 
d="M52 251c0 23.333 7.5 42.5 22.5 57.5s34.167 22.5 57.5 22.5s42.5 -7.5 57.5 -22.5s22.5 -34.167 22.5 -57.5s-7.5 -42.5 -22.5 -57.5s-34.167 -22.5 -57.5 -22.5s-42.5 7.5 -57.5 22.5s-22.5 34.167 -22.5 57.5z" />
    <glyph glyph-name="cedilla" unicode="&#xb8;" horiz-adv-x="240" 
d="M164 -44c21.333 -5.33301 38.667 -16 52 -32s20 -35.333 20 -58c0 -29.333 -12.333 -52.833 -37 -70.5s-57 -26.5 -97 -26.5c-16 0 -32.5 1.33301 -49.5 4s-34.167 7.33398 -51.5 14.001l22 72c12.667 -4.66699 24.5 -8 35.5 -10s21.167 -3 30.5 -3c13.333 0 24 3 32 9
s12 14 12 24c0 9.33301 -4.66699 17.166 -14 23.499s-22 9.5 -38 9.5h-13l16 88h88z" />
    <glyph glyph-name="onesuperior" unicode="&#xb9;" horiz-adv-x="280" 
d="M124 712l-95 -44v81l111 51h78v-416h-94v328z" />
    <glyph glyph-name="ordmasculine" unicode="&#xba;" horiz-adv-x="421" 
d="M38 284h345v-67h-345v67zM31 515c0 24.667 4.33301 47.5 13 68.5s21 39 37 54s35 26.667 57 35s46 12.5 72 12.5c26.667 0 51 -4.16699 73 -12.5s41 -20 57 -35s28.333 -33 37 -54s13 -43.833 13 -68.5c0 -25.333 -4.33301 -48.5 -13 -69.5s-21 -39 -37 -54
s-35 -26.667 -57 -35s-46.333 -12.5 -73 -12.5c-26 0 -50 4.16699 -72 12.5s-41 20 -57 35s-28.333 33 -37 54s-13 44.167 -13 69.5zM128 515c0 -28.667 7.66699 -51.834 23 -69.501s35 -26.5 59 -26.5c24.667 0 44.667 8.83301 60 26.5s23 40.834 23 69.501
c0 28 -7.66699 51 -23 69s-35.333 27 -60 27c-24 0 -43.667 -9 -59 -27s-23 -41 -23 -69z" />
    <glyph glyph-name="guillemotright" unicode="&#xbb;" horiz-adv-x="582" 
d="M302 223l-199 -221l-75 59l150 190l-150 190l75 60l199 -222v-56zM555 223l-199 -221l-75 59l150 190l-150 190l75 60l199 -222v-56z" />
    <glyph glyph-name="onequarter" unicode="&#xbc;" horiz-adv-x="960" 
d="M176 584l-95 -44v81l111 51h78v-416h-94v328zM699 697l66 -50l-504 -672l-66 50zM797 86h-195v65l189 265h89v-262h51v-68h-51v-86h-83v86zM797 154v159l-113 -159h113z" />
    <glyph glyph-name="onehalf" unicode="&#xbd;" horiz-adv-x="960" 
d="M176 584l-95 -44v81l111 51h78v-416h-94v328zM699 697l66 -50l-504 -672l-66 50zM618 59l141.001 142.001c29.333 28.667 44 55.334 44 80.001c0 19.333 -5.83301 34.666 -17.5 45.999s-27.167 17 -46.5 17c-15.333 0 -30.333 -3 -45 -9s-30 -13.667 -46 -23l-36 69
c25.333 14 50 24.667 74 32s48 11 72 11c41.333 0 74.666 -12 99.999 -36s38 -54.667 38 -92c0 -44.667 -19.667 -86.334 -59 -125.001l-96 -96h160v-75h-283v59z" />
    <glyph glyph-name="threequarters" unicode="&#xbe;" horiz-adv-x="960" 
d="M121 501l35.0039 0.00195312c20.667 0 37.5 5.16699 50.5 15.5s19.5 23.166 19.5 38.499s-5.16699 27.833 -15.5 37.5s-24.166 14.5 -41.499 14.5c-28.667 0 -61.334 -8.33301 -98.001 -25l-29 66c47.333 21.333 95.333 32 144 32c40 0 72.167 -10.667 96.5 -32
s36.5 -49 36.5 -83c0 -22 -5.33301 -41.333 -16 -58s-25.667 -28.667 -45 -36c21.333 -7.33301 38.5 -20.333 51.5 -39s19.5 -40 19.5 -64c0 -18 -3.5 -34.333 -10.5 -49s-16.833 -27.167 -29.5 -37.5s-27.834 -18.5 -45.501 -24.5s-36.834 -9 -57.501 -9
c-24.667 0 -49.834 2.66699 -75.501 8s-51.5 14 -77.5 26l30 67c18.667 -9.33301 36.5 -16.333 53.5 -21s33.833 -7 50.5 -7c19.333 0 35.166 5.16699 47.499 15.5s18.5 23.833 18.5 40.5c0 17.333 -7 31.666 -21 42.999s-32.667 17 -56 17h-35v64zM699.004 697.002l66 -50
l-504 -672l-66 50zM797.004 86.002h-195v65l189 265h89v-262h51v-68h-51v-86h-83v86zM797.004 154.002v159l-113 -159h113z" />
    <glyph glyph-name="questiondown" unicode="&#xbf;" horiz-adv-x="404" 
d="M296 268l0.000976562 -19.001c0 -29.333 -7 -54.166 -21 -74.499s-29.5 -39.333 -46.5 -57s-32.5 -35 -46.5 -52s-21 -36.833 -21 -59.5c0 -28 9.16699 -50.333 27.5 -67s42.166 -25 71.499 -25c20.667 0 41.167 4.16699 61.5 12.5s42.166 19.5 65.499 33.5l49 -91
c-63.333 -42 -129 -63 -197 -63c-30 0 -57.667 4.5 -83 13.5s-47.166 21.667 -65.499 38s-32.5 35.666 -42.5 57.999s-15 46.5 -15 72.5c0 24 3.5 45.333 10.5 64s16 35.834 27 51.501s23 29.834 36 42.501s25.167 25.167 36.5 37.5s21 24.666 29 36.999s13 25.5 15 39.5
l2 8h107zM319.001 423.999c0 -22.667 -7.16699 -41.167 -21.5 -55.5s-32.833 -21.5 -55.5 -21.5s-41.167 7.16699 -55.5 21.5s-21.5 32.833 -21.5 55.5s7.16699 41.167 21.5 55.5s32.833 21.5 55.5 21.5s41.167 -7.16699 55.5 -21.5s21.5 -32.833 21.5 -55.5z" />
    <glyph glyph-name="Agrave" unicode="&#xc0;" horiz-adv-x="681" 
d="M279 672h123l275 -672h-134l-62 160h-281l-62 -160h-134zM236 257h210l-105 269zM432 787l-49 -70l-193 117l57 82z" />
    <glyph glyph-name="Aacute" unicode="&#xc1;" horiz-adv-x="681" 
d="M279 672h123l275 -672h-134l-62 160h-281l-62 -160h-134zM236 257h210l-105 269zM309 717l-49 70l185 129l57 -82z" />
    <glyph glyph-name="Acircumflex" unicode="&#xc2;" horiz-adv-x="681" 
d="M279 672h123l275 -672h-134l-62 160h-281l-62 -160h-134zM236 257h210l-105 269zM302 896h78l125 -119l-55 -60l-109 92l-109 -92l-55 60z" />
    <glyph glyph-name="Atilde" unicode="&#xc3;" horiz-adv-x="681" 
d="M279 672h123l275 -672h-134l-62 160h-281l-62 -160h-134zM236 257h210l-105 269zM277 873c12.667 0 24.5 -1.83301 35.5 -5.5s21.5 -7.66699 31.5 -12l27.5 -12c8.33301 -3.66699 16.166 -5.5 23.499 -5.5c16.667 0 29.334 11.667 38.001 35l77 -23
c-5.33301 -30 -17.333 -54 -36 -72s-41.667 -27 -69 -27c-12.667 0 -24.5 1.83301 -35.5 5.5s-21.5 7.66699 -31.5 12l-27.5 12c-8.33301 3.66699 -16.166 5.5 -23.499 5.5c-18.667 0 -31.334 -11.667 -38.001 -35l-77 22c5.33301 30 17.333 54.167 36 72.5
s41.667 27.5 69 27.5z" />
    <glyph glyph-name="Adieresis" unicode="&#xc4;" horiz-adv-x="681" 
d="M279 672h123l275 -672h-134l-62 160h-281l-62 -160h-134zM236 257h210l-105 269zM165 812c0 20.667 6.33301 37.334 19 50.001s29.334 19 50.001 19s37.334 -6.33301 50.001 -19s19 -29.334 19 -50.001s-6.33301 -37.334 -19 -50.001s-29.334 -19 -50.001 -19
s-37.334 6.33301 -50.001 19s-19 29.334 -19 50.001zM387 812c0 20.667 6.33301 37.334 19 50.001s29.334 19 50.001 19s37.334 -6.33301 50.001 -19s19 -29.334 19 -50.001s-6.33301 -37.334 -19 -50.001s-29.334 -19 -50.001 -19s-37.334 6.33301 -50.001 19
s-19 29.334 -19 50.001z" />
    <glyph glyph-name="Aring" unicode="&#xc5;" horiz-adv-x="681" 
d="M279 672h123l275 -672h-134l-62 160h-281l-62 -160h-134zM236 257h210l-105 269zM233 812c0 30.667 10 55.5 30 74.5s46 28.5 78 28.5s58 -9.5 78 -28.5s30 -43.833 30 -74.5s-9.83301 -55.5 -29.5 -74.5s-45.5 -28.5 -77.5 -28.5s-58.167 9.5 -78.5 28.5
s-30.5 43.833 -30.5 74.5zM294 812c0 -14 4.5 -25.333 13.5 -34s20.5 -13 34.5 -13c13.333 0 24.333 4.33301 33 13s13 20 13 34s-4.5 25.167 -13.5 33.5s-20.167 12.5 -33.5 12.5c-14 0 -25.333 -4.16699 -34 -12.5s-13 -19.5 -13 -33.5z" />
    <glyph glyph-name="AE" unicode="&#xc6;" horiz-adv-x="980" 
d="M468 160h-242l-101 -160h-150l433 672h513v-100h-325v-179h293v-98h-293v-195h341v-100h-469v160zM282 257h186v297z" />
    <glyph glyph-name="Ccedilla" unicode="&#xc7;" horiz-adv-x="650" 
d="M39 336c0 51.333 8.33203 98.3311 24.999 140.998s40.334 79.334 71.001 110.001s67 54.5 109 71.5s88.667 25.5 140 25.5c40.667 0 81.5 -6.33301 122.5 -19s80.5 -31.667 118.5 -57l-54 -89c-28 19.333 -56 34 -84 44s-56.667 15 -86 15
c-33.333 0 -64 -5.83301 -92 -17.5s-52 -28.167 -72 -49.5s-35.5 -46.833 -46.5 -76.5s-16.5 -62.5 -16.5 -98.5s5.5 -68.833 16.5 -98.5s26.5 -55.167 46.5 -76.5s44 -37.833 72 -49.5s58.667 -17.5 92 -17.5c29.333 0 58 5 86 15s56 24.667 84 44l54 -89
c-32 -21.333 -65.167 -38 -99.5 -50s-68.5 -19.667 -102.5 -23l-6 -35c21.333 -5.33301 38.666 -16 51.999 -32s20 -35.333 20 -58c0 -29.333 -12.333 -52.833 -37 -70.5s-57 -26.5 -97 -26.5c-16 0 -32.333 1.33301 -49 4s-33.667 7.33398 -51 14.001l21 72
c12.667 -4.66699 24.5 -8 35.5 -10s21.167 -3 30.5 -3c13.333 0 24 3 32 9s12 14 12 24c0 9.33301 -4.66699 17.166 -14 23.499s-21.666 9.5 -36.999 9.5h-14l15 80c-44.667 4.66699 -85.167 16.334 -121.5 35.001s-67.5 43 -93.5 73s-46.167 65 -60.5 105
s-21.5 83.667 -21.5 131z" />
    <glyph glyph-name="Egrave" unicode="&#xc8;" horiz-adv-x="602" 
d="M84 672h459v-100h-326v-179h294v-98h-294v-195h342v-100h-475v672zM400 787l-49 -70l-193 117l57 82z" />
    <glyph glyph-name="Eacute" unicode="&#xc9;" horiz-adv-x="602" 
d="M84 672h459v-100h-326v-179h294v-98h-294v-195h342v-100h-475v672zM277 717l-49 70l185 129l57 -82z" />
    <glyph glyph-name="Ecircumflex" unicode="&#xca;" horiz-adv-x="602" 
d="M84 672h459v-100h-326v-179h294v-98h-294v-195h342v-100h-475v672zM270 896h78l125 -119l-55 -60l-109 92l-109 -92l-55 60z" />
    <glyph glyph-name="Edieresis" unicode="&#xcb;" horiz-adv-x="602" 
d="M84 672h459v-100h-326v-179h294v-98h-294v-195h342v-100h-475v672zM129 812c0 20.667 6.33301 37.334 19 50.001s29.334 19 50.001 19s37.334 -6.33301 50.001 -19s19 -29.334 19 -50.001s-6.33301 -37.334 -19 -50.001s-29.334 -19 -50.001 -19
s-37.334 6.33301 -50.001 19s-19 29.334 -19 50.001zM351 812c0 20.667 6.33301 37.334 19 50.001s29.334 19 50.001 19s37.334 -6.33301 50.001 -19s19 -29.334 19 -50.001s-6.33301 -37.334 -19 -50.001s-29.334 -19 -50.001 -19s-37.334 6.33301 -50.001 19
s-19 29.334 -19 50.001z" />
    <glyph glyph-name="Igrave" unicode="&#xcc;" horiz-adv-x="302" 
d="M84 672h133v-672h-133v672zM242 787l-49 -70l-193 117l57 82z" />
    <glyph glyph-name="Iacute" unicode="&#xcd;" horiz-adv-x="302" 
d="M84 672h133v-672h-133v672zM119 717l-49 70l185 129l57 -82z" />
    <glyph glyph-name="Icircumflex" unicode="&#xce;" horiz-adv-x="302" 
d="M84 672h133v-672h-133v672zM112 896h78l125 -119l-55 -60l-109 92l-109 -92l-55 60z" />
    <glyph glyph-name="Idieresis" unicode="&#xcf;" horiz-adv-x="302" 
d="M84 672h133v-672h-133v672zM-29 812c0 20.667 6.33301 37.334 19 50.001s29.334 19 50.001 19s37.334 -6.33301 50.001 -19s19 -29.334 19 -50.001s-6.33301 -37.334 -19 -50.001s-29.334 -19 -50.001 -19s-37.334 6.33301 -50.001 19s-19 29.334 -19 50.001zM193 812
c0 20.667 6.33301 37.334 19 50.001s29.334 19 50.001 19s37.334 -6.33301 50.001 -19s19 -29.334 19 -50.001s-6.33301 -37.334 -19 -50.001s-29.334 -19 -50.001 -19s-37.334 6.33301 -50.001 19s-19 29.334 -19 50.001z" />
    <glyph glyph-name="Eth" unicode="&#xd0;" horiz-adv-x="745" 
d="M100 295l-78 -0.00292969v98h78v279h261c51.333 0 98.333 -8.16699 141 -24.5s79.167 -39.166 109.5 -68.499s53.833 -64.666 70.5 -105.999s25 -87 25 -137c0 -49.333 -8.33301 -94.666 -25 -135.999s-40.167 -76.833 -70.5 -106.5s-66.833 -52.667 -109.5 -69
s-89.667 -24.5 -141 -24.5h-261v295zM576 335.997c0 34 -5.5 65.3291 -16.5 93.9961s-26.5 53.334 -46.5 74.001s-43.833 36.834 -71.5 48.501s-57.834 17.5 -90.501 17.5h-123v-177h155v-98h-155v-193h123c32.667 0 62.834 5.83301 90.501 17.5s51.5 27.834 71.5 48.501
s35.5 45.334 46.5 74.001s16.5 60 16.5 94z" />
    <glyph glyph-name="Ntilde" unicode="&#xd1;" horiz-adv-x="777" 
d="M84 672h129l357 -490v490h123v-672h-129l-357 490v-490h-123v672zM325 873c12.667 0 24.5 -1.83301 35.5 -5.5s21.5 -7.66699 31.5 -12l27.5 -12c8.33301 -3.66699 16.166 -5.5 23.499 -5.5c16.667 0 29.334 11.667 38.001 35l77 -23c-5.33301 -30 -17.333 -54 -36 -72
s-41.667 -27 -69 -27c-12.667 0 -24.5 1.83301 -35.5 5.5s-21.5 7.66699 -31.5 12l-27.5 12c-8.33301 3.66699 -16.166 5.5 -23.499 5.5c-18.667 0 -31.334 -11.667 -38.001 -35l-77 22c5.33301 30 17.333 54.167 36 72.5s41.667 27.5 69 27.5z" />
    <glyph glyph-name="Ograve" unicode="&#xd2;" horiz-adv-x="777" 
d="M39 336c0 50.667 8.5 97.334 25.5 140.001s41 79.5 72 110.5s68 55 111 72s90.167 25.5 141.5 25.5s98.333 -8.5 141 -25.5s79.5 -41 110.5 -72s55.167 -67.833 72.5 -110.5s26 -89.334 26 -140.001c0 -51.333 -8.66699 -98.166 -26 -140.499s-41.5 -79 -72.5 -110
s-67.833 -55 -110.5 -72s-89.667 -25.5 -141 -25.5s-98.5 8.5 -141.5 25.5s-80 41 -111 72s-55 67.667 -72 110s-25.5 89.166 -25.5 140.499zM174 336c0 -35.333 5.33301 -68 16 -98s25.5 -55.667 44.5 -77s41.667 -38 68 -50s55.166 -18 86.499 -18s60.166 6 86.499 18
s49 28.667 68 50s33.667 47 44 77s15.5 62.667 15.5 98s-5.16699 67.833 -15.5 97.5s-25 55.334 -44 77.001s-41.667 38.5 -68 50.5s-55.166 18 -86.499 18s-60.166 -6 -86.499 -18s-49 -28.833 -68 -50.5s-33.833 -47.334 -44.5 -77.001s-16 -62.167 -16 -97.5zM480 787
l-49 -70l-193 117l57 82z" />
    <glyph glyph-name="Oacute" unicode="&#xd3;" horiz-adv-x="777" 
d="M39 336c0 50.667 8.5 97.334 25.5 140.001s41 79.5 72 110.5s68 55 111 72s90.167 25.5 141.5 25.5s98.333 -8.5 141 -25.5s79.5 -41 110.5 -72s55.167 -67.833 72.5 -110.5s26 -89.334 26 -140.001c0 -51.333 -8.66699 -98.166 -26 -140.499s-41.5 -79 -72.5 -110
s-67.833 -55 -110.5 -72s-89.667 -25.5 -141 -25.5s-98.5 8.5 -141.5 25.5s-80 41 -111 72s-55 67.667 -72 110s-25.5 89.166 -25.5 140.499zM174 336c0 -35.333 5.33301 -68 16 -98s25.5 -55.667 44.5 -77s41.667 -38 68 -50s55.166 -18 86.499 -18s60.166 6 86.499 18
s49 28.667 68 50s33.667 47 44 77s15.5 62.667 15.5 98s-5.16699 67.833 -15.5 97.5s-25 55.334 -44 77.001s-41.667 38.5 -68 50.5s-55.166 18 -86.499 18s-60.166 -6 -86.499 -18s-49 -28.833 -68 -50.5s-33.833 -47.334 -44.5 -77.001s-16 -62.167 -16 -97.5zM357 717
l-49 70l185 129l57 -82z" />
    <glyph glyph-name="Ocircumflex" unicode="&#xd4;" horiz-adv-x="777" 
d="M39 336c0 50.667 8.5 97.334 25.5 140.001s41 79.5 72 110.5s68 55 111 72s90.167 25.5 141.5 25.5s98.333 -8.5 141 -25.5s79.5 -41 110.5 -72s55.167 -67.833 72.5 -110.5s26 -89.334 26 -140.001c0 -51.333 -8.66699 -98.166 -26 -140.499s-41.5 -79 -72.5 -110
s-67.833 -55 -110.5 -72s-89.667 -25.5 -141 -25.5s-98.5 8.5 -141.5 25.5s-80 41 -111 72s-55 67.667 -72 110s-25.5 89.166 -25.5 140.499zM174 336c0 -35.333 5.33301 -68 16 -98s25.5 -55.667 44.5 -77s41.667 -38 68 -50s55.166 -18 86.499 -18s60.166 6 86.499 18
s49 28.667 68 50s33.667 47 44 77s15.5 62.667 15.5 98s-5.16699 67.833 -15.5 97.5s-25 55.334 -44 77.001s-41.667 38.5 -68 50.5s-55.166 18 -86.499 18s-60.166 -6 -86.499 -18s-49 -28.833 -68 -50.5s-33.833 -47.334 -44.5 -77.001s-16 -62.167 -16 -97.5zM350 896h78
l125 -119l-55 -60l-109 92l-109 -92l-55 60z" />
    <glyph glyph-name="Otilde" unicode="&#xd5;" horiz-adv-x="777" 
d="M39 336c0 50.667 8.5 97.334 25.5 140.001s41 79.5 72 110.5s68 55 111 72s90.167 25.5 141.5 25.5s98.333 -8.5 141 -25.5s79.5 -41 110.5 -72s55.167 -67.833 72.5 -110.5s26 -89.334 26 -140.001c0 -51.333 -8.66699 -98.166 -26 -140.499s-41.5 -79 -72.5 -110
s-67.833 -55 -110.5 -72s-89.667 -25.5 -141 -25.5s-98.5 8.5 -141.5 25.5s-80 41 -111 72s-55 67.667 -72 110s-25.5 89.166 -25.5 140.499zM174 336c0 -35.333 5.33301 -68 16 -98s25.5 -55.667 44.5 -77s41.667 -38 68 -50s55.166 -18 86.499 -18s60.166 6 86.499 18
s49 28.667 68 50s33.667 47 44 77s15.5 62.667 15.5 98s-5.16699 67.833 -15.5 97.5s-25 55.334 -44 77.001s-41.667 38.5 -68 50.5s-55.166 18 -86.499 18s-60.166 -6 -86.499 -18s-49 -28.833 -68 -50.5s-33.833 -47.334 -44.5 -77.001s-16 -62.167 -16 -97.5zM325 873
c12.667 0 24.5 -1.83301 35.5 -5.5s21.5 -7.66699 31.5 -12l27.5 -12c8.33301 -3.66699 16.166 -5.5 23.499 -5.5c16.667 0 29.334 11.667 38.001 35l77 -23c-5.33301 -30 -17.333 -54 -36 -72s-41.667 -27 -69 -27c-12.667 0 -24.5 1.83301 -35.5 5.5
s-21.5 7.66699 -31.5 12l-27.5 12c-8.33301 3.66699 -16.166 5.5 -23.499 5.5c-18.667 0 -31.334 -11.667 -38.001 -35l-77 22c5.33301 30 17.333 54.167 36 72.5s41.667 27.5 69 27.5z" />
    <glyph glyph-name="Odieresis" unicode="&#xd6;" horiz-adv-x="777" 
d="M39 336c0 50.667 8.5 97.334 25.5 140.001s41 79.5 72 110.5s68 55 111 72s90.167 25.5 141.5 25.5s98.333 -8.5 141 -25.5s79.5 -41 110.5 -72s55.167 -67.833 72.5 -110.5s26 -89.334 26 -140.001c0 -51.333 -8.66699 -98.166 -26 -140.499s-41.5 -79 -72.5 -110
s-67.833 -55 -110.5 -72s-89.667 -25.5 -141 -25.5s-98.5 8.5 -141.5 25.5s-80 41 -111 72s-55 67.667 -72 110s-25.5 89.166 -25.5 140.499zM174 336c0 -35.333 5.33301 -68 16 -98s25.5 -55.667 44.5 -77s41.667 -38 68 -50s55.166 -18 86.499 -18s60.166 6 86.499 18
s49 28.667 68 50s33.667 47 44 77s15.5 62.667 15.5 98s-5.16699 67.833 -15.5 97.5s-25 55.334 -44 77.001s-41.667 38.5 -68 50.5s-55.166 18 -86.499 18s-60.166 -6 -86.499 -18s-49 -28.833 -68 -50.5s-33.833 -47.334 -44.5 -77.001s-16 -62.167 -16 -97.5zM209 812
c0 20.667 6.33301 37.334 19 50.001s29.334 19 50.001 19s37.334 -6.33301 50.001 -19s19 -29.334 19 -50.001s-6.33301 -37.334 -19 -50.001s-29.334 -19 -50.001 -19s-37.334 6.33301 -50.001 19s-19 29.334 -19 50.001zM431 812c0 20.667 6.33301 37.334 19 50.001
s29.334 19 50.001 19s37.334 -6.33301 50.001 -19s19 -29.334 19 -50.001s-6.33301 -37.334 -19 -50.001s-29.334 -19 -50.001 -19s-37.334 6.33301 -50.001 19s-19 29.334 -19 50.001z" />
    <glyph glyph-name="multiply" unicode="&#xd7;" horiz-adv-x="576" 
d="M55 130l157 158l-157 158l75 75l158 -157l158 157l75 -75l-157 -158l157 -158l-75 -75l-158 157l-158 -157z" />
    <glyph glyph-name="Oslash" unicode="&#xd8;" horiz-adv-x="777" 
d="M39 336c0 50.667 8.50098 97.332 25.501 139.999s41 79.5 72 110.5s68 55 111 72s90.167 25.5 141.5 25.5c34 0 65.667 -4 95 -12s56.666 -19.333 81.999 -34l53 70l62 -47l-50 -66c34 -30.667 60.5 -68 79.5 -112s28.5 -93 28.5 -147
c0 -51.333 -8.5 -98.166 -25.5 -140.499s-41 -79 -72 -110s-68 -55 -111 -72s-90.167 -25.5 -141.5 -25.5c-34 0 -66 4 -96 12s-57.667 19.333 -83 34l-52 -70l-62 47l49 65c-34 31.333 -60.167 69 -78.5 113s-27.5 93 -27.5 147zM164.001 335.998
c0 -33.333 4.50098 -63.832 13.501 -91.499s22.167 -51.834 39.5 -72.501l285 379c-33.333 22 -71 33 -113 33c-33.333 0 -63.833 -6 -91.5 -18s-51.334 -29 -71.001 -51s-35 -48.167 -46 -78.5s-16.5 -63.833 -16.5 -100.5zM613.002 335.999
c0 33.333 -4.66895 63.668 -14.002 91.001s-22.333 51.666 -39 72.999l-284 -380c15.333 -10 32.5 -17.833 51.5 -23.5s39.5 -8.5 61.5 -8.5c32.667 0 62.834 6 90.501 18s51.334 29 71.001 51s35 48.167 46 78.5s16.5 63.833 16.5 100.5z" />
    <glyph glyph-name="Ugrave" unicode="&#xd9;" horiz-adv-x="777" 
d="M701 263c0 -40.667 -7.83203 -77.834 -23.499 -111.501s-37.334 -62.667 -65.001 -87s-60.5 -43.166 -98.5 -56.499s-79.667 -20 -125 -20s-87.166 6.66699 -125.499 20s-71.333 32.166 -99 56.499s-49.334 53.333 -65.001 87s-23.5 70.834 -23.5 111.501v409h133v-404
c0 -26 4.5 -49.667 13.5 -71s21.5 -39.666 37.5 -54.999s35 -27.333 57 -36s46 -13 72 -13s50 4.33301 72 13s40.833 20.667 56.5 36s28 33.666 37 54.999s13.5 45 13.5 71v404h133v-409zM480.001 787l-49 -70l-193 117l57 82z" />
    <glyph glyph-name="Uacute" unicode="&#xda;" horiz-adv-x="777" 
d="M701 263c0 -40.667 -7.83203 -77.834 -23.499 -111.501s-37.334 -62.667 -65.001 -87s-60.5 -43.166 -98.5 -56.499s-79.667 -20 -125 -20s-87.166 6.66699 -125.499 20s-71.333 32.166 -99 56.499s-49.334 53.333 -65.001 87s-23.5 70.834 -23.5 111.501v409h133v-404
c0 -26 4.5 -49.667 13.5 -71s21.5 -39.666 37.5 -54.999s35 -27.333 57 -36s46 -13 72 -13s50 4.33301 72 13s40.833 20.667 56.5 36s28 33.666 37 54.999s13.5 45 13.5 71v404h133v-409zM357.001 717l-49 70l185 129l57 -82z" />
    <glyph glyph-name="Ucircumflex" unicode="&#xdb;" horiz-adv-x="777" 
d="M701 263c0 -40.667 -7.83203 -77.834 -23.499 -111.501s-37.334 -62.667 -65.001 -87s-60.5 -43.166 -98.5 -56.499s-79.667 -20 -125 -20s-87.166 6.66699 -125.499 20s-71.333 32.166 -99 56.499s-49.334 53.333 -65.001 87s-23.5 70.834 -23.5 111.501v409h133v-404
c0 -26 4.5 -49.667 13.5 -71s21.5 -39.666 37.5 -54.999s35 -27.333 57 -36s46 -13 72 -13s50 4.33301 72 13s40.833 20.667 56.5 36s28 33.666 37 54.999s13.5 45 13.5 71v404h133v-409zM350.001 896h78l125 -119l-55 -60l-109 92l-109 -92l-55 60z" />
    <glyph glyph-name="Udieresis" unicode="&#xdc;" horiz-adv-x="777" 
d="M701 263c0 -40.667 -7.83203 -77.834 -23.499 -111.501s-37.334 -62.667 -65.001 -87s-60.5 -43.166 -98.5 -56.499s-79.667 -20 -125 -20s-87.166 6.66699 -125.499 20s-71.333 32.166 -99 56.499s-49.334 53.333 -65.001 87s-23.5 70.834 -23.5 111.501v409h133v-404
c0 -26 4.5 -49.667 13.5 -71s21.5 -39.666 37.5 -54.999s35 -27.333 57 -36s46 -13 72 -13s50 4.33301 72 13s40.833 20.667 56.5 36s28 33.666 37 54.999s13.5 45 13.5 71v404h133v-409zM209.001 812c0 20.667 6.33301 37.334 19 50.001s29.334 19 50.001 19
s37.334 -6.33301 50.001 -19s19 -29.334 19 -50.001s-6.33301 -37.334 -19 -50.001s-29.334 -19 -50.001 -19s-37.334 6.33301 -50.001 19s-19 29.334 -19 50.001zM431.001 812c0 20.667 6.33301 37.334 19 50.001s29.334 19 50.001 19s37.334 -6.33301 50.001 -19
s19 -29.334 19 -50.001s-6.33301 -37.334 -19 -50.001s-29.334 -19 -50.001 -19s-37.334 6.33301 -50.001 19s-19 29.334 -19 50.001z" />
    <glyph glyph-name="Yacute" unicode="&#xdd;" horiz-adv-x="617" 
d="M242 273l-246 399h145l167 -281l168 281h144l-245 -399v-273h-133v273zM276 717l-49 70l185 129l57 -82z" />
    <glyph glyph-name="Thorn" unicode="&#xde;" horiz-adv-x="628" 
d="M84 672l128 0.000976562v-107h147c34.667 0 66.667 -5.5 96 -16.5s54.666 -26.167 75.999 -45.5s37.833 -42.5 49.5 -69.5s17.5 -56.833 17.5 -89.5s-5.83301 -62.5 -17.5 -89.5s-28.167 -50.333 -49.5 -70s-46.666 -34.834 -75.999 -45.501s-61.333 -16 -96 -16h-147
v-123h-128v672zM212 225.001h127c38 0 68.833 11 92.5 33s35.5 50.667 35.5 86c0 34.667 -11.833 63.167 -35.5 85.5s-54.5 33.5 -92.5 33.5h-127v-238z" />
    <glyph glyph-name="germandbls" unicode="&#xdf;" horiz-adv-x="633" 
d="M300 355c0 21.333 3.83203 39.6689 11.499 55.002s16.334 29.833 26.001 43.5s18.334 27.167 26.001 40.5s11.5 28.666 11.5 45.999c0 22.667 -8 41.5 -24 56.5s-37.333 22.5 -64 22.5c-29.333 0 -53.166 -9.33301 -71.499 -28s-27.5 -43.667 -27.5 -75v-516h-123v521
c0 29.333 5.5 56 16.5 80s26.5 44.5 46.5 61.5s43.833 30.167 71.5 39.5s58.5 14 92.5 14c30.667 0 59 -4.33301 85 -13s48.333 -20.667 67 -36s33.167 -33.333 43.5 -54s15.5 -43.334 15.5 -68.001c0 -23.333 -3.83301 -43.166 -11.5 -59.499s-16.334 -31 -26.001 -44
s-18.334 -25.333 -26.001 -37s-11.5 -24.834 -11.5 -39.501s4.33301 -26.834 13 -36.501s19.667 -18.5 33 -26.5l42.5 -24.5c15 -8.33301 29.167 -18.333 42.5 -30s24.333 -26 33 -43s13 -38.5 13 -64.5c0 -23.333 -4.66699 -44.333 -14 -63s-22.333 -34.5 -39 -47.5
s-36.5 -23.167 -59.5 -30.5s-48.167 -11 -75.5 -11c-50.667 0 -103.334 11.667 -158.001 35l33 91c44 -19.333 82.333 -29 115 -29c22.667 0 40.834 4.83301 54.501 14.5s20.5 23.167 20.5 40.5c0 13.333 -4.5 24.5 -13.5 33.5s-20.167 17.333 -33.5 25s-28 15.5 -44 23.5
s-30.667 17.667 -44 29s-24.5 25.333 -33.5 42s-13.5 37.334 -13.5 62.001z" />
    <glyph glyph-name="agrave" unicode="&#xe0;" horiz-adv-x="559" 
d="M36 142c0 52 19.834 92.1602 59.501 120.493s95.167 42.5 166.5 42.5c15.333 0 31 -0.833008 47 -2.5s32 -4.16699 48 -7.5v26c0 25.333 -9.16699 46 -27.5 62s-42.833 24 -73.5 24c-49.333 0 -103 -11.667 -161 -35l-32 89c71.333 27.333 140.666 41 207.999 41
c30.667 0 58.667 -4.5 84 -13.5s47 -21.5 65 -37.5s32 -35.167 42 -57.5s15 -47.166 15 -74.499v-199c0 -10.667 3 -19.167 9 -25.5s14.333 -9.5 25 -9.5c5.33301 0 10.333 0.333008 15 1s8 1.33398 10 2.00098l9 -93c-10.667 -2 -21.667 -3.66699 -33 -5s-23 -2 -35 -2
c-25.333 0 -47 5.83301 -65 17.5s-31.333 27.834 -40 48.501c-21.333 -21.333 -46 -37.666 -74 -48.999s-57 -17 -87 -17c-25.333 0 -48.833 3.83301 -70.5 11.5s-40.167 18.334 -55.5 32.001s-27.333 29.834 -36 48.501s-13 39.334 -13 62.001zM159.001 148.993
c0 -20 8.16797 -36.833 24.501 -50.5s36.5 -20.5 60.5 -20.5c34 0 61.333 10.5 82 31.5s31 48.5 31 82.5v29c-24.667 6.66699 -51.334 10 -80.001 10c-36.667 0 -65.5 -7.33301 -86.5 -22s-31.5 -34.667 -31.5 -60zM362.002 604.993l-49 -70l-193 117l57 82z" />
    <glyph glyph-name="aacute" unicode="&#xe1;" horiz-adv-x="559" 
d="M36 142c0 52 19.834 92.1602 59.501 120.493s95.167 42.5 166.5 42.5c15.333 0 31 -0.833008 47 -2.5s32 -4.16699 48 -7.5v26c0 25.333 -9.16699 46 -27.5 62s-42.833 24 -73.5 24c-49.333 0 -103 -11.667 -161 -35l-32 89c71.333 27.333 140.666 41 207.999 41
c30.667 0 58.667 -4.5 84 -13.5s47 -21.5 65 -37.5s32 -35.167 42 -57.5s15 -47.166 15 -74.499v-199c0 -10.667 3 -19.167 9 -25.5s14.333 -9.5 25 -9.5c5.33301 0 10.333 0.333008 15 1s8 1.33398 10 2.00098l9 -93c-10.667 -2 -21.667 -3.66699 -33 -5s-23 -2 -35 -2
c-25.333 0 -47 5.83301 -65 17.5s-31.333 27.834 -40 48.501c-21.333 -21.333 -46 -37.666 -74 -48.999s-57 -17 -87 -17c-25.333 0 -48.833 3.83301 -70.5 11.5s-40.167 18.334 -55.5 32.001s-27.333 29.834 -36 48.501s-13 39.334 -13 62.001zM159.001 148.993
c0 -20 8.16797 -36.833 24.501 -50.5s36.5 -20.5 60.5 -20.5c34 0 61.333 10.5 82 31.5s31 48.5 31 82.5v29c-24.667 6.66699 -51.334 10 -80.001 10c-36.667 0 -65.5 -7.33301 -86.5 -22s-31.5 -34.667 -31.5 -60zM239.002 534.993l-49 70l185 129l57 -82z" />
    <glyph glyph-name="acircumflex" unicode="&#xe2;" horiz-adv-x="559" 
d="M36 142c0 52 19.834 92.1602 59.501 120.493s95.167 42.5 166.5 42.5c15.333 0 31 -0.833008 47 -2.5s32 -4.16699 48 -7.5v26c0 25.333 -9.16699 46 -27.5 62s-42.833 24 -73.5 24c-49.333 0 -103 -11.667 -161 -35l-32 89c71.333 27.333 140.666 41 207.999 41
c30.667 0 58.667 -4.5 84 -13.5s47 -21.5 65 -37.5s32 -35.167 42 -57.5s15 -47.166 15 -74.499v-199c0 -10.667 3 -19.167 9 -25.5s14.333 -9.5 25 -9.5c5.33301 0 10.333 0.333008 15 1s8 1.33398 10 2.00098l9 -93c-10.667 -2 -21.667 -3.66699 -33 -5s-23 -2 -35 -2
c-25.333 0 -47 5.83301 -65 17.5s-31.333 27.834 -40 48.501c-21.333 -21.333 -46 -37.666 -74 -48.999s-57 -17 -87 -17c-25.333 0 -48.833 3.83301 -70.5 11.5s-40.167 18.334 -55.5 32.001s-27.333 29.834 -36 48.501s-13 39.334 -13 62.001zM159.001 148.993
c0 -20 8.16797 -36.833 24.501 -50.5s36.5 -20.5 60.5 -20.5c34 0 61.333 10.5 82 31.5s31 48.5 31 82.5v29c-24.667 6.66699 -51.334 10 -80.001 10c-36.667 0 -65.5 -7.33301 -86.5 -22s-31.5 -34.667 -31.5 -60zM232.002 713.993h78l125 -119l-55 -60l-109 92l-109 -92
l-55 60z" />
    <glyph glyph-name="atilde" unicode="&#xe3;" horiz-adv-x="559" 
d="M36 142c0 52 19.834 92.1602 59.501 120.493s95.167 42.5 166.5 42.5c15.333 0 31 -0.833008 47 -2.5s32 -4.16699 48 -7.5v26c0 25.333 -9.16699 46 -27.5 62s-42.833 24 -73.5 24c-49.333 0 -103 -11.667 -161 -35l-32 89c71.333 27.333 140.666 41 207.999 41
c30.667 0 58.667 -4.5 84 -13.5s47 -21.5 65 -37.5s32 -35.167 42 -57.5s15 -47.166 15 -74.499v-199c0 -10.667 3 -19.167 9 -25.5s14.333 -9.5 25 -9.5c5.33301 0 10.333 0.333008 15 1s8 1.33398 10 2.00098l9 -93c-10.667 -2 -21.667 -3.66699 -33 -5s-23 -2 -35 -2
c-25.333 0 -47 5.83301 -65 17.5s-31.333 27.834 -40 48.501c-21.333 -21.333 -46 -37.666 -74 -48.999s-57 -17 -87 -17c-25.333 0 -48.833 3.83301 -70.5 11.5s-40.167 18.334 -55.5 32.001s-27.333 29.834 -36 48.501s-13 39.334 -13 62.001zM159.001 148.993
c0 -20 8.16797 -36.833 24.501 -50.5s36.5 -20.5 60.5 -20.5c34 0 61.333 10.5 82 31.5s31 48.5 31 82.5v29c-24.667 6.66699 -51.334 10 -80.001 10c-36.667 0 -65.5 -7.33301 -86.5 -22s-31.5 -34.667 -31.5 -60zM207.002 690.993c12.667 0 24.5 -1.83301 35.5 -5.5
s21.5 -7.66699 31.5 -12l27.5 -12c8.33301 -3.66699 16.166 -5.5 23.499 -5.5c16.667 0 29.334 11.667 38.001 35l77 -23c-5.33301 -30 -17.333 -54 -36 -72s-41.667 -27 -69 -27c-12.667 0 -24.5 1.83301 -35.5 5.5s-21.5 7.66699 -31.5 12l-27.5 12
c-8.33301 3.66699 -16.166 5.5 -23.499 5.5c-18.667 0 -31.334 -11.667 -38.001 -35l-77 22c5.33301 30 17.333 54.167 36 72.5s41.667 27.5 69 27.5z" />
    <glyph glyph-name="adieresis" unicode="&#xe4;" horiz-adv-x="559" 
d="M36 142c0 52 19.834 92.1602 59.501 120.493s95.167 42.5 166.5 42.5c15.333 0 31 -0.833008 47 -2.5s32 -4.16699 48 -7.5v26c0 25.333 -9.16699 46 -27.5 62s-42.833 24 -73.5 24c-49.333 0 -103 -11.667 -161 -35l-32 89c71.333 27.333 140.666 41 207.999 41
c30.667 0 58.667 -4.5 84 -13.5s47 -21.5 65 -37.5s32 -35.167 42 -57.5s15 -47.166 15 -74.499v-199c0 -10.667 3 -19.167 9 -25.5s14.333 -9.5 25 -9.5c5.33301 0 10.333 0.333008 15 1s8 1.33398 10 2.00098l9 -93c-10.667 -2 -21.667 -3.66699 -33 -5s-23 -2 -35 -2
c-25.333 0 -47 5.83301 -65 17.5s-31.333 27.834 -40 48.501c-21.333 -21.333 -46 -37.666 -74 -48.999s-57 -17 -87 -17c-25.333 0 -48.833 3.83301 -70.5 11.5s-40.167 18.334 -55.5 32.001s-27.333 29.834 -36 48.501s-13 39.334 -13 62.001zM159.001 148.993
c0 -20 8.16797 -36.833 24.501 -50.5s36.5 -20.5 60.5 -20.5c34 0 61.333 10.5 82 31.5s31 48.5 31 82.5v29c-24.667 6.66699 -51.334 10 -80.001 10c-36.667 0 -65.5 -7.33301 -86.5 -22s-31.5 -34.667 -31.5 -60zM91.002 629.993c0 20.667 6.33301 37.334 19 50.001
s29.334 19 50.001 19s37.334 -6.33301 50.001 -19s19 -29.334 19 -50.001s-6.33301 -37.334 -19 -50.001s-29.334 -19 -50.001 -19s-37.334 6.33301 -50.001 19s-19 29.334 -19 50.001zM313.002 629.993c0 20.667 6.33301 37.334 19 50.001s29.334 19 50.001 19
s37.334 -6.33301 50.001 -19s19 -29.334 19 -50.001s-6.33301 -37.334 -19 -50.001s-29.334 -19 -50.001 -19s-37.334 6.33301 -50.001 19s-19 29.334 -19 50.001z" />
    <glyph glyph-name="aring" unicode="&#xe5;" horiz-adv-x="559" 
d="M36 142c0 52 19.834 92.1602 59.501 120.493s95.167 42.5 166.5 42.5c15.333 0 31 -0.833008 47 -2.5s32 -4.16699 48 -7.5v26c0 25.333 -9.16699 46 -27.5 62s-42.833 24 -73.5 24c-49.333 0 -103 -11.667 -161 -35l-32 89c71.333 27.333 140.666 41 207.999 41
c30.667 0 58.667 -4.5 84 -13.5s47 -21.5 65 -37.5s32 -35.167 42 -57.5s15 -47.166 15 -74.499v-199c0 -10.667 3 -19.167 9 -25.5s14.333 -9.5 25 -9.5c5.33301 0 10.333 0.333008 15 1s8 1.33398 10 2.00098l9 -93c-10.667 -2 -21.667 -3.66699 -33 -5s-23 -2 -35 -2
c-25.333 0 -47 5.83301 -65 17.5s-31.333 27.834 -40 48.501c-21.333 -21.333 -46 -37.666 -74 -48.999s-57 -17 -87 -17c-25.333 0 -48.833 3.83301 -70.5 11.5s-40.167 18.334 -55.5 32.001s-27.333 29.834 -36 48.501s-13 39.334 -13 62.001zM159.001 148.993
c0 -20 8.16797 -36.833 24.501 -50.5s36.5 -20.5 60.5 -20.5c34 0 61.333 10.5 82 31.5s31 48.5 31 82.5v29c-24.667 6.66699 -51.334 10 -80.001 10c-36.667 0 -65.5 -7.33301 -86.5 -22s-31.5 -34.667 -31.5 -60zM163.002 629.993c0 30.667 10 55.5 30 74.5
s46 28.5 78 28.5s58 -9.5 78 -28.5s30 -43.833 30 -74.5s-9.83301 -55.5 -29.5 -74.5s-45.5 -28.5 -77.5 -28.5s-58.167 9.5 -78.5 28.5s-30.5 43.833 -30.5 74.5zM224.002 629.993c0 -14 4.5 -25.333 13.5 -34s20.5 -13 34.5 -13c13.333 0 24.333 4.33301 33 13
s13 20 13 34s-4.5 25.167 -13.5 33.5s-20.167 12.5 -33.5 12.5c-14 0 -25.333 -4.16699 -34 -12.5s-13 -19.5 -13 -33.5z" />
    <glyph glyph-name="ae" unicode="&#xe6;" horiz-adv-x="864" 
d="M36 139c0 52.667 19.832 93.501 59.499 122.501s95.167 43.5 166.5 43.5c15.333 0 31 -0.833008 47 -2.5s32 -4.16699 48 -7.5v26c0 25.333 -9.16699 46 -27.5 62s-42.833 24 -73.5 24c-49.333 0 -103 -11.667 -161 -35l-32 89c71.333 27.333 140.666 41 207.999 41
c36.667 0 68.834 -6.83301 96.501 -20.5s47.167 -31.5 58.5 -53.5c21.333 24 47 42.333 77 55s62.667 19 98 19c34.667 0 66.5 -6 95.5 -18s53.833 -29 74.5 -51s36.667 -48.167 48 -78.5s17 -63.833 17 -100.5v-21c0 -6.66699 -0.666992 -13.334 -2 -20.001h-357
c5.33301 -39.333 22 -70.833 50 -94.5s63 -35.5 105 -35.5c21.333 0 44 3.33301 68 10s48.667 17 74 31l38 -87c-33.333 -17.333 -66.166 -29.833 -98.499 -37.5s-63.833 -11.5 -94.5 -11.5c-42 0 -81.167 8.33301 -117.5 25s-66.833 41 -91.5 73
c-20.667 -30.667 -47.334 -54.667 -80.001 -72s-69 -26 -109 -26c-27.333 0 -52.166 3.66699 -74.499 11s-41.833 17.833 -58.5 31.5s-29.5 29.667 -38.5 48s-13.5 38.5 -13.5 60.5zM600.999 407.001c-34 0 -62 -10.667 -84 -32s-35.333 -49.666 -40 -84.999h237
c-2.66699 35.333 -14.167 63.666 -34.5 84.999s-46.5 32 -78.5 32zM158.999 149.001c0 -20 8.16797 -36.833 24.501 -50.5s36.5 -20.5 60.5 -20.5c34 0 61.333 10.5 82 31.5s31 48.5 31 82.5v29c-24.667 6.66699 -51.334 10 -80.001 10c-36.667 0 -65.5 -7.33301 -86.5 -22
s-31.5 -34.667 -31.5 -60z" />
    <glyph glyph-name="ccedilla" unicode="&#xe7;" horiz-adv-x="500" 
d="M36 245c0 38 6.33301 72.668 19 104.001s30.5 58.333 53.5 81s50.333 40.334 82 53.001s66.5 19 104.5 19c66 0 128.667 -19 188 -57l-52 -86c-20 13.333 -39.5 23.5 -58.5 30.5s-38.833 10.5 -59.5 10.5c-21.333 0 -41 -3.83301 -59 -11.5s-33.5 -18.334 -46.5 -32.001
s-23.167 -30 -30.5 -49s-11 -39.833 -11 -62.5s3.66699 -43.5 11 -62.5s17.5 -35.333 30.5 -49s28.5 -24.334 46.5 -32.001s37.667 -11.5 59 -11.5c20.667 0 40.5 3.66699 59.5 11s38.5 17.666 58.5 30.999l52 -87c-48 -30.667 -98.333 -48.667 -151 -54l-6 -35
c21.333 -5.33301 38.666 -16 51.999 -32s20 -35.333 20 -58c0 -29.333 -12.333 -52.833 -37 -70.5s-57 -26.5 -97 -26.5c-16 0 -32.333 1.33301 -49 4s-33.667 7.33398 -51 14.001l21 72c12.667 -4.66699 24.5 -8 35.5 -10s21.167 -3 30.5 -3
c12.667 0 23.167 2.83301 31.5 8.5s12.5 13.834 12.5 24.501c0 9.33301 -4.66699 17.166 -14 23.499s-21.666 9.5 -36.999 9.5h-13l14 81c-31.333 4.66699 -59.833 14 -85.5 28s-47.667 32 -66 54s-32.5 47.333 -42.5 76s-15 60 -15 94z" />
    <glyph glyph-name="egrave" unicode="&#xe8;" horiz-adv-x="551" 
d="M36 245c0 38 6.16504 72.666 18.498 103.999s29.5 58.333 51.5 81s48.333 40.334 79 53.001s64.667 19 102 19c34.667 0 66.5 -6 95.5 -18s53.833 -29 74.5 -51s36.834 -48.167 48.501 -78.5s17.5 -63.833 17.5 -100.5c0 -7.33301 -0.166992 -14.333 -0.5 -21
s-0.833008 -13.334 -1.5 -20.001h-357c4.66699 -39.333 21.167 -70.833 49.5 -94.5s63.5 -35.5 105.5 -35.5c21.333 0 43.833 3.33301 67.5 10s48.167 17 73.5 31l39 -87c-34.667 -17.333 -68.667 -29.833 -102 -37.5s-64.666 -11.5 -93.999 -11.5
c-39.333 0 -75.5 6.33301 -108.5 19s-61.167 30.334 -84.5 53.001s-41.5 49.667 -54.5 81s-19.5 66 -19.5 104zM286.998 406.999c-33.333 0 -61.167 -10.667 -83.5 -32s-35.5 -49.666 -39.5 -84.999h236c-2 35.333 -13.333 63.666 -34 84.999s-47 32 -79 32z
M377.997 604.999l-49 -70l-193 117l57 82z" />
    <glyph glyph-name="eacute" unicode="&#xe9;" horiz-adv-x="551" 
d="M36 245c0 38 6.16504 72.666 18.498 103.999s29.5 58.333 51.5 81s48.333 40.334 79 53.001s64.667 19 102 19c34.667 0 66.5 -6 95.5 -18s53.833 -29 74.5 -51s36.834 -48.167 48.501 -78.5s17.5 -63.833 17.5 -100.5c0 -7.33301 -0.166992 -14.333 -0.5 -21
s-0.833008 -13.334 -1.5 -20.001h-357c4.66699 -39.333 21.167 -70.833 49.5 -94.5s63.5 -35.5 105.5 -35.5c21.333 0 43.833 3.33301 67.5 10s48.167 17 73.5 31l39 -87c-34.667 -17.333 -68.667 -29.833 -102 -37.5s-64.666 -11.5 -93.999 -11.5
c-39.333 0 -75.5 6.33301 -108.5 19s-61.167 30.334 -84.5 53.001s-41.5 49.667 -54.5 81s-19.5 66 -19.5 104zM286.998 406.999c-33.333 0 -61.167 -10.667 -83.5 -32s-35.5 -49.666 -39.5 -84.999h236c-2 35.333 -13.333 63.666 -34 84.999s-47 32 -79 32z
M254.997 534.999l-49 70l185 129l57 -82z" />
    <glyph glyph-name="ecircumflex" unicode="&#xea;" horiz-adv-x="551" 
d="M36 245c0 38 6.16504 72.666 18.498 103.999s29.5 58.333 51.5 81s48.333 40.334 79 53.001s64.667 19 102 19c34.667 0 66.5 -6 95.5 -18s53.833 -29 74.5 -51s36.834 -48.167 48.501 -78.5s17.5 -63.833 17.5 -100.5c0 -7.33301 -0.166992 -14.333 -0.5 -21
s-0.833008 -13.334 -1.5 -20.001h-357c4.66699 -39.333 21.167 -70.833 49.5 -94.5s63.5 -35.5 105.5 -35.5c21.333 0 43.833 3.33301 67.5 10s48.167 17 73.5 31l39 -87c-34.667 -17.333 -68.667 -29.833 -102 -37.5s-64.666 -11.5 -93.999 -11.5
c-39.333 0 -75.5 6.33301 -108.5 19s-61.167 30.334 -84.5 53.001s-41.5 49.667 -54.5 81s-19.5 66 -19.5 104zM286.998 406.999c-33.333 0 -61.167 -10.667 -83.5 -32s-35.5 -49.666 -39.5 -84.999h236c-2 35.333 -13.333 63.666 -34 84.999s-47 32 -79 32z
M247.997 713.999h78l125 -119l-55 -60l-109 92l-109 -92l-55 60z" />
    <glyph glyph-name="edieresis" unicode="&#xeb;" horiz-adv-x="551" 
d="M36 245c0 38 6.16504 72.666 18.498 103.999s29.5 58.333 51.5 81s48.333 40.334 79 53.001s64.667 19 102 19c34.667 0 66.5 -6 95.5 -18s53.833 -29 74.5 -51s36.834 -48.167 48.501 -78.5s17.5 -63.833 17.5 -100.5c0 -7.33301 -0.166992 -14.333 -0.5 -21
s-0.833008 -13.334 -1.5 -20.001h-357c4.66699 -39.333 21.167 -70.833 49.5 -94.5s63.5 -35.5 105.5 -35.5c21.333 0 43.833 3.33301 67.5 10s48.167 17 73.5 31l39 -87c-34.667 -17.333 -68.667 -29.833 -102 -37.5s-64.666 -11.5 -93.999 -11.5
c-39.333 0 -75.5 6.33301 -108.5 19s-61.167 30.334 -84.5 53.001s-41.5 49.667 -54.5 81s-19.5 66 -19.5 104zM286.998 406.999c-33.333 0 -61.167 -10.667 -83.5 -32s-35.5 -49.666 -39.5 -84.999h236c-2 35.333 -13.333 63.666 -34 84.999s-47 32 -79 32z
M106.997 629.999c0 20.667 6.33301 37.334 19 50.001s29.334 19 50.001 19s37.334 -6.33301 50.001 -19s19 -29.334 19 -50.001s-6.33301 -37.334 -19 -50.001s-29.334 -19 -50.001 -19s-37.334 6.33301 -50.001 19s-19 29.334 -19 50.001zM328.997 629.999
c0 20.667 6.33301 37.334 19 50.001s29.334 19 50.001 19s37.334 -6.33301 50.001 -19s19 -29.334 19 -50.001s-6.33301 -37.334 -19 -50.001s-29.334 -19 -50.001 -19s-37.334 6.33301 -50.001 19s-19 29.334 -19 50.001z" />
    <glyph glyph-name="igrave" unicode="&#xec;" horiz-adv-x="259" 
d="M65 490h128v-490h-128v490zM220 605l-49 -70l-193 117l57 82z" />
    <glyph glyph-name="iacute" unicode="&#xed;" horiz-adv-x="259" 
d="M65 490h128v-490h-128v490zM97 535l-49 70l185 129l57 -82z" />
    <glyph glyph-name="icircumflex" unicode="&#xee;" horiz-adv-x="259" 
d="M65 490h128v-490h-128v490zM90 714h78l125 -119l-55 -60l-109 92l-109 -92l-55 60z" />
    <glyph glyph-name="idieresis" unicode="&#xef;" horiz-adv-x="259" 
d="M65 490h128v-490h-128v490zM-51 630c0 20.667 6.33301 37.334 19 50.001s29.334 19 50.001 19s37.334 -6.33301 50.001 -19s19 -29.334 19 -50.001s-6.33301 -37.334 -19 -50.001s-29.334 -19 -50.001 -19s-37.334 6.33301 -50.001 19s-19 29.334 -19 50.001zM171 630
c0 20.667 6.33301 37.334 19 50.001s29.334 19 50.001 19s37.334 -6.33301 50.001 -19s19 -29.334 19 -50.001s-6.33301 -37.334 -19 -50.001s-29.334 -19 -50.001 -19s-37.334 6.33301 -50.001 19s-19 29.334 -19 50.001z" />
    <glyph glyph-name="eth" unicode="&#xf0;" 
d="M36 243c0 36.667 5.83203 70.001 17.499 100.001s28 55.667 49 77s45.833 37.833 74.5 49.5s60.334 17.5 95.001 17.5c22.667 0 43.834 -3.16699 63.501 -9.5s39.167 -17.166 58.5 -32.499c-19.333 52.667 -53 96 -101 130l-126 -63l-33 66l75 37
c-9.33301 5.33301 -18.833 10 -28.5 14s-19.834 8 -30.501 12l28 86c26.667 -6.66699 52.167 -14.5 76.5 -23.5s47.166 -19.5 68.499 -31.5l111 55l33 -66l-72 -36c49.333 -39.333 87.833 -85.833 115.5 -139.5s42.834 -112.834 45.501 -177.501
c0.666992 -22 -0.333008 -43.333 -3 -64c-4 -38 -13.333 -72.667 -28 -104s-33.5 -58.333 -56.5 -81s-50 -40.167 -81 -52.5s-64.5 -18.5 -100.5 -18.5c-36.667 0 -70.334 6.16699 -101.001 18.5s-57.167 29.833 -79.5 52.5s-39.666 49.667 -51.999 81
s-18.5 65.666 -18.5 102.999zM160.999 237.001c0 -22.667 3.16699 -43.501 9.5 -62.501s15.333 -35.167 27 -48.5s25.5 -23.833 41.5 -31.5s33.667 -11.5 53 -11.5c40 0 72.5 14.667 97.5 44s37.5 68 37.5 116c0 22 -3.33301 42.167 -10 60.5s-16 34 -28 47
s-26.167 23.167 -42.5 30.5s-34.5 11 -54.5 11c-19.333 0 -37 -3.83301 -53 -11.5s-29.833 -18.167 -41.5 -31.5s-20.667 -29.666 -27 -48.999s-9.5 -40.333 -9.5 -63z" />
    <glyph glyph-name="ntilde" unicode="&#xf1;" 
d="M65 490l102.001 -0.000976562l16 -71c18.667 26.667 42.5 47.167 71.5 61.5s61.5 21.5 97.5 21.5c28 0 53.667 -4.66699 77 -14s43.5 -22.166 60.5 -38.499s30.167 -36 39.5 -59s14 -48.167 14 -75.5v-315h-128v295c0 30 -9.5 54.5 -28.5 73.5s-43.5 28.5 -73.5 28.5
c-34.667 0 -63.334 -11.667 -86.001 -35s-34 -54 -34 -92v-270h-128v490zM236.001 690.999c12.667 0 24.5 -1.83301 35.5 -5.5s21.5 -7.66699 31.5 -12l27.5 -12c8.33301 -3.66699 16.166 -5.5 23.499 -5.5c16.667 0 29.334 11.667 38.001 35l77 -23
c-5.33301 -30 -17.333 -54 -36 -72s-41.667 -27 -69 -27c-12.667 0 -24.5 1.83301 -35.5 5.5s-21.5 7.66699 -31.5 12l-27.5 12c-8.33301 3.66699 -16.166 5.5 -23.499 5.5c-18.667 0 -31.334 -11.667 -38.001 -35l-77 22c5.33301 30 17.333 54.167 36 72.5
s41.667 27.5 69 27.5z" />
    <glyph glyph-name="ograve" unicode="&#xf2;" 
d="M36 245c0 38 6.5 72.667 19.5 104s31.167 58.333 54.5 81s51.166 40.334 83.499 53.001s67.833 19 106.5 19s74.334 -6.33301 107.001 -19s60.667 -30.334 84 -53.001s41.5 -49.667 54.5 -81s19.5 -66 19.5 -104s-6.5 -72.667 -19.5 -104s-31.167 -58.333 -54.5 -81
s-51.333 -40.334 -84 -53.001s-68.334 -19 -107.001 -19s-74.167 6.33301 -106.5 19s-60.166 30.334 -83.499 53.001s-41.5 49.667 -54.5 81s-19.5 66 -19.5 104zM166 245c0 -23.333 3.33301 -44.5 10 -63.5s16 -35.5 28 -49.5s26.167 -24.833 42.5 -32.5
s34.166 -11.5 53.499 -11.5c20 0 38.167 3.83301 54.5 11.5s30.5 18.5 42.5 32.5s21.333 30.5 28 49.5s10 40.167 10 63.5s-3.33301 44.666 -10 63.999s-16 35.833 -28 49.5s-26.167 24.334 -42.5 32.001s-34.5 11.5 -54.5 11.5c-19.333 0 -37.166 -3.83301 -53.499 -11.5
s-30.5 -18.334 -42.5 -32.001s-21.333 -30.167 -28 -49.5s-10 -40.666 -10 -63.999zM391 605l-49 -70l-193 117l57 82z" />
    <glyph glyph-name="oacute" unicode="&#xf3;" 
d="M36 245c0 38 6.5 72.667 19.5 104s31.167 58.333 54.5 81s51.166 40.334 83.499 53.001s67.833 19 106.5 19s74.334 -6.33301 107.001 -19s60.667 -30.334 84 -53.001s41.5 -49.667 54.5 -81s19.5 -66 19.5 -104s-6.5 -72.667 -19.5 -104s-31.167 -58.333 -54.5 -81
s-51.333 -40.334 -84 -53.001s-68.334 -19 -107.001 -19s-74.167 6.33301 -106.5 19s-60.166 30.334 -83.499 53.001s-41.5 49.667 -54.5 81s-19.5 66 -19.5 104zM166 245c0 -23.333 3.33301 -44.5 10 -63.5s16 -35.5 28 -49.5s26.167 -24.833 42.5 -32.5
s34.166 -11.5 53.499 -11.5c20 0 38.167 3.83301 54.5 11.5s30.5 18.5 42.5 32.5s21.333 30.5 28 49.5s10 40.167 10 63.5s-3.33301 44.666 -10 63.999s-16 35.833 -28 49.5s-26.167 24.334 -42.5 32.001s-34.5 11.5 -54.5 11.5c-19.333 0 -37.166 -3.83301 -53.499 -11.5
s-30.5 -18.334 -42.5 -32.001s-21.333 -30.167 -28 -49.5s-10 -40.666 -10 -63.999zM268 535l-49 70l185 129l57 -82z" />
    <glyph glyph-name="ocircumflex" unicode="&#xf4;" 
d="M36 245c0 38 6.5 72.667 19.5 104s31.167 58.333 54.5 81s51.166 40.334 83.499 53.001s67.833 19 106.5 19s74.334 -6.33301 107.001 -19s60.667 -30.334 84 -53.001s41.5 -49.667 54.5 -81s19.5 -66 19.5 -104s-6.5 -72.667 -19.5 -104s-31.167 -58.333 -54.5 -81
s-51.333 -40.334 -84 -53.001s-68.334 -19 -107.001 -19s-74.167 6.33301 -106.5 19s-60.166 30.334 -83.499 53.001s-41.5 49.667 -54.5 81s-19.5 66 -19.5 104zM166 245c0 -23.333 3.33301 -44.5 10 -63.5s16 -35.5 28 -49.5s26.167 -24.833 42.5 -32.5
s34.166 -11.5 53.499 -11.5c20 0 38.167 3.83301 54.5 11.5s30.5 18.5 42.5 32.5s21.333 30.5 28 49.5s10 40.167 10 63.5s-3.33301 44.666 -10 63.999s-16 35.833 -28 49.5s-26.167 24.334 -42.5 32.001s-34.5 11.5 -54.5 11.5c-19.333 0 -37.166 -3.83301 -53.499 -11.5
s-30.5 -18.334 -42.5 -32.001s-21.333 -30.167 -28 -49.5s-10 -40.666 -10 -63.999zM261 714h78l125 -119l-55 -60l-109 92l-109 -92l-55 60z" />
    <glyph glyph-name="otilde" unicode="&#xf5;" 
d="M36 245c0 38 6.5 72.667 19.5 104s31.167 58.333 54.5 81s51.166 40.334 83.499 53.001s67.833 19 106.5 19s74.334 -6.33301 107.001 -19s60.667 -30.334 84 -53.001s41.5 -49.667 54.5 -81s19.5 -66 19.5 -104s-6.5 -72.667 -19.5 -104s-31.167 -58.333 -54.5 -81
s-51.333 -40.334 -84 -53.001s-68.334 -19 -107.001 -19s-74.167 6.33301 -106.5 19s-60.166 30.334 -83.499 53.001s-41.5 49.667 -54.5 81s-19.5 66 -19.5 104zM166 245c0 -23.333 3.33301 -44.5 10 -63.5s16 -35.5 28 -49.5s26.167 -24.833 42.5 -32.5
s34.166 -11.5 53.499 -11.5c20 0 38.167 3.83301 54.5 11.5s30.5 18.5 42.5 32.5s21.333 30.5 28 49.5s10 40.167 10 63.5s-3.33301 44.666 -10 63.999s-16 35.833 -28 49.5s-26.167 24.334 -42.5 32.001s-34.5 11.5 -54.5 11.5c-19.333 0 -37.166 -3.83301 -53.499 -11.5
s-30.5 -18.334 -42.5 -32.001s-21.333 -30.167 -28 -49.5s-10 -40.666 -10 -63.999zM236 691c12.667 0 24.5 -1.83301 35.5 -5.5s21.5 -7.66699 31.5 -12l27.5 -12c8.33301 -3.66699 16.166 -5.5 23.499 -5.5c16.667 0 29.334 11.667 38.001 35l77 -23
c-5.33301 -30 -17.333 -54 -36 -72s-41.667 -27 -69 -27c-12.667 0 -24.5 1.83301 -35.5 5.5s-21.5 7.66699 -31.5 12l-27.5 12c-8.33301 3.66699 -16.166 5.5 -23.499 5.5c-18.667 0 -31.334 -11.667 -38.001 -35l-77 22c5.33301 30 17.333 54.167 36 72.5
s41.667 27.5 69 27.5z" />
    <glyph glyph-name="odieresis" unicode="&#xf6;" 
d="M36 245c0 38 6.5 72.667 19.5 104s31.167 58.333 54.5 81s51.166 40.334 83.499 53.001s67.833 19 106.5 19s74.334 -6.33301 107.001 -19s60.667 -30.334 84 -53.001s41.5 -49.667 54.5 -81s19.5 -66 19.5 -104s-6.5 -72.667 -19.5 -104s-31.167 -58.333 -54.5 -81
s-51.333 -40.334 -84 -53.001s-68.334 -19 -107.001 -19s-74.167 6.33301 -106.5 19s-60.166 30.334 -83.499 53.001s-41.5 49.667 -54.5 81s-19.5 66 -19.5 104zM166 245c0 -23.333 3.33301 -44.5 10 -63.5s16 -35.5 28 -49.5s26.167 -24.833 42.5 -32.5
s34.166 -11.5 53.499 -11.5c20 0 38.167 3.83301 54.5 11.5s30.5 18.5 42.5 32.5s21.333 30.5 28 49.5s10 40.167 10 63.5s-3.33301 44.666 -10 63.999s-16 35.833 -28 49.5s-26.167 24.334 -42.5 32.001s-34.5 11.5 -54.5 11.5c-19.333 0 -37.166 -3.83301 -53.499 -11.5
s-30.5 -18.334 -42.5 -32.001s-21.333 -30.167 -28 -49.5s-10 -40.666 -10 -63.999zM120 630c0 20.667 6.33301 37.334 19 50.001s29.334 19 50.001 19s37.334 -6.33301 50.001 -19s19 -29.334 19 -50.001s-6.33301 -37.334 -19 -50.001s-29.334 -19 -50.001 -19
s-37.334 6.33301 -50.001 19s-19 29.334 -19 50.001zM342 630c0 20.667 6.33301 37.334 19 50.001s29.334 19 50.001 19s37.334 -6.33301 50.001 -19s19 -29.334 19 -50.001s-6.33301 -37.334 -19 -50.001s-29.334 -19 -50.001 -19s-37.334 6.33301 -50.001 19
s-19 29.334 -19 50.001z" />
    <glyph glyph-name="divide" unicode="&#xf7;" horiz-adv-x="576" 
d="M44 337h488v-98h-488v98zM220 480c0 20 6.33301 36.333 19 49s29 19 49 19s36.333 -6 49 -18s19 -28.667 19 -50c0 -20 -6.33301 -36.333 -19 -49s-29 -19 -49 -19s-36.333 6.33301 -49 19s-19 29 -19 49zM220 96c0 20 6.33301 36.333 19 49s29 19 49 19
s36.333 -6.33301 49 -19s19 -29 19 -49s-6.33301 -36.333 -19 -49s-29 -19 -49 -19s-36.333 6.33301 -49 19s-19 29 -19 49z" />
    <glyph glyph-name="oslash" unicode="&#xf8;" 
d="M36 245c0 38 6.50195 72.667 19.502 104s31.167 58.333 54.5 81s51.166 40.334 83.499 53.001s67.833 19 106.5 19c47.333 0 89.666 -10.333 126.999 -31l40 52l54 -40l-36 -48c25.333 -23.333 45 -51 59 -83s21 -67.667 21 -107c0 -38 -6.5 -72.667 -19.5 -104
s-31.167 -58.333 -54.5 -81s-51.333 -40.334 -84 -53.001s-68.334 -19 -107.001 -19c-47.333 0 -89.666 10.333 -126.999 31l-39 -52l-54 41l35 46c-25.333 23.333 -44.833 51 -58.5 83s-20.5 68 -20.5 108zM156.002 245c0 -19.333 2.49902 -37.168 7.49902 -53.501
s12.167 -31.166 21.5 -44.499l180 241c-19.333 12.667 -41 19 -65 19c-21.333 0 -40.666 -4 -57.999 -12s-32.5 -19 -45.5 -33s-23 -31 -30 -51s-10.5 -42 -10.5 -66zM445.001 244.998c0 38.667 -10.001 71 -30.001 97l-180 -240c18.667 -12.667 40.334 -19 65.001 -19
c21.333 0 40.833 4 58.5 12s33 19 46 33s23 31 30 51s10.5 42 10.5 66z" />
    <glyph glyph-name="ugrave" unicode="&#xf9;" 
d="M535 0h-102l-16 71c-18 -26.667 -41.5 -47.167 -70.5 -61.5s-61.5 -21.5 -97.5 -21.5c-28 0 -53.833 4.5 -77.5 13.5s-44 21.833 -61 38.5s-30.167 36.5 -39.5 59.5s-14 48.167 -14 75.5v315h128v-294c0 -30.667 9.66699 -55.5 29 -74.5s44 -28.5 74 -28.5
c34.667 0 63.167 11.667 85.5 35s33.5 54 33.5 92v270h128v-490zM391 605l-49 -70l-193 117l57 82z" />
    <glyph glyph-name="uacute" unicode="&#xfa;" 
d="M535 0h-102l-16 71c-18 -26.667 -41.5 -47.167 -70.5 -61.5s-61.5 -21.5 -97.5 -21.5c-28 0 -53.833 4.5 -77.5 13.5s-44 21.833 -61 38.5s-30.167 36.5 -39.5 59.5s-14 48.167 -14 75.5v315h128v-294c0 -30.667 9.66699 -55.5 29 -74.5s44 -28.5 74 -28.5
c34.667 0 63.167 11.667 85.5 35s33.5 54 33.5 92v270h128v-490zM268 535l-49 70l185 129l57 -82z" />
    <glyph glyph-name="ucircumflex" unicode="&#xfb;" 
d="M535 0h-102l-16 71c-18 -26.667 -41.5 -47.167 -70.5 -61.5s-61.5 -21.5 -97.5 -21.5c-28 0 -53.833 4.5 -77.5 13.5s-44 21.833 -61 38.5s-30.167 36.5 -39.5 59.5s-14 48.167 -14 75.5v315h128v-294c0 -30.667 9.66699 -55.5 29 -74.5s44 -28.5 74 -28.5
c34.667 0 63.167 11.667 85.5 35s33.5 54 33.5 92v270h128v-490zM261 714h78l125 -119l-55 -60l-109 92l-109 -92l-55 60z" />
    <glyph glyph-name="udieresis" unicode="&#xfc;" 
d="M535 0h-102l-16 71c-18 -26.667 -41.5 -47.167 -70.5 -61.5s-61.5 -21.5 -97.5 -21.5c-28 0 -53.833 4.5 -77.5 13.5s-44 21.833 -61 38.5s-30.167 36.5 -39.5 59.5s-14 48.167 -14 75.5v315h128v-294c0 -30.667 9.66699 -55.5 29 -74.5s44 -28.5 74 -28.5
c34.667 0 63.167 11.667 85.5 35s33.5 54 33.5 92v270h128v-490zM120 630c0 20.667 6.33301 37.334 19 50.001s29.334 19 50.001 19s37.334 -6.33301 50.001 -19s19 -29.334 19 -50.001s-6.33301 -37.334 -19 -50.001s-29.334 -19 -50.001 -19s-37.334 6.33301 -50.001 19
s-19 29.334 -19 50.001zM342 630c0 20.667 6.33301 37.334 19 50.001s29.334 19 50.001 19s37.334 -6.33301 50.001 -19s19 -29.334 19 -50.001s-6.33301 -37.334 -19 -50.001s-29.334 -19 -50.001 -19s-37.334 6.33301 -50.001 19s-19 29.334 -19 50.001z" />
    <glyph glyph-name="yacute" unicode="&#xfd;" horiz-adv-x="537" 
d="M309 -55c-22 -56 -48.832 -97.501 -80.499 -124.501s-70.167 -40.5 -115.5 -40.5c-22.667 0 -48 3 -76 9l17 100c8.66699 -2 17 -3.66699 25 -5s15.333 -2 22 -2c22 0 40.167 6.33301 54.5 19s27.166 33.334 38.499 62.001l17 43l-202 484h134l127 -345l124 345h133z
M236.001 534.999l-49 70l185 129l57 -82z" />
    <glyph glyph-name="thorn" unicode="&#xfe;" 
d="M65 704l128 0.00195312v-269c17.333 21.333 38.666 37.833 63.999 49.5s53 17.5 83 17.5c32.667 0 62.834 -6.33301 90.501 -19s51.5 -30.334 71.5 -53.001s35.5 -49.667 46.5 -81s16.5 -66 16.5 -104s-5.5 -72.667 -16.5 -104s-26.5 -58.333 -46.5 -81
s-43.833 -40.334 -71.5 -53.001s-57.834 -19 -90.501 -19c-30 0 -57.667 5.83301 -83 17.5s-46.666 28.5 -63.999 50.5v-264h-128v912zM435 245.002c0 22.667 -3.16699 43.666 -9.5 62.999s-15.166 35.833 -26.499 49.5s-24.833 24.334 -40.5 32.001
s-32.834 11.5 -51.501 11.5c-34 0 -61.833 -11.5 -83.5 -34.5s-32.5 -52.5 -32.5 -88.5v-66c0 -18 2.83301 -34.5 8.5 -49.5s13.667 -28 24 -39s22.5 -19.5 36.5 -25.5s29.667 -9 47 -9c18.667 0 35.834 3.83301 51.501 11.5s29.167 18.5 40.5 32.5s20.166 30.5 26.499 49.5
s9.5 39.833 9.5 62.5z" />
    <glyph glyph-name="ydieresis" unicode="&#xff;" horiz-adv-x="537" 
d="M309 -55c-22 -56 -48.832 -97.501 -80.499 -124.501s-70.167 -40.5 -115.5 -40.5c-22.667 0 -48 3 -76 9l17 100c8.66699 -2 17 -3.66699 25 -5s15.333 -2 22 -2c22 0 40.167 6.33301 54.5 19s27.166 33.334 38.499 62.001l17 43l-202 484h134l127 -345l124 345h133z
M88.001 629.999c0 20.667 6.33301 37.334 19 50.001s29.334 19 50.001 19s37.334 -6.33301 50.001 -19s19 -29.334 19 -50.001s-6.33301 -37.334 -19 -50.001s-29.334 -19 -50.001 -19s-37.334 6.33301 -50.001 19s-19 29.334 -19 50.001zM310.001 629.999
c0 20.667 6.33301 37.334 19 50.001s29.334 19 50.001 19s37.334 -6.33301 50.001 -19s19 -29.334 19 -50.001s-6.33301 -37.334 -19 -50.001s-29.334 -19 -50.001 -19s-37.334 6.33301 -50.001 19s-19 29.334 -19 50.001z" />
    <glyph glyph-name="Amacron" unicode="&#x100;" horiz-adv-x="681" 
d="M279 672h123l275 -672h-134l-62 160h-281l-62 -160h-134zM236 257h210l-105 269zM185 855h312v-87h-312v87z" />
    <glyph glyph-name="amacron" unicode="&#x101;" horiz-adv-x="559" 
d="M36 142c0 52 19.834 92.1602 59.501 120.493s95.167 42.5 166.5 42.5c15.333 0 31 -0.833008 47 -2.5s32 -4.16699 48 -7.5v26c0 25.333 -9.16699 46 -27.5 62s-42.833 24 -73.5 24c-49.333 0 -103 -11.667 -161 -35l-32 89c71.333 27.333 140.666 41 207.999 41
c30.667 0 58.667 -4.5 84 -13.5s47 -21.5 65 -37.5s32 -35.167 42 -57.5s15 -47.166 15 -74.499v-199c0 -10.667 3 -19.167 9 -25.5s14.333 -9.5 25 -9.5c5.33301 0 10.333 0.333008 15 1s8 1.33398 10 2.00098l9 -93c-10.667 -2 -21.667 -3.66699 -33 -5s-23 -2 -35 -2
c-25.333 0 -47 5.83301 -65 17.5s-31.333 27.834 -40 48.501c-21.333 -21.333 -46 -37.666 -74 -48.999s-57 -17 -87 -17c-25.333 0 -48.833 3.83301 -70.5 11.5s-40.167 18.334 -55.5 32.001s-27.333 29.834 -36 48.501s-13 39.334 -13 62.001zM159.001 148.993
c0 -20 8.16797 -36.833 24.501 -50.5s36.5 -20.5 60.5 -20.5c34 0 61.333 10.5 82 31.5s31 48.5 31 82.5v29c-24.667 6.66699 -51.334 10 -80.001 10c-36.667 0 -65.5 -7.33301 -86.5 -22s-31.5 -34.667 -31.5 -60zM115.002 672.993h312v-87h-312v87z" />
    <glyph glyph-name="Abreve" unicode="&#x102;" horiz-adv-x="681" 
d="M279 672h123l275 -672h-134l-62 160h-281l-62 -160h-134zM236 257h210l-105 269zM260 880c1.33301 -22 9.50195 -39.667 24.502 -53s33.833 -20 56.5 -20s41.5 6.66699 56.5 20s23.167 31 24.5 53h83c-1.33301 -25.333 -6.33301 -47.833 -15 -67.5
s-20.167 -36.5 -34.5 -50.5s-31.333 -24.667 -51 -32s-40.834 -11 -63.501 -11s-43.834 3.66699 -63.501 11s-36.667 18 -51 32s-26 30.833 -35 50.5s-13.833 42.167 -14.5 67.5h83z" />
    <glyph glyph-name="abreve" unicode="&#x103;" horiz-adv-x="559" 
d="M36 142c0 52 19.834 92.1602 59.501 120.493s95.167 42.5 166.5 42.5c15.333 0 31 -0.833008 47 -2.5s32 -4.16699 48 -7.5v26c0 25.333 -9.16699 46 -27.5 62s-42.833 24 -73.5 24c-49.333 0 -103 -11.667 -161 -35l-32 89c71.333 27.333 140.666 41 207.999 41
c30.667 0 58.667 -4.5 84 -13.5s47 -21.5 65 -37.5s32 -35.167 42 -57.5s15 -47.166 15 -74.499v-199c0 -10.667 3 -19.167 9 -25.5s14.333 -9.5 25 -9.5c5.33301 0 10.333 0.333008 15 1s8 1.33398 10 2.00098l9 -93c-10.667 -2 -21.667 -3.66699 -33 -5s-23 -2 -35 -2
c-25.333 0 -47 5.83301 -65 17.5s-31.333 27.834 -40 48.501c-21.333 -21.333 -46 -37.666 -74 -48.999s-57 -17 -87 -17c-25.333 0 -48.833 3.83301 -70.5 11.5s-40.167 18.334 -55.5 32.001s-27.333 29.834 -36 48.501s-13 39.334 -13 62.001zM159.001 148.993
c0 -20 8.16797 -36.833 24.501 -50.5s36.5 -20.5 60.5 -20.5c34 0 61.333 10.5 82 31.5s31 48.5 31 82.5v29c-24.667 6.66699 -51.334 10 -80.001 10c-36.667 0 -65.5 -7.33301 -86.5 -22s-31.5 -34.667 -31.5 -60zM190.002 697.993c1.33301 -22 9.50195 -39.667 24.502 -53
s33.833 -20 56.5 -20s41.5 6.66699 56.5 20s23.167 31 24.5 53h83c-1.33301 -25.333 -6.33301 -47.833 -15 -67.5s-20.167 -36.5 -34.5 -50.5s-31.333 -24.667 -51 -32s-40.834 -11 -63.501 -11s-43.834 3.66699 -63.501 11s-36.667 18 -51 32s-26 30.833 -35 50.5
s-13.833 42.167 -14.5 67.5h83z" />
    <glyph glyph-name="Aogonek" unicode="&#x104;" horiz-adv-x="684" 
d="M279 672h122.999l275 -672c-25.333 -20 -45.166 -39.5 -59.499 -58.5s-21.5 -37.167 -21.5 -54.5c0 -13.333 4.33301 -23.5 13 -30.5s19 -10.5 31 -10.5c11.333 0 23 2 35 6l15 -70c-25.333 -8.66699 -52.333 -13 -81 -13c-32 0 -58 8.33301 -78 25s-30 40 -30 70
c0 23.333 7.33301 46.5 22 69.5s36 45.167 64 66.5h-44l-62 160h-281l-62 -160h-134zM235.999 257h210l-105 269z" />
    <glyph glyph-name="aogonek" unicode="&#x105;" horiz-adv-x="559" 
d="M36 142c0 52 19.834 92.1611 59.501 120.494s95.167 42.5 166.5 42.5c15.333 0 31 -0.833008 47 -2.5s32 -4.16699 48 -7.5v26c0 25.333 -9.16699 46 -27.5 62s-42.833 24 -73.5 24c-49.333 0 -103 -11.667 -161 -35l-32 89c71.333 27.333 140.666 41 207.999 41
c30.667 0 58.667 -4.5 84 -13.5s47 -21.5 65 -37.5s32 -35.167 42 -57.5s15 -47.166 15 -74.499v-199c0 -10.667 3 -19.167 9 -25.5s14.333 -9.5 25 -9.5c5.33301 0 10.333 0.333008 15 1s8 1.33398 10 2.00098l9 -93c-25.333 -19.333 -45.166 -38 -59.499 -56
s-21.5 -35.333 -21.5 -52c0 -13.333 4.16699 -23.5 12.5 -30.5s18.833 -10.5 31.5 -10.5c11.333 0 23 2 35 6l15 -70c-25.333 -8.66699 -52.333 -13 -81 -13c-32 0 -58 8.33301 -78 25s-30 40 -30 70c0 21.333 6.66699 43 20 65s32.666 42.667 57.999 62
c-36.667 8.66699 -61.667 29.667 -75 63c-21.333 -21.333 -46 -37.666 -74 -48.999s-57 -17 -87 -17c-25.333 0 -48.833 3.83301 -70.5 11.5s-40.167 18.334 -55.5 32.001s-27.333 29.834 -36 48.501s-13 39.334 -13 62.001zM158.001 148.994
c0 -20 8.16797 -36.833 24.501 -50.5s36.833 -20.5 61.5 -20.5c34 0 61.333 10.5 82 31.5s31 48.5 31 82.5v29c-24.667 6.66699 -51.334 10 -80.001 10c-36.667 0 -65.667 -7.33301 -87 -22s-32 -34.667 -32 -60z" />
    <glyph glyph-name="Cacute" unicode="&#x106;" horiz-adv-x="650" 
d="M39 336c0 51.333 8.33301 98.333 25 141s40.334 79.334 71.001 110.001s67 54.5 109 71.5s88.667 25.5 140 25.5c40.667 0 81.5 -6.33301 122.5 -19s80.5 -31.667 118.5 -57l-54 -89c-28 19.333 -56 34 -84 44s-56.667 15 -86 15c-33.333 0 -64 -5.83301 -92 -17.5
s-52 -28.167 -72 -49.5s-35.5 -46.833 -46.5 -76.5s-16.5 -62.5 -16.5 -98.5s5.5 -68.833 16.5 -98.5s26.5 -55.167 46.5 -76.5s44 -37.833 72 -49.5s58.667 -17.5 92 -17.5c29.333 0 58 5 86 15s56 24.667 84 44l54 -89c-38 -25.333 -77.5 -44.333 -118.5 -57
s-81.833 -19 -122.5 -19c-51.333 0 -98 8.5 -140 25.5s-78.333 41 -109 72s-54.334 67.667 -71.001 110s-25 89.166 -25 140.499zM341 717l-49 70l185 129l57 -82z" />
    <glyph glyph-name="cacute" unicode="&#x107;" horiz-adv-x="500" 
d="M36 245c0 38 6.33301 72.667 19 104s30.5 58.333 53.5 81s50.333 40.334 82 53.001s66.5 19 104.5 19c66 0 128.667 -19 188 -57l-52 -86c-19.333 13.333 -38.666 23.5 -57.999 30.5s-39.333 10.5 -60 10.5c-21.333 0 -41 -3.83301 -59 -11.5
s-33.5 -18.334 -46.5 -32.001s-23.167 -30 -30.5 -49s-11 -39.833 -11 -62.5s3.66699 -43.5 11 -62.5s17.5 -35.333 30.5 -49s28.5 -24.334 46.5 -32.001s37.667 -11.5 59 -11.5c20.667 0 40.667 3.66699 60 11s38.666 17.666 57.999 30.999l52 -87
c-59.333 -38 -122 -57 -188 -57c-38 0 -72.833 6.33301 -104.5 19s-59 30.334 -82 53.001s-40.833 49.834 -53.5 81.501s-19 66.167 -19 103.5zM250 535l-49 70l185 129l57 -82z" />
    <glyph glyph-name="Ccircumflex" unicode="&#x108;" horiz-adv-x="650" 
d="M39 336c0 51.333 8.33301 98.333 25 141s40.334 79.334 71.001 110.001s67 54.5 109 71.5s88.667 25.5 140 25.5c40.667 0 81.5 -6.33301 122.5 -19s80.5 -31.667 118.5 -57l-54 -89c-28 19.333 -56 34 -84 44s-56.667 15 -86 15c-33.333 0 -64 -5.83301 -92 -17.5
s-52 -28.167 -72 -49.5s-35.5 -46.833 -46.5 -76.5s-16.5 -62.5 -16.5 -98.5s5.5 -68.833 16.5 -98.5s26.5 -55.167 46.5 -76.5s44 -37.833 72 -49.5s58.667 -17.5 92 -17.5c29.333 0 58 5 86 15s56 24.667 84 44l54 -89c-38 -25.333 -77.5 -44.333 -118.5 -57
s-81.833 -19 -122.5 -19c-51.333 0 -98 8.5 -140 25.5s-78.333 41 -109 72s-54.334 67.667 -71.001 110s-25 89.166 -25 140.499zM334 896h78l125 -119l-55 -60l-109 92l-109 -92l-55 60z" />
    <glyph glyph-name="ccircumflex" unicode="&#x109;" horiz-adv-x="500" 
d="M36 245c0 38 6.33301 72.667 19 104s30.5 58.333 53.5 81s50.333 40.334 82 53.001s66.5 19 104.5 19c66 0 128.667 -19 188 -57l-52 -86c-19.333 13.333 -38.666 23.5 -57.999 30.5s-39.333 10.5 -60 10.5c-21.333 0 -41 -3.83301 -59 -11.5
s-33.5 -18.334 -46.5 -32.001s-23.167 -30 -30.5 -49s-11 -39.833 -11 -62.5s3.66699 -43.5 11 -62.5s17.5 -35.333 30.5 -49s28.5 -24.334 46.5 -32.001s37.667 -11.5 59 -11.5c20.667 0 40.667 3.66699 60 11s38.666 17.666 57.999 30.999l52 -87
c-59.333 -38 -122 -57 -188 -57c-38 0 -72.833 6.33301 -104.5 19s-59 30.334 -82 53.001s-40.833 49.834 -53.5 81.501s-19 66.167 -19 103.5zM243 714h78l125 -119l-55 -60l-109 92l-109 -92l-55 60z" />
    <glyph glyph-name="Cdotaccent" unicode="&#x10a;" horiz-adv-x="650" 
d="M39 336c0 51.333 8.33301 98.333 25 141s40.334 79.334 71.001 110.001s67 54.5 109 71.5s88.667 25.5 140 25.5c40.667 0 81.5 -6.33301 122.5 -19s80.5 -31.667 118.5 -57l-54 -89c-28 19.333 -56 34 -84 44s-56.667 15 -86 15c-33.333 0 -64 -5.83301 -92 -17.5
s-52 -28.167 -72 -49.5s-35.5 -46.833 -46.5 -76.5s-16.5 -62.5 -16.5 -98.5s5.5 -68.833 16.5 -98.5s26.5 -55.167 46.5 -76.5s44 -37.833 72 -49.5s58.667 -17.5 92 -17.5c29.333 0 58 5 86 15s56 24.667 84 44l54 -89c-38 -25.333 -77.5 -44.333 -118.5 -57
s-81.833 -19 -122.5 -19c-51.333 0 -98 8.5 -140 25.5s-78.333 41 -109 72s-54.334 67.667 -71.001 110s-25 89.166 -25 140.499zM299 812c0 21.333 6.83301 39 20.5 53s31.5 21 53.5 21s39.833 -7 53.5 -21s20.5 -31.667 20.5 -53c0 -22 -6.83301 -39.833 -20.5 -53.5
s-31.5 -20.5 -53.5 -20.5s-39.833 6.83301 -53.5 20.5s-20.5 31.5 -20.5 53.5z" />
    <glyph glyph-name="cdotaccent" unicode="&#x10b;" horiz-adv-x="500" 
d="M36 245c0 38 6.33301 72.667 19 104s30.5 58.333 53.5 81s50.333 40.334 82 53.001s66.5 19 104.5 19c66 0 128.667 -19 188 -57l-52 -86c-19.333 13.333 -38.666 23.5 -57.999 30.5s-39.333 10.5 -60 10.5c-21.333 0 -41 -3.83301 -59 -11.5
s-33.5 -18.334 -46.5 -32.001s-23.167 -30 -30.5 -49s-11 -39.833 -11 -62.5s3.66699 -43.5 11 -62.5s17.5 -35.333 30.5 -49s28.5 -24.334 46.5 -32.001s37.667 -11.5 59 -11.5c20.667 0 40.667 3.66699 60 11s38.666 17.666 57.999 30.999l52 -87
c-59.333 -38 -122 -57 -188 -57c-38 0 -72.833 6.33301 -104.5 19s-59 30.334 -82 53.001s-40.833 49.834 -53.5 81.501s-19 66.167 -19 103.5zM208 630c0 21.333 6.83301 39 20.5 53s31.5 21 53.5 21s39.833 -7 53.5 -21s20.5 -31.667 20.5 -53
c0 -22 -6.83301 -39.833 -20.5 -53.5s-31.5 -20.5 -53.5 -20.5s-39.833 6.83301 -53.5 20.5s-20.5 31.5 -20.5 53.5z" />
    <glyph glyph-name="Ccaron" unicode="&#x10c;" horiz-adv-x="650" 
d="M39 336c0 51.333 8.33301 98.333 25 141s40.334 79.334 71.001 110.001s67 54.5 109 71.5s88.667 25.5 140 25.5c40.667 0 81.5 -6.33301 122.5 -19s80.5 -31.667 118.5 -57l-54 -89c-28 19.333 -56 34 -84 44s-56.667 15 -86 15c-33.333 0 -64 -5.83301 -92 -17.5
s-52 -28.167 -72 -49.5s-35.5 -46.833 -46.5 -76.5s-16.5 -62.5 -16.5 -98.5s5.5 -68.833 16.5 -98.5s26.5 -55.167 46.5 -76.5s44 -37.833 72 -49.5s58.667 -17.5 92 -17.5c29.333 0 58 5 86 15s56 24.667 84 44l54 -89c-38 -25.333 -77.5 -44.333 -118.5 -57
s-81.833 -19 -122.5 -19c-51.333 0 -98 8.5 -140 25.5s-78.333 41 -109 72s-54.334 67.667 -71.001 110s-25 89.166 -25 140.499zM412 727h-78l-125 120l55 59l109 -91l109 91l55 -59z" />
    <glyph glyph-name="ccaron" unicode="&#x10d;" horiz-adv-x="500" 
d="M36 245c0 38 6.33301 72.667 19 104s30.5 58.333 53.5 81s50.333 40.334 82 53.001s66.5 19 104.5 19c66 0 128.667 -19 188 -57l-52 -86c-19.333 13.333 -38.666 23.5 -57.999 30.5s-39.333 10.5 -60 10.5c-21.333 0 -41 -3.83301 -59 -11.5
s-33.5 -18.334 -46.5 -32.001s-23.167 -30 -30.5 -49s-11 -39.833 -11 -62.5s3.66699 -43.5 11 -62.5s17.5 -35.333 30.5 -49s28.5 -24.334 46.5 -32.001s37.667 -11.5 59 -11.5c20.667 0 40.667 3.66699 60 11s38.666 17.666 57.999 30.999l52 -87
c-59.333 -38 -122 -57 -188 -57c-38 0 -72.833 6.33301 -104.5 19s-59 30.334 -82 53.001s-40.833 49.834 -53.5 81.501s-19 66.167 -19 103.5zM321 545h-78l-125 120l55 59l109 -91l109 91l55 -59z" />
    <glyph glyph-name="Dcaron" unicode="&#x10e;" horiz-adv-x="729" 
d="M84 672l261 -0.00292969c51.333 0 98.333 -8.16699 141 -24.5s79.167 -39.166 109.5 -68.499s53.833 -64.666 70.5 -105.999s25 -87 25 -137c0 -49.333 -8.33301 -94.666 -25 -135.999s-40.167 -76.833 -70.5 -106.5s-66.833 -52.667 -109.5 -69
s-89.667 -24.5 -141 -24.5h-261v672zM555 335.997c0 34 -5.5 65.3291 -16.5 93.9961s-26.5 53.334 -46.5 74.001s-43.833 36.834 -71.5 48.501s-58.167 17.5 -91.5 17.5h-112v-468h112c33.333 0 63.833 5.83301 91.5 17.5s51.5 27.834 71.5 48.501s35.5 45.334 46.5 74.001
s16.5 60 16.5 94zM388 726.993h-78l-125 120l55 59l109 -91l109 91l55 -59z" />
    <glyph glyph-name="dcaron" unicode="&#x10f;" horiz-adv-x="695" 
d="M535 0l-102 -0.00195312l-16 63c-18 -24 -40.333 -42.5 -67 -55.5s-56.667 -19.5 -90 -19.5c-32.667 0 -62.667 6.33301 -90 19s-51 30.334 -71 53.001s-35.5 49.667 -46.5 81s-16.5 66 -16.5 104s5.5 72.667 16.5 104s26.5 58.333 46.5 81s43.667 40.334 71 53.001
s57.333 19 90 19c30.667 0 58.5 -5.83301 83.5 -17.5s46.167 -28.167 63.5 -49.5v269h128v-704zM166 244.998c0 -22.667 3.16699 -43.499 9.5 -62.499s15.166 -35.5 26.499 -49.5s24.666 -24.833 39.999 -32.5s32.333 -11.5 51 -11.5c34.667 0 62.834 11.5 84.501 34.5
s32.5 52.5 32.5 88.5v66c0 36 -10.833 65.5 -32.5 88.5s-49.834 34.5 -84.501 34.5c-18.667 0 -35.667 -3.83301 -51 -11.5s-28.666 -18.334 -39.999 -32.001s-20.166 -30.167 -26.499 -49.5s-9.5 -40.333 -9.5 -63zM656 532.999l-84 29l64 181l93 -32z" />
    <glyph glyph-name="Dcroat" unicode="&#x110;" horiz-adv-x="745" 
d="M100 295l-78 -0.00292969v98h78v279h261c51.333 0 98.333 -8.16699 141 -24.5s79.167 -39.166 109.5 -68.499s53.833 -64.666 70.5 -105.999s25 -87 25 -137c0 -49.333 -8.33301 -94.666 -25 -135.999s-40.167 -76.833 -70.5 -106.5s-66.833 -52.667 -109.5 -69
s-89.667 -24.5 -141 -24.5h-261v295zM576 335.997c0 34 -5.5 65.3291 -16.5 93.9961s-26.5 53.334 -46.5 74.001s-43.833 36.834 -71.5 48.501s-57.834 17.5 -90.501 17.5h-123v-177h155v-98h-155v-193h123c32.667 0 62.834 5.83301 90.501 17.5s51.5 27.834 71.5 48.501
s35.5 45.334 46.5 74.001s16.5 60 16.5 94z" />
    <glyph glyph-name="dcroat" unicode="&#x111;" 
d="M535 639l60 -0.00195312v-88h-60v-551h-102l-16 63c-18 -24 -40.333 -42.5 -67 -55.5s-56.667 -19.5 -90 -19.5c-32.667 0 -62.667 6.33301 -90 19s-51 30.334 -71 53.001s-35.5 49.667 -46.5 81s-16.5 66 -16.5 104s5.5 72.667 16.5 104s26.5 58.333 46.5 81
s43.667 40.334 71 53.001s57.333 19 90 19c30.667 0 58.5 -5.83301 83.5 -17.5s46.167 -28.167 63.5 -49.5v116h-161v88h161v65h128v-65zM166 244.998c0 -22.667 3.16699 -43.499 9.5 -62.499s15.166 -35.5 26.499 -49.5s24.666 -24.833 39.999 -32.5s32.333 -11.5 51 -11.5
c34.667 0 62.834 11.5 84.501 34.5s32.5 52.5 32.5 88.5v66c0 36 -10.833 65.5 -32.5 88.5s-49.834 34.5 -84.501 34.5c-18.667 0 -35.667 -3.83301 -51 -11.5s-28.666 -18.334 -39.999 -32.001s-20.166 -30.167 -26.499 -49.5s-9.5 -40.333 -9.5 -63z" />
    <glyph glyph-name="Emacron" unicode="&#x112;" horiz-adv-x="602" 
d="M84 672h459v-100h-326v-179h294v-98h-294v-195h342v-100h-475v672zM153 855h312v-87h-312v87z" />
    <glyph glyph-name="emacron" unicode="&#x113;" horiz-adv-x="551" 
d="M36 245c0 38 6.16504 72.666 18.498 103.999s29.5 58.333 51.5 81s48.333 40.334 79 53.001s64.667 19 102 19c34.667 0 66.5 -6 95.5 -18s53.833 -29 74.5 -51s36.834 -48.167 48.501 -78.5s17.5 -63.833 17.5 -100.5c0 -7.33301 -0.166992 -14.333 -0.5 -21
s-0.833008 -13.334 -1.5 -20.001h-357c4.66699 -39.333 21.167 -70.833 49.5 -94.5s63.5 -35.5 105.5 -35.5c21.333 0 43.833 3.33301 67.5 10s48.167 17 73.5 31l39 -87c-34.667 -17.333 -68.667 -29.833 -102 -37.5s-64.666 -11.5 -93.999 -11.5
c-39.333 0 -75.5 6.33301 -108.5 19s-61.167 30.334 -84.5 53.001s-41.5 49.667 -54.5 81s-19.5 66 -19.5 104zM286.998 406.999c-33.333 0 -61.167 -10.667 -83.5 -32s-35.5 -49.666 -39.5 -84.999h236c-2 35.333 -13.333 63.666 -34 84.999s-47 32 -79 32z
M130.997 672.999h312v-87h-312v87z" />
    <glyph glyph-name="Ebreve" unicode="&#x114;" horiz-adv-x="602" 
d="M84 672h459v-100h-326v-179h294v-98h-294v-195h342v-100h-475v672zM226 880c1.33301 -22 9.50195 -39.667 24.502 -53s33.833 -20 56.5 -20s41.5 6.66699 56.5 20s23.167 31 24.5 53h83c-1.33301 -25.333 -6.33301 -47.833 -15 -67.5s-20.167 -36.5 -34.5 -50.5
s-31.333 -24.667 -51 -32s-40.834 -11 -63.501 -11s-43.834 3.66699 -63.501 11s-36.667 18 -51 32s-26 30.833 -35 50.5s-13.833 42.167 -14.5 67.5h83z" />
    <glyph glyph-name="ebreve" unicode="&#x115;" horiz-adv-x="551" 
d="M36 245c0 38 6.16504 72.666 18.498 103.999s29.5 58.333 51.5 81s48.333 40.334 79 53.001s64.667 19 102 19c34.667 0 66.5 -6 95.5 -18s53.833 -29 74.5 -51s36.834 -48.167 48.501 -78.5s17.5 -63.833 17.5 -100.5c0 -7.33301 -0.166992 -14.333 -0.5 -21
s-0.833008 -13.334 -1.5 -20.001h-357c4.66699 -39.333 21.167 -70.833 49.5 -94.5s63.5 -35.5 105.5 -35.5c21.333 0 43.833 3.33301 67.5 10s48.167 17 73.5 31l39 -87c-34.667 -17.333 -68.667 -29.833 -102 -37.5s-64.666 -11.5 -93.999 -11.5
c-39.333 0 -75.5 6.33301 -108.5 19s-61.167 30.334 -84.5 53.001s-41.5 49.667 -54.5 81s-19.5 66 -19.5 104zM286.998 406.999c-33.333 0 -61.167 -10.667 -83.5 -32s-35.5 -49.666 -39.5 -84.999h236c-2 35.333 -13.333 63.666 -34 84.999s-47 32 -79 32z
M203.997 697.999c1.33301 -22 9.50195 -39.667 24.502 -53s33.833 -20 56.5 -20s41.5 6.66699 56.5 20s23.167 31 24.5 53h83c-1.33301 -25.333 -6.33301 -47.833 -15 -67.5s-20.167 -36.5 -34.5 -50.5s-31.333 -24.667 -51 -32s-40.834 -11 -63.501 -11
s-43.834 3.66699 -63.501 11s-36.667 18 -51 32s-26 30.833 -35 50.5s-13.833 42.167 -14.5 67.5h83z" />
    <glyph glyph-name="Edotaccent" unicode="&#x116;" horiz-adv-x="602" 
d="M84 672h459v-100h-326v-179h294v-98h-294v-195h342v-100h-475v672zM235 812c0 21.333 6.83301 39 20.5 53s31.5 21 53.5 21s39.833 -7 53.5 -21s20.5 -31.667 20.5 -53c0 -22 -6.83301 -39.833 -20.5 -53.5s-31.5 -20.5 -53.5 -20.5s-39.833 6.83301 -53.5 20.5
s-20.5 31.5 -20.5 53.5z" />
    <glyph glyph-name="edotaccent" unicode="&#x117;" horiz-adv-x="551" 
d="M36 245c0 38 6.16504 72.666 18.498 103.999s29.5 58.333 51.5 81s48.333 40.334 79 53.001s64.667 19 102 19c34.667 0 66.5 -6 95.5 -18s53.833 -29 74.5 -51s36.834 -48.167 48.501 -78.5s17.5 -63.833 17.5 -100.5c0 -7.33301 -0.166992 -14.333 -0.5 -21
s-0.833008 -13.334 -1.5 -20.001h-357c4.66699 -39.333 21.167 -70.833 49.5 -94.5s63.5 -35.5 105.5 -35.5c21.333 0 43.833 3.33301 67.5 10s48.167 17 73.5 31l39 -87c-34.667 -17.333 -68.667 -29.833 -102 -37.5s-64.666 -11.5 -93.999 -11.5
c-39.333 0 -75.5 6.33301 -108.5 19s-61.167 30.334 -84.5 53.001s-41.5 49.667 -54.5 81s-19.5 66 -19.5 104zM286.998 406.999c-33.333 0 -61.167 -10.667 -83.5 -32s-35.5 -49.666 -39.5 -84.999h236c-2 35.333 -13.333 63.666 -34 84.999s-47 32 -79 32z
M212.997 629.999c0 21.333 6.83301 39 20.5 53s31.5 21 53.5 21s39.833 -7 53.5 -21s20.5 -31.667 20.5 -53c0 -22 -6.83301 -39.833 -20.5 -53.5s-31.5 -20.5 -53.5 -20.5s-39.833 6.83301 -53.5 20.5s-20.5 31.5 -20.5 53.5z" />
    <glyph glyph-name="Eogonek" unicode="&#x118;" horiz-adv-x="602" 
d="M84 672h458.999v-100h-326v-179h294v-98h-294v-195h342v-100c-25.333 -20 -45.166 -39.5 -59.499 -58.5s-21.5 -37.167 -21.5 -54.5c0 -13.333 4.33301 -23.5 13 -30.5s19 -10.5 31 -10.5c11.333 0 23 2 35 6l15 -70c-25.333 -8.66699 -52.333 -13 -81 -13
c-32 0 -58 8.33301 -78 25s-30 40 -30 70c0 23.333 7.33301 46.5 22 69.5s36 45.167 64 66.5h-385v672z" />
    <glyph glyph-name="eogonek" unicode="&#x119;" horiz-adv-x="551" 
d="M36 245c0 38 6.16504 72.666 18.498 103.999s29.5 58.333 51.5 81s48.333 40.334 79 53.001s64.667 19 102 19c34.667 0 66.5 -6 95.5 -18s53.833 -29 74.5 -51s36.834 -48.167 48.501 -78.5s17.5 -63.833 17.5 -100.5c0 -7.33301 -0.166992 -14.333 -0.5 -21
s-0.833008 -13.334 -1.5 -20.001h-357c4.66699 -39.333 21.167 -70.833 49.5 -94.5s63.5 -35.5 105.5 -35.5c21.333 0 43.833 3.33301 67.5 10s48.167 17 73.5 31l39 -87c-33.333 -28 -57.333 -53.5 -72 -76.5s-22 -44.833 -22 -65.5c0 -15.333 4.33301 -27.333 13 -36
s19 -13 31 -13c11.333 0 22 2 32 6l18 -69c-13.333 -5.33301 -26.666 -9 -39.999 -11s-26.666 -3 -39.999 -3c-32 0 -58.167 8.83301 -78.5 26.5s-30.5 42.167 -30.5 73.5c0 45.333 21.333 87.333 64 126c-12.667 -2 -24.834 -3.66699 -36.501 -5s-23.167 -2 -34.5 -2
c-39.333 0 -75.5 6.33301 -108.5 19s-61.167 30.334 -84.5 53.001s-41.5 49.667 -54.5 81s-19.5 66 -19.5 104zM286.998 406.999c-33.333 0 -61.167 -10.667 -83.5 -32s-35.5 -49.666 -39.5 -84.999h236c-2 35.333 -13.333 63.666 -34 84.999s-47 32 -79 32z" />
    <glyph glyph-name="Ecaron" unicode="&#x11a;" horiz-adv-x="602" 
d="M84 672h459v-100h-326v-179h294v-98h-294v-195h342v-100h-475v672zM348 727h-78l-125 120l55 59l109 -91l109 91l55 -59z" />
    <glyph glyph-name="ecaron" unicode="&#x11b;" horiz-adv-x="551" 
d="M36 245c0 38 6.16504 72.666 18.498 103.999s29.5 58.333 51.5 81s48.333 40.334 79 53.001s64.667 19 102 19c34.667 0 66.5 -6 95.5 -18s53.833 -29 74.5 -51s36.834 -48.167 48.501 -78.5s17.5 -63.833 17.5 -100.5c0 -7.33301 -0.166992 -14.333 -0.5 -21
s-0.833008 -13.334 -1.5 -20.001h-357c4.66699 -39.333 21.167 -70.833 49.5 -94.5s63.5 -35.5 105.5 -35.5c21.333 0 43.833 3.33301 67.5 10s48.167 17 73.5 31l39 -87c-34.667 -17.333 -68.667 -29.833 -102 -37.5s-64.666 -11.5 -93.999 -11.5
c-39.333 0 -75.5 6.33301 -108.5 19s-61.167 30.334 -84.5 53.001s-41.5 49.667 -54.5 81s-19.5 66 -19.5 104zM286.998 406.999c-33.333 0 -61.167 -10.667 -83.5 -32s-35.5 -49.666 -39.5 -84.999h236c-2 35.333 -13.333 63.666 -34 84.999s-47 32 -79 32z
M325.997 544.999h-78l-125 120l55 59l109 -91l109 91l55 -59z" />
    <glyph glyph-name="Gcircumflex" unicode="&#x11c;" horiz-adv-x="713" 
d="M654 45c-42 -18 -83.832 -31.999 -125.499 -41.999s-84.5 -15 -128.5 -15c-53.333 0 -102.166 8.5 -146.499 25.5s-82.333 41 -114 72s-56.334 67.667 -74.001 110s-26.5 89.166 -26.5 140.499c0 50.667 8.66699 97.334 26 140.001s41.5 79.5 72.5 110.5
s68.167 55 111.5 72s91 25.5 143 25.5c41.333 0 82.666 -5.83301 123.999 -17.5s83 -28.834 125 -51.501l-49 -89c-33.333 17.333 -65 31 -95 41s-60 15 -90 15c-35.333 0 -67.5 -6 -96.5 -18s-54 -29 -75 -51s-37.333 -48 -49 -78s-17.5 -63 -17.5 -99
c0 -36.667 5.83301 -70 17.5 -100s28.167 -55.833 49.5 -77.5s46.833 -38.5 76.5 -50.5s62.167 -18 97.5 -18c42 0 82.333 8.33301 121 25v158h-151v98h274v-326zM347.001 896.001h78l125 -119l-55 -60l-109 92l-109 -92l-55 60z" />
    <glyph glyph-name="gcircumflex" unicode="&#x11d;" 
d="M535 9c0 -33.333 -6.49902 -64.002 -19.499 -92.002s-31.333 -52.167 -55 -72.5s-51.667 -36.166 -84 -47.499s-67.5 -17 -105.5 -17c-32 0 -65.333 3.66699 -100 11s-70.667 18.666 -108 33.999l35 95c31.333 -14 60.666 -24.167 87.999 -30.5s52.333 -9.5 75 -9.5
c43.333 0 78.5 11.5 105.5 34.5s40.5 52.833 40.5 89.5v52c-36 -45.333 -85 -68 -147 -68c-32.667 0 -62.667 6.33301 -90 19s-51 30.334 -71 53.001s-35.5 49.667 -46.5 81s-16.5 66 -16.5 104s5.5 72.667 16.5 104s26.5 58.333 46.5 81s43.667 40.334 71 53.001
s57.333 19 90 19c33.333 0 63.333 -6.5 90 -19.5s49 -31.5 67 -55.5l16 63h102v-481zM166.001 244.998c0 -22.667 3.16699 -43.499 9.5 -62.499s15.166 -35.5 26.499 -49.5s24.666 -24.833 39.999 -32.5s32.333 -11.5 51 -11.5c34.667 0 62.834 11.5 84.501 34.5
s32.5 52.5 32.5 88.5v66c0 36 -10.833 65.5 -32.5 88.5s-49.834 34.5 -84.501 34.5c-18.667 0 -35.667 -3.83301 -51 -11.5s-28.666 -18.334 -39.999 -32.001s-20.166 -30.167 -26.499 -49.5s-9.5 -40.333 -9.5 -63zM261.001 713.999h78l125 -119l-55 -60l-109 92l-109 -92
l-55 60z" />
    <glyph glyph-name="Gbreve" unicode="&#x11e;" horiz-adv-x="713" 
d="M654 45c-42 -18 -83.832 -31.999 -125.499 -41.999s-84.5 -15 -128.5 -15c-53.333 0 -102.166 8.5 -146.499 25.5s-82.333 41 -114 72s-56.334 67.667 -74.001 110s-26.5 89.166 -26.5 140.499c0 50.667 8.66699 97.334 26 140.001s41.5 79.5 72.5 110.5
s68.167 55 111.5 72s91 25.5 143 25.5c41.333 0 82.666 -5.83301 123.999 -17.5s83 -28.834 125 -51.501l-49 -89c-33.333 17.333 -65 31 -95 41s-60 15 -90 15c-35.333 0 -67.5 -6 -96.5 -18s-54 -29 -75 -51s-37.333 -48 -49 -78s-17.5 -63 -17.5 -99
c0 -36.667 5.83301 -70 17.5 -100s28.167 -55.833 49.5 -77.5s46.833 -38.5 76.5 -50.5s62.167 -18 97.5 -18c42 0 82.333 8.33301 121 25v158h-151v98h274v-326zM303.001 880.001c1.33301 -22 9.50195 -39.667 24.502 -53s33.833 -20 56.5 -20s41.5 6.66699 56.5 20
s23.167 31 24.5 53h83c-1.33301 -25.333 -6.33301 -47.833 -15 -67.5s-20.167 -36.5 -34.5 -50.5s-31.333 -24.667 -51 -32s-40.834 -11 -63.501 -11s-43.834 3.66699 -63.501 11s-36.667 18 -51 32s-26 30.833 -35 50.5s-13.833 42.167 -14.5 67.5h83z" />
    <glyph glyph-name="gbreve" unicode="&#x11f;" 
d="M535 9c0 -33.333 -6.49902 -64.002 -19.499 -92.002s-31.333 -52.167 -55 -72.5s-51.667 -36.166 -84 -47.499s-67.5 -17 -105.5 -17c-32 0 -65.333 3.66699 -100 11s-70.667 18.666 -108 33.999l35 95c31.333 -14 60.666 -24.167 87.999 -30.5s52.333 -9.5 75 -9.5
c43.333 0 78.5 11.5 105.5 34.5s40.5 52.833 40.5 89.5v52c-36 -45.333 -85 -68 -147 -68c-32.667 0 -62.667 6.33301 -90 19s-51 30.334 -71 53.001s-35.5 49.667 -46.5 81s-16.5 66 -16.5 104s5.5 72.667 16.5 104s26.5 58.333 46.5 81s43.667 40.334 71 53.001
s57.333 19 90 19c33.333 0 63.333 -6.5 90 -19.5s49 -31.5 67 -55.5l16 63h102v-481zM166.001 244.998c0 -22.667 3.16699 -43.499 9.5 -62.499s15.166 -35.5 26.499 -49.5s24.666 -24.833 39.999 -32.5s32.333 -11.5 51 -11.5c34.667 0 62.834 11.5 84.501 34.5
s32.5 52.5 32.5 88.5v66c0 36 -10.833 65.5 -32.5 88.5s-49.834 34.5 -84.501 34.5c-18.667 0 -35.667 -3.83301 -51 -11.5s-28.666 -18.334 -39.999 -32.001s-20.166 -30.167 -26.499 -49.5s-9.5 -40.333 -9.5 -63zM217.001 697.999
c1.33301 -22 9.50195 -39.667 24.502 -53s33.833 -20 56.5 -20s41.5 6.66699 56.5 20s23.167 31 24.5 53h83c-1.33301 -25.333 -6.33301 -47.833 -15 -67.5s-20.167 -36.5 -34.5 -50.5s-31.333 -24.667 -51 -32s-40.834 -11 -63.501 -11s-43.834 3.66699 -63.501 11
s-36.667 18 -51 32s-26 30.833 -35 50.5s-13.833 42.167 -14.5 67.5h83z" />
    <glyph glyph-name="Gdotaccent" unicode="&#x120;" horiz-adv-x="713" 
d="M654 45c-42 -18 -83.832 -31.999 -125.499 -41.999s-84.5 -15 -128.5 -15c-53.333 0 -102.166 8.5 -146.499 25.5s-82.333 41 -114 72s-56.334 67.667 -74.001 110s-26.5 89.166 -26.5 140.499c0 50.667 8.66699 97.334 26 140.001s41.5 79.5 72.5 110.5
s68.167 55 111.5 72s91 25.5 143 25.5c41.333 0 82.666 -5.83301 123.999 -17.5s83 -28.834 125 -51.501l-49 -89c-33.333 17.333 -65 31 -95 41s-60 15 -90 15c-35.333 0 -67.5 -6 -96.5 -18s-54 -29 -75 -51s-37.333 -48 -49 -78s-17.5 -63 -17.5 -99
c0 -36.667 5.83301 -70 17.5 -100s28.167 -55.833 49.5 -77.5s46.833 -38.5 76.5 -50.5s62.167 -18 97.5 -18c42 0 82.333 8.33301 121 25v158h-151v98h274v-326zM312.001 812.001c0 21.333 6.83301 39 20.5 53s31.5 21 53.5 21s39.833 -7 53.5 -21s20.5 -31.667 20.5 -53
c0 -22 -6.83301 -39.833 -20.5 -53.5s-31.5 -20.5 -53.5 -20.5s-39.833 6.83301 -53.5 20.5s-20.5 31.5 -20.5 53.5z" />
    <glyph glyph-name="gdotaccent" unicode="&#x121;" 
d="M535 9c0 -33.333 -6.49902 -64.002 -19.499 -92.002s-31.333 -52.167 -55 -72.5s-51.667 -36.166 -84 -47.499s-67.5 -17 -105.5 -17c-32 0 -65.333 3.66699 -100 11s-70.667 18.666 -108 33.999l35 95c31.333 -14 60.666 -24.167 87.999 -30.5s52.333 -9.5 75 -9.5
c43.333 0 78.5 11.5 105.5 34.5s40.5 52.833 40.5 89.5v52c-36 -45.333 -85 -68 -147 -68c-32.667 0 -62.667 6.33301 -90 19s-51 30.334 -71 53.001s-35.5 49.667 -46.5 81s-16.5 66 -16.5 104s5.5 72.667 16.5 104s26.5 58.333 46.5 81s43.667 40.334 71 53.001
s57.333 19 90 19c33.333 0 63.333 -6.5 90 -19.5s49 -31.5 67 -55.5l16 63h102v-481zM166.001 244.998c0 -22.667 3.16699 -43.499 9.5 -62.499s15.166 -35.5 26.499 -49.5s24.666 -24.833 39.999 -32.5s32.333 -11.5 51 -11.5c34.667 0 62.834 11.5 84.501 34.5
s32.5 52.5 32.5 88.5v66c0 36 -10.833 65.5 -32.5 88.5s-49.834 34.5 -84.501 34.5c-18.667 0 -35.667 -3.83301 -51 -11.5s-28.666 -18.334 -39.999 -32.001s-20.166 -30.167 -26.499 -49.5s-9.5 -40.333 -9.5 -63zM226.001 629.999c0 21.333 6.83301 39 20.5 53
s31.5 21 53.5 21s39.833 -7 53.5 -21s20.5 -31.667 20.5 -53c0 -22 -6.83301 -39.833 -20.5 -53.5s-31.5 -20.5 -53.5 -20.5s-39.833 6.83301 -53.5 20.5s-20.5 31.5 -20.5 53.5z" />
    <glyph glyph-name="Gcommaaccent" unicode="&#x122;" horiz-adv-x="713" 
d="M654 45c-42 -18 -83.832 -31.999 -125.499 -41.999s-84.5 -15 -128.5 -15c-53.333 0 -102.166 8.5 -146.499 25.5s-82.333 41 -114 72s-56.334 67.667 -74.001 110s-26.5 89.166 -26.5 140.499c0 50.667 8.66699 97.334 26 140.001s41.5 79.5 72.5 110.5
s68.167 55 111.5 72s91 25.5 143 25.5c41.333 0 82.666 -5.83301 123.999 -17.5s83 -28.834 125 -51.501l-49 -89c-33.333 17.333 -65 31 -95 41s-60 15 -90 15c-35.333 0 -67.5 -6 -96.5 -18s-54 -29 -75 -51s-37.333 -48 -49 -78s-17.5 -63 -17.5 -99
c0 -36.667 5.83301 -70 17.5 -100s28.167 -55.833 49.5 -77.5s46.833 -38.5 76.5 -50.5s62.167 -18 97.5 -18c42 0 82.333 8.33301 121 25v158h-151v98h274v-326zM317.001 -112.999c0 20.667 6.33496 37.3301 19.002 49.9971s29.334 19 50.001 19
c21.333 0 38.5 -7.83301 51.5 -23.5s19.5 -35.167 19.5 -58.5c0 -35.333 -9.33301 -68.166 -28 -98.499s-45.667 -56.166 -81 -77.499l-33 45c15.333 13.333 28.166 27 38.499 41s17.166 28.667 20.499 44c-16.667 -0.666992 -30.334 4.83301 -41.001 16.5
s-16 25.834 -16 42.501z" />
    <glyph glyph-name="gcommaaccent" unicode="&#x123;" 
d="M535 9c0 -33.333 -6.49902 -64.002 -19.499 -92.002s-31.333 -52.167 -55 -72.5s-51.667 -36.166 -84 -47.499s-67.5 -17 -105.5 -17c-32 0 -65.333 3.66699 -100 11s-70.667 18.666 -108 33.999l35 95c31.333 -14 60.666 -24.167 87.999 -30.5s52.333 -9.5 75 -9.5
c43.333 0 78.5 11.5 105.5 34.5s40.5 52.833 40.5 89.5v52c-36 -45.333 -85 -68 -147 -68c-32.667 0 -62.667 6.33301 -90 19s-51 30.334 -71 53.001s-35.5 49.667 -46.5 81s-16.5 66 -16.5 104s5.5 72.667 16.5 104s26.5 58.333 46.5 81s43.667 40.334 71 53.001
s57.333 19 90 19c33.333 0 63.333 -6.5 90 -19.5s49 -31.5 67 -55.5l16 63h102v-481zM166.001 244.998c0 -22.667 3.16699 -43.499 9.5 -62.499s15.166 -35.5 26.499 -49.5s24.666 -24.833 39.999 -32.5s32.333 -11.5 51 -11.5c34.667 0 62.834 11.5 84.501 34.5
s32.5 52.5 32.5 88.5v66c0 36 -10.833 65.5 -32.5 88.5s-49.834 34.5 -84.501 34.5c-18.667 0 -35.667 -3.83301 -51 -11.5s-28.666 -18.334 -39.999 -32.001s-20.166 -30.167 -26.499 -49.5s-9.5 -40.333 -9.5 -63zM369.001 603.999
c0 -20.667 -6.33496 -37.334 -19.002 -50.001s-29.334 -19 -50.001 -19c-21.333 0 -38.5 7.66699 -51.5 23s-19.5 34.666 -19.5 57.999c0 36 9.33301 69 28 99s45.667 55.667 81 77l33 -45c-15.333 -13.333 -28.166 -27 -38.499 -41s-17.166 -28.333 -20.499 -43
c16.667 -1.33301 30.334 -7.66602 41.001 -18.999s16 -24.666 16 -39.999z" />
    <glyph glyph-name="Hcircumflex" unicode="&#x124;" horiz-adv-x="777" 
d="M84 672h133v-277h343v277h133v-672h-133v293h-343v-293h-133v672zM350 896h78l125 -119l-55 -60l-109 92l-109 -92l-55 60z" />
    <glyph glyph-name="hcircumflex" unicode="&#x125;" 
d="M65 704l128.001 -0.000976562v-277c17.333 24 39.833 42.5 67.5 55.5s58.167 19.5 91.5 19.5c28 0 53.667 -4.66699 77 -14s43.5 -22.166 60.5 -38.499s30.167 -36 39.5 -59s14 -48.167 14 -75.5v-315h-128v295c0 30 -9.5 54.5 -28.5 73.5s-43.5 28.5 -73.5 28.5
c-34.667 0 -63.334 -11.667 -86.001 -35s-34 -54 -34 -92v-270h-128v704zM90.001 927.999h78l125 -119l-55 -60l-109 92l-109 -92l-55 60z" />
    <glyph glyph-name="Hbar" unicode="&#x126;" horiz-adv-x="777" 
d="M84 503h-62v88h62v81h133v-81h343v81h133v-81h63v-88h-63v-503h-133v293h-343v-293h-133v503zM560 395v108h-343v-108h343z" />
    <glyph glyph-name="hbar" unicode="&#x127;" 
d="M65 551l-58.999 -0.000976562v88h59v65h128v-65h162v-88h-162v-124c17.333 24 39.833 42.5 67.5 55.5s58.167 19.5 91.5 19.5c28 0 53.667 -4.66699 77 -14s43.5 -22.166 60.5 -38.499s30.167 -36 39.5 -59s14 -48.167 14 -75.5v-315h-128v295c0 30 -9.5 54.5 -28.5 73.5
s-43.5 28.5 -73.5 28.5c-34.667 0 -63.334 -11.667 -86.001 -35s-34 -54 -34 -92v-270h-128v551z" />
    <glyph glyph-name="Itilde" unicode="&#x128;" horiz-adv-x="302" 
d="M84 672h133v-672h-133v672zM87 873c12.667 0 24.5 -1.83301 35.5 -5.5s21.5 -7.66699 31.5 -12l27.5 -12c8.33301 -3.66699 16.166 -5.5 23.499 -5.5c16.667 0 29.334 11.667 38.001 35l77 -23c-5.33301 -30 -17.333 -54 -36 -72s-41.667 -27 -69 -27
c-12.667 0 -24.5 1.83301 -35.5 5.5s-21.5 7.66699 -31.5 12l-27.5 12c-8.33301 3.66699 -16.166 5.5 -23.499 5.5c-18.667 0 -31.334 -11.667 -38.001 -35l-77 22c5.33301 30 17.333 54.167 36 72.5s41.667 27.5 69 27.5z" />
    <glyph glyph-name="itilde" unicode="&#x129;" horiz-adv-x="259" 
d="M65 490h128v-490h-128v490zM65 691c12.667 0 24.5 -1.83301 35.5 -5.5s21.5 -7.66699 31.5 -12l27.5 -12c8.33301 -3.66699 16.166 -5.5 23.499 -5.5c16.667 0 29.334 11.667 38.001 35l77 -23c-5.33301 -30 -17.333 -54 -36 -72s-41.667 -27 -69 -27
c-12.667 0 -24.5 1.83301 -35.5 5.5s-21.5 7.66699 -31.5 12l-27.5 12c-8.33301 3.66699 -16.166 5.5 -23.499 5.5c-18.667 0 -31.334 -11.667 -38.001 -35l-77 22c5.33301 30 17.333 54.167 36 72.5s41.667 27.5 69 27.5z" />
    <glyph glyph-name="Imacron" unicode="&#x12a;" horiz-adv-x="302" 
d="M84 672h133v-672h-133v672zM-5 855h312v-87h-312v87z" />
    <glyph glyph-name="imacron" unicode="&#x12b;" horiz-adv-x="259" 
d="M65 490h128v-490h-128v490zM-27 673h312v-87h-312v87z" />
    <glyph glyph-name="Ibreve" unicode="&#x12c;" horiz-adv-x="302" 
d="M84 672h133v-672h-133v672zM68 880c1.33301 -22 9.50195 -39.667 24.502 -53s33.833 -20 56.5 -20s41.5 6.66699 56.5 20s23.167 31 24.5 53h83c-1.33301 -25.333 -6.33301 -47.833 -15 -67.5s-20.167 -36.5 -34.5 -50.5s-31.333 -24.667 -51 -32
s-40.834 -11 -63.501 -11s-43.834 3.66699 -63.501 11s-36.667 18 -51 32s-26 30.833 -35 50.5s-13.833 42.167 -14.5 67.5h83z" />
    <glyph glyph-name="ibreve" unicode="&#x12d;" horiz-adv-x="259" 
d="M65 490h128v-490h-128v490zM46 698c1.33301 -22 9.50195 -39.667 24.502 -53s33.833 -20 56.5 -20s41.5 6.66699 56.5 20s23.167 31 24.5 53h83c-1.33301 -25.333 -6.33301 -47.833 -15 -67.5s-20.167 -36.5 -34.5 -50.5s-31.333 -24.667 -51 -32
s-40.834 -11 -63.501 -11s-43.834 3.66699 -63.501 11s-36.667 18 -51 32s-26 30.833 -35 50.5s-13.833 42.167 -14.5 67.5h83z" />
    <glyph glyph-name="Iogonek" unicode="&#x12e;" horiz-adv-x="302" 
d="M217 0c-25.333 -20 -45.167 -39.5 -59.5 -58.5s-21.5 -37.167 -21.5 -54.5c0 -13.333 4.33301 -23.5 13 -30.5s19 -10.5 31 -10.5c11.333 0 23 2 35 6l15 -70c-25.333 -8.66699 -52.333 -13 -81 -13c-32 0 -58 8.33301 -78 25s-30 40 -30 70
c0 23.333 7.33301 46.5 22 69.5s36 45.167 64 66.5h-43v672h133v-672z" />
    <glyph glyph-name="iogonek" unicode="&#x12f;" horiz-adv-x="259" 
d="M193 0c-25.333 -20 -45.167 -39.5 -59.5 -58.5s-21.5 -37.167 -21.5 -54.5c0 -13.333 4.33301 -23.5 13 -30.5s19 -10.5 31 -10.5c11.333 0 23 2 35 6l15 -70c-25.333 -8.66699 -52.333 -13 -81 -13c-32 0 -58 8.33301 -78 25s-30 40 -30 70
c0 23.333 7.33301 46.5 22 69.5s36 45.167 64 66.5h-38v490h128v-490zM52.999 630c0 22.667 7.16699 41.167 21.5 55.5s32.5 21.5 54.5 21.5c22.667 0 41.167 -7.16699 55.5 -21.5s21.5 -32.833 21.5 -55.5s-7.16699 -41.167 -21.5 -55.5s-32.833 -21.5 -55.5 -21.5
c-22 0 -40.167 7.16699 -54.5 21.5s-21.5 32.833 -21.5 55.5z" />
    <glyph glyph-name="Idotaccent" unicode="&#x130;" horiz-adv-x="302" 
d="M84 672h133v-672h-133v672zM77 812c0 21.333 6.83301 39 20.5 53s31.5 21 53.5 21s39.833 -7 53.5 -21s20.5 -31.667 20.5 -53c0 -22 -6.83301 -39.833 -20.5 -53.5s-31.5 -20.5 -53.5 -20.5s-39.833 6.83301 -53.5 20.5s-20.5 31.5 -20.5 53.5z" />
    <glyph glyph-name="dotlessi" unicode="&#x131;" horiz-adv-x="259" 
d="M65 490h128v-490h-128v490z" />
    <glyph glyph-name="IJ" unicode="&#x132;" horiz-adv-x="848" 
d="M84 672h133v-672h-133v672zM543 -12c-52.667 0 -98.332 11.8301 -136.999 35.4971s-68.334 54.5 -89.001 92.5l94 58c16 -23.333 34.833 -42.166 56.5 -56.499s45.5 -21.5 71.5 -21.5c30 0 53.167 9.66699 69.5 29s24.5 47 24.5 83v464h133v-477
c0 -30 -4.83301 -57.667 -14.5 -83s-24 -47.166 -43 -65.499s-42.333 -32.666 -70 -42.999s-59.5 -15.5 -95.5 -15.5z" />
    <glyph glyph-name="ij" unicode="&#x133;" horiz-adv-x="526" 
d="M65 490h128v-490h-128v490zM53 630c0 22.667 7.16699 41.167 21.5 55.5s32.5 21.5 54.5 21.5c22.667 0 41.167 -7.16699 55.5 -21.5s21.5 -32.833 21.5 -55.5s-7.16699 -41.167 -21.5 -55.5s-32.833 -21.5 -55.5 -21.5c-22 0 -40.167 7.16699 -54.5 21.5
s-21.5 32.833 -21.5 55.5zM460 -62c0 -23.333 -4 -44.668 -12 -64.001s-19.333 -36 -34 -50s-32 -24.833 -52 -32.5s-42.333 -11.5 -67 -11.5c-35.333 0 -72.333 5 -111 15l17 96c22.667 -6 43.667 -9 63 -9c20.667 0 37.167 6.33301 49.5 19s18.5 29.334 18.5 50.001v539
h128v-552zM320 629.998c0 22.667 7.16699 41.167 21.5 55.5s32.5 21.5 54.5 21.5c22.667 0 41.167 -7.16699 55.5 -21.5s21.5 -32.833 21.5 -55.5s-7.16699 -41.167 -21.5 -55.5s-32.833 -21.5 -55.5 -21.5c-22 0 -40.167 7.16699 -54.5 21.5s-21.5 32.833 -21.5 55.5z" />
    <glyph glyph-name="Jcircumflex" unicode="&#x134;" horiz-adv-x="546" 
d="M241 -12c-52.667 0 -98.332 11.8301 -136.999 35.4971s-68.334 54.5 -89.001 92.5l94 58c16 -23.333 34.833 -42.166 56.5 -56.499s45.5 -21.5 71.5 -21.5c30 0 53.167 9.66699 69.5 29s24.5 47 24.5 83v464h133v-477c0 -30 -4.83301 -57.667 -14.5 -83
s-24 -47.166 -43 -65.499s-42.333 -32.666 -70 -42.999s-59.5 -15.5 -95.5 -15.5zM358.002 895.997h78l125 -119l-55 -60l-109 92l-109 -92l-55 60z" />
    <glyph glyph-name="jcircumflex" unicode="&#x135;" horiz-adv-x="267" 
d="M201 -62c0 -23.333 -4 -44.668 -12 -64.001s-19.333 -36 -34 -50s-32 -24.833 -52 -32.5s-42.333 -11.5 -67 -11.5c-35.333 0 -72.333 5 -111 15l17 96c22.667 -6 43.667 -9 63 -9c20.667 0 37.167 6.33301 49.5 19s18.5 29.334 18.5 50.001v539h128v-552zM98 713.998h78
l125 -119l-55 -60l-109 92l-109 -92l-55 60z" />
    <glyph glyph-name="Kcommaaccent" unicode="&#x136;" horiz-adv-x="681" 
d="M84 672h128v-319l297 319h153l-296 -314l310 -358h-156l-243 280l-65 -68v-212h-128v672zM279 -113c0 20.667 6.33496 37.3301 19.002 49.9971s29.334 19 50.001 19c21.333 0 38.5 -7.83301 51.5 -23.5s19.5 -35.167 19.5 -58.5c0 -35.333 -9.33301 -68.166 -28 -98.499
s-45.667 -56.166 -81 -77.499l-33 45c15.333 13.333 28.166 27 38.499 41s17.166 28.667 20.499 44c-16.667 -0.666992 -30.334 4.83301 -41.001 16.5s-16 25.834 -16 42.501z" />
    <glyph glyph-name="kcommaaccent" unicode="&#x137;" horiz-adv-x="531" 
d="M65 704h123v-423l187 209h146l-211 -229l219 -261h-148l-154 186l-39 -40v-146h-123v704zM196 -113c0 20.667 6.33496 37.3301 19.002 49.9971s29.334 19 50.001 19c21.333 0 38.5 -7.83301 51.5 -23.5s19.5 -35.167 19.5 -58.5c0 -35.333 -9.33301 -68.166 -28 -98.499
s-45.667 -56.166 -81 -77.499l-33 45c15.333 13.333 28.166 27 38.499 41s17.166 28.667 20.499 44c-16.667 -0.666992 -30.334 4.83301 -41.001 16.5s-16 25.834 -16 42.501z" />
    <glyph glyph-name="kgreenlandic" unicode="&#x138;" horiz-adv-x="531" 
d="M65 490h123v-209l187 209h146l-211 -229l219 -261h-148l-154 186l-39 -40v-146h-123v490z" />
    <glyph glyph-name="Lacute" unicode="&#x139;" horiz-adv-x="538" 
d="M84 672h133v-570h299v-102h-432v672zM119 717l-49 70l185 129l57 -82z" />
    <glyph glyph-name="lacute" unicode="&#x13a;" horiz-adv-x="307" 
d="M193 140c0 -15.333 4.49902 -27.5 13.499 -36.5s21.167 -13.5 36.5 -13.5c6 0 12.833 0.666992 20.5 2l23.5 4l14 -97c-33.333 -7.33301 -63 -11 -89 -11c-45.333 0 -81.166 12.5 -107.499 37.5s-39.5 58.833 -39.5 101.5v577h128v-564zM96.999 749l-49 70l185 129
l57 -82z" />
    <glyph glyph-name="Lcommaaccent" unicode="&#x13b;" horiz-adv-x="538" 
d="M84 672h133v-570h299v-102h-432v672zM232 -113c0 20.667 6.33496 37.3301 19.002 49.9971s29.334 19 50.001 19c21.333 0 38.5 -7.83301 51.5 -23.5s19.5 -35.167 19.5 -58.5c0 -35.333 -9.33301 -68.166 -28 -98.499s-45.667 -56.166 -81 -77.499l-33 45
c15.333 13.333 28.166 27 38.499 41s17.166 28.667 20.499 44c-16.667 -0.666992 -30.334 4.83301 -41.001 16.5s-16 25.834 -16 42.501z" />
    <glyph glyph-name="lcommaaccent" unicode="&#x13c;" horiz-adv-x="307" 
d="M193 140c0 -15.333 4.49902 -27.5 13.499 -36.5s21.167 -13.5 36.5 -13.5c6 0 12.833 0.666992 20.5 2l23.5 4l14 -97c-33.333 -7.33301 -63 -11 -89 -11c-45.333 0 -81.166 12.5 -107.499 37.5s-39.5 58.833 -39.5 101.5v577h128v-564zM105.999 -113
c0 20.667 6.33496 37.3301 19.002 49.9971s29.334 19 50.001 19c21.333 0 38.5 -7.83301 51.5 -23.5s19.5 -35.167 19.5 -58.5c0 -35.333 -9.33301 -68.166 -28 -98.499s-45.667 -56.166 -81 -77.499l-33 45c15.333 13.333 28.166 27 38.499 41s17.166 28.667 20.499 44
c-16.667 -0.666992 -30.334 4.83301 -41.001 16.5s-16 25.834 -16 42.501z" />
    <glyph glyph-name="Lcaron" unicode="&#x13d;" horiz-adv-x="538" 
d="M84 672h133v-570h299v-102h-432v672zM362 501l-84 29l64 181l93 -32z" />
    <glyph glyph-name="lcaron" unicode="&#x13e;" horiz-adv-x="297" 
d="M193 140c0 -15.333 4.49902 -27.5 13.499 -36.5s21.167 -13.5 36.5 -13.5c6 0 12.833 0.666992 20.5 2l23.5 4l14 -97c-33.333 -7.33301 -63 -11 -89 -11c-45.333 0 -81.166 12.5 -107.499 37.5s-39.5 58.833 -39.5 101.5v577h128v-564zM321.999 533l-84 29l64 181
l93 -32z" />
    <glyph glyph-name="Ldot" unicode="&#x13f;" horiz-adv-x="554" 
d="M84 672h133v-570h299v-102h-432v672zM354 357c0 21.333 6.83301 39 20.5 53s31.5 21 53.5 21s39.833 -7 53.5 -21s20.5 -31.667 20.5 -53c0 -22 -6.83301 -39.833 -20.5 -53.5s-31.5 -20.5 -53.5 -20.5s-39.833 6.83301 -53.5 20.5s-20.5 31.5 -20.5 53.5z" />
    <glyph glyph-name="ldot" unicode="&#x140;" horiz-adv-x="390" 
d="M193 140c0 -15.333 4.49902 -27.5 13.499 -36.5s21.167 -13.5 36.5 -13.5c6 0 12.833 0.666992 20.5 2l23.5 4l14 -97c-33.333 -7.33301 -63 -11 -89 -11c-45.333 0 -81.166 12.5 -107.499 37.5s-39.5 58.833 -39.5 101.5v577h128v-564zM249.999 344
c0 21.333 6.83301 39 20.5 53s31.5 21 53.5 21s39.833 -7 53.5 -21s20.5 -31.667 20.5 -53c0 -22 -6.83301 -39.833 -20.5 -53.5s-31.5 -20.5 -53.5 -20.5s-39.833 6.83301 -53.5 20.5s-20.5 31.5 -20.5 53.5z" />
    <glyph glyph-name="Lslash" unicode="&#x141;" horiz-adv-x="554" 
d="M100 255l-55 -27l-41 77l96 49v318h133v-252l112 56l42 -77l-154 -77v-220h299v-102h-432v255z" />
    <glyph glyph-name="lslash" unicode="&#x142;" horiz-adv-x="339" 
d="M73 373v331h128v-267l80 40l41 -78l-121 -60v-199c0 -15.333 4.5 -27.5 13.5 -36.5s21.167 -13.5 36.5 -13.5c6 0 12.833 0.666992 20.5 2l23.5 4l14 -97c-16 -3.33301 -31.167 -6 -45.5 -8s-28.833 -3 -43.5 -3c-22 0 -42 3.33301 -60 10s-33.5 16.167 -46.5 28.5
s-23 27 -30 44s-10.5 35.833 -10.5 56.5v148l-63 -32l-41 78z" />
    <glyph glyph-name="Nacute" unicode="&#x143;" horiz-adv-x="793" 
d="M84 672h129l357 -490v490h123v-672h-129l-357 490v-490h-123v672zM357 717l-49 70l185 129l57 -82z" />
    <glyph glyph-name="nacute" unicode="&#x144;" 
d="M65 490l102.001 -0.000976562l16 -71c18.667 26.667 42.5 47.167 71.5 61.5s61.5 21.5 97.5 21.5c28 0 53.667 -4.66699 77 -14s43.5 -22.166 60.5 -38.499s30.167 -36 39.5 -59s14 -48.167 14 -75.5v-315h-128v295c0 30 -9.5 54.5 -28.5 73.5s-43.5 28.5 -73.5 28.5
c-34.667 0 -63.334 -11.667 -86.001 -35s-34 -54 -34 -92v-270h-128v490zM272.001 534.999l-49 70l185 129l57 -82z" />
    <glyph glyph-name="Ncommaaccent" unicode="&#x145;" horiz-adv-x="777" 
d="M84 672h129l357 -490v490h123v-672h-129l-357 490v-490h-123v672zM320 -113c0 20.667 6.33496 37.3301 19.002 49.9971s29.334 19 50.001 19c21.333 0 38.5 -7.83301 51.5 -23.5s19.5 -35.167 19.5 -58.5c0 -35.333 -9.33301 -68.166 -28 -98.499
s-45.667 -56.166 -81 -77.499l-33 45c15.333 13.333 28.166 27 38.499 41s17.166 28.667 20.499 44c-16.667 -0.666992 -30.334 4.83301 -41.001 16.5s-16 25.834 -16 42.501z" />
    <glyph glyph-name="ncommaaccent" unicode="&#x146;" 
d="M65 490l102.001 -0.000976562l16 -71c18.667 26.667 42.5 47.167 71.5 61.5s61.5 21.5 97.5 21.5c28 0 53.667 -4.66699 77 -14s43.5 -22.166 60.5 -38.499s30.167 -36 39.5 -59s14 -48.167 14 -75.5v-315h-128v295c0 30 -9.5 54.5 -28.5 73.5s-43.5 28.5 -73.5 28.5
c-34.667 0 -63.334 -11.667 -86.001 -35s-34 -54 -34 -92v-270h-128v490zM235.001 -113.001c0 20.667 6.33496 37.3301 19.002 49.9971s29.334 19 50.001 19c21.333 0 38.5 -7.83301 51.5 -23.5s19.5 -35.167 19.5 -58.5c0 -35.333 -9.33301 -68.166 -28 -98.499
s-45.667 -56.166 -81 -77.499l-33 45c15.333 13.333 28.166 27 38.499 41s17.166 28.667 20.499 44c-16.667 -0.666992 -30.334 4.83301 -41.001 16.5s-16 25.834 -16 42.501z" />
    <glyph glyph-name="Ncaron" unicode="&#x147;" horiz-adv-x="777" 
d="M84 672h129l357 -490v490h123v-672h-129l-357 490v-490h-123v672zM428 727h-78l-125 120l55 59l109 -91l109 91l55 -59z" />
    <glyph glyph-name="ncaron" unicode="&#x148;" 
d="M65 490l102.001 -0.000976562l16 -71c18.667 26.667 42.5 47.167 71.5 61.5s61.5 21.5 97.5 21.5c28 0 53.667 -4.66699 77 -14s43.5 -22.166 60.5 -38.499s30.167 -36 39.5 -59s14 -48.167 14 -75.5v-315h-128v295c0 30 -9.5 54.5 -28.5 73.5s-43.5 28.5 -73.5 28.5
c-34.667 0 -63.334 -11.667 -86.001 -35s-34 -54 -34 -92v-270h-128v490zM343.001 544.999h-78l-125 120l55 59l109 -91l109 91l55 -59z" />
    <glyph glyph-name="napostrophe" unicode="&#x149;" horiz-adv-x="769" 
d="M234 490l102.001 -0.000976562l16 -71c18.667 26.667 42.5 47.167 71.5 61.5s61.5 21.5 97.5 21.5c28 0 53.667 -4.66699 77 -14s43.5 -22.166 60.5 -38.499s30.167 -36 39.5 -59s14 -48.167 14 -75.5v-315h-128v295c0 30 -9.5 54.5 -28.5 73.5s-43.5 28.5 -73.5 28.5
c-34.667 0 -63.334 -11.667 -86.001 -35s-34 -54 -34 -92v-270h-128v490zM35.001 619.999c0 20.667 6.33496 37.3301 19.002 49.9971s29.334 19 50.001 19c21.333 0 38.5 -7.83301 51.5 -23.5s19.5 -35.167 19.5 -58.5c0 -35.333 -9.33301 -68.166 -28 -98.499
s-45.667 -56.166 -81 -77.499l-33 45c15.333 13.333 28.166 27 38.499 41s17.166 28.667 20.499 44c-16.667 -0.666992 -30.334 4.83301 -41.001 16.5s-16 25.834 -16 42.501z" />
    <glyph glyph-name="Eng" unicode="&#x14a;" horiz-adv-x="777" 
d="M84 672h128.998l357 -490v490h123v-690c0 -30 -5.16699 -57.333 -15.5 -82s-24.666 -46 -42.999 -64s-40.5 -31.833 -66.5 -41.5s-54.333 -14.5 -85 -14.5c-45.333 0 -92.333 6.33301 -141 19l17 102c18 -4 35.5 -7.16699 52.5 -9.5s33.167 -3.5 48.5 -3.5
c30.667 0 55.834 8.5 75.501 25.5s29.5 38.167 29.5 63.5v22l-358 491v-490h-123v672z" />
    <glyph glyph-name="eng" unicode="&#x14b;" 
d="M65 490l102.001 -0.00390625l16 -71c18.667 26.667 42.5 47.167 71.5 61.5s61.5 21.5 97.5 21.5c28 0 53.833 -4.66699 77.5 -14s43.834 -22.166 60.501 -38.499s29.667 -36.166 39 -59.499s14 -49 14 -77v-375c0 -23.333 -4 -44.666 -12 -63.999s-19.333 -36 -34 -50
s-32.167 -24.833 -52.5 -32.5s-42.833 -11.5 -67.5 -11.5c-34.667 0 -71.334 5 -110.001 15l17 96c22.667 -6 43.667 -9 63 -9c20.667 0 37.167 6.33301 49.5 19s18.5 29.334 18.5 50.001v342c0 30.667 -9.5 55.667 -28.5 75s-43.5 29 -73.5 29c-17.333 0 -33.333 -3 -48 -9
s-27.334 -14.5 -38.001 -25.5s-19 -24 -25 -39s-9 -31.5 -9 -49.5v-274h-128v490z" />
    <glyph glyph-name="Omacron" unicode="&#x14c;" horiz-adv-x="777" 
d="M39 336c0 50.667 8.5 97.334 25.5 140.001s41 79.5 72 110.5s68 55 111 72s90.167 25.5 141.5 25.5s98.333 -8.5 141 -25.5s79.5 -41 110.5 -72s55.167 -67.833 72.5 -110.5s26 -89.334 26 -140.001c0 -51.333 -8.66699 -98.166 -26 -140.499s-41.5 -79 -72.5 -110
s-67.833 -55 -110.5 -72s-89.667 -25.5 -141 -25.5s-98.5 8.5 -141.5 25.5s-80 41 -111 72s-55 67.667 -72 110s-25.5 89.166 -25.5 140.499zM174 336c0 -35.333 5.33301 -68 16 -98s25.5 -55.667 44.5 -77s41.667 -38 68 -50s55.166 -18 86.499 -18s60.166 6 86.499 18
s49 28.667 68 50s33.667 47 44 77s15.5 62.667 15.5 98s-5.16699 67.833 -15.5 97.5s-25 55.334 -44 77.001s-41.667 38.5 -68 50.5s-55.166 18 -86.499 18s-60.166 -6 -86.499 -18s-49 -28.833 -68 -50.5s-33.833 -47.334 -44.5 -77.001s-16 -62.167 -16 -97.5zM233 855
h312v-87h-312v87z" />
    <glyph glyph-name="omacron" unicode="&#x14d;" 
d="M36 245c0 38 6.5 72.667 19.5 104s31.167 58.333 54.5 81s51.166 40.334 83.499 53.001s67.833 19 106.5 19s74.334 -6.33301 107.001 -19s60.667 -30.334 84 -53.001s41.5 -49.667 54.5 -81s19.5 -66 19.5 -104s-6.5 -72.667 -19.5 -104s-31.167 -58.333 -54.5 -81
s-51.333 -40.334 -84 -53.001s-68.334 -19 -107.001 -19s-74.167 6.33301 -106.5 19s-60.166 30.334 -83.499 53.001s-41.5 49.667 -54.5 81s-19.5 66 -19.5 104zM166 245c0 -23.333 3.33301 -44.5 10 -63.5s16 -35.5 28 -49.5s26.167 -24.833 42.5 -32.5
s34.166 -11.5 53.499 -11.5c20 0 38.167 3.83301 54.5 11.5s30.5 18.5 42.5 32.5s21.333 30.5 28 49.5s10 40.167 10 63.5s-3.33301 44.666 -10 63.999s-16 35.833 -28 49.5s-26.167 24.334 -42.5 32.001s-34.5 11.5 -54.5 11.5c-19.333 0 -37.166 -3.83301 -53.499 -11.5
s-30.5 -18.334 -42.5 -32.001s-21.333 -30.167 -28 -49.5s-10 -40.666 -10 -63.999zM144 673h312v-87h-312v87z" />
    <glyph glyph-name="Obreve" unicode="&#x14e;" horiz-adv-x="777" 
d="M39 336c0 50.667 8.5 97.334 25.5 140.001s41 79.5 72 110.5s68 55 111 72s90.167 25.5 141.5 25.5s98.333 -8.5 141 -25.5s79.5 -41 110.5 -72s55.167 -67.833 72.5 -110.5s26 -89.334 26 -140.001c0 -51.333 -8.66699 -98.166 -26 -140.499s-41.5 -79 -72.5 -110
s-67.833 -55 -110.5 -72s-89.667 -25.5 -141 -25.5s-98.5 8.5 -141.5 25.5s-80 41 -111 72s-55 67.667 -72 110s-25.5 89.166 -25.5 140.499zM174 336c0 -35.333 5.33301 -68 16 -98s25.5 -55.667 44.5 -77s41.667 -38 68 -50s55.166 -18 86.499 -18s60.166 6 86.499 18
s49 28.667 68 50s33.667 47 44 77s15.5 62.667 15.5 98s-5.16699 67.833 -15.5 97.5s-25 55.334 -44 77.001s-41.667 38.5 -68 50.5s-55.166 18 -86.499 18s-60.166 -6 -86.499 -18s-49 -28.833 -68 -50.5s-33.833 -47.334 -44.5 -77.001s-16 -62.167 -16 -97.5zM306 880
c1.33301 -22 9.50195 -39.667 24.502 -53s33.833 -20 56.5 -20s41.5 6.66699 56.5 20s23.167 31 24.5 53h83c-1.33301 -25.333 -6.33301 -47.833 -15 -67.5s-20.167 -36.5 -34.5 -50.5s-31.333 -24.667 -51 -32s-40.834 -11 -63.501 -11s-43.834 3.66699 -63.501 11
s-36.667 18 -51 32s-26 30.833 -35 50.5s-13.833 42.167 -14.5 67.5h83z" />
    <glyph glyph-name="obreve" unicode="&#x14f;" 
d="M36 245c0 38 6.5 72.667 19.5 104s31.167 58.333 54.5 81s51.166 40.334 83.499 53.001s67.833 19 106.5 19s74.334 -6.33301 107.001 -19s60.667 -30.334 84 -53.001s41.5 -49.667 54.5 -81s19.5 -66 19.5 -104s-6.5 -72.667 -19.5 -104s-31.167 -58.333 -54.5 -81
s-51.333 -40.334 -84 -53.001s-68.334 -19 -107.001 -19s-74.167 6.33301 -106.5 19s-60.166 30.334 -83.499 53.001s-41.5 49.667 -54.5 81s-19.5 66 -19.5 104zM166 245c0 -23.333 3.33301 -44.5 10 -63.5s16 -35.5 28 -49.5s26.167 -24.833 42.5 -32.5
s34.166 -11.5 53.499 -11.5c20 0 38.167 3.83301 54.5 11.5s30.5 18.5 42.5 32.5s21.333 30.5 28 49.5s10 40.167 10 63.5s-3.33301 44.666 -10 63.999s-16 35.833 -28 49.5s-26.167 24.334 -42.5 32.001s-34.5 11.5 -54.5 11.5c-19.333 0 -37.166 -3.83301 -53.499 -11.5
s-30.5 -18.334 -42.5 -32.001s-21.333 -30.167 -28 -49.5s-10 -40.666 -10 -63.999zM217 698c1.33301 -22 9.50195 -39.667 24.502 -53s33.833 -20 56.5 -20s41.5 6.66699 56.5 20s23.167 31 24.5 53h83c-1.33301 -25.333 -6.33301 -47.833 -15 -67.5
s-20.167 -36.5 -34.5 -50.5s-31.333 -24.667 -51 -32s-40.834 -11 -63.501 -11s-43.834 3.66699 -63.501 11s-36.667 18 -51 32s-26 30.833 -35 50.5s-13.833 42.167 -14.5 67.5h83z" />
    <glyph glyph-name="Ohungarumlaut" unicode="&#x150;" horiz-adv-x="777" 
d="M39 336c0 50.667 8.5 97.334 25.5 140.001s41 79.5 72 110.5s68 55 111 72s90.167 25.5 141.5 25.5s98.333 -8.5 141 -25.5s79.5 -41 110.5 -72s55.167 -67.833 72.5 -110.5s26 -89.334 26 -140.001c0 -51.333 -8.66699 -98.166 -26 -140.499s-41.5 -79 -72.5 -110
s-67.833 -55 -110.5 -72s-89.667 -25.5 -141 -25.5s-98.5 8.5 -141.5 25.5s-80 41 -111 72s-55 67.667 -72 110s-25.5 89.166 -25.5 140.499zM174 336c0 -35.333 5.33301 -68 16 -98s25.5 -55.667 44.5 -77s41.667 -38 68 -50s55.166 -18 86.499 -18s60.166 6 86.499 18
s49 28.667 68 50s33.667 47 44 77s15.5 62.667 15.5 98s-5.16699 67.833 -15.5 97.5s-25 55.334 -44 77.001s-41.667 38.5 -68 50.5s-55.166 18 -86.499 18s-60.166 -6 -86.499 -18s-49 -28.833 -68 -50.5s-33.833 -47.334 -44.5 -77.001s-16 -62.167 -16 -97.5zM489 714
l-64 65l152 161l73 -73zM268 714l-64 65l152 161l73 -73z" />
    <glyph glyph-name="ohungarumlaut" unicode="&#x151;" 
d="M36 245c0 38 6.5 72.667 19.5 104s31.167 58.333 54.5 81s51.166 40.334 83.499 53.001s67.833 19 106.5 19s74.334 -6.33301 107.001 -19s60.667 -30.334 84 -53.001s41.5 -49.667 54.5 -81s19.5 -66 19.5 -104s-6.5 -72.667 -19.5 -104s-31.167 -58.333 -54.5 -81
s-51.333 -40.334 -84 -53.001s-68.334 -19 -107.001 -19s-74.167 6.33301 -106.5 19s-60.166 30.334 -83.499 53.001s-41.5 49.667 -54.5 81s-19.5 66 -19.5 104zM166 245c0 -23.333 3.33301 -44.5 10 -63.5s16 -35.5 28 -49.5s26.167 -24.833 42.5 -32.5
s34.166 -11.5 53.499 -11.5c20 0 38.167 3.83301 54.5 11.5s30.5 18.5 42.5 32.5s21.333 30.5 28 49.5s10 40.167 10 63.5s-3.33301 44.666 -10 63.999s-16 35.833 -28 49.5s-26.167 24.334 -42.5 32.001s-34.5 11.5 -54.5 11.5c-19.333 0 -37.166 -3.83301 -53.499 -11.5
s-30.5 -18.334 -42.5 -32.001s-21.333 -30.167 -28 -49.5s-10 -40.666 -10 -63.999zM400 532l-64 65l152 161l73 -73zM179 532l-64 65l152 161l73 -73z" />
    <glyph glyph-name="OE" unicode="&#x152;" horiz-adv-x="1008" 
d="M39 336c0 49.333 8.16699 94.6689 24.5 136.002s39.5 76.833 69.5 106.5s65.833 52.667 107.5 69s88.167 24.5 139.5 24.5h568v-100h-325v-179h293v-98h-293v-195h341v-100h-584c-51.333 0 -97.833 8.16699 -139.5 24.5s-77.5 39.166 -107.5 68.499
s-53.167 64.666 -69.5 105.999s-24.5 87 -24.5 137zM174 336.003c0 -34 5.5 -65.3291 16.5 -93.9961s26.167 -53.334 45.5 -74.001s42.666 -36.834 69.999 -48.501s57 -17.5 89 -17.5h95v468h-95c-32 0 -61.667 -5.83301 -89 -17.5s-50.666 -27.834 -69.999 -48.501
s-34.5 -45.334 -45.5 -74.001s-16.5 -60 -16.5 -94z" />
    <glyph glyph-name="oe" unicode="&#x153;" horiz-adv-x="952" 
d="M36 245c0 38 6.49805 72.667 19.498 104s31.167 58.333 54.5 81s51.166 40.334 83.499 53.001s67.833 19 106.5 19c43.333 0 82.333 -9.16699 117 -27.5s62.334 -43.166 83.001 -74.499c21.333 31.333 48.166 56.166 80.499 74.499s68.5 27.5 108.5 27.5
c34.667 0 66.5 -6 95.5 -18s53.833 -29 74.5 -51s36.667 -48.167 48 -78.5s17 -63.833 17 -100.5v-21c0 -6.66699 -0.666992 -13.334 -2 -20.001h-357c5.33301 -39.333 22 -70.833 50 -94.5s63 -35.5 105 -35.5c21.333 0 43.833 3.33301 67.5 10s48.167 17 73.5 31l39 -87
c-34.667 -17.333 -68.5 -29.833 -101.5 -37.5s-64.167 -11.5 -93.5 -11.5c-44 0 -83.667 9.16699 -119 27.5s-63.666 44.166 -84.999 77.499c-21.333 -32 -49.166 -57.5 -83.499 -76.5s-73.5 -28.5 -117.5 -28.5c-38.667 0 -74.167 6.33301 -106.5 19
s-60.166 30.334 -83.499 53.001s-41.5 49.667 -54.5 81s-19.5 66 -19.5 104zM165.998 245c0 -23.333 3.33301 -44.5 10 -63.5s16 -35.5 28 -49.5s26.167 -24.833 42.5 -32.5s34.166 -11.5 53.499 -11.5c20 0 38.167 3.83301 54.5 11.5s30.5 18.5 42.5 32.5
s21.333 30.5 28 49.5s10 40.167 10 63.5s-3.33301 44.666 -10 63.999s-16 35.833 -28 49.5s-26.167 24.334 -42.5 32.001s-34.5 11.5 -54.5 11.5c-19.333 0 -37.166 -3.83301 -53.499 -11.5s-30.5 -18.334 -42.5 -32.001s-21.333 -30.167 -28 -49.5s-10 -40.666 -10 -63.999
zM688.998 407c-34 0 -62 -10.667 -84 -32s-35.333 -49.666 -40 -84.999h237c-2.66699 35.333 -14.167 63.666 -34.5 84.999s-46.5 32 -78.5 32z" />
    <glyph glyph-name="Racute" unicode="&#x154;" horiz-adv-x="660" 
d="M84 672h280c34 0 65 -5.16699 93 -15.5s52.333 -24.833 73 -43.5s36.667 -41 48 -67s17 -54.333 17 -85c0 -50 -14 -92.667 -42 -128s-65.667 -58 -113 -68l184 -265h-145l-163 245h-104v-245h-128v672zM212 348l132 -0.000976562c35.333 0 64.166 10 86.499 30
s33.5 47 33.5 81c0 32.667 -11.167 59.334 -33.5 80.001s-51.166 31 -86.499 31h-132v-222zM306 716.999l-49 70l185 129l57 -82z" />
    <glyph glyph-name="racute" unicode="&#x155;" horiz-adv-x="401" 
d="M65 490l102 -0.000976562l16 -76c14 26.667 33.667 47.334 59 62.001s54 22 86 22c8.66699 0 18.167 -0.5 28.5 -1.5s20.5 -2.83301 30.5 -5.5l-12 -102c-8.66699 2 -18 3.66699 -28 5s-19.667 2 -29 2c-38 0 -68.333 -13.333 -91 -40s-34 -61 -34 -103v-253h-128v490z
M183 534.999l-49 70l185 129l57 -82z" />
    <glyph glyph-name="Rcommaaccent" unicode="&#x156;" horiz-adv-x="660" 
d="M84 672h280c34 0 65 -5.16699 93 -15.5s52.333 -24.833 73 -43.5s36.667 -41 48 -67s17 -54.333 17 -85c0 -50 -14 -92.667 -42 -128s-65.667 -58 -113 -68l184 -265h-145l-163 245h-104v-245h-128v672zM212 348l132 -0.000976562c35.333 0 64.166 10 86.499 30
s33.5 47 33.5 81c0 32.667 -11.167 59.334 -33.5 80.001s-51.166 31 -86.499 31h-132v-222zM269 -113.001c0 20.667 6.33496 37.3301 19.002 49.9971s29.334 19 50.001 19c21.333 0 38.5 -7.83301 51.5 -23.5s19.5 -35.167 19.5 -58.5
c0 -35.333 -9.33301 -68.166 -28 -98.499s-45.667 -56.166 -81 -77.499l-33 45c15.333 13.333 28.166 27 38.499 41s17.166 28.667 20.499 44c-16.667 -0.666992 -30.334 4.83301 -41.001 16.5s-16 25.834 -16 42.501z" />
    <glyph glyph-name="rcommaaccent" unicode="&#x157;" horiz-adv-x="401" 
d="M65 490l102 -0.000976562l16 -76c14 26.667 33.667 47.334 59 62.001s54 22 86 22c8.66699 0 18.167 -0.5 28.5 -1.5s20.5 -2.83301 30.5 -5.5l-12 -102c-8.66699 2 -18 3.66699 -28 5s-19.667 2 -29 2c-38 0 -68.333 -13.333 -91 -40s-34 -61 -34 -103v-253h-128v490z
M60 -113.001c0 20.667 6.33496 37.3301 19.002 49.9971s29.334 19 50.001 19c21.333 0 38.5 -7.83301 51.5 -23.5s19.5 -35.167 19.5 -58.5c0 -35.333 -9.33301 -68.166 -28 -98.499s-45.667 -56.166 -81 -77.499l-33 45c15.333 13.333 28.166 27 38.499 41
s17.166 28.667 20.499 44c-16.667 -0.666992 -30.334 4.83301 -41.001 16.5s-16 25.834 -16 42.501z" />
    <glyph glyph-name="Rcaron" unicode="&#x158;" horiz-adv-x="660" 
d="M84 672h280c34 0 65 -5.16699 93 -15.5s52.333 -24.833 73 -43.5s36.667 -41 48 -67s17 -54.333 17 -85c0 -50 -14 -92.667 -42 -128s-65.667 -58 -113 -68l184 -265h-145l-163 245h-104v-245h-128v672zM212 348l132 -0.000976562c35.333 0 64.166 10 86.499 30
s33.5 47 33.5 81c0 32.667 -11.167 59.334 -33.5 80.001s-51.166 31 -86.499 31h-132v-222zM377 726.999h-78l-125 120l55 59l109 -91l109 91l55 -59z" />
    <glyph glyph-name="rcaron" unicode="&#x159;" horiz-adv-x="401" 
d="M65 490l102 -0.000976562l16 -76c14 26.667 33.667 47.334 59 62.001s54 22 86 22c8.66699 0 18.167 -0.5 28.5 -1.5s20.5 -2.83301 30.5 -5.5l-12 -102c-8.66699 2 -18 3.66699 -28 5s-19.667 2 -29 2c-38 0 -68.333 -13.333 -91 -40s-34 -61 -34 -103v-253h-128v490z
M254 544.999h-78l-125 120l55 59l109 -91l109 91l55 -59z" />
    <glyph glyph-name="Sacute" unicode="&#x15a;" horiz-adv-x="588" 
d="M45 492c0 28.667 5.99805 54.668 17.998 78.001s29 43.5 51 60.5s48.333 30.167 79 39.5s64.334 14 101.001 14s73.834 -4 111.501 -12s76.834 -19.667 117.501 -35l-30 -99c-68.667 27.333 -131.667 41 -189 41c-39.333 0 -70.5 -7.83301 -93.5 -23.5
s-34.5 -36.834 -34.5 -63.501c0 -18 5.33301 -32.667 16 -44s24.667 -20.833 42 -28.5s37.166 -14.334 59.499 -20.001s45 -11.834 68 -18.501s45.667 -14.667 68 -24s42.166 -21.5 59.499 -36.5s31.333 -33.5 42 -55.5s16 -49 16 -81c0 -29.333 -6.16699 -56 -18.5 -80
s-29.666 -44.667 -51.999 -62s-49 -30.666 -80 -39.999s-65.167 -14 -102.5 -14c-38.667 0 -79 4.33301 -121 13s-86 22.667 -132 42l30 99c39.333 -15.333 77 -27.333 113 -36s69.333 -13 100 -13c41.333 0 73.833 8.16699 97.5 24.5s35.5 38.5 35.5 66.5
c0 24.667 -9.16699 43.5 -27.5 56.5s-41.333 24 -69 33s-57.5 17.5 -89.5 25.5s-61.833 19.333 -89.5 34s-50.667 34.334 -69 59.001s-27.5 58 -27.5 100zM261.998 717.001l-49 70l185 129l57 -82z" />
    <glyph glyph-name="sacute" unicode="&#x15b;" horiz-adv-x="463" 
d="M40 354c0 21.333 4.66406 41.1689 13.9971 59.502s22.333 34 39 47s36.834 23.167 60.501 30.5s49.5 11 77.5 11c28.667 0 58 -2.83301 88 -8.5s60.667 -14.167 92 -25.5l-28 -92c-24.667 9.33301 -49 16.833 -73 22.5s-47 8.5 -69 8.5
c-23.333 0 -41.833 -4.83301 -55.5 -14.5s-20.5 -22.5 -20.5 -38.5c0 -14.667 6.5 -25.834 19.5 -33.501s29.167 -14.167 48.5 -19.5s40.333 -10.666 63 -15.999s43.667 -13.5 63 -24.5s35.5 -26 48.5 -45s19.5 -44.167 19.5 -75.5c0 -22 -4.83301 -42.333 -14.5 -61
s-23 -34.834 -40 -48.501s-37.667 -24.167 -62 -31.5s-50.833 -11 -79.5 -11c-61.333 0 -126.333 13 -195 39l27 91c58 -23.333 110.667 -35 158 -35c24.667 0 44.167 5.16699 58.5 15.5s21.5 24.166 21.5 41.499c0 15.333 -6.5 27 -19.5 35s-29.167 14.833 -48.5 20.5
s-40.166 11.167 -62.499 16.5s-43.166 13.5 -62.499 24.5s-35.5 25.5 -48.5 43.5s-19.5 42.667 -19.5 74zM198.997 535.003l-49 70l185 129l57 -82z" />
    <glyph glyph-name="Scircumflex" unicode="&#x15c;" horiz-adv-x="588" 
d="M45 492c0 28.667 5.99805 54.668 17.998 78.001s29 43.5 51 60.5s48.333 30.167 79 39.5s64.334 14 101.001 14s73.834 -4 111.501 -12s76.834 -19.667 117.501 -35l-30 -99c-68.667 27.333 -131.667 41 -189 41c-39.333 0 -70.5 -7.83301 -93.5 -23.5
s-34.5 -36.834 -34.5 -63.501c0 -18 5.33301 -32.667 16 -44s24.667 -20.833 42 -28.5s37.166 -14.334 59.499 -20.001s45 -11.834 68 -18.501s45.667 -14.667 68 -24s42.166 -21.5 59.499 -36.5s31.333 -33.5 42 -55.5s16 -49 16 -81c0 -29.333 -6.16699 -56 -18.5 -80
s-29.666 -44.667 -51.999 -62s-49 -30.666 -80 -39.999s-65.167 -14 -102.5 -14c-38.667 0 -79 4.33301 -121 13s-86 22.667 -132 42l30 99c39.333 -15.333 77 -27.333 113 -36s69.333 -13 100 -13c41.333 0 73.833 8.16699 97.5 24.5s35.5 38.5 35.5 66.5
c0 24.667 -9.16699 43.5 -27.5 56.5s-41.333 24 -69 33s-57.5 17.5 -89.5 25.5s-61.833 19.333 -89.5 34s-50.667 34.334 -69 59.001s-27.5 58 -27.5 100zM254.998 896.001h78l125 -119l-55 -60l-109 92l-109 -92l-55 60z" />
    <glyph glyph-name="scircumflex" unicode="&#x15d;" horiz-adv-x="463" 
d="M40 354c0 21.333 4.66406 41.1689 13.9971 59.502s22.333 34 39 47s36.834 23.167 60.501 30.5s49.5 11 77.5 11c28.667 0 58 -2.83301 88 -8.5s60.667 -14.167 92 -25.5l-28 -92c-24.667 9.33301 -49 16.833 -73 22.5s-47 8.5 -69 8.5
c-23.333 0 -41.833 -4.83301 -55.5 -14.5s-20.5 -22.5 -20.5 -38.5c0 -14.667 6.5 -25.834 19.5 -33.501s29.167 -14.167 48.5 -19.5s40.333 -10.666 63 -15.999s43.667 -13.5 63 -24.5s35.5 -26 48.5 -45s19.5 -44.167 19.5 -75.5c0 -22 -4.83301 -42.333 -14.5 -61
s-23 -34.834 -40 -48.501s-37.667 -24.167 -62 -31.5s-50.833 -11 -79.5 -11c-61.333 0 -126.333 13 -195 39l27 91c58 -23.333 110.667 -35 158 -35c24.667 0 44.167 5.16699 58.5 15.5s21.5 24.166 21.5 41.499c0 15.333 -6.5 27 -19.5 35s-29.167 14.833 -48.5 20.5
s-40.166 11.167 -62.499 16.5s-43.166 13.5 -62.499 24.5s-35.5 25.5 -48.5 43.5s-19.5 42.667 -19.5 74zM191.997 714.003h78l125 -119l-55 -60l-109 92l-109 -92l-55 60z" />
    <glyph glyph-name="Scedilla" unicode="&#x15e;" horiz-adv-x="588" 
d="M45 492c0 28.667 6 54.6709 18 78.0039s29 43.5 51 60.5s48.333 30.167 79 39.5s64.334 14 101.001 14s73.834 -4 111.501 -12s76.834 -19.667 117.501 -35l-30 -99c-68.667 27.333 -131.667 41 -189 41c-39.333 0 -70.5 -7.83301 -93.5 -23.5
s-34.5 -36.834 -34.5 -63.501c0 -18 5.33301 -32.667 16 -44s24.667 -20.833 42 -28.5s37.166 -14.334 59.499 -20.001s45 -11.834 68 -18.501s45.667 -14.667 68 -24s42.166 -21.5 59.499 -36.5s31.333 -33.5 42 -55.5s16 -49 16 -81c0 -26 -4.83301 -49.833 -14.5 -71.5
s-23.334 -40.834 -41.001 -57.501s-39 -30.334 -64 -41.001s-52.833 -18 -83.5 -22l-6 -36c21.333 -5.33301 38.666 -16 51.999 -32s20 -35.333 20 -58c0 -29.333 -12.333 -52.833 -37 -70.5s-57 -26.5 -97 -26.5c-16 0 -32.333 1.33301 -49 4s-33.667 7.33398 -51 14.001
l21 72c12.667 -4.66699 24.5 -8 35.5 -10s21.167 -3 30.5 -3c13.333 0 24 3 32 9s12 14 12 24c0 9.33301 -4.66699 17.166 -14 23.499s-21.666 9.5 -36.999 9.5h-13l14 78c-33.333 2 -68 7.16699 -104 15.5s-73.333 20.833 -112 37.5l30 99
c39.333 -15.333 77 -27.333 113 -36s69.333 -13 100 -13c41.333 0 73.833 8.16699 97.5 24.5s35.5 38.5 35.5 66.5c0 24.667 -9.16699 43.5 -27.5 56.5s-41.333 24 -69 33s-57.5 17.5 -89.5 25.5s-61.833 19.333 -89.5 34s-50.667 34.334 -69 59.001s-27.5 58 -27.5 100z
" />
    <glyph glyph-name="scedilla" unicode="&#x15f;" horiz-adv-x="463" 
d="M40 354c0 21.333 4.66406 41.167 13.9971 59.5s22.333 34 39 47s36.834 23.167 60.501 30.5s49.5 11 77.5 11c28.667 0 58 -2.83301 88 -8.5s60.667 -14.167 92 -25.5l-28 -92c-24.667 9.33301 -49 16.833 -73 22.5s-47 8.5 -69 8.5
c-23.333 0 -41.833 -4.83301 -55.5 -14.5s-20.5 -22.5 -20.5 -38.5c0 -14.667 6.5 -25.834 19.5 -33.501s29.167 -14.167 48.5 -19.5s40.333 -10.666 63 -15.999s43.667 -13.5 63 -24.5s35.5 -26 48.5 -45s19.5 -44.167 19.5 -75.5c0 -38 -13.167 -70.167 -39.5 -96.5
s-61.5 -43.166 -105.5 -50.499l-7 -37c21.333 -5.33301 38.666 -16 51.999 -32s20 -35.333 20 -58c0 -29.333 -12.333 -52.833 -37 -70.5s-57 -26.5 -97 -26.5c-16 0 -32.333 1.33301 -49 4s-33.667 7.33398 -51 14.001l21 72c12.667 -4.66699 24.5 -8 35.5 -10
s21.167 -3 30.5 -3c13.333 0 24 3 32 9s12 14 12 24c0 9.33301 -4.66699 17.166 -14 23.499s-21.666 9.5 -36.999 9.5h-13l14 78c-25.333 2 -51 5.83301 -77 11.5s-53 14.167 -81 25.5l27 91c58 -23.333 110.667 -35 158 -35c24.667 0 44.167 5.16699 58.5 15.5
s21.5 24.166 21.5 41.499c0 15.333 -6.5 27 -19.5 35s-29.167 14.833 -48.5 20.5s-40.166 11.167 -62.499 16.5s-43.166 13.5 -62.499 24.5s-35.5 25.5 -48.5 43.5s-19.5 42.667 -19.5 74z" />
    <glyph glyph-name="Scaron" unicode="&#x160;" horiz-adv-x="588" 
d="M45 492c0 28.667 5.99805 54.668 17.998 78.001s29 43.5 51 60.5s48.333 30.167 79 39.5s64.334 14 101.001 14s73.834 -4 111.501 -12s76.834 -19.667 117.501 -35l-30 -99c-68.667 27.333 -131.667 41 -189 41c-39.333 0 -70.5 -7.83301 -93.5 -23.5
s-34.5 -36.834 -34.5 -63.501c0 -18 5.33301 -32.667 16 -44s24.667 -20.833 42 -28.5s37.166 -14.334 59.499 -20.001s45 -11.834 68 -18.501s45.667 -14.667 68 -24s42.166 -21.5 59.499 -36.5s31.333 -33.5 42 -55.5s16 -49 16 -81c0 -29.333 -6.16699 -56 -18.5 -80
s-29.666 -44.667 -51.999 -62s-49 -30.666 -80 -39.999s-65.167 -14 -102.5 -14c-38.667 0 -79 4.33301 -121 13s-86 22.667 -132 42l30 99c39.333 -15.333 77 -27.333 113 -36s69.333 -13 100 -13c41.333 0 73.833 8.16699 97.5 24.5s35.5 38.5 35.5 66.5
c0 24.667 -9.16699 43.5 -27.5 56.5s-41.333 24 -69 33s-57.5 17.5 -89.5 25.5s-61.833 19.333 -89.5 34s-50.667 34.334 -69 59.001s-27.5 58 -27.5 100zM332.998 727.001h-78l-125 120l55 59l109 -91l109 91l55 -59z" />
    <glyph glyph-name="scaron" unicode="&#x161;" horiz-adv-x="463" 
d="M40 354c0 21.333 4.66406 41.1689 13.9971 59.502s22.333 34 39 47s36.834 23.167 60.501 30.5s49.5 11 77.5 11c28.667 0 58 -2.83301 88 -8.5s60.667 -14.167 92 -25.5l-28 -92c-24.667 9.33301 -49 16.833 -73 22.5s-47 8.5 -69 8.5
c-23.333 0 -41.833 -4.83301 -55.5 -14.5s-20.5 -22.5 -20.5 -38.5c0 -14.667 6.5 -25.834 19.5 -33.501s29.167 -14.167 48.5 -19.5s40.333 -10.666 63 -15.999s43.667 -13.5 63 -24.5s35.5 -26 48.5 -45s19.5 -44.167 19.5 -75.5c0 -22 -4.83301 -42.333 -14.5 -61
s-23 -34.834 -40 -48.501s-37.667 -24.167 -62 -31.5s-50.833 -11 -79.5 -11c-61.333 0 -126.333 13 -195 39l27 91c58 -23.333 110.667 -35 158 -35c24.667 0 44.167 5.16699 58.5 15.5s21.5 24.166 21.5 41.499c0 15.333 -6.5 27 -19.5 35s-29.167 14.833 -48.5 20.5
s-40.166 11.167 -62.499 16.5s-43.166 13.5 -62.499 24.5s-35.5 25.5 -48.5 43.5s-19.5 42.667 -19.5 74zM269.997 545.003h-78l-125 120l55 59l109 -91l109 91l55 -59z" />
    <glyph glyph-name="Tcommaaccent" unicode="&#x162;" horiz-adv-x="602" 
d="M235 570h-213v102h558v-102h-212v-570h-133v570zM232 -113c0 20.667 6.33496 37.3301 19.002 49.9971s29.334 19 50.001 19c21.333 0 38.5 -7.83301 51.5 -23.5s19.5 -35.167 19.5 -58.5c0 -35.333 -9.33301 -68.166 -28 -98.499s-45.667 -56.166 -81 -77.499l-33 45
c15.333 13.333 28.166 27 38.499 41s17.166 28.667 20.499 44c-16.667 -0.666992 -30.334 4.83301 -41.001 16.5s-16 25.834 -16 42.501z" />
    <glyph glyph-name="tcommaaccent" unicode="&#x163;" horiz-adv-x="415" 
d="M241 490l135.999 0.00195312v-97h-136v-234c0 -20.667 6.33301 -37.334 19 -50.001s29.334 -19 50.001 -19c18.667 0 39.667 3 63 9l17 -96c-39.333 -10 -76.333 -15 -111 -15c-24.667 0 -47.167 3.83301 -67.5 11.5s-37.833 18.5 -52.5 32.5s-26 30.667 -34 50
s-12 40.666 -12 63.999v247h-91v97h91v144h128v-144zM172.999 -112.998c0 20.667 6.33496 37.3301 19.002 49.9971s29.334 19 50.001 19c21.333 0 38.5 -7.83301 51.5 -23.5s19.5 -35.167 19.5 -58.5c0 -35.333 -9.33301 -68.166 -28 -98.499s-45.667 -56.166 -81 -77.499
l-33 45c15.333 13.333 28.166 27 38.499 41s17.166 28.667 20.499 44c-16.667 -0.666992 -30.334 4.83301 -41.001 16.5s-16 25.834 -16 42.501z" />
    <glyph glyph-name="Tcaron" unicode="&#x164;" horiz-adv-x="602" 
d="M235 570h-213v102h558v-102h-212v-570h-133v570zM343 727h-78l-125 120l55 59l109 -91l109 91l55 -59z" />
    <glyph glyph-name="tcaron" unicode="&#x165;" horiz-adv-x="415" 
d="M241 490l135.999 0.00195312v-97h-136v-234c0 -20.667 6.33301 -37.334 19 -50.001s29.334 -19 50.001 -19c18.667 0 39.667 3 63 9l17 -96c-39.333 -10 -76.333 -15 -111 -15c-24.667 0 -47.167 3.83301 -67.5 11.5s-37.833 18.5 -52.5 32.5s-26 30.667 -34 50
s-12 40.666 -12 63.999v247h-91v97h91v144h128v-144zM361.999 533.002l-84 29l64 181l93 -32z" />
    <glyph glyph-name="Tbar" unicode="&#x166;" horiz-adv-x="602" 
d="M235 269h-127v97h127v204h-213v102h558v-102h-212v-204h127v-97h-127v-269h-133v269z" />
    <glyph glyph-name="tbar" unicode="&#x167;" horiz-adv-x="415" 
d="M241 490l135.999 -0.000976562v-97h-136v-101h120v-87h-120v-49c0 -19.333 6.33301 -35.166 19 -47.499s29.334 -18.5 50.001 -18.5c18.667 0 39.667 3 63 9l17 -96c-39.333 -10 -76.333 -15 -111 -15c-49.333 0 -89.333 14.333 -120 43s-46 67 -46 115v59h-83v87h83v101
h-91v97h91v144h128v-144z" />
    <glyph glyph-name="Utilde" unicode="&#x168;" horiz-adv-x="777" 
d="M701 263c0 -40.667 -7.83203 -77.834 -23.499 -111.501s-37.334 -62.667 -65.001 -87s-60.5 -43.166 -98.5 -56.499s-79.667 -20 -125 -20s-87.166 6.66699 -125.499 20s-71.333 32.166 -99 56.499s-49.334 53.333 -65.001 87s-23.5 70.834 -23.5 111.501v409h133v-404
c0 -26 4.5 -49.667 13.5 -71s21.5 -39.666 37.5 -54.999s35 -27.333 57 -36s46 -13 72 -13s50 4.33301 72 13s40.833 20.667 56.5 36s28 33.666 37 54.999s13.5 45 13.5 71v404h133v-409zM325.001 873c12.667 0 24.5 -1.83301 35.5 -5.5s21.5 -7.66699 31.5 -12l27.5 -12
c8.33301 -3.66699 16.166 -5.5 23.499 -5.5c16.667 0 29.334 11.667 38.001 35l77 -23c-5.33301 -30 -17.333 -54 -36 -72s-41.667 -27 -69 -27c-12.667 0 -24.5 1.83301 -35.5 5.5s-21.5 7.66699 -31.5 12l-27.5 12c-8.33301 3.66699 -16.166 5.5 -23.499 5.5
c-18.667 0 -31.334 -11.667 -38.001 -35l-77 22c5.33301 30 17.333 54.167 36 72.5s41.667 27.5 69 27.5z" />
    <glyph glyph-name="utilde" unicode="&#x169;" 
d="M535 0h-102l-16 71c-18 -26.667 -41.5 -47.167 -70.5 -61.5s-61.5 -21.5 -97.5 -21.5c-28 0 -53.833 4.5 -77.5 13.5s-44 21.833 -61 38.5s-30.167 36.5 -39.5 59.5s-14 48.167 -14 75.5v315h128v-294c0 -30.667 9.66699 -55.5 29 -74.5s44 -28.5 74 -28.5
c34.667 0 63.167 11.667 85.5 35s33.5 54 33.5 92v270h128v-490zM232 691c12.667 0 24.5 -1.83301 35.5 -5.5s21.5 -7.66699 31.5 -12l27.5 -12c8.33301 -3.66699 16.166 -5.5 23.499 -5.5c16.667 0 29.334 11.667 38.001 35l77 -23c-5.33301 -30 -17.333 -54 -36 -72
s-41.667 -27 -69 -27c-12.667 0 -24.5 1.83301 -35.5 5.5s-21.5 7.66699 -31.5 12l-27.5 12c-8.33301 3.66699 -16.166 5.5 -23.499 5.5c-18.667 0 -31.334 -11.667 -38.001 -35l-77 22c5.33301 30 17.333 54.167 36 72.5s41.667 27.5 69 27.5z" />
    <glyph glyph-name="Umacron" unicode="&#x16a;" horiz-adv-x="777" 
d="M701 263c0 -40.667 -7.83203 -77.834 -23.499 -111.501s-37.334 -62.667 -65.001 -87s-60.5 -43.166 -98.5 -56.499s-79.667 -20 -125 -20s-87.166 6.66699 -125.499 20s-71.333 32.166 -99 56.499s-49.334 53.333 -65.001 87s-23.5 70.834 -23.5 111.501v409h133v-404
c0 -26 4.5 -49.667 13.5 -71s21.5 -39.666 37.5 -54.999s35 -27.333 57 -36s46 -13 72 -13s50 4.33301 72 13s40.833 20.667 56.5 36s28 33.666 37 54.999s13.5 45 13.5 71v404h133v-409zM233.001 855h312v-87h-312v87z" />
    <glyph glyph-name="umacron" unicode="&#x16b;" 
d="M535 0h-102l-16 71c-18 -26.667 -41.5 -47.167 -70.5 -61.5s-61.5 -21.5 -97.5 -21.5c-28 0 -53.833 4.5 -77.5 13.5s-44 21.833 -61 38.5s-30.167 36.5 -39.5 59.5s-14 48.167 -14 75.5v315h128v-294c0 -30.667 9.66699 -55.5 29 -74.5s44 -28.5 74 -28.5
c34.667 0 63.167 11.667 85.5 35s33.5 54 33.5 92v270h128v-490zM140 673h312v-87h-312v87z" />
    <glyph glyph-name="Ubreve" unicode="&#x16c;" horiz-adv-x="777" 
d="M701 263c0 -40.667 -7.83203 -77.834 -23.499 -111.501s-37.334 -62.667 -65.001 -87s-60.5 -43.166 -98.5 -56.499s-79.667 -20 -125 -20s-87.166 6.66699 -125.499 20s-71.333 32.166 -99 56.499s-49.334 53.333 -65.001 87s-23.5 70.834 -23.5 111.501v409h133v-404
c0 -26 4.5 -49.667 13.5 -71s21.5 -39.666 37.5 -54.999s35 -27.333 57 -36s46 -13 72 -13s50 4.33301 72 13s40.833 20.667 56.5 36s28 33.666 37 54.999s13.5 45 13.5 71v404h133v-409zM306.001 880c1.33301 -22 9.50195 -39.667 24.502 -53s33.833 -20 56.5 -20
s41.5 6.66699 56.5 20s23.167 31 24.5 53h83c-1.33301 -25.333 -6.33301 -47.833 -15 -67.5s-20.167 -36.5 -34.5 -50.5s-31.333 -24.667 -51 -32s-40.834 -11 -63.501 -11s-43.834 3.66699 -63.501 11s-36.667 18 -51 32s-26 30.833 -35 50.5s-13.833 42.167 -14.5 67.5h83
z" />
    <glyph glyph-name="ubreve" unicode="&#x16d;" 
d="M535 0h-102l-16 71c-18 -26.667 -41.5 -47.167 -70.5 -61.5s-61.5 -21.5 -97.5 -21.5c-28 0 -53.833 4.5 -77.5 13.5s-44 21.833 -61 38.5s-30.167 36.5 -39.5 59.5s-14 48.167 -14 75.5v315h128v-294c0 -30.667 9.66699 -55.5 29 -74.5s44 -28.5 74 -28.5
c34.667 0 63.167 11.667 85.5 35s33.5 54 33.5 92v270h128v-490zM213 698c1.33301 -22 9.50195 -39.667 24.502 -53s33.833 -20 56.5 -20s41.5 6.66699 56.5 20s23.167 31 24.5 53h83c-1.33301 -25.333 -6.33301 -47.833 -15 -67.5s-20.167 -36.5 -34.5 -50.5
s-31.333 -24.667 -51 -32s-40.834 -11 -63.501 -11s-43.834 3.66699 -63.501 11s-36.667 18 -51 32s-26 30.833 -35 50.5s-13.833 42.167 -14.5 67.5h83z" />
    <glyph glyph-name="Uring" unicode="&#x16e;" horiz-adv-x="777" 
d="M701 263c0 -40.667 -7.83203 -77.834 -23.499 -111.501s-37.334 -62.667 -65.001 -87s-60.5 -43.166 -98.5 -56.499s-79.667 -20 -125 -20s-87.166 6.66699 -125.499 20s-71.333 32.166 -99 56.499s-49.334 53.333 -65.001 87s-23.5 70.834 -23.5 111.501v409h133v-404
c0 -26 4.5 -49.667 13.5 -71s21.5 -39.666 37.5 -54.999s35 -27.333 57 -36s46 -13 72 -13s50 4.33301 72 13s40.833 20.667 56.5 36s28 33.666 37 54.999s13.5 45 13.5 71v404h133v-409zM281.001 812c0 30.667 10 55.5 30 74.5s46 28.5 78 28.5s58 -9.5 78 -28.5
s30 -43.833 30 -74.5s-9.83301 -55.5 -29.5 -74.5s-45.5 -28.5 -77.5 -28.5s-58.167 9.5 -78.5 28.5s-30.5 43.833 -30.5 74.5zM342.001 812c0 -14 4.5 -25.333 13.5 -34s20.5 -13 34.5 -13c13.333 0 24.333 4.33301 33 13s13 20 13 34s-4.5 25.167 -13.5 33.5
s-20.167 12.5 -33.5 12.5c-14 0 -25.333 -4.16699 -34 -12.5s-13 -19.5 -13 -33.5z" />
    <glyph glyph-name="uring" unicode="&#x16f;" 
d="M535 0h-102l-16 71c-18 -26.667 -41.5 -47.167 -70.5 -61.5s-61.5 -21.5 -97.5 -21.5c-28 0 -53.833 4.5 -77.5 13.5s-44 21.833 -61 38.5s-30.167 36.5 -39.5 59.5s-14 48.167 -14 75.5v315h128v-294c0 -30.667 9.66699 -55.5 29 -74.5s44 -28.5 74 -28.5
c34.667 0 63.167 11.667 85.5 35s33.5 54 33.5 92v270h128v-490zM188 630c0 30.667 10 55.5 30 74.5s46 28.5 78 28.5s58 -9.5 78 -28.5s30 -43.833 30 -74.5s-9.83301 -55.5 -29.5 -74.5s-45.5 -28.5 -77.5 -28.5s-58.167 9.5 -78.5 28.5s-30.5 43.833 -30.5 74.5zM249 630
c0 -14 4.5 -25.333 13.5 -34s20.5 -13 34.5 -13c13.333 0 24.333 4.33301 33 13s13 20 13 34s-4.5 25.167 -13.5 33.5s-20.167 12.5 -33.5 12.5c-14 0 -25.333 -4.16699 -34 -12.5s-13 -19.5 -13 -33.5z" />
    <glyph glyph-name="Uhungarumlaut" unicode="&#x170;" horiz-adv-x="777" 
d="M701 263c0 -40.667 -7.83203 -77.834 -23.499 -111.501s-37.334 -62.667 -65.001 -87s-60.5 -43.166 -98.5 -56.499s-79.667 -20 -125 -20s-87.166 6.66699 -125.499 20s-71.333 32.166 -99 56.499s-49.334 53.333 -65.001 87s-23.5 70.834 -23.5 111.501v409h133v-404
c0 -26 4.5 -49.667 13.5 -71s21.5 -39.666 37.5 -54.999s35 -27.333 57 -36s46 -13 72 -13s50 4.33301 72 13s40.833 20.667 56.5 36s28 33.666 37 54.999s13.5 45 13.5 71v404h133v-409zM489.001 714l-64 65l152 161l73 -73zM268.001 714l-64 65l152 161l73 -73z" />
    <glyph glyph-name="uhungarumlaut" unicode="&#x171;" 
d="M535 0h-102l-16 71c-18 -26.667 -41.5 -47.167 -70.5 -61.5s-61.5 -21.5 -97.5 -21.5c-28 0 -53.833 4.5 -77.5 13.5s-44 21.833 -61 38.5s-30.167 36.5 -39.5 59.5s-14 48.167 -14 75.5v315h128v-294c0 -30.667 9.66699 -55.5 29 -74.5s44 -28.5 74 -28.5
c34.667 0 63.167 11.667 85.5 35s33.5 54 33.5 92v270h128v-490zM396 532l-64 65l152 161l73 -73zM175 532l-64 65l152 161l73 -73z" />
    <glyph glyph-name="Uogonek" unicode="&#x172;" horiz-adv-x="777" 
d="M701 273c0 -60 -15.5 -111.169 -46.5 -153.502s-75.5 -79.833 -133.5 -112.5c-24 -13.333 -43.5 -25.833 -58.5 -37.5s-27 -22.5 -36 -32.5s-15.167 -19.167 -18.5 -27.5s-5 -15.833 -5 -22.5c0 -13.333 4.16699 -23.5 12.5 -30.5s18.833 -10.5 31.5 -10.5
c11.333 0 22 2 32 6l18 -69c-25.333 -9.33301 -52.333 -14 -81 -14c-32 0 -58 8.33301 -78 25s-30 40 -30 70c0 45.333 27.667 87 83 125c-15.333 -0.666992 -32.333 0 -51 2c-35.333 3.33301 -69 12.333 -101 27s-60 33.834 -84 57.501s-43.167 51.5 -57.5 83.5
s-21.5 66.667 -21.5 104v409h133v-404c0 -26 4.5 -49.667 13.5 -71s21.5 -39.666 37.5 -54.999s35 -27.333 57 -36s46 -13 72 -13s50 4.33301 72 13s40.833 20.834 56.5 36.501s28 34.167 37 55.5s13.5 44.666 13.5 69.999v404h133v-399z" />
    <glyph glyph-name="uogonek" unicode="&#x173;" 
d="M535 0c-25.333 -20 -45.167 -39.5 -59.5 -58.5s-21.5 -37.167 -21.5 -54.5c0 -13.333 4.33301 -23.5 13 -30.5s19 -10.5 31 -10.5c11.333 0 23 2 35 6l15 -70c-25.333 -8.66699 -52.333 -13 -81 -13c-32 0 -58 8.33301 -78 25s-30 40 -30 70
c0 23.333 7.33301 46.5 22 69.5s36 45.167 64 66.5h-12l-16 71c-18 -26.667 -41.5 -47.167 -70.5 -61.5s-61.5 -21.5 -97.5 -21.5c-28 0 -53.833 4.5 -77.5 13.5s-44 21.833 -61 38.5s-30.167 36.5 -39.5 59.5s-14 48.167 -14 75.5v315h128v-294
c0 -30.667 9.66699 -55.5 29 -74.5s44 -28.5 74 -28.5c34.667 0 63.167 11.667 85.5 35s33.5 54 33.5 92v270h128v-490z" />
    <glyph glyph-name="Wcircumflex" unicode="&#x174;" horiz-adv-x="1017" 
d="M787 0h-130l-148 511l-149 -511h-130l-214 672h134l148 -511l149 511h124l148 -511l149 511h133zM470 896h78l125 -119l-55 -60l-109 92l-109 -92l-55 60z" />
    <glyph glyph-name="wcircumflex" unicode="&#x175;" horiz-adv-x="793" 
d="M616 0h-124l-96 344l-95 -344h-124l-160 490h129l95 -344l96 344h119l95 -344l96 344h128zM357 714h78l125 -119l-55 -60l-109 92l-109 -92l-55 60z" />
    <glyph glyph-name="Ycircumflex" unicode="&#x176;" horiz-adv-x="617" 
d="M242 273l-246 399h145l167 -281l168 281h144l-245 -399v-273h-133v273zM269 896h78l125 -119l-55 -60l-109 92l-109 -92l-55 60z" />
    <glyph glyph-name="ycircumflex" unicode="&#x177;" horiz-adv-x="537" 
d="M309 -55c-22 -56 -48.832 -97.501 -80.499 -124.501s-70.167 -40.5 -115.5 -40.5c-22.667 0 -48 3 -76 9l17 100c8.66699 -2 17 -3.66699 25 -5s15.333 -2 22 -2c22 0 40.167 6.33301 54.5 19s27.166 33.334 38.499 62.001l17 43l-202 484h134l127 -345l124 345h133z
M229.001 713.999h78l125 -119l-55 -60l-109 92l-109 -92l-55 60z" />
    <glyph glyph-name="Ydieresis" unicode="&#x178;" horiz-adv-x="617" 
d="M242 273l-246 399h145l167 -281l168 281h144l-245 -399v-273h-133v273zM128 812c0 20.667 6.33301 37.334 19 50.001s29.334 19 50.001 19s37.334 -6.33301 50.001 -19s19 -29.334 19 -50.001s-6.33301 -37.334 -19 -50.001s-29.334 -19 -50.001 -19
s-37.334 6.33301 -50.001 19s-19 29.334 -19 50.001zM350 812c0 20.667 6.33301 37.334 19 50.001s29.334 19 50.001 19s37.334 -6.33301 50.001 -19s19 -29.334 19 -50.001s-6.33301 -37.334 -19 -50.001s-29.334 -19 -50.001 -19s-37.334 6.33301 -50.001 19
s-19 29.334 -19 50.001z" />
    <glyph glyph-name="Zacute" unicode="&#x179;" horiz-adv-x="636" 
d="M41 76l371 494h-359v102h530v-76l-371 -494h383v-102h-554v76zM286 717l-49 70l185 129l57 -82z" />
    <glyph glyph-name="zacute" unicode="&#x17a;" horiz-adv-x="495" 
d="M36 71l249 322h-241v97h407v-70l-249 -323h257v-97h-423v71zM215 535l-49 70l185 129l57 -82z" />
    <glyph glyph-name="Zdotaccent" unicode="&#x17b;" horiz-adv-x="636" 
d="M41 76l371 494h-359v102h530v-76l-371 -494h383v-102h-554v76zM244 812c0 21.333 6.83301 39 20.5 53s31.5 21 53.5 21s39.833 -7 53.5 -21s20.5 -31.667 20.5 -53c0 -22 -6.83301 -39.833 -20.5 -53.5s-31.5 -20.5 -53.5 -20.5s-39.833 6.83301 -53.5 20.5
s-20.5 31.5 -20.5 53.5z" />
    <glyph glyph-name="zdotaccent" unicode="&#x17c;" horiz-adv-x="495" 
d="M36 71l249 322h-241v97h407v-70l-249 -323h257v-97h-423v71zM173 630c0 21.333 6.83301 39 20.5 53s31.5 21 53.5 21s39.833 -7 53.5 -21s20.5 -31.667 20.5 -53c0 -22 -6.83301 -39.833 -20.5 -53.5s-31.5 -20.5 -53.5 -20.5s-39.833 6.83301 -53.5 20.5
s-20.5 31.5 -20.5 53.5z" />
    <glyph glyph-name="Zcaron" unicode="&#x17d;" horiz-adv-x="636" 
d="M41 76l371 494h-359v102h530v-76l-371 -494h383v-102h-554v76zM357 727h-78l-125 120l55 59l109 -91l109 91l55 -59z" />
    <glyph glyph-name="zcaron" unicode="&#x17e;" horiz-adv-x="495" 
d="M36 71l249 322h-241v97h407v-70l-249 -323h257v-97h-423v71zM286 545h-78l-125 120l55 59l109 -91l109 91l55 -59z" />
    <glyph glyph-name="florin" unicode="&#x192;" horiz-adv-x="511" 
d="M94 436h87.002v97c0 22 4 42.333 12 61s19 34.667 33 48s30.667 23.666 50 30.999s40.666 11 63.999 11c34 0 68.667 -4.33301 104 -13l-17 -100c-21.333 5.33301 -39.333 8 -54 8c-17.333 0 -31.5 -5.16699 -42.5 -15.5s-16.5 -23.833 -16.5 -40.5v-87h103v-97h-103
v-200c0 -22 -4 -42.333 -12 -61s-19 -34.667 -33 -48s-30.667 -23.666 -50 -30.999s-40.333 -11 -63 -11c-34.667 0 -69.334 4.33301 -104.001 13l16 100c23.333 -5.33301 42.333 -8 57 -8c16.667 0 30.167 5.16699 40.5 15.5s15.5 23.833 15.5 40.5v190h-87v97z" />
    <glyph glyph-name="Acaron" unicode="&#x1cd;" horiz-adv-x="681" 
d="M279 672h123l275 -672h-134l-62 160h-281l-62 -160h-134zM236 257h210l-105 269zM379 727h-78l-125 120l55 59l109 -91l109 91l55 -59z" />
    <glyph glyph-name="acaron" unicode="&#x1ce;" horiz-adv-x="551" 
d="M36 142c0 52 19.834 92.1602 59.501 120.493s95.167 42.5 166.5 42.5c15.333 0 31 -0.833008 47 -2.5s32 -4.16699 48 -7.5v26c0 25.333 -9.16699 46 -27.5 62s-42.833 24 -73.5 24c-49.333 0 -103 -11.667 -161 -35l-32 89c71.333 27.333 140.666 41 207.999 41
c30.667 0 58.667 -4.5 84 -13.5s47 -21.5 65 -37.5s32 -35.167 42 -57.5s15 -47.166 15 -74.499v-199c0 -10.667 3 -19.167 9 -25.5s14.333 -9.5 25 -9.5c5.33301 0 10.333 0.333008 15 1s8 1.33398 10 2.00098l9 -93c-10.667 -2 -21.667 -3.66699 -33 -5s-23 -2 -35 -2
c-25.333 0 -47 5.83301 -65 17.5s-31.333 27.834 -40 48.501c-21.333 -21.333 -46 -37.666 -74 -48.999s-57 -17 -87 -17c-25.333 0 -48.833 3.83301 -70.5 11.5s-40.167 18.334 -55.5 32.001s-27.333 29.834 -36 48.501s-13 39.334 -13 62.001zM159.001 148.993
c0 -20 8.16797 -36.833 24.501 -50.5s36.5 -20.5 60.5 -20.5c34 0 61.333 10.5 82 31.5s31 48.5 31 82.5v29c-24.667 6.66699 -51.334 10 -80.001 10c-36.667 0 -65.5 -7.33301 -86.5 -22s-31.5 -34.667 -31.5 -60zM314.002 544.993h-78l-125 120l55 59l109 -91l109 91
l55 -59z" />
    <glyph glyph-name="Aringacute" unicode="&#x1fa;" horiz-adv-x="700" 
d="M279 672h123l275 -672h-134l-62 160h-281l-62 -160h-134zM236 257h210l-105 269zM301 809c0 -14.667 4.66699 -26.5 14 -35.5s21.333 -13.5 36 -13.5c14 0 25.5 4.5 34.5 13.5s13.5 20.833 13.5 35.5s-4.5 26.5 -13.5 35.5s-20.833 13.5 -35.5 13.5
s-26.5 -4.5 -35.5 -13.5s-13.5 -20.833 -13.5 -35.5zM424 883c10.667 -9.33301 19.001 -20.168 25.001 -32.501s9 -26.166 9 -41.499c0 -29.333 -9.83301 -53 -29.5 -71s-45.5 -27 -77.5 -27s-58.167 9 -78.5 27s-30.5 41.667 -30.5 71c0 18.667 4.16699 35 12.5 49
s20.166 26 35.499 36l169 114l52 -76z" />
    <glyph glyph-name="aringacute" unicode="&#x1fb;" horiz-adv-x="559" 
d="M36 142c0 52 19.834 92.1602 59.501 120.493s95.167 42.5 166.5 42.5c15.333 0 31 -0.833008 47 -2.5s32 -4.16699 48 -7.5v26c0 25.333 -9.16699 46 -27.5 62s-42.833 24 -73.5 24c-49.333 0 -103 -11.667 -161 -35l-32 89c71.333 27.333 140.666 41 207.999 41
c30.667 0 58.667 -4.5 84 -13.5s47 -21.5 65 -37.5s32 -35.167 42 -57.5s15 -47.166 15 -74.499v-199c0 -10.667 3 -19.167 9 -25.5s14.333 -9.5 25 -9.5c5.33301 0 10.333 0.333008 15 1s8 1.33398 10 2.00098l9 -93c-10.667 -2 -21.667 -3.66699 -33 -5s-23 -2 -35 -2
c-25.333 0 -47 5.83301 -65 17.5s-31.333 27.834 -40 48.501c-21.333 -21.333 -46 -37.666 -74 -48.999s-57 -17 -87 -17c-25.333 0 -48.833 3.83301 -70.5 11.5s-40.167 18.334 -55.5 32.001s-27.333 29.834 -36 48.501s-13 39.334 -13 62.001zM159.001 148.993
c0 -20 8.16797 -36.833 24.501 -50.5s36.5 -20.5 60.5 -20.5c34 0 61.333 10.5 82 31.5s31 48.5 31 82.5v29c-24.667 6.66699 -51.334 10 -80.001 10c-36.667 0 -65.5 -7.33301 -86.5 -22s-31.5 -34.667 -31.5 -60zM222.002 626.993c0 -14.667 4.66699 -26.5 14 -35.5
s21.333 -13.5 36 -13.5c14 0 25.5 4.5 34.5 13.5s13.5 20.833 13.5 35.5s-4.5 26.5 -13.5 35.5s-20.833 13.5 -35.5 13.5s-26.5 -4.5 -35.5 -13.5s-13.5 -20.833 -13.5 -35.5zM345.002 700.993c10.667 -9.33301 19.001 -20.168 25.001 -32.501s9 -26.166 9 -41.499
c0 -29.333 -9.83301 -53 -29.5 -71s-45.5 -27 -77.5 -27s-58.167 9 -78.5 27s-30.5 41.667 -30.5 71c0 18.667 4.16699 35 12.5 49s20.166 26 35.499 36l169 114l52 -76z" />
    <glyph glyph-name="AEacute" unicode="&#x1fc;" horiz-adv-x="980" 
d="M468 160h-242l-101 -160h-150l433 672h513v-100h-325v-179h293v-98h-293v-195h341v-100h-469v160zM282 257h186v297zM546 717l-49 70l185 129l57 -82z" />
    <glyph glyph-name="aeacute" unicode="&#x1fd;" horiz-adv-x="864" 
d="M400 535l-49 70l185 129l57 -82zM36 139c0 52.667 19.832 93.501 59.499 122.501s95.167 43.5 166.5 43.5c15.333 0 31 -0.833008 47 -2.5s32 -4.16699 48 -7.5v26c0 25.333 -9.16699 46 -27.5 62s-42.833 24 -73.5 24c-49.333 0 -103 -11.667 -161 -35l-32 89
c71.333 27.333 140.666 41 207.999 41c36.667 0 68.834 -6.83301 96.501 -20.5s47.167 -31.5 58.5 -53.5c21.333 24 47 42.333 77 55s62.667 19 98 19c34.667 0 66.5 -6 95.5 -18s53.833 -29 74.5 -51s36.667 -48.167 48 -78.5s17 -63.833 17 -100.5v-21
c0 -6.66699 -0.666992 -13.334 -2 -20.001h-357c5.33301 -39.333 22 -70.833 50 -94.5s63 -35.5 105 -35.5c21.333 0 44 3.33301 68 10s48.667 17 74 31l38 -87c-33.333 -17.333 -66.166 -29.833 -98.499 -37.5s-63.833 -11.5 -94.5 -11.5c-42 0 -81.167 8.33301 -117.5 25
s-66.833 41 -91.5 73c-20.667 -30.667 -47.334 -54.667 -80.001 -72s-69 -26 -109 -26c-27.333 0 -52.166 3.66699 -74.499 11s-41.833 17.833 -58.5 31.5s-29.5 29.667 -38.5 48s-13.5 38.5 -13.5 60.5zM600.999 407.001c-34 0 -62 -10.667 -84 -32
s-35.333 -49.666 -40 -84.999h237c-2.66699 35.333 -14.167 63.666 -34.5 84.999s-46.5 32 -78.5 32zM158.999 149.001c0 -20 8.16797 -36.833 24.501 -50.5s36.5 -20.5 60.5 -20.5c34 0 61.333 10.5 82 31.5s31 48.5 31 82.5v29c-24.667 6.66699 -51.334 10 -80.001 10
c-36.667 0 -65.5 -7.33301 -86.5 -22s-31.5 -34.667 -31.5 -60z" />
    <glyph glyph-name="Oslashacute" unicode="&#x1fe;" horiz-adv-x="777" 
d="M39 336c0 50.667 8.50098 97.332 25.501 139.999s41 79.5 72 110.5s68 55 111 72s90.167 25.5 141.5 25.5c34 0 65.667 -4 95 -12s56.666 -19.333 81.999 -34l53 70l62 -47l-50 -66c34 -30.667 60.5 -68 79.5 -112s28.5 -93 28.5 -147
c0 -51.333 -8.5 -98.166 -25.5 -140.499s-41 -79 -72 -110s-68 -55 -111 -72s-90.167 -25.5 -141.5 -25.5c-34 0 -66 4 -96 12s-57.667 19.333 -83 34l-52 -70l-62 47l49 65c-34 31.333 -60.167 69 -78.5 113s-27.5 93 -27.5 147zM164.001 335.998
c0 -33.333 4.50098 -63.832 13.501 -91.499s22.167 -51.834 39.5 -72.501l285 379c-33.333 22 -71 33 -113 33c-33.333 0 -63.833 -6 -91.5 -18s-51.334 -29 -71.001 -51s-35 -48.167 -46 -78.5s-16.5 -63.833 -16.5 -100.5zM613.002 335.999
c0 33.333 -4.66895 63.668 -14.002 91.001s-22.333 51.666 -39 72.999l-284 -380c15.333 -10 32.5 -17.833 51.5 -23.5s39.5 -8.5 61.5 -8.5c32.667 0 62.834 6 90.501 18s51.334 29 71.001 51s35 48.167 46 78.5s16.5 63.833 16.5 100.5zM357 717.001l-49 70l185 129
l57 -82z" />
    <glyph glyph-name="oslashacute" unicode="&#x1ff;" 
d="M36 245c0 38 6.50195 72.667 19.502 104s31.167 58.333 54.5 81s51.166 40.334 83.499 53.001s67.833 19 106.5 19c47.333 0 89.666 -10.333 126.999 -31l40 52l54 -40l-36 -48c25.333 -23.333 45 -51 59 -83s21 -67.667 21 -107c0 -38 -6.5 -72.667 -19.5 -104
s-31.167 -58.333 -54.5 -81s-51.333 -40.334 -84 -53.001s-68.334 -19 -107.001 -19c-47.333 0 -89.666 10.333 -126.999 31l-39 -52l-54 41l35 46c-25.333 23.333 -44.833 51 -58.5 83s-20.5 68 -20.5 108zM156.002 245c0 -19.333 2.49902 -37.168 7.49902 -53.501
s12.167 -31.166 21.5 -44.499l180 241c-19.333 12.667 -41 19 -65 19c-21.333 0 -40.666 -4 -57.999 -12s-32.5 -19 -45.5 -33s-23 -31 -30 -51s-10.5 -42 -10.5 -66zM445.001 244.998c0 38.667 -10.001 71 -30.001 97l-180 -240c18.667 -12.667 40.334 -19 65.001 -19
c21.333 0 40.833 4 58.5 12s33 19 46 33s23 31 30 51s10.5 42 10.5 66zM268 534.998l-49 70l185 129l57 -82z" />
    <glyph glyph-name="Scommaaccent" unicode="&#x218;" horiz-adv-x="588" 
d="M45 492c0 28.667 5.99805 54.668 17.998 78.001s29 43.5 51 60.5s48.333 30.167 79 39.5s64.334 14 101.001 14s73.834 -4 111.501 -12s76.834 -19.667 117.501 -35l-30 -99c-68.667 27.333 -131.667 41 -189 41c-39.333 0 -70.5 -7.83301 -93.5 -23.5
s-34.5 -36.834 -34.5 -63.501c0 -18 5.33301 -32.667 16 -44s24.667 -20.833 42 -28.5s37.166 -14.334 59.499 -20.001s45 -11.834 68 -18.501s45.667 -14.667 68 -24s42.166 -21.5 59.499 -36.5s31.333 -33.5 42 -55.5s16 -49 16 -81c0 -29.333 -6.16699 -56 -18.5 -80
s-29.666 -44.667 -51.999 -62s-49 -30.666 -80 -39.999s-65.167 -14 -102.5 -14c-38.667 0 -79 4.33301 -121 13s-86 22.667 -132 42l30 99c39.333 -15.333 77 -27.333 113 -36s69.333 -13 100 -13c41.333 0 73.833 8.16699 97.5 24.5s35.5 38.5 35.5 66.5
c0 24.667 -9.16699 43.5 -27.5 56.5s-41.333 24 -69 33s-57.5 17.5 -89.5 25.5s-61.833 19.333 -89.5 34s-50.667 34.334 -69 59.001s-27.5 58 -27.5 100zM224.998 -112.999c0 20.667 6.33496 37.3301 19.002 49.9971s29.334 19 50.001 19
c21.333 0 38.5 -7.83301 51.5 -23.5s19.5 -35.167 19.5 -58.5c0 -35.333 -9.33301 -68.166 -28 -98.499s-45.667 -56.166 -81 -77.499l-33 45c15.333 13.333 28.166 27 38.499 41s17.166 28.667 20.499 44c-16.667 -0.666992 -30.334 4.83301 -41.001 16.5
s-16 25.834 -16 42.501z" />
    <glyph glyph-name="scommaaccent" unicode="&#x219;" horiz-adv-x="463" 
d="M40 354c0 21.333 4.66406 41.1689 13.9971 59.502s22.333 34 39 47s36.834 23.167 60.501 30.5s49.5 11 77.5 11c28.667 0 58 -2.83301 88 -8.5s60.667 -14.167 92 -25.5l-28 -92c-24.667 9.33301 -49 16.833 -73 22.5s-47 8.5 -69 8.5
c-23.333 0 -41.833 -4.83301 -55.5 -14.5s-20.5 -22.5 -20.5 -38.5c0 -14.667 6.5 -25.834 19.5 -33.501s29.167 -14.167 48.5 -19.5s40.333 -10.666 63 -15.999s43.667 -13.5 63 -24.5s35.5 -26 48.5 -45s19.5 -44.167 19.5 -75.5c0 -22 -4.83301 -42.333 -14.5 -61
s-23 -34.834 -40 -48.501s-37.667 -24.167 -62 -31.5s-50.833 -11 -79.5 -11c-61.333 0 -126.333 13 -195 39l27 91c58 -23.333 110.667 -35 158 -35c24.667 0 44.167 5.16699 58.5 15.5s21.5 24.166 21.5 41.499c0 15.333 -6.5 27 -19.5 35s-29.167 14.833 -48.5 20.5
s-40.166 11.167 -62.499 16.5s-43.166 13.5 -62.499 24.5s-35.5 25.5 -48.5 43.5s-19.5 42.667 -19.5 74zM161.997 -112.997c0 20.667 6.33496 37.3301 19.002 49.9971s29.334 19 50.001 19c21.333 0 38.5 -7.83301 51.5 -23.5s19.5 -35.167 19.5 -58.5
c0 -35.333 -9.33301 -68.166 -28 -98.499s-45.667 -56.166 -81 -77.499l-33 45c15.333 13.333 28.166 27 38.499 41s17.166 28.667 20.499 44c-16.667 -0.666992 -30.334 4.83301 -41.001 16.5s-16 25.834 -16 42.501z" />
    <glyph glyph-name="uni021A" unicode="&#x21a;" horiz-adv-x="602" 
d="M235 570h-213v102h558v-102h-212v-570h-133v570zM232 -113c0 20.667 6.33496 37.3301 19.002 49.9971s29.334 19 50.001 19c21.333 0 38.5 -7.83301 51.5 -23.5s19.5 -35.167 19.5 -58.5c0 -35.333 -9.33301 -68.166 -28 -98.499s-45.667 -56.166 -81 -77.499l-33 45
c15.333 13.333 28.166 27 38.499 41s17.166 28.667 20.499 44c-16.667 -0.666992 -30.334 4.83301 -41.001 16.5s-16 25.834 -16 42.501z" />
    <glyph glyph-name="uni021B" unicode="&#x21b;" horiz-adv-x="415" 
d="M241 490l135.999 0.00195312v-97h-136v-234c0 -20.667 6.33301 -37.334 19 -50.001s29.334 -19 50.001 -19c18.667 0 39.667 3 63 9l17 -96c-39.333 -10 -76.333 -15 -111 -15c-24.667 0 -47.167 3.83301 -67.5 11.5s-37.833 18.5 -52.5 32.5s-26 30.667 -34 50
s-12 40.666 -12 63.999v247h-91v97h91v144h128v-144zM172.999 -112.998c0 20.667 6.33496 37.3301 19.002 49.9971s29.334 19 50.001 19c21.333 0 38.5 -7.83301 51.5 -23.5s19.5 -35.167 19.5 -58.5c0 -35.333 -9.33301 -68.166 -28 -98.499s-45.667 -56.166 -81 -77.499
l-33 45c15.333 13.333 28.166 27 38.499 41s17.166 28.667 20.499 44c-16.667 -0.666992 -30.334 4.83301 -41.001 16.5s-16 25.834 -16 42.501z" />
    <glyph glyph-name="circumflex" unicode="&#x2c6;" horiz-adv-x="240" 
d="M81 714h78l125 -119l-55 -60l-109 92l-109 -92l-55 60z" />
    <glyph glyph-name="caron" unicode="&#x2c7;" horiz-adv-x="240" 
d="M159 545h-78l-125 120l55 59l109 -91l109 91l55 -59z" />
    <glyph glyph-name="breve" unicode="&#x2d8;" horiz-adv-x="240" 
d="M39 698c1.33301 -22 9.50195 -39.667 24.502 -53s33.833 -20 56.5 -20s41.5 6.66699 56.5 20s23.167 31 24.5 53h83c-1.33301 -25.333 -6.33301 -47.833 -15 -67.5s-20.167 -36.5 -34.5 -50.5s-31.333 -24.667 -51 -32s-40.834 -11 -63.501 -11
s-43.834 3.66699 -63.501 11s-36.667 18 -51 32s-26 30.833 -35 50.5s-13.833 42.167 -14.5 67.5h83z" />
    <glyph glyph-name="dotaccent" unicode="&#x2d9;" horiz-adv-x="240" 
d="M46 630c0 21.333 6.83301 39 20.5 53s31.5 21 53.5 21s39.833 -7 53.5 -21s20.5 -31.667 20.5 -53c0 -22 -6.83301 -39.833 -20.5 -53.5s-31.5 -20.5 -53.5 -20.5s-39.833 6.83301 -53.5 20.5s-20.5 31.5 -20.5 53.5z" />
    <glyph glyph-name="ring" unicode="&#x2da;" horiz-adv-x="240" 
d="M12 630c0 30.667 10 55.5 30 74.5s46 28.5 78 28.5s58 -9.5 78 -28.5s30 -43.833 30 -74.5s-9.83301 -55.5 -29.5 -74.5s-45.5 -28.5 -77.5 -28.5s-58.167 9.5 -78.5 28.5s-30.5 43.833 -30.5 74.5zM73 630c0 -14 4.5 -25.333 13.5 -34s20.5 -13 34.5 -13
c13.333 0 24.333 4.33301 33 13s13 20 13 34s-4.5 25.167 -13.5 33.5s-20.167 12.5 -33.5 12.5c-14 0 -25.333 -4.16699 -34 -12.5s-13 -19.5 -13 -33.5z" />
    </font>
</defs>
</svg>
