<svg width="54" height="40" viewBox="0 0 54 40" fill="none" xmlns="http://www.w3.org/2000/svg">
<rect x="2.5" y="3.5" width="49" height="33.2857" rx="5.5" fill="white" stroke="#D9D9D9"/>
<path d="M46 4H8C5.23858 4 3 6.23858 3 9V31.29C3 34.0514 5.23858 36.29 8 36.29H46C48.7614 36.29 51 34.0514 51 31.29V9C51 6.23858 48.7614 4 46 4Z" fill="url(#paint0_linear)"/>
<g>
<path d="M20.3548 19.4839H27.7097C27.6452 18 27.2581 16.5161 26.1613 15.5484C24.8065 14.3871 22.4839 14 20.3548 14C18.1613 14 15.7742 14.4516 14.4194 15.6774C13.2581 16.7742 13 18.4516 13 20C13 21.6129 13.5161 23.4839 14.7419 24.5806C16.0968 25.7419 18.2903 26 20.3548 26C22.4194 26 24.6129 25.6774 25.9032 24.5806C27.2581 23.4839 27.7097 21.6774 27.7097 20H20.3548V19.4839Z" fill="white"/>
<path d="M28.2256 20V25.7419H38.4836C39.9675 25.6774 41.1933 24.4516 41.1933 22.9032C41.1933 21.3548 39.9675 20.0645 38.4836 20H28.2256Z" fill="white"/>
<path d="M40.9998 16.8388C40.9998 15.3549 39.8385 14.1936 38.3546 14.1936C38.2256 14.1936 38.1611 14.1936 38.032 14.1936H28.2256V19.4839H38.5482C39.903 19.3549 40.9998 18.2581 40.9998 16.8388Z" fill="white"/>
</g>
<defs>
<linearGradient id="paint0_linear" x1="27" y1="4" x2="27" y2="36.29" gradientUnits="userSpaceOnUse">
<stop stop-color="#125896"/>
<stop offset="0.25" stop-color="#008AC8"/>
<stop offset="0.489583" stop-color="#01ACE7"/>
<stop offset="0.734375" stop-color="#00ABE1"/>
<stop offset="0.979167" stop-color="#038A59"/>
</linearGradient>
<clipPath id="clip0">
<rect width="28.1935" height="12" fill="white" transform="translate(13 14)"/>
</clipPath>
</defs>
</svg>
