<svg width="24" height="45" viewBox="0 0 24 45" fill="none" xmlns="http://www.w3.org/2000/svg">
<path fill-rule="evenodd" clip-rule="evenodd" d="M22.1919 0.922852L17.3682 11.2671C21.3005 13.2373 24 17.3047 24 22.0024C24 28.6299 18.6274 34.0024 12 34.0024C10.3037 34.0024 8.68958 33.6504 7.22668 33.0156L1.90625 44.4253L1 44.0029L6.3269 32.5796C2.56055 30.5552 0 26.5776 0 22.0024C0 15.375 5.37256 10.0024 12 10.0024C13.5746 10.0024 15.0784 10.3057 16.4561 10.8569L21.2856 0.5L22.1919 0.922852ZM5.56506 16.8H7.34106L8.68506 25.936L10.0291 16.8H11.6451L9.91706 28H7.29306L5.56506 16.8ZM14.9735 22.9857C14.0493 22.1402 13.0426 21.2191 13.0426 19.488C13.0426 17.696 13.9226 16.672 15.6346 16.672C17.3466 16.672 18.2266 17.696 18.2266 19.488V19.84H16.5626V19.376C16.5626 18.576 16.2426 18.272 15.6826 18.272C15.1226 18.272 14.8026 18.576 14.8026 19.376C14.8026 20.4336 15.5274 21.0968 16.3116 21.8143C17.2358 22.6598 18.2426 23.5809 18.2426 25.312C18.2426 27.104 17.3466 28.128 15.6186 28.128C13.8906 28.128 12.9946 27.104 12.9946 25.312V24.624H14.6586V25.424C14.6586 26.224 15.0106 26.512 15.5706 26.512C16.1306 26.512 16.4826 26.224 16.4826 25.424C16.4826 24.3664 15.7577 23.7032 14.9735 22.9857Z" fill="url(#paint0_radial_5177_22590)"/>
<defs>
<radialGradient id="paint0_radial_5177_22590" cx="0" cy="0" r="1" gradientUnits="userSpaceOnUse" gradientTransform="translate(12 22) rotate(-90) scale(21.9253)">
<stop offset="0.531474" stop-color="white"/>
<stop offset="1" stop-color="white" stop-opacity="0"/>
</radialGradient>
</defs>
</svg>
