<?xml version="1.0" encoding="utf-8"?>
<!-- Generator: Adobe Illustrator 23.1.1, SVG Export Plug-In . SVG Version: 6.00 Build 0)  -->
<svg version="1.1"
	 id="svg7542" inkscape:version="1.2.2 (b0a8486, 2022-12-01)" sodipodi:docname="emirates.svg" xmlns:inkscape="http://www.inkscape.org/namespaces/inkscape" xmlns:sodipodi="http://sodipodi.sourceforge.net/DTD/sodipodi-0.dtd" xmlns:svg="http://www.w3.org/2000/svg"
	 xmlns="http://www.w3.org/2000/svg" xmlns:xlink="http://www.w3.org/1999/xlink" x="0px" y="0px" viewBox="0 0 87.2 38.3"
	 style="enable-background:new 0 0 87.2 38.3;" xml:space="preserve">
<style type="text/css">
	.st0{fill:#011F28;}
	.st1{fill-rule:evenodd;clip-rule:evenodd;fill:#FFFFFF;}
	.st2{fill:#FFFFFF;}
</style>
<sodipodi:namedview  bordercolor="#000000" borderopacity="0.25" id="namedview7544" inkscape:current-layer="layer1" inkscape:cx="-214.77616" inkscape:cy="437.74989" inkscape:deskcolor="#d1d1d1" inkscape:document-units="mm" inkscape:pagecheckerboard="0" inkscape:pageopacity="0.0" inkscape:showpageshadow="2" inkscape:window-height="1205" inkscape:window-maximized="0" inkscape:window-width="1463" inkscape:window-x="566" inkscape:window-y="234" inkscape:zoom="0.914906" pagecolor="#ffffff" showgrid="false">
	</sodipodi:namedview>
<g>
	<path class="st0" d="M79.6,1.6C60-0.2,24.4-0.7,9.8,1.3C4,2.1-1.1,5.9,0.2,19c1.4,15.2,2.7,18.2,16.7,18.8
		c13.7,0.6,43.7,0.8,57.5,0c3.6-0.2,11,0.7,12.1-11.4C87.6,13.2,88.4,2.4,79.6,1.6z"/>
	<g>
		<g>
			<g>
				<path class="st1" d="M23.9,32.2h5.2v-0.9H25v-0.6h3.6v-0.8H25v-0.6h4.1v-0.9h-5.2L23.9,32.2L23.9,32.2z M36.6,32.2h5.2v-0.9
					h-4.1v-0.6h3.6v-0.8h-3.6v-0.6h4.1v-0.9h-5.2L36.6,32.2L36.6,32.2z M57,32.2h5.2v-0.9h-4.1v-0.6h3.6v-0.8h-3.6v-0.6h4.1v-0.9H57
					L57,32.2L57,32.2z M30.2,32.2h1.1v-1.5h3.6v-0.8h-3.6v-0.6h4.1v-0.9h-5.2V32.2L30.2,32.2z M63.4,32.2h1.1v-1.4h2.4v0l1.2,1.4
					h1.5l-1.2-1.4c0.5-0.2,0.9-0.6,0.9-1.2c0-0.7-0.6-1.3-1.3-1.3c-1.5,0-3.1,0-4.6,0L63.4,32.2L63.4,32.2z M67.7,29.2
					C67.7,29.2,67.7,29.2,67.7,29.2c0.2,0,0.4,0.2,0.4,0.4c0,0.2-0.2,0.4-0.4,0.4h0h0h-3.2v-0.7L67.7,29.2
					C67.6,29.2,67.7,29.2,67.7,29.2L67.7,29.2z M18.3,30.2L18.3,30.2v1.1c0.8,0,1.6,0,2.4,0c0.3,0,0.5-0.1,0.6-0.2
					c0.1-0.1,0.2-0.3,0.2-0.5c0-0.1,0-0.2,0-0.4l0,0l0,0l0,0c0-0.1,0-0.2,0-0.4c0-0.2-0.1-0.4-0.2-0.5c-0.1-0.1-0.4-0.2-0.6-0.2
					c-0.8,0-1.6,0-2.4,0V30.2L18.3,30.2z M22.7,30.9c0,0.4-0.1,0.8-0.4,1c-0.2,0.2-0.6,0.3-1.1,0.3h-4.1v-2v0v-2h4.1
					c0.5,0,0.9,0.1,1.1,0.3c0.2,0.2,0.3,0.5,0.4,1C22.7,30,22.7,30.4,22.7,30.9L22.7,30.9z M51.4,30.2L51.4,30.2v1.1
					c0.8,0,1.6,0,2.4,0c0.3,0,0.5-0.1,0.6-0.2c0.1-0.1,0.2-0.3,0.2-0.5c0-0.1,0-0.2,0-0.4l0,0l0,0l0,0c0-0.1,0-0.2,0-0.4
					c0-0.2-0.1-0.4-0.2-0.5c-0.1-0.1-0.4-0.2-0.6-0.2c-0.8,0-1.6,0-2.4,0L51.4,30.2L51.4,30.2z M55.8,30.9c0,0.4-0.1,0.8-0.4,1
					c-0.2,0.2-0.6,0.3-1.1,0.3h-4.1v-2v0v-2h4.1c0.5,0,0.9,0.1,1.1,0.3c0.2,0.2,0.3,0.5,0.4,1C55.9,30,55.9,30.4,55.8,30.9
					L55.8,30.9z M47.8,32.2l-3.6-2.9v2.9H43v-3.9h1.8l3.3,2.6v-2.6h1.2v3.9H47.8z"/>
				<g>
					<path class="st2" d="M65.2,16.2C65.2,16.2,65.2,16.2,65.2,16.2c0.1-0.2,0.1-0.5,0.2-0.7c0.1-0.9,0.2-1.9,0.2-2.8
						c0-1.2,0-2.4-0.1-3.5c-0.1-0.8-0.2-1.7-0.3-2.5c0-0.1-0.1-0.1-0.1-0.1c-0.3,0-0.6-0.1-0.9-0.1c-0.7-0.1-1.4-0.1-2.1-0.2
						c-0.8-0.1-1.7-0.1-2.5-0.2C58.7,6,57.9,6,57.2,6c-1.5,0-3-0.1-4.5-0.1c-1.7,0-3.3,0-5,0.1c-0.6,0-1.2,0-1.8,0.1
						c-0.7,0.1-1.4,0.2-2.1,0.3c-1.6,0.3-3.2,0.6-4.8,1c-0.4,0.1-0.8,0.2-1.1,0.3c-0.1,0-0.1,0.1-0.2,0.1c0,0,0,0,0,0.1
						c0.1,0,0.1,0,0.2,0c0.5,0,1,0,1.5-0.1c0.8-0.1,1.6-0.1,2.4-0.2c0.9-0.1,1.8-0.1,2.8-0.2c1.2-0.1,2.3-0.1,3.5-0.1
						c1.7,0,3.4-0.1,5.1-0.1c1.3,0,2.7,0,4,0.1c0.9,0,1.8,0.1,2.6,0.1c0.6,0,1.3,0.1,1.9,0.1c0.8,0.1,1.6,0.1,2.4,0.2
						c0.2,0,0.2,0.1,0.2,0.2c0.1,0.4,0.1,0.7,0.2,1.1c0.1,0.7,0.2,1.3,0.3,2c0.1,0.6,0.1,1.2,0.2,1.8c0.1,0.5,0.1,1.1,0.1,1.6
						c0,0.5,0.1,1,0.1,1.5C65.2,15.9,65.2,16.1,65.2,16.2z M56.4,16c-0.5,0-1,0-1.5,0.1c-0.6,0.1-1.3,0.1-1.9,0.3
						c-0.9,0.2-1.5,0.6-1.8,1.5c-0.3,0.7-0.5,1.4-0.6,2.1c0,0.1,0,0.3,0.1,0.5c0.1,0.2,0.2,0.2,0.3,0c0.1-0.1,0.1-0.2,0.2-0.4
						c0.3-0.5,0.5-1,0.8-1.5c0.3-0.5,0.7-0.8,1.3-0.9c0.9-0.3,1.8-0.4,2.8-0.5c1.2-0.1,2.3,0.1,3.5,0.3c0.8,0.2,1.4,0.6,1.8,1.3
						c0.2,0.4,0.4,0.7,0.6,1.1c0.1,0.1,0.2,0.3,0.3,0.4c0.1,0.1,0.2,0,0.3-0.1c0-0.1,0-0.2,0-0.3c-0.1-0.7-0.4-1.4-0.6-2.1
						c-0.3-0.8-0.9-1.3-1.8-1.5C58.7,16.1,57.6,16,56.4,16z M23.1,16c-0.3,0-0.9,0-1.5,0.1c-0.6,0.1-1.3,0.2-1.9,0.3
						c-0.8,0.1-1.4,0.6-1.7,1.3c-0.2,0.6-0.4,1.1-0.6,1.7c0,0.2-0.1,0.4-0.1,0.6c0,0.1,0,0.2,0.1,0.3c0.1,0.1,0.2,0,0.3-0.1
						c0.1-0.1,0.2-0.2,0.2-0.4c0.3-0.4,0.5-0.9,0.8-1.3c0.3-0.4,0.6-0.7,1.1-0.8c1-0.3,2.1-0.5,3.1-0.5c1.1,0,2.2,0.1,3.3,0.4
						c0.8,0.2,1.4,0.6,1.8,1.3c0.2,0.4,0.4,0.7,0.6,1.1c0.1,0.2,0.2,0.3,0.2,0.5c0,0.1,0.1,0.1,0.2,0.1c0.1,0,0.1-0.1,0.2-0.1
						c0-0.2,0.1-0.3,0-0.5c-0.1-0.5-0.3-1.1-0.4-1.6c-0.1-0.2-0.2-0.5-0.3-0.7c-0.3-0.8-1-1.1-1.8-1.3C25.6,16.1,24.5,16,23.1,16z
						 M49.8,24.9C49.8,24.8,49.8,24.8,49.8,24.9c0-0.1,0-0.2-0.1-0.3c-0.7-0.7-1.5-1.3-2.4-1.7c-0.1-0.1-0.3-0.1-0.4-0.1
						c-0.6,0-1.3,0-1.9,0c-1.6,0-3.3,0-4.9,0.1c-1,0-2,0.1-3,0.1c-1.1,0-2.2,0.1-3.3,0.2c-0.5,0-0.9,0.2-1.4,0.4
						c-0.6,0.4-1.2,0.8-1.6,1.4c-0.1,0.1-0.1,0.2-0.1,0.3c0,0.1,0,0.1,0.1,0.1c0.1-0.1,0.2-0.1,0.3-0.2c0.5-0.4,1.1-0.8,1.7-1.2
						c0.1-0.1,0.3-0.2,0.5-0.2c0.5-0.1,1-0.1,1.5-0.1c1-0.1,2-0.1,3-0.1c1.3,0,2.5-0.1,3.8-0.1c1.7,0,3.4,0,5.1,0
						c0.3,0,0.6,0.1,0.9,0.2c0.7,0.4,1.4,0.8,2,1.2C49.5,24.7,49.6,24.8,49.8,24.9z"/>
					<path class="st2" d="M65.2,16.2c0-0.1,0-0.3,0-0.4c0-0.5-0.1-1-0.1-1.5c0-0.5-0.1-1.1-0.1-1.6c-0.1-0.6-0.1-1.2-0.2-1.8
						c-0.1-0.7-0.2-1.3-0.3-2c-0.1-0.4-0.1-0.7-0.2-1.1c0-0.1-0.1-0.2-0.2-0.2c-0.8-0.1-1.6-0.1-2.4-0.2c-0.6,0-1.3-0.1-1.9-0.1
						c-0.9,0-1.8-0.1-2.6-0.1c-1.3,0-2.7-0.1-4-0.1c-1.7,0-3.4,0-5.1,0.1c-1.2,0-2.4,0.1-3.5,0.1c-0.9,0-1.8,0.1-2.8,0.2
						c-0.8,0.1-1.6,0.1-2.4,0.2c-0.5,0-1,0-1.5,0.1c-0.1,0-0.1,0-0.2,0c0,0,0,0,0-0.1c0.1,0,0.1-0.1,0.2-0.1
						c0.4-0.1,0.8-0.3,1.1-0.3c1.6-0.4,3.2-0.7,4.8-1c0.7-0.1,1.4-0.2,2.1-0.3c0.6-0.1,1.2-0.1,1.8-0.1c1.7,0,3.3-0.1,5-0.1
						c1.5,0,3,0.1,4.5,0.1c0.8,0,1.5,0.1,2.3,0.1c0.8,0,1.7,0.1,2.5,0.2c0.7,0,1.4,0.1,2.1,0.2c0.3,0,0.6,0.1,0.9,0.1
						c0.1,0,0.1,0.1,0.1,0.1c0.1,0.8,0.2,1.7,0.3,2.5c0.1,1.2,0.1,2.4,0.1,3.5c0,0.9-0.1,1.9-0.2,2.8C65.3,15.7,65.3,16,65.2,16.2
						C65.2,16.2,65.2,16.2,65.2,16.2z"/>
					<path class="st2" d="M56.4,16c1.2,0,2.4,0.1,3.5,0.3c0.9,0.2,1.5,0.6,1.8,1.5c0.3,0.7,0.5,1.4,0.6,2.1c0,0.1,0,0.2,0,0.3
						c0,0.1-0.1,0.2-0.3,0.1c-0.1-0.1-0.2-0.2-0.3-0.4c-0.2-0.4-0.4-0.7-0.6-1.1c-0.4-0.7-1-1.1-1.8-1.3c-1.1-0.3-2.3-0.4-3.5-0.3
						c-0.9,0-1.9,0.2-2.8,0.5c-0.5,0.2-1,0.5-1.3,0.9c-0.3,0.5-0.6,1-0.8,1.5c-0.1,0.1-0.1,0.2-0.2,0.4c-0.1,0.1-0.2,0.1-0.3,0
						c-0.1-0.1-0.1-0.3-0.1-0.5c0.1-0.7,0.4-1.4,0.6-2.1c0.3-0.9,1-1.3,1.8-1.5c0.6-0.1,1.3-0.2,1.9-0.3C55.4,16,55.9,16,56.4,16z"
						/>
					<path class="st2" d="M23.1,16c1.4,0,2.5,0.1,3.7,0.3c0.8,0.2,1.4,0.5,1.8,1.3c0.1,0.2,0.2,0.5,0.3,0.7c0.2,0.5,0.3,1.1,0.4,1.6
						c0,0.2,0,0.3,0,0.5c0,0.1-0.1,0.1-0.2,0.1c0,0-0.1-0.1-0.2-0.1c-0.1-0.2-0.2-0.3-0.2-0.5c-0.2-0.4-0.4-0.7-0.6-1.1
						c-0.4-0.7-1-1.1-1.8-1.3c-1.1-0.3-2.2-0.4-3.3-0.4c-1.1,0-2.1,0.2-3.1,0.5c-0.5,0.1-0.8,0.4-1.1,0.8c-0.3,0.4-0.5,0.9-0.8,1.3
						c-0.1,0.1-0.1,0.3-0.2,0.4c-0.1,0.1-0.2,0.2-0.3,0.1c-0.1-0.1-0.1-0.2-0.1-0.3c0-0.2,0.1-0.4,0.1-0.6c0.1-0.6,0.3-1.2,0.6-1.7
						c0.3-0.7,0.9-1.2,1.7-1.3c0.6-0.1,1.3-0.2,1.9-0.3C22.2,16,22.7,16,23.1,16z"/>
					<path class="st2" d="M49.8,24.9c-0.1-0.1-0.3-0.2-0.4-0.2c-0.7-0.4-1.4-0.8-2-1.2c-0.3-0.2-0.6-0.2-0.9-0.2c-1.7,0-3.4,0-5.1,0
						c-1.3,0-2.5,0.1-3.8,0.1c-1,0-2,0.1-3,0.1c-0.5,0-1,0.1-1.5,0.1c-0.2,0-0.3,0.1-0.5,0.2c-0.6,0.4-1.1,0.8-1.7,1.2
						c-0.1,0.1-0.2,0.1-0.3,0.2c-0.1,0-0.1,0-0.1-0.1c0-0.1,0.1-0.2,0.1-0.3c0.4-0.6,1-1,1.6-1.4c0.4-0.2,0.9-0.4,1.4-0.4
						c1.1,0,2.2-0.1,3.3-0.2c1,0,2-0.1,3-0.1c1.6,0,3.3,0,4.9-0.1c0.6,0,1.3,0,1.9,0c0.1,0,0.3,0,0.4,0.1c0.9,0.4,1.7,1,2.4,1.7
						C49.7,24.7,49.8,24.7,49.8,24.9C49.8,24.8,49.8,24.8,49.8,24.9z"/>
				</g>
			</g>
			<path class="st2" d="M66.7,18.4L66.7,18.4c0.1,0,0.3,0,0.4,0c0.5,0,0.9-0.2,1.3-0.3c0.2-0.1,0.6-0.2,0.9-0.3
				c0.5-0.3,0.5-0.4,0.6-1.1c0.2-0.9,0.3-1.9,0.3-3.2L70,12.2c-0.1-0.6-0.1-1.5-0.2-2c-0.1-0.6-0.4-0.8-1-1
				c-0.5-0.2-0.9-0.3-1.4-0.4c-0.2,0-0.3,0-0.4,0c-0.1,0-0.1,0-0.1,0c0,0,0,0,0,0c0,0,0.1,0.3,0.1,0.3c0.1,0.1,0.2,0.1,0.3,0.2l0,0
				c0.1,0.1,0.2,0.1,0.4,0.2c0.2,0.1,0.3,0.2,0.6,0.4c0.3,0.2,0.4,0.2,0.6,0.6c0.2,0.8,0.3,1.9,0.4,2.9c0,0.1,0,0.2,0,0.3
				c0,0.8,0.1,1.8-0.2,2.7c-0.2,0.7-0.3,0.7-0.7,1c-0.2,0.2-0.6,0.4-0.9,0.6l-0.3,0.2c0,0-0.2,0.1-0.2,0.1c-0.1,0-0.1,0.1-0.2,0.1
				c0,0-0.1,0.1-0.1,0.2C66.6,18.4,66.6,18.4,66.7,18.4C66.7,18.4,66.7,18.4,66.7,18.4z"/>
			<path class="st2" d="M22.3,13.5l-2.5,0.1c-0.1,0-0.2,0-0.4,0.1c-0.1,0-0.2,0.1-0.4,0.3c0,0-0.2,0.2-0.3,0.3c0,0,0,0,0,0l43.5-1
				c0.2,0-0.4,0.4-0.6,0.4c0,0,0,0,0,0L36,14.3l-18.4,0.5c-0.2,0-0.4,0,0-0.6c1-1.2,1.5-1.3,1.8-1.4c0.7-0.1,1.9-0.1,3-0.1
				c0,0,2.3-0.1,2.9-0.1c0.1,0,0.3,0,0.4,0c0.1,0,0.2,0,0.2,0.1c0.3,0.1,1,0.5,1,0.5c0.2,0.1,0.1,0.1,0,0.1l0,0"/>
		</g>
	</g>
</g>
</svg>
