<?xml version="1.0" encoding="UTF-8" standalone="no"?>
<!-- Created with Inkscape (http://www.inkscape.org/) -->

<svg
   width="30.746695mm"
   height="13.4955mm"
   viewBox="0 0 30.746695 13.4955"
   version="1.1"
   id="svg7542"
   inkscape:version="1.2.2 (b0a8486, 2022-12-01)"
   sodipodi:docname="emirates.svg"
   xmlns:inkscape="http://www.inkscape.org/namespaces/inkscape"
   xmlns:sodipodi="http://sodipodi.sourceforge.net/DTD/sodipodi-0.dtd"
   xmlns="http://www.w3.org/2000/svg"
   xmlns:svg="http://www.w3.org/2000/svg">
  <sodipodi:namedview
     id="namedview7544"
     pagecolor="#ffffff"
     bordercolor="#000000"
     borderopacity="0.25"
     inkscape:showpageshadow="2"
     inkscape:pageopacity="0.0"
     inkscape:pagecheckerboard="0"
     inkscape:deskcolor="#d1d1d1"
     inkscape:document-units="mm"
     showgrid="false"
     inkscape:zoom="0.914906"
     inkscape:cx="-214.77616"
     inkscape:cy="437.74989"
     inkscape:window-width="1463"
     inkscape:window-height="1205"
     inkscape:window-x="566"
     inkscape:window-y="234"
     inkscape:window-maximized="0"
     inkscape:current-layer="layer1" />
  <defs
     id="defs7539" />
  <g
     inkscape:label="Calque 1"
     inkscape:groupmode="layer"
     id="layer1"
     transform="translate(-161.90124,-32.582337)">
    <g
       id="g6001"
       transform="matrix(0.26458333,0,0,0.26458333,-27.92751,20.39138)">
					<path
   class="st38"
   d="m 823.64417,48.14807 c -26.24707,-2.3302 -73.7099,-3.02535 -93.09363,-0.34827 -7.80334,1.07596 -14.49396,6.06347 -12.83185,23.5672 1.91394,20.16524 3.6496,24.15614 22.21802,24.98714 18.203,0.81403 58.30835,1.11699 76.68134,0 4.82477,-0.29446 14.59448,0.90458 16.07672,-15.22873 1.6054,-17.49237 2.68133,-31.93393 -9.0506,-32.97734 z"
   id="path5977"
   style="fill:#dc1422" />

					<g
   id="g5999">
						<g
   id="g5997">
							<path
   class="st2"
   d="m 728.64075,66.17748 c 0.10559,-2.8449 -1.57458,-4.24878 -1.57458,-4.24878 h 9.31726 c 4.85101,0 5.23297,3.29221 5.23297,3.29221 -2.0155,-1.31712 -3.95032,-1.27653 -6.45673,-1.27965 -0.18628,-0.0031 -2.86023,-0.0124 -2.86023,-0.0124 0.43164,0.49689 0.43164,2.25765 0.43164,2.25765 v 0.78278 1.23598 h 1.99695 c 3.14606,0 4.20203,2.52805 4.20203,2.52805 -1.46582,-0.82925 -2.97522,-0.65238 -4.19269,-0.65238 -1.0528,0 -2.00629,0.02197 -2.00629,0.02197 v 6.27969 c 0.11182,0.95657 0.009,2.10581 1.37274,2.10581 0.47833,0 3.92249,0.0062 4.36652,0.0062 2.7796,0 3.45355,-1.38839 3.45355,-1.38839 l -0.031,1.10249 c 0,0.82613 -0.7298,2.30749 -2.8479,2.30749 h -4.59326 -1.45966 -3.22687 c 0,0 -1.12109,-0.0465 -1.12109,-2.93481 z"
   id="path5979"
   style="fill:#ffffff" />

							<path
   class="st2"
   d="m 763.17615,77.52227 v -7.97819 c 0,-3.09336 -2.54663,-3.91953 -4.42566,-3.91953 -2.48749,0 -3.23608,2.09004 -3.55298,2.79198 -0.55896,-1.93483 -2.50616,-2.81704 -4.10876,-2.81704 -2.99689,0 -3.76715,2.86974 -3.76715,2.86974 0,0 -0.0683,-2.77002 -2.50012,-2.77002 l -2.36029,0.0062 c 0,0 1.36035,0.56814 1.36035,2.95647 v 8.8604 c 0,2.95056 1.18005,2.97842 1.18005,2.97842 h 3.92572 c -0.0963,-0.02786 -1.50641,-1.09318 -1.50641,-3.00011 v -7.85734 c 0.0435,-0.35408 0.64294,-1.52782 2.33551,-1.52782 0.93176,0 1.97217,0.98135 1.9505,2.10553 l -0.006,7.30132 c 0,2.96913 1.17401,2.97533 1.17401,2.97533 h 3.94415 c 0,0 -1.50317,-1.04642 -1.50317,-3.00942 l -0.0124,-7.85426 c 0.13666,-0.44082 0.66156,-1.49372 2.1524,-1.49372 1.16449,0 2.13654,0.98138 2.10864,2.10863 0,0 -0.009,6.65881 -0.006,7.27963 0.0186,2.98462 1.18024,2.96293 1.18024,2.96293 2.04944,0 3.93469,0.0062 3.93469,0.0062 0,0 -1.49682,-1.03404 -1.49682,-2.97533"
   id="path5981"
   style="fill:#ffffff" />

							<path
   class="st2"
   d="m 770.02734,77.51324 c 0,1.96893 1.5061,2.98745 1.5061,2.98745 0,0 -1.86328,-0.0093 -3.91949,-0.0093 0,0 -1.17682,0.01241 -1.17682,-2.94718 v -0.01857 l 0.003,-8.88856 c 0,-2.33229 -1.35736,-2.93789 -1.35736,-2.93789 h 2.34186 c 0.83545,0 2.58691,0 2.58691,3.31055 l -0.009,8.49083 z"
   id="path5983"
   style="fill:#ffffff" />

							<path
   class="st2"
   d="m 782.08643,66.82309 c 0,0 -0.38812,-1.06811 -2.01227,-1.06811 -2.46576,0 -3.0686,2.90689 -3.0686,2.90689 -0.20166,-2.29509 -0.82306,-2.97845 -2.52155,-2.97845 l -2.38519,0.0034 c 0,0 1.38501,0.56813 1.38501,2.95026 l -0.003,8.87615 c 0,2.95647 1.1709,2.98128 1.1709,2.98128 h 3.89441 c -0.096,-0.02481 -1.50604,-1.0932 -1.50604,-3.00634 l 0.003,-7.25794 c 0.11212,-0.66135 0.4411,-1.16444 0.96899,-1.50639 1.28894,-0.81968 3.05621,-0.618 4.07471,0.5932 v -2.49395 z"
   id="path5985"
   style="fill:#ffffff" />

							<path
   class="st2"
   d="m 800.28577,67.35744 c 1.34473,0 2.32642,0.5808 2.32642,0.5808 l 0.0123,-2.24242 h -3.28912 l 0.003,-3.38828 c 0,0 -0.84784,1.5095 -2.61786,2.95055 -1.12109,0.91322 -3.45984,2.04328 -3.45984,2.04328 l 2.49365,0.04367 -0.003,10.28931 c 0,2.85396 1.19885,2.85396 1.19885,2.85396 2.13959,0 3.88483,0.01237 3.88483,0.01237 0,0 -1.5061,-1.0219 -1.5061,-2.88828 l 0.006,-10.26117 c 1.01886,0.0062 0.31384,0.0062 0.95038,0.0062"
   id="path5987"
   style="fill:#ffffff" />

							<path
   class="st2"
   d="m 812.19305,71.83579 c -2.20496,2.27959 -3.93811,1.91933 -5.27972,3.60882 0,0 0.21747,2.27342 1.92865,3.07761 0.60559,0.27969 3.02185,1.05008 4.59949,-1.68331 l -0.006,2.6027 c 0,0 -1.01849,1.07148 -4.21442,1.07148 -3.82007,0 -6.46277,-3.01562 -6.46277,-7.10556 0,-4.02824 2.14917,-7.77058 6.18335,-7.78298 3.98768,-0.02506 6.14277,3.17395 3.25165,6.21124 m -2.41339,-0.95037 c 0.65234,-1.205 1.15881,-4.24203 -1.05884,-4.07471 -2.55591,0.19602 -2.05902,7.01906 -2.05902,7.01906 0.84168,-0.93796 2.12415,-1.12414 3.11786,-2.94435"
   id="path5989"
   style="fill:#ffffff" />

							<path
   class="st2"
   d="m 768.20435,64.4942 c 1.01233,0 1.83203,-0.78279 1.83203,-1.77342 0,-0.99095 -0.8197,-1.79202 -1.83203,-1.79202 -1.01886,0 -1.8078,0.80107 -1.8078,1.79202 0,0.99063 0.78894,1.77342 1.8078,1.77342"
   id="path5991"
   style="fill:#ffffff" />

							<path
   class="st2"
   d="m 820.80811,76.47894 c 0.0465,1.04671 -0.89771,2.4286 -2.89447,2.4286 -1.95032,0 -2.81061,-2.09962 -2.81061,-2.09962 l -0.0126,2.64946 c 0,0 1.44727,1.04642 3.70856,1.04642 h -0.003 c 2.69568,0 5.35126,-2.02159 5.27045,-4.84792 -0.031,-1.00615 -0.37579,-1.85738 -0.90387,-2.59312 -0.91296,-1.196 -2.56213,-2.08412 -3.86969,-2.83562 -1.76697,-1.02501 -1.534,-3.23308 1.06531,-3.02183 1.95648,0.15521 2.77954,2.03426 2.77954,2.03426 V 66.7735 c 0,0 -1.49677,-1.18639 -3.76709,-1.18639 -2.35425,0 -4.44427,1.55934 -4.38513,3.53135 0.0496,1.75455 0.77008,2.8976 2.20496,3.94431 0.56531,0.42532 1.24219,0.83546 2.03119,1.2701 1.14268,0.63346 1.56523,1.40975 1.5869,2.14607"
   id="path5993"
   style="fill:#ffffff" />

							<path
   class="st2"
   d="m 786.66425,78.81741 c -1.23291,0 -2.07452,-0.66476 -2.07452,-2.06525 0,-3.33842 3.0249,-4.02175 3.83868,-5.00929 l -0.006,6.22361 c -0.0189,0.02168 -0.54675,0.85093 -1.75793,0.85093 m 2.11816,-9.86033 c 0,1.44723 -1.2298,2.09621 -2.03424,2.45 -2.32947,1.01881 -5.31689,2.14919 -5.31689,5.53773 0,2.27651 1.63373,3.57447 3.95642,3.57447 1.76099,0 2.65845,-0.91602 3.09955,-1.77625 0.26703,1.67708 1.09625,1.74835 1.09625,1.74835 2.05627,0 3.91644,0.01241 3.91644,0.01241 0,0 -1.52783,-1.03741 -1.52783,-2.97816 v -0.0062 -8.30493 c 0,-1.99679 -2.20215,-3.54038 -4.54059,-3.54038 -2.25793,0 -3.67419,1.087 -3.67419,1.087 v 2.57452 c 0,0 0.79828,-2.04048 2.83539,-2.04048 1.68664,1e-5 2.18969,0.82647 2.18969,1.66192"
   id="path5995"
   style="fill:#ffffff" />

						</g>

					</g>

				</g>
  </g>
</svg>
