<svg width="163" height="105" viewBox="0 0 163 105" fill="none" xmlns="http://www.w3.org/2000/svg">
<path d="M91.9123 80C96.8487 81.1366 100 82.8655 100 84.8018C100 88.225 90.1503 91 78 91C65.8497 91 56 88.225 56 84.8018C56 82.8655 59.1513 81.1366 64.0877 80" stroke="white" stroke-width="2.8" stroke-linecap="round" stroke-linejoin="round"/>
<path d="M88.7504 74C92.5649 74.8266 95 76.084 95 77.4922C95 79.9818 87.3888 82 78 82C68.6112 82 61 79.9818 61 77.4922C61 76.084 63.4351 74.8266 67.2496 74" stroke="white" stroke-width="2.8" stroke-linecap="round" stroke-linejoin="round"/>
<ellipse cx="82.4999" cy="44.104" rx="13.3082" ry="33.2705" transform="rotate(15 82.4999 44.104)" stroke="white" stroke-width="2.8" stroke-linecap="round" stroke-linejoin="round"/>
<ellipse cx="82.5" cy="44.104" rx="21.6258" ry="33.2705" transform="rotate(15 82.5 44.104)" stroke="white" stroke-width="2.8" stroke-linecap="round" stroke-linejoin="round"/>
<path d="M15.5 14.5C15.8333 19.8333 13.5 34.6 1.5 51H42.5M34 14.5V72" stroke="white" stroke-width="2.8" stroke-linecap="round" stroke-linejoin="round"/>
<path d="M127.5 19.533C128.833 18.033 133.51 14.6296 141.5 15.033C163.934 16.1655 160 43.533 137 43.533C164.5 42.033 163.934 70.9004 141.5 72.033C133.51 72.4363 128.833 69.033 127.5 67.533" stroke="white" stroke-width="2.8" stroke-linecap="round" stroke-linejoin="round"/>
</svg>
