<svg xmlns="http://www.w3.org/2000/svg" width="102" height="144" viewBox="0 0 102 144" fill="none">
<path d="M39.6364 23.4102C39.6291 42.1351 26.141 54.7737 20.5714 54.7737C20.5714 53.4884 20.5714 42.5635 20.5714 42.1351C10.6765 41.6873 2.36328 33.4158 2.36328 23.4102C2.36328 13.1176 10.7072 4.77368 20.9998 4.77368C31.2925 4.77368 39.6404 13.1176 39.6364 23.4102Z" stroke="#FF00D2" stroke-width="4" stroke-linecap="round" stroke-linejoin="round"/>
<path d="M67.6364 23.4102C67.6291 42.1351 54.141 54.7737 48.5714 54.7737C48.5714 53.4884 48.5714 42.5635 48.5714 42.1351C38.6765 41.6873 30.3633 33.4158 30.3633 23.4102C30.3633 13.1176 38.7072 4.77368 48.9998 4.77368C59.2925 4.77368 67.6404 13.1176 67.6364 23.4102Z" stroke="#FF00D2" stroke-width="4" stroke-linecap="round" stroke-linejoin="round"/>
<path d="M94.2236 2.47974C101.194 44.4111 101.098 96.4661 94 141.48" stroke="#FF00D2" stroke-width="4" stroke-linecap="round" stroke-linejoin="round"/>
</svg>