<svg width="1332" height="1735" viewBox="0 0 1332 1735" fill="none" xmlns="http://www.w3.org/2000/svg">
<path opacity="0.1" d="M820.099 1734.16C810.349 1733.31 801.184 1729.14 794.139 1722.35C787.093 1715.56 782.593 1706.55 781.392 1696.84L751.687 1489.31L692.897 1512.34L662.348 1637.15C660.178 1646.34 655.066 1654.56 647.789 1660.58C640.512 1666.59 631.47 1670.06 622.039 1670.46C611.454 1670.81 601.118 1667.21 593.041 1660.36C584.965 1653.51 579.724 1643.9 578.339 1633.4L568.545 1561.07L464.079 1602C454.487 1605.71 443.918 1606.03 434.117 1602.92C424.316 1599.81 415.869 1593.45 410.172 1584.89C406.215 1578.76 403.782 1571.77 403.075 1564.51C402.369 1557.25 403.409 1549.93 406.11 1543.15L488.857 1330.08C492.42 1320.72 499.248 1312.98 508.079 1308.26C516.91 1303.55 527.148 1302.2 536.901 1304.45C545.284 1306.44 552.859 1310.94 558.62 1317.35C564.38 1323.76 568.051 1331.77 569.145 1340.31L593.328 1518.9L667.275 1489.93L687.764 1406.22C690.105 1396.67 695.693 1388.23 703.572 1382.34C711.452 1376.46 721.132 1373.49 730.955 1373.96C740.778 1374.43 750.132 1378.3 757.417 1384.9C764.702 1391.51 769.463 1400.44 770.885 1410.18L776.192 1447.25L867.367 1411.53C867.713 1411.39 868.064 1411.27 868.42 1411.16C869.988 1410.67 871.371 1409.72 872.384 1408.43C873.396 1407.14 873.991 1405.57 874.088 1403.93C874.185 1402.29 873.779 1400.66 872.925 1399.26C872.071 1397.86 870.81 1396.75 869.31 1396.09L525.259 1264.27C522.826 1263.34 520.675 1261.79 519.016 1259.78C517.357 1257.77 516.245 1255.37 515.789 1252.8C515.333 1250.24 515.549 1247.6 516.415 1245.14C517.28 1242.68 518.767 1240.49 520.73 1238.78C544.517 1218.02 599.559 1200.48 667.471 1191.08L636.393 1162.81C622.351 1150.04 607.977 1135.78 600.048 1114.37C586.399 1077.53 598.529 1032.83 627.264 1003.49C554.045 940.966 491.615 915.121 436.888 924.562C435.464 924.807 434.056 925.082 432.662 925.385C519.001 1004.75 566.989 1061.98 549.539 1121.74C536.128 1167.68 494.213 1185.98 448.475 1196.7C454.172 1207.91 459.012 1219.54 462.955 1231.48C471.815 1259.16 471.929 1282.63 463.304 1303.23C449.414 1336.4 413.784 1359.62 354.377 1374.21C349.65 1375.37 344.452 1376.49 338.949 1377.62C357.861 1427.75 369.144 1463.91 373.192 1487.25C377.397 1511.5 367.048 1533.11 346.826 1542.3C339.32 1545.65 331.082 1547.03 322.893 1546.31C314.704 1545.58 306.837 1542.78 300.038 1538.16C273.023 1520.28 213.803 1474.7 203.178 1447.86C196.613 1431.28 197.013 1416.04 204.369 1402.56C219.245 1375.31 259.509 1363.31 297.836 1355.08C292.745 1342.19 287.247 1328.55 281.342 1314.16C266.662 1278.4 265.365 1250.45 277.377 1228.71C296.97 1193.25 345.31 1184.86 396.487 1175.99C398.278 1175.68 400.071 1175.37 401.867 1175.06C399.239 1170.66 396.531 1166.2 393.784 1161.67C359.192 1104.64 316.142 1033.66 345.984 961.139C352.989 943.988 364.365 928.97 378.979 917.583C376.519 915.383 374.027 913.159 371.503 910.911C312.38 858.27 285.409 808.762 291.338 763.762C294.109 742.727 304.123 723.795 320.776 707.703C303.1 697.639 286.084 686.457 269.831 674.227C217.804 635.139 172.516 584.973 142.31 532.973C137.475 524.649 133.109 516.438 129.213 508.341C113.052 498.051 97.5572 486.751 82.8218 474.506C38.0779 437.034 10.4042 396.891 0.569933 355.193C-0.203049 351.915 0.141162 348.473 1.54791 345.413C2.95465 342.354 5.34328 339.852 8.33447 338.305C48.8348 317.36 115.553 304.245 186.806 303.224C275.091 301.958 369.244 318.899 454.1 350.581C433.662 294.615 423.229 236.098 424.678 182.043C424.753 179.254 425.599 176.54 427.121 174.202C428.644 171.864 430.785 169.993 433.306 168.797C435.826 167.601 438.629 167.127 441.403 167.427C444.177 167.726 446.814 168.788 449.022 170.495L636.23 315.231L658.495 281.395C625.382 258.915 600.205 231.942 582.962 200.477C581.645 198.066 581.01 195.342 581.125 192.598C581.241 189.853 582.103 187.192 583.618 184.9C585.133 182.609 587.244 180.774 589.724 179.593C592.205 178.411 594.96 177.929 597.694 178.197L718.605 190.046L786.721 86.5305C788.436 83.9245 790.915 81.9132 793.819 80.7728C796.722 79.6323 799.908 79.4187 802.938 80.1612C805.967 80.9037 808.693 82.5659 810.74 84.9196C812.788 87.2732 814.056 90.203 814.372 93.3065L825.274 200.5L833.307 201.287L903.993 33.6283C905.305 30.5163 907.622 27.9336 910.573 26.2927C913.525 24.6518 916.942 24.0472 920.278 24.5756C923.613 25.104 926.676 26.7348 928.976 29.2077C931.276 31.6806 932.681 34.8529 932.967 38.218L947.784 212.506L954.519 213.166L1038.1 9.43725C1039.4 6.27781 1041.73 3.65071 1044.71 1.98432C1047.69 0.317941 1051.14 -0.289415 1054.51 0.261295C1057.88 0.812006 1060.97 2.4883 1063.26 5.01682C1065.56 7.54535 1066.93 10.7769 1067.15 14.1846L1080.99 225.561L1093.63 226.8L1131.8 165.015C1132.87 163.27 1134.3 161.762 1135.98 160.584C1137.66 159.406 1139.56 158.583 1141.57 158.164C1143.58 157.746 1145.65 157.741 1147.66 158.15C1149.67 158.559 1151.58 159.373 1153.26 160.543L1277.47 246.74C1280.22 248.647 1282.26 251.412 1283.26 254.601C1284.27 257.791 1284.19 261.224 1283.04 264.364C1281.89 267.503 1279.72 270.171 1276.89 271.949C1274.06 273.727 1270.71 274.515 1267.39 274.189L1109.44 258.71L1083.14 301.278C1081.46 304.003 1078.96 306.123 1075.99 307.331C1073.02 308.539 1069.75 308.773 1066.64 308C1063.53 307.226 1060.75 305.484 1058.7 303.027C1056.64 300.569 1055.42 297.522 1055.22 294.326L1052.52 253.131L973.943 245.431L953.207 295.974C951.92 299.11 949.616 301.722 946.665 303.391C943.715 305.059 940.289 305.687 936.938 305.173C933.587 304.658 930.507 303.032 928.192 300.556C925.877 298.08 924.463 294.897 924.176 291.519L919.806 240.125L852.505 233.53L831.773 282.704C830.469 285.796 828.173 288.367 825.246 290.009C822.32 291.652 818.93 292.273 815.611 291.776C812.293 291.278 809.234 289.69 806.918 287.261C804.602 284.833 803.161 281.702 802.821 278.363L797.715 228.16L733.817 221.898L700.88 271.952C914.422 386.843 1351.91 303.379 1357.12 302.359C1360.67 301.664 1364.35 302.265 1367.49 304.05L1545.51 405.233C1548.59 406.985 1550.96 409.764 1552.2 413.084C1553.44 416.404 1553.47 420.055 1552.29 423.397C1551.11 426.739 1548.79 429.56 1545.75 431.366C1542.7 433.173 1539.11 433.85 1535.61 433.279C1533.14 432.876 1286.72 393.388 1131.28 429.844C1083.05 441.156 1057.14 461.263 1046.31 481.449C1156.24 452.581 1381.34 469.648 1395.67 471.981C1398.71 472.475 1401.51 473.881 1403.73 476.013C1405.94 478.145 1407.45 480.9 1408.06 483.912C1408.66 486.924 1408.34 490.049 1407.12 492.871C1405.9 495.692 1403.86 498.076 1401.25 499.704C1299.85 563.079 1187.66 597.025 1105.13 589.809C1101.61 589.501 1098.15 589.119 1094.74 588.66C1054.48 583.243 1023.44 559.136 1013.37 527.424C976.922 549.458 965.281 580.99 970.825 603.9C977.694 632.286 1013.02 660.12 1091.57 653.114C1260.94 638.005 1547.66 488.629 1615.18 449.454C1617.35 448.196 1619.8 447.497 1622.3 447.421C1624.81 447.345 1627.3 447.894 1629.54 449.019L1686.04 477.375C1689.59 479.156 1692.29 482.263 1693.57 486.023C1694.84 489.782 1694.59 493.894 1692.86 497.467C1623.94 639.682 1591.54 775.064 1591.22 776.415C1590.6 779.04 1589.29 781.451 1587.42 783.398C1585.56 785.345 1583.2 786.757 1580.6 787.487C1578.01 788.216 1575.26 788.238 1572.66 787.548C1570.05 786.859 1567.67 785.484 1565.78 783.566C1548.3 765.893 1518.05 749.407 1479.38 747.151C1481.89 768.415 1482.6 789.852 1481.51 811.235C1478.33 885.991 1458.6 963.663 1447.44 997.773C1446.65 1000.18 1445.27 1002.35 1443.43 1004.09C1441.58 1005.82 1439.33 1007.06 1436.88 1007.7L1389.58 1019.97C1399.5 1055.08 1397.89 1100.46 1384.91 1141.37C1416.27 1160.95 1454.72 1177.33 1499.97 1190.32C1503.13 1191.22 1505.91 1193.14 1507.89 1195.78C1509.86 1198.41 1510.92 1201.62 1510.91 1204.91C1510.89 1208.21 1509.8 1211.4 1507.8 1214.02C1505.8 1216.64 1502.99 1218.52 1499.82 1219.4C1412.24 1243.59 1369.15 1300.79 1349.87 1337.32C1370.69 1332.26 1392.59 1333.99 1412.37 1342.26C1455.41 1359.93 1485.74 1396.07 1500.08 1446.77C1506.55 1469.72 1509.47 1493.53 1508.73 1517.37C1508.55 1520.4 1507.46 1523.3 1505.61 1525.7C1503.75 1528.1 1501.22 1529.88 1498.34 1530.82C1495.46 1531.76 1492.36 1531.81 1489.45 1530.97C1486.54 1530.13 1483.95 1528.43 1482.01 1526.09C1434.6 1468.8 1394.19 1456.48 1366.43 1457.77C1380.6 1464.24 1393.09 1473.87 1402.94 1485.93C1418.82 1505.92 1424.83 1530.94 1420.79 1560.3C1412.62 1619.66 1357.92 1647.89 1341.28 1646.44C1337.34 1646.09 1333.68 1644.21 1331.11 1641.2C1328.54 1638.19 1327.25 1634.29 1327.53 1630.34C1331.49 1573.52 1311.7 1551.55 1305.53 1546.16C1305.09 1545.77 1304.64 1545.4 1304.21 1545.06C1297.29 1580.32 1274.87 1605.08 1239.72 1615.66C1193.09 1629.69 1133.77 1615.07 1117.92 1593.26C1116.58 1591.41 1115.67 1589.28 1115.27 1587.04C1114.87 1584.79 1114.98 1582.48 1115.6 1580.28C1116.21 1578.09 1117.32 1576.06 1118.84 1574.35C1120.35 1572.64 1122.23 1571.3 1124.34 1570.42C1194.98 1541.05 1243.96 1483.32 1255.38 1416C1262.78 1372.37 1251.84 1332.58 1226.12 1309.56C1186.97 1274.51 1145.31 1278.66 1117.58 1288.07C1153.39 1302.59 1189.85 1328.31 1207.58 1363.17C1222.93 1393.33 1222.53 1427 1206.44 1460.55C1205.13 1463.26 1203.05 1465.52 1200.46 1467.04C1197.87 1468.57 1194.88 1469.28 1191.87 1469.09C1188.87 1468.9 1185.99 1467.83 1183.61 1465.99C1181.22 1464.16 1179.44 1461.66 1178.49 1458.81C1177.11 1454.76 1143.26 1358.87 1041.65 1370.49C1004.13 1374.78 983.507 1394.94 972.703 1411.51C1040.43 1403.44 1095.93 1416.76 1127.52 1449.36C1147.86 1470.35 1155.95 1497.93 1149.73 1525.05C1149.14 1527.61 1147.9 1529.96 1146.13 1531.89C1144.35 1533.82 1142.11 1535.26 1139.61 1536.06C1137.12 1536.86 1134.45 1536.99 1131.89 1536.45C1129.32 1535.91 1126.94 1534.72 1124.98 1532.98C1086.42 1498.8 1023.93 1503.13 969.484 1543.76C928.435 1574.39 902.368 1621.51 893.067 1640.34C878.568 1669.7 863.167 1708.01 863.013 1708.39C862.949 1708.55 862.882 1708.71 862.811 1708.87C859.229 1717.02 853.182 1723.84 845.52 1728.38C837.859 1732.92 828.968 1734.94 820.099 1734.16ZM780.59 1477.98L811.303 1692.56C811.602 1695.13 812.648 1697.55 814.312 1699.53C815.976 1701.52 818.184 1702.97 820.663 1703.7C823.49 1704.43 826.481 1704.14 829.117 1702.89C831.753 1701.64 833.866 1699.5 835.088 1696.85C836.669 1692.92 851.467 1656.34 865.973 1626.96C876.241 1606.17 905.119 1554.08 951.413 1519.54C1007.16 1477.94 1071.12 1468.75 1119.52 1493.08C1116.85 1484.52 1112.15 1476.74 1105.82 1470.39C1077.62 1441.28 1019.46 1432.03 950.249 1445.65C947.761 1446.14 945.189 1445.99 942.772 1445.23C940.355 1444.46 938.169 1443.1 936.416 1441.27C934.663 1439.43 933.399 1437.19 932.742 1434.74C932.084 1432.29 932.053 1429.72 932.652 1427.25C933.415 1424.12 952.322 1350.29 1038.22 1340.47C1104.26 1332.92 1146.81 1363.05 1170.89 1389.66C1177.36 1396.83 1183.26 1404.5 1188.53 1412.59C1189.08 1400.2 1186.36 1387.88 1180.65 1376.87C1161.94 1340.1 1112.82 1313.61 1073.97 1306.45C1071.07 1305.91 1068.38 1304.54 1066.25 1302.49C1064.11 1300.44 1062.63 1297.81 1061.98 1294.93C1061.32 1292.04 1061.53 1289.03 1062.57 1286.26C1063.62 1283.5 1065.45 1281.1 1067.84 1279.36C1085.15 1267.71 1104.48 1259.4 1124.85 1254.85C1169.62 1244.88 1211.61 1256.02 1246.27 1287.04C1279.77 1317.02 1294.31 1367.12 1285.17 1421.05C1273.52 1489.77 1228.44 1549.6 1162.54 1585.59C1180.16 1590.92 1206.42 1594.12 1231.01 1586.72C1259.57 1578.13 1274.77 1557.46 1276.18 1525.3C1276.32 1521.94 1277.59 1518.73 1279.77 1516.17C1281.95 1513.61 1284.92 1511.85 1288.21 1511.17C1300.12 1508.7 1313.69 1513.16 1325.42 1523.41C1350.31 1545.16 1356.9 1581.39 1358.01 1608.18C1366.83 1602.31 1374.32 1594.65 1379.98 1585.68C1385.64 1576.72 1389.35 1566.67 1390.85 1556.18C1393.73 1535.32 1389.83 1518.01 1379.28 1504.73C1360.09 1480.59 1325.53 1475.69 1315.39 1474.77C1312.42 1474.5 1309.6 1473.35 1307.28 1471.48C1304.96 1469.61 1303.25 1467.1 1302.35 1464.26C1301.46 1461.41 1301.42 1458.37 1302.25 1455.51C1303.08 1452.65 1304.74 1450.09 1307.02 1448.17C1308.19 1447.18 1336.23 1424.01 1380.57 1427.89L1380.81 1427.91C1412.86 1430.78 1444.61 1446.65 1475.56 1475.19C1474.34 1468.1 1472.74 1461.08 1470.77 1454.17C1458.8 1412.58 1435.29 1384.33 1400.9 1370.21C1362.76 1354.56 1332.01 1377.26 1330.72 1378.24C1328.22 1380.13 1325.19 1381.2 1322.06 1381.3C1318.93 1381.4 1315.84 1380.53 1313.23 1378.79C1310.61 1377.06 1308.6 1374.56 1307.47 1371.64C1306.34 1368.71 1306.14 1365.51 1306.91 1362.47C1308.14 1357.7 1335.53 1256.19 1449.13 1205.51C1422.89 1196.03 1397.6 1184.09 1373.61 1169.85C1361.96 1193.83 1345.78 1214.61 1325.13 1228.46C1297.05 1247.29 1261.62 1246.68 1222.68 1226.72C1210.29 1220.28 1198.51 1212.72 1187.5 1204.14C1175.37 1211.28 1161.47 1214.87 1147.4 1214.48C1143.27 1214.46 1139.14 1214.26 1135.03 1213.9C1067.96 1208.04 1004.19 1158.97 981.394 1113.53C980.383 1111.52 979.836 1109.3 979.792 1107.05C979.748 1104.8 980.209 1102.56 981.14 1100.51C982.07 1098.46 983.448 1096.64 985.172 1095.19C986.897 1093.74 988.923 1092.7 991.104 1092.13L1097.13 1064.62C1095.73 1053.7 1095.73 1042.64 1097.16 1031.71C1100.96 1003.65 1115.03 984.609 1135.76 979.473C1158.43 973.855 1181.45 986.851 1200.58 1016.07C1204.5 1022.13 1207.91 1028.51 1210.78 1035.14L1260.92 1022.13C1259.54 1013.22 1259.09 1004.18 1259.59 995.174C1261.26 968.292 1273.24 945.839 1290.84 936.575C1304.81 929.223 1321.19 930.378 1336.96 939.823C1354.78 950.499 1368.8 967.49 1379.41 991.391L1421.21 980.548C1439.49 921.262 1459.17 819.674 1449.12 748.294C1446.53 748.634 1443.91 749.04 1441.26 749.511C1363.35 763.431 1292.67 832.237 1242.25 943.255C1240.98 946.054 1238.88 948.399 1236.24 949.976C1233.6 951.554 1230.55 952.288 1227.48 952.082C1224.41 951.875 1221.48 950.738 1219.08 948.821C1216.67 946.905 1214.91 944.3 1214.02 941.356C1209.86 927.488 1192.36 884.517 1162.06 843.032C1144.82 874.453 1132.59 908.369 1125.8 943.557C1125.15 947.045 1123.29 950.191 1120.55 952.445C1117.81 954.699 1114.36 955.916 1110.81 955.884C1107.62 955.854 1104.21 955.683 1100.61 955.368C1067.71 952.492 1018.8 937.589 970.346 909.187C965.301 956.992 968.398 1007.82 979.951 1047.01C981.003 1050.57 980.702 1054.4 979.107 1057.76C977.511 1061.12 974.733 1063.77 971.304 1065.21C967.875 1066.65 964.035 1066.77 960.521 1065.56C957.007 1064.34 954.064 1061.87 952.257 1058.62C919.252 999.291 863.14 936.813 802.157 891.496C784.721 878.443 766.355 866.68 747.206 856.3C729.019 867.803 709.811 877.604 689.823 885.578C625.164 911.549 557.167 900.729 541.339 861.951C539.048 856.66 538.034 850.904 538.38 845.148C538.726 839.393 540.421 833.799 543.329 828.82C554.847 808.612 584.248 797.688 605.927 794.474C637.924 789.73 685.005 792.232 745.289 821.235C776.67 798.743 803.18 770.14 823.228 737.145C797.404 660.162 803.823 573.129 810.563 525.401C819.153 464.576 839.246 392.58 859.564 378.957C863.175 376.332 867.617 375.11 872.063 375.52C876.508 375.929 880.653 377.943 883.722 381.184C895.023 392.981 902.706 435.853 905.853 468.982C911.018 522.773 908.016 577.036 896.949 629.929C888.885 668.368 875.213 705.413 856.371 739.874C857.555 742.873 858.8 745.844 860.104 748.789C879.968 793.582 912.406 829.97 948.342 857.829C959.609 809.962 979.784 769.073 1008.88 748.488C1031.53 732.456 1069.48 721.253 1121.59 758.921C1134.84 768.594 1147.17 779.474 1158.41 791.42C1196.51 735.727 1245.34 691.884 1290.6 665.978C1337.42 639.183 1380.86 630.788 1412.91 642.343C1442.77 653.107 1463.02 678.042 1473.51 716.798C1508.38 717.484 1541.61 727.742 1567.91 746.078C1591.46 660.922 1622.01 577.859 1659.25 497.737L1623.23 479.662C1543.4 524.873 1263.69 668.096 1094.25 683.211C1052.26 686.956 1017.18 681.927 989.982 668.262C964.53 655.475 947.297 635.141 941.457 611.007C930.733 566.69 958.876 520.238 1010.62 494.566C1015.67 458.668 1047.34 418.494 1124.38 400.427C1192.3 384.497 1283.03 380.175 1394.04 387.583C1419.59 389.288 1443.34 391.456 1463.96 393.637L1357.36 333.05C1327.71 338.454 1184.02 363.071 1028.75 362.982C926.219 362.923 838.563 352.274 768.214 331.329C739.12 322.917 710.996 311.454 684.311 297.133L652.51 345.461C651.366 347.199 649.875 348.683 648.131 349.818C646.387 350.953 644.428 351.716 642.375 352.058C640.323 352.401 638.222 352.315 636.204 351.808C634.186 351.3 632.294 350.381 630.648 349.108L455.4 213.62C458.344 263.739 471.37 316.635 492.888 366.388C502.423 370.615 511.79 375.033 520.989 379.643C601.587 420.054 706.123 493.831 746.428 615.818C747.329 618.546 747.434 621.474 746.73 624.259C746.027 627.044 744.544 629.57 742.455 631.543C740.367 633.515 737.759 634.851 734.939 635.394C732.118 635.937 729.201 635.664 726.529 634.609C626.776 595.181 545.371 524.487 491.116 430.168C483.509 416.945 476.496 403.332 470.106 389.445C382.169 352.277 281.236 332.089 187.239 333.437C127.775 334.289 70.4059 344.294 33.3444 359.953C44.8693 393.893 71.5237 427.458 110.79 458.445C105.203 435.765 104.357 415.147 108.522 397.664C109.148 395.037 110.466 392.626 112.34 390.681C114.214 388.736 116.575 387.33 119.177 386.607C165.773 373.672 255.091 386.557 336.385 417.94C474.639 471.314 526.866 549.366 545.693 591.142C546.624 593.209 547.079 595.459 547.022 597.725C546.966 599.991 546.401 602.215 545.368 604.233C544.335 606.25 542.862 608.01 541.057 609.381C539.252 610.752 537.161 611.699 534.94 612.153C462.151 627.008 339.465 606.194 229.655 560.357C212.726 553.291 196.402 545.749 180.817 537.81C210.031 580.942 246.252 618.886 287.981 650.07C306.711 664.178 326.528 676.783 347.246 687.765C350.906 685.588 354.733 683.496 358.728 681.489C438.544 641.398 598.733 642.123 701.527 683.042C704.173 684.095 706.467 685.874 708.146 688.174C709.824 690.475 710.818 693.203 711.013 696.043C711.208 698.884 710.597 701.722 709.248 704.231C707.9 706.739 705.871 708.815 703.394 710.22C632.977 750.159 559.506 767.038 484.758 760.501C478.788 759.979 472.812 759.307 466.832 758.487C426.132 752.675 386.573 740.613 349.554 722.728C335.741 733.594 323.845 748.35 321.295 767.709C316.817 801.693 341.127 843.408 391.596 888.344C396.714 892.901 401.735 897.387 406.659 901.802C414.758 898.6 423.167 896.248 431.752 894.785C497.101 883.514 569.189 912.946 651.774 984.728C688.777 964.216 736.285 968.972 785.639 998.154C865.644 1045.46 972.067 1159.19 1013.77 1229.28C1015.38 1231.99 1016.11 1235.14 1015.84 1238.29C1015.57 1241.43 1014.33 1244.41 1012.28 1246.81C1010.23 1249.21 1007.49 1250.91 1004.42 1251.67C1001.36 1252.43 998.138 1252.21 995.206 1251.05C961.419 1237.91 926.316 1228.46 890.505 1222.83C892.869 1237.41 890.628 1252.36 884.096 1265.61C877.563 1278.85 867.064 1289.73 854.059 1296.73C841.054 1303.73 826.19 1306.5 811.538 1304.65C796.885 1302.81 783.173 1296.44 772.309 1286.43L697.016 1217.95C638.305 1223.92 593.138 1235.47 565.448 1247.31L880.391 1367.97C880.534 1368.03 880.677 1368.09 880.818 1368.15C888.021 1371.16 894.131 1376.31 898.325 1382.89C902.52 1389.48 904.6 1397.19 904.287 1404.99C903.973 1412.8 901.28 1420.32 896.57 1426.54C891.86 1432.77 885.357 1437.41 877.935 1439.84L780.59 1477.98ZM597.501 1549.72L608.287 1629.38C608.695 1632.46 610.237 1635.29 612.613 1637.3C614.99 1639.31 618.03 1640.36 621.142 1640.26C623.959 1640.04 626.633 1638.92 628.767 1637.07C630.902 1635.22 632.386 1632.73 632.999 1629.97L658.489 1525.82L597.501 1549.72ZM528.728 1333.69C526.25 1333.46 523.766 1334.05 521.655 1335.37C519.545 1336.69 517.922 1338.66 517.036 1340.98L434.277 1554.09C433.322 1556.36 432.925 1558.83 433.117 1561.29C433.309 1563.75 434.085 1566.13 435.381 1568.23C437.223 1571.07 439.989 1573.18 443.211 1574.21C446.433 1575.23 449.911 1575.11 453.055 1573.87L564.373 1530.25L539.202 1344.37C538.95 1341.93 537.963 1339.63 536.372 1337.76C534.781 1335.9 532.662 1334.56 530.294 1333.93C529.778 1333.82 529.255 1333.73 528.728 1333.69L528.728 1333.69ZM308.908 1383.64C277.343 1390.25 240.177 1400.03 230.891 1417.04C229.046 1420.42 227.077 1426.14 231.273 1436.74C236.058 1448.83 275.235 1485.52 316.709 1512.96C319.255 1514.71 322.202 1515.8 325.28 1516.12C328.358 1516.45 331.467 1515.99 334.321 1514.79C345.485 1509.72 344.108 1496.38 343.42 1492.42C339.609 1470.44 328.037 1433.99 308.908 1383.64L308.908 1383.64ZM730.004 1404.18L729.878 1404.17C726.999 1403.94 724.131 1404.74 721.791 1406.43C719.451 1408.13 717.792 1410.6 717.112 1413.41L701.682 1476.45L747.289 1458.58L740.98 1414.5C740.588 1411.79 739.289 1409.3 737.296 1407.42C735.302 1405.55 732.731 1404.4 730.004 1404.18L730.004 1404.18ZM417.699 1202.94C412.314 1203.91 406.95 1204.84 401.649 1205.76C357.814 1213.36 316.41 1220.54 303.825 1243.32C296.63 1256.34 298.47 1276.32 309.295 1302.69C316.039 1319.12 322.25 1334.56 327.927 1349.01C334.984 1347.61 341.566 1346.24 347.172 1344.86C395.942 1332.89 425.638 1314.95 435.434 1291.56C445.717 1267 434.81 1235.4 417.699 1202.94ZM738.523 1214.86L792.705 1264.14C796.701 1267.83 801.396 1270.69 806.512 1272.55C811.628 1274.4 817.063 1275.21 822.498 1274.94C827.933 1274.66 833.258 1273.31 838.161 1270.95C843.064 1268.58 847.445 1265.27 851.049 1261.19C856.107 1255.43 859.449 1248.37 860.696 1240.8C861.943 1233.24 861.045 1225.47 858.105 1218.39C818.398 1214.09 778.415 1212.91 738.523 1214.86ZM401.944 938.314C389.412 946.728 379.661 958.675 373.927 972.638C349.894 1031.04 386.937 1092.11 419.62 1146C422.876 1151.37 426.078 1156.65 429.16 1161.83C430.575 1164.2 432.004 1166.63 433.447 1169.1C474.636 1160.33 510.732 1146.85 520.534 1113.28C533.051 1070.4 494.308 1022.58 401.944 938.314ZM649.88 1023.6C628.429 1044.73 618.71 1077.77 628.382 1103.88C633.964 1118.95 644.52 1129.36 656.724 1140.46L707.493 1186.64C711.182 1186.32 714.897 1186.03 718.638 1185.77C754.914 1183.22 791.319 1183.1 827.61 1185.41L649.88 1023.6ZM876.311 1190.21C905.587 1194.03 934.538 1200.02 962.923 1208.14C914.58 1143.62 832.566 1061 770.26 1024.16C727.12 998.656 696.36 999.341 676.198 1006.7L868.193 1181.5C871.14 1184.17 873.856 1187.08 876.311 1190.21ZM1209.42 1182.78C1217.95 1189.19 1227 1194.89 1236.46 1199.83C1265.46 1214.7 1289.63 1215.88 1308.3 1203.36C1325.36 1191.93 1338.77 1173.95 1348.35 1153.04C1330.92 1140.37 1315.13 1125.59 1301.34 1109.02C1287.02 1091.92 1275.82 1072.43 1268.25 1051.45L1220.54 1063.82C1230.12 1101.48 1229.99 1145.7 1213.4 1176.18C1212.14 1178.48 1210.82 1180.68 1209.42 1182.78ZM1018.81 1116.16C1043.42 1147.96 1094.39 1183.96 1147.57 1184.27C1152.59 1184.35 1157.59 1183.71 1162.42 1182.35C1154.97 1175.11 1149.26 1168.82 1145.64 1164.66C1123.55 1139.19 1110.85 1115.15 1103.86 1094.1L1018.81 1116.16ZM1133.33 1086.45C1141.3 1107.94 1153.22 1127.75 1168.47 1144.86C1173.95 1151.18 1179.87 1157.32 1186.05 1163.16C1186.33 1162.69 1186.59 1162.22 1186.86 1161.74C1199.44 1138.61 1199.19 1102.28 1191.35 1071.4L1133.33 1086.45ZM1297.59 1043.84C1304.01 1060.56 1313.17 1076.11 1324.68 1089.83C1334.9 1102.13 1346.39 1113.31 1358.98 1123.17C1367.59 1090.72 1368.28 1055.62 1360.48 1028.12C1360.43 1027.93 1360.38 1027.75 1360.32 1027.56L1297.59 1043.84ZM1147.22 1008.49C1145.82 1008.36 1144.4 1008.47 1143.03 1008.8C1133.67 1011.12 1128.66 1024.26 1127.1 1035.77C1126.17 1042.8 1126.04 1049.9 1126.71 1056.95L1181.08 1042.84C1179.37 1039.32 1177.43 1035.91 1175.3 1032.62C1170.49 1025.27 1158.87 1009.51 1147.22 1008.49ZM774.558 836.874C790.303 846.165 805.532 856.303 820.179 867.243C864.726 900.639 904.588 939.863 938.698 983.865C936.563 952.865 937.704 921.727 942.1 890.966C900.69 861.64 862.058 821.884 837.007 770.739C819.473 795.668 798.441 817.942 774.558 836.874ZM1311.38 962.038C1309.14 961.783 1306.88 962.229 1304.91 963.315C1296.83 967.567 1290.74 981.125 1289.75 997.053C1289.42 1002.87 1289.62 1008.71 1290.33 1014.5L1349.69 999.102C1342.06 983.512 1332.71 972.501 1321.43 965.744C1318.4 963.765 1314.97 962.497 1311.38 962.038ZM975.145 876.699C1019.73 905.162 1066.19 921.291 1098.82 924.896C1107.62 887.251 1122.08 851.159 1141.7 817.848C1130.35 805.063 1117.68 793.519 1103.89 783.41C1073.25 761.261 1047.88 757.906 1026.33 773.154C1001.21 790.924 984.045 830.519 975.145 876.699L975.145 876.699ZM646.677 823.476C634.578 822.349 622.388 822.647 610.358 824.363C591.858 827.107 574.327 835.455 569.581 843.783C568.95 844.786 568.593 845.938 568.546 847.122C568.499 848.307 568.764 849.483 569.314 850.533C576.499 868.137 625.538 878.836 678.561 857.539C690.78 852.648 702.697 847.034 714.249 840.727C692.707 831.651 669.933 825.837 646.677 823.476ZM1178.78 815.042C1199.03 841.141 1216.2 869.496 1229.94 899.541C1256.01 849.644 1286.26 809.185 1320.1 778.99C1355.93 747.024 1394.91 727.098 1435.95 719.766C1438.15 719.373 1440.35 719.019 1442.56 718.704C1434.99 695.213 1422.29 677.844 1402.66 670.768C1379.42 662.393 1344.05 670.203 1305.61 692.203C1261.9 717.218 1214.61 760.295 1178.78 815.042ZM381.908 704.074C410.418 716.002 440.338 724.228 470.939 728.551C534.155 737.223 596.638 727.615 657.123 699.984C567.884 674.98 448.461 676.115 381.908 704.074ZM867.688 420.815C858.899 441.906 846.99 480.971 839.897 533.876C834.823 571.725 830.041 636.266 843.68 697.861C849.141 685.363 853.908 672.573 857.959 659.549C878.195 594.785 879.575 531.685 877.168 490.155C876.053 466.808 872.881 443.605 867.688 420.815ZM152.9 487.713C181.154 504.914 210.709 519.879 241.295 532.473C336.238 572.104 440.147 592.344 508.899 585.512C464.996 509.296 376.619 465.863 325.502 446.129C247.787 416.127 174.581 407.484 136.449 413.74C134.591 433.7 140.34 459.448 152.9 487.713ZM514.575 410.286C515.478 411.898 516.389 413.504 517.308 415.101C561.916 492.65 626.084 553.131 704.24 591.702C677.417 535.228 623.32 466.549 514.575 410.286ZM1041.12 514.491C1046.04 537.25 1068.23 554.604 1098.77 558.714C1163.74 567.453 1256 544.096 1343.24 498.2C1265.07 493.783 1112.24 489.971 1041.12 514.491ZM626.227 211.354C640.098 228.738 656.554 243.889 675.022 256.28L699.837 218.568L626.227 211.354ZM1127.12 230.082L1212.53 238.452L1149.13 194.453L1127.12 230.082ZM985.917 216.243L1050.52 222.574L1041.27 81.3229L985.917 216.243ZM864.797 204.374L917.204 209.51L908.047 101.79L864.797 204.374ZM752.585 193.377L794.597 197.494L788.61 138.629L752.585 193.377Z" fill="#19194B"/>
</svg>
