<svg width="1109" height="678" viewBox="0 0 1109 678" fill="none" xmlns="http://www.w3.org/2000/svg">
<path opacity="0.1" d="M115.636 1708.32C105.99 1706.53 97.2521 1701.48 90.8823 1694.02C84.5125 1686.56 80.8975 1677.14 80.6421 1667.33L71.1503 1457.41L10.2644 1474.68L-32.3247 1596.23C-35.381 1605.19 -41.2798 1612.9 -49.1228 1618.19C-56.9658 1623.48 -66.3232 1626.06 -75.7704 1625.55C-86.3638 1624.87 -96.3256 1620.27 -103.718 1612.65C-111.111 1605.04 -115.407 1594.94 -115.769 1584.33L-118.52 1511.22L-226.71 1541.92C-236.639 1544.69 -247.214 1543.99 -256.69 1539.93C-266.165 1535.88 -273.975 1528.71 -278.828 1519.62C-282.181 1513.12 -283.93 1505.91 -283.93 1498.6C-283.93 1491.29 -282.181 1484.08 -278.829 1477.58L-175.599 1273.05C-171.137 1264.07 -163.574 1257 -154.306 1253.16C-145.039 1249.31 -134.694 1248.95 -125.182 1252.14C-117.013 1254.95 -109.893 1260.17 -104.768 1267.12C-99.6431 1274.07 -96.7577 1282.42 -96.4961 1291.05L-89.7039 1471.57L-13.1212 1449.84L15.4438 1368.31C18.7057 1359.01 25.0999 1351.13 33.5316 1346.03C41.9632 1340.92 51.9076 1338.91 61.6618 1340.33C71.416 1341.75 80.3731 1346.51 86.9992 1353.81C93.6253 1361.11 97.5081 1370.48 97.9826 1380.33L99.6783 1417.83L194.103 1391.04C194.462 1390.94 194.824 1390.85 195.189 1390.77C196.801 1390.44 198.273 1389.63 199.409 1388.44C200.544 1387.25 201.29 1385.74 201.545 1384.12C201.801 1382.49 201.554 1380.83 200.839 1379.35C200.123 1377.86 198.972 1376.64 197.54 1375.83L-132.897 1210.93C-135.234 1209.77 -137.23 1208.02 -138.69 1205.85C-140.15 1203.69 -141.026 1201.18 -141.232 1198.58C-141.437 1195.97 -140.966 1193.36 -139.864 1190.99C-138.762 1188.62 -137.066 1186.58 -134.942 1185.06C-109.196 1166.66 -52.5826 1154.5 16.0793 1151.72L-12.1811 1120.5C-24.9504 1106.4 -37.9055 1090.78 -43.7384 1068.65C-53.779 1030.57 -37.3404 987.16 -5.82561 960.673C-72.8016 891.193 -132.575 859.351 -188.087 863.458C-189.532 863.564 -190.964 863.702 -192.383 863.869C-113.953 951.426 -71.6334 1013.17 -94.8427 1071.1C-112.68 1115.62 -156.27 1129.81 -202.94 1136.07C-198.345 1147.81 -194.644 1159.88 -191.87 1172.17C-185.718 1200.65 -187.882 1224.07 -198.486 1243.79C-215.562 1275.53 -253.361 1295.24 -314.042 1304.02C-318.871 1304.72 -324.164 1305.34 -329.764 1305.93C-315.762 1357.77 -308.017 1394.95 -306.244 1418.63C-304.402 1443.22 -316.824 1463.77 -337.889 1470.98C-345.703 1473.6 -354.055 1474.18 -362.154 1472.66C-370.253 1471.14 -377.829 1467.58 -384.164 1462.31C-409.379 1441.86 -464.034 1390.63 -472.029 1362.83C-476.969 1345.65 -475.091 1330.48 -466.445 1317.75C-448.959 1292.01 -407.627 1283.95 -368.592 1279.46C-372.419 1266.1 -376.58 1251.96 -381.075 1237.03C-392.249 1199.93 -390.831 1171.92 -376.737 1151.4C-353.749 1117.92 -304.711 1114.25 -252.795 1110.37C-250.978 1110.23 -249.158 1110.09 -247.337 1109.96C-249.532 1105.32 -251.8 1100.6 -254.101 1095.82C-283.075 1035.56 -319.134 960.573 -282.325 891.126C-273.672 874.695 -260.866 860.817 -245.181 850.875C-247.422 848.441 -249.692 845.981 -251.992 843.494C-305.865 785.24 -327.967 733.232 -317.685 688.915C-312.878 668.199 -301.051 650.284 -282.876 635.847C-299.533 624.091 -315.423 611.285 -330.45 597.506C-378.559 553.461 -418.87 499.02 -443.958 444.212C-447.974 435.439 -451.532 426.824 -454.633 418.367C-469.757 406.534 -484.118 393.756 -497.63 380.111C-538.63 338.386 -562.342 295.653 -568.106 253.099C-568.559 249.754 -567.881 246.354 -566.181 243.438C-564.481 240.522 -561.855 238.258 -558.721 237.005C-516.284 220.041 -448.452 213.433 -377.27 219.329C-289.072 226.635 -196.788 252.673 -115.209 292.516C-130.166 234.699 -134.895 175.309 -128.203 121.523C-127.858 118.748 -126.751 116.123 -125.005 113.938C-123.259 111.754 -120.942 110.095 -118.311 109.147C-115.68 108.198 -112.838 107.997 -110.099 108.565C-107.361 109.134 -104.834 110.449 -102.797 112.366L69.9182 274.926L95.4141 243.332C64.5618 217.691 42.0618 188.339 27.9143 155.276C26.8341 152.743 26.465 149.964 26.8466 147.237C27.2282 144.51 28.3462 141.939 30.0802 139.8C31.8141 137.661 34.0984 136.035 36.6873 135.098C39.2763 134.16 42.0719 133.946 44.7734 134.479L164.246 158.035L242.247 61.3767C244.21 58.9433 246.879 57.1775 249.886 56.3216C252.893 55.4656 256.092 55.5617 259.043 56.5965C261.993 57.6312 264.551 59.554 266.365 62.1008C268.179 64.6476 269.16 67.6935 269.174 70.8203L269.647 178.817L277.584 180.382L364.373 19.9824C365.984 17.0051 368.546 14.6535 371.65 13.3029C374.754 11.9524 378.221 11.6809 381.498 12.5318C384.774 13.3826 387.671 15.3068 389.726 17.9971C391.781 20.6873 392.875 23.9884 392.833 27.3733L390.699 202.684L397.354 203.996L500.509 8.86477C502.109 5.83866 504.687 3.44379 507.822 2.07068C510.958 0.697571 514.466 0.427221 517.775 1.30372C521.083 2.18023 523.998 4.15187 526.042 6.89714C528.087 9.64241 529.141 12.9994 529.033 16.4206L522.324 228.636L534.813 231.099L578.881 173.166C580.126 171.529 581.692 170.163 583.482 169.151C585.272 168.139 587.25 167.502 589.295 167.279C591.339 167.057 593.408 167.253 595.374 167.856C597.34 168.459 599.163 169.457 600.731 170.787L716.279 268.834C718.835 271.003 720.599 273.959 721.295 277.239C721.99 280.518 721.578 283.936 720.123 286.956C718.667 289.976 716.25 292.428 713.252 293.926C710.253 295.425 706.842 295.887 703.553 295.238L547.484 264.467L517.122 304.382C515.178 306.937 512.473 308.809 509.396 309.726C506.319 310.643 503.031 310.559 500.005 309.486C496.98 308.412 494.374 306.405 492.563 303.754C490.753 301.102 489.832 297.944 489.933 294.735L491.241 253.377L413.6 238.069L388.008 286.479C386.42 289.483 383.868 291.865 380.763 293.243C377.657 294.622 374.178 294.915 370.885 294.077C367.593 293.239 364.677 291.318 362.608 288.623C360.54 285.927 359.437 282.615 359.478 279.217L360.108 227.522L293.607 214.41L268.151 261.455C266.551 264.414 264.01 266.755 260.932 268.109C257.853 269.464 254.411 269.755 251.148 268.937C247.885 268.118 244.988 266.237 242.914 263.589C240.839 260.942 239.705 257.679 239.69 254.315L239.469 203.736L176.331 191.287L138.614 238.025C340.497 373.367 785.042 332.563 790.342 332.05C793.948 331.702 797.559 332.658 800.521 334.745L968.296 452.964C971.2 455.01 973.292 458.012 974.206 461.445C975.121 464.878 974.799 468.523 973.298 471.742C971.797 474.962 969.211 477.551 965.994 479.057C962.777 480.564 959.132 480.891 955.698 479.982C953.273 479.34 711.268 416.03 552.662 437.313C503.448 443.916 475.649 461.462 462.889 480.549C575.356 462.418 798.265 501.291 812.337 505.01C815.315 505.797 817.981 507.473 819.981 509.814C821.982 512.156 823.22 515.051 823.533 518.115C823.845 521.178 823.216 524.264 821.729 526.961C820.242 529.658 817.969 531.837 815.211 533.209C707.898 586.591 592.681 609.567 511.056 594.359C507.57 593.71 504.157 592.993 500.797 592.204C461.157 582.892 432.536 555.831 425.56 523.216C387.065 541.661 372.391 571.988 375.698 595.381C379.796 624.366 412.334 655.562 491.377 656.196C661.812 657.562 962.351 536.37 1033.51 503.841C1035.79 502.796 1038.3 502.336 1040.81 502.504C1043.32 502.671 1045.75 503.461 1047.87 504.8L1101.49 538.573C1104.86 540.694 1107.25 544.056 1108.16 547.931C1109.07 551.805 1108.42 555.882 1106.34 559.278C1023.79 694.466 978.323 826.381 977.873 827.698C976.999 830.256 975.457 832.534 973.406 834.295C971.354 836.056 968.869 837.236 966.207 837.712C963.546 838.188 960.806 837.943 958.271 837.002C955.737 836.061 953.5 834.459 951.794 832.362C936.072 813.034 907.493 793.652 869.143 787.649C869.578 809.105 868.206 830.56 865.043 851.786C854.621 926.056 827.396 1001.63 812.952 1034.57C811.933 1036.9 810.345 1038.93 808.335 1040.48C806.324 1042.03 803.956 1043.05 801.448 1043.45L753.071 1051.1C759.567 1087.09 753.553 1132.2 736.637 1171.76C766.018 1194.34 802.787 1214.4 846.666 1231.76C849.736 1232.97 852.325 1235.15 854.039 1237.97C855.753 1240.79 856.499 1244.1 856.163 1247.38C855.826 1250.66 854.427 1253.75 852.176 1256.16C849.926 1258.58 846.948 1260.19 843.696 1260.76C753.972 1276.39 705.44 1329.27 682.654 1363.84C703.924 1360.82 725.603 1364.67 744.53 1374.84C785.755 1396.64 812.503 1435.64 821.885 1487.61C826.114 1511.13 826.716 1535.17 823.668 1558.88C823.192 1561.88 821.823 1564.67 819.742 1566.89C817.66 1569.1 814.96 1570.63 811.994 1571.29C809.028 1571.95 805.933 1571.7 803.11 1570.58C800.287 1569.45 797.868 1567.51 796.167 1564.99C754.428 1503.23 715.308 1487.02 687.491 1485.61C700.996 1493.44 712.522 1504.26 721.178 1517.25C735.085 1538.73 738.648 1564.28 731.767 1593.17C717.854 1651.6 660.549 1674.45 644.09 1671.39C640.187 1670.66 636.725 1668.43 634.451 1665.18C632.176 1661.92 631.271 1657.91 631.929 1653.99C641.396 1597.7 623.784 1573.85 618.16 1567.88C617.751 1567.45 617.345 1567.04 616.944 1566.66C606.617 1601.16 581.854 1623.68 545.756 1630.82C497.873 1640.3 440.118 1619.95 426.42 1596.66C425.261 1594.68 424.563 1592.47 424.38 1590.19C424.197 1587.91 424.533 1585.62 425.362 1583.49C426.192 1581.36 427.494 1579.44 429.17 1577.88C430.847 1576.33 432.854 1575.17 435.041 1574.5C508.363 1552.05 562.835 1499.21 580.757 1433.16C592.371 1390.35 585.321 1349.59 561.897 1324.13C526.238 1285.38 484.277 1285.47 455.699 1292.16C490.015 1310.12 523.892 1339.32 538.202 1375.82C550.582 1407.39 546.918 1440.95 527.606 1472.85C526.045 1475.43 523.749 1477.49 521.014 1478.75C518.278 1480.02 515.227 1480.44 512.25 1479.96C509.274 1479.49 506.507 1478.13 504.306 1476.07C502.104 1474.01 500.567 1471.34 499.892 1468.4C498.911 1464.23 474.45 1365.28 371.958 1367.02C334.107 1367.66 311.576 1385.76 299.19 1401.25C367.539 1399.77 421.615 1418.45 449.967 1454.04C468.219 1476.94 473.615 1505.25 464.774 1531.7C463.941 1534.19 462.474 1536.42 460.517 1538.18C458.561 1539.93 456.181 1541.14 453.613 1541.7C451.045 1542.26 448.377 1542.13 445.871 1541.35C443.364 1540.56 441.106 1539.13 439.318 1537.21C404.159 1499.37 341.398 1497.62 283.143 1532.87C239.22 1559.44 208.642 1603.92 197.534 1621.81C180.221 1649.69 161.139 1686.41 160.948 1686.78C160.868 1686.93 160.785 1687.08 160.7 1687.24C156.335 1695.02 149.64 1701.24 141.557 1705.02C133.473 1708.8 124.408 1709.95 115.636 1708.32ZM101.084 1448.92L110.897 1665.96C110.947 1668.56 111.755 1671.08 113.222 1673.21C114.69 1675.35 116.752 1677.01 119.154 1677.99C121.903 1678.99 124.916 1678.99 127.667 1678C130.418 1677 132.733 1675.08 134.209 1672.55C136.168 1668.79 154.481 1633.73 171.804 1605.83C184.065 1586.08 217.93 1536.92 267.466 1506.95C327.12 1470.86 391.813 1467.9 437.743 1496.87C435.904 1488.08 431.971 1479.86 426.279 1472.91C400.964 1441.13 343.843 1426.26 273.476 1433.12C270.946 1433.37 268.395 1432.98 266.058 1431.98C263.721 1430.98 261.672 1429.41 260.101 1427.41C258.53 1425.41 257.488 1423.05 257.069 1420.55C256.651 1418.04 256.87 1415.47 257.706 1413.07C258.772 1410.01 284.799 1338.2 371.447 1336.73C438.057 1335.61 477.588 1369.8 499.023 1398.68C504.782 1406.47 509.923 1414.69 514.401 1423.28C516.147 1410.97 514.631 1398.41 510.005 1386.87C494.91 1348.37 448.479 1317.18 410.415 1306.27C407.566 1305.45 405.019 1303.82 403.091 1301.57C401.162 1299.32 399.936 1296.55 399.564 1293.61C399.193 1290.67 399.693 1287.68 401.001 1285.02C402.31 1282.37 404.37 1280.15 406.927 1278.65C425.326 1268.71 445.421 1262.29 466.176 1259.73C511.81 1254.13 552.615 1269.31 584.186 1303.63C614.696 1336.79 624.342 1388.18 609.986 1441.09C591.691 1508.52 540.919 1563.83 471.68 1593.34C488.74 1600.37 514.623 1606.11 539.877 1601.11C569.203 1595.31 586.37 1576.17 590.897 1544.22C591.37 1540.89 592.942 1537.8 595.364 1535.46C597.786 1533.12 600.921 1531.65 604.27 1531.29C616.398 1529.98 629.496 1535.75 640.202 1547.11C662.924 1571.23 665.98 1608.01 664.487 1634.85C673.862 1629.85 682.075 1622.93 688.592 1614.54C695.109 1606.15 699.781 1596.48 702.304 1586.16C707.194 1565.62 704.99 1547.98 695.754 1533.71C678.953 1507.76 644.944 1499.52 634.922 1497.61C631.987 1497.06 629.284 1495.64 627.15 1493.55C625.017 1491.46 623.55 1488.79 622.934 1485.86C622.317 1482.94 622.579 1479.9 623.685 1477.13C624.792 1474.35 626.695 1471.97 629.153 1470.27C630.42 1469.4 660.633 1449 704.491 1457.18L704.729 1457.22C736.426 1463.2 766.562 1482.11 794.665 1513.58C794.143 1506.39 793.229 1499.24 791.926 1492.15C784.022 1449.49 763.313 1419.03 730.37 1401.61C693.846 1382.29 660.963 1401.96 659.58 1402.8C656.904 1404.45 653.782 1405.22 650.646 1405.02C647.51 1404.81 644.515 1403.64 642.076 1401.66C639.636 1399.68 637.872 1396.99 637.027 1393.96C636.183 1390.94 636.299 1387.72 637.36 1384.76C639.05 1380.12 676.223 1281.51 794.473 1241.97C769.214 1229.97 745.147 1215.61 722.595 1199.08C708.646 1221.87 690.492 1241.03 668.542 1252.84C638.702 1268.9 603.415 1264.86 566.501 1241.16C554.767 1233.53 543.754 1224.85 533.599 1215.22C520.804 1221.17 506.593 1223.39 492.591 1221.65C488.476 1221.22 484.373 1220.62 480.308 1219.87C413.967 1207.51 355.116 1152.37 336.78 1104.82C335.968 1102.72 335.637 1100.45 335.812 1098.2C335.986 1095.95 336.662 1093.77 337.79 1091.81C338.918 1089.85 340.469 1088.17 342.33 1086.9C344.191 1085.62 346.314 1084.77 348.544 1084.42L456.987 1067.27C456.646 1056.23 457.729 1045.19 460.208 1034.43C466.73 1006.81 482.614 989.179 503.788 986.066C526.951 982.662 548.654 997.862 564.902 1028.86C568.224 1035.3 571.009 1041.99 573.23 1048.88L624.51 1040.77C624 1031.74 624.432 1022.69 625.799 1013.75C630.079 987.094 644.205 965.856 662.665 958.323C677.314 952.344 693.541 955.085 708.355 966.038C725.101 978.419 737.44 996.73 745.705 1021.6L788.454 1014.84C812.445 957.473 841.941 858.038 838.835 785.851C836.219 785.939 833.569 786.09 830.885 786.303C751.8 792.628 674.613 854.41 613.539 960.27C611.999 962.94 609.681 965.076 606.896 966.393C604.11 967.71 600.988 968.146 597.948 967.642C594.908 967.139 592.094 965.719 589.881 963.574C587.669 961.429 586.164 958.66 585.567 955.636C582.755 941.397 569.475 896.831 543.269 852.504C523.024 882.177 507.529 914.824 497.34 949.27C496.35 952.686 494.19 955.645 491.237 957.627C488.284 959.609 484.728 960.489 481.191 960.112C478.011 959.774 474.62 959.271 471.066 958.609C438.517 952.546 391.17 932.931 345.591 899.894C335.918 947.096 334.075 998.107 341.798 1038.32C342.501 1041.98 341.829 1045.77 339.911 1048.97C337.993 1052.16 334.964 1054.54 331.404 1055.64C327.843 1056.74 324.001 1056.49 320.613 1054.94C317.226 1053.39 314.53 1050.64 313.042 1047.22C285.874 984.824 235.959 917.049 179.52 865.922C163.392 851.207 146.212 837.69 128.116 825.477C108.856 835.187 88.7421 843.1 68.0287 849.115C1.00296 868.749 -65.7825 851.355 -77.8091 811.134C-79.5809 805.633 -80.0333 799.792 -79.1298 794.084C-78.2263 788.375 -75.9922 782.96 -72.6081 778.275C-59.1561 759.233 -28.7649 751.189 -6.82598 750.086C25.5554 748.458 72.2812 755.524 129.607 790.309C163.096 770.916 192.319 744.954 215.522 713.983C197.23 634.678 212.081 548.475 223.437 501.516C237.91 441.669 264.942 371.795 286.535 360.176C290.391 357.907 294.942 357.12 299.337 357.96C303.732 358.8 307.671 361.211 310.419 364.742C320.548 377.608 324.052 421.124 323.976 454.479C323.908 508.643 315.647 562.486 299.472 614.178C287.697 651.743 270.462 687.373 248.32 719.923C249.211 723.03 250.164 726.115 251.179 729.179C266.649 775.793 295.478 815.242 328.624 846.523C344.51 799.864 368.605 761.03 399.625 743.318C423.784 729.523 462.729 722.029 511.06 764.665C523.341 775.601 534.582 787.651 544.64 800.661C588.051 748.797 641.021 709.798 688.69 688.348C737.997 666.16 782.144 662.001 812.997 676.639C841.741 690.275 859.521 717.116 866.227 756.798C900.946 760.867 933.102 774.325 957.566 795.17C989.324 712.504 1027.86 632.603 1072.78 556.286L1038.61 534.759C954.579 572.113 661.639 687.848 491.135 686.482C448.881 686.144 414.371 677.721 388.564 661.45C364.413 646.223 349.194 624.265 345.711 599.621C339.313 554.368 371.898 510.759 426.008 490.17C434.532 454.848 470.028 417.843 548.634 407.296C617.94 397.996 708.87 402.49 818.899 420.654C844.228 424.836 867.711 429.304 888.064 433.48L787.603 362.692C757.493 365.205 611.762 375.818 456.864 360.659C354.587 350.65 268.174 331.518 200.025 303.795C171.817 292.58 144.872 278.415 119.64 261.538L83.2245 306.664C81.9147 308.287 80.2837 309.622 78.4338 310.586C76.5838 311.549 74.5548 312.12 72.474 312.262C70.3932 312.404 68.3054 312.115 66.3414 311.413C64.3775 310.711 62.5798 309.611 61.0611 308.181L-100.619 156.007C-102.547 206.292 -94.6854 260.326 -78.0476 312.049C-68.9454 317.191 -60.0297 322.508 -51.3005 328C25.1837 376.137 122.311 459.884 150.68 585.492C151.314 588.301 151.135 591.232 150.162 593.942C149.19 596.652 147.465 599.029 145.19 600.794C142.916 602.558 140.185 603.638 137.318 603.906C134.451 604.174 131.567 603.619 129.005 602.307C33.3153 553.291 -41.0341 474.865 -86.0056 375.505C-92.3109 361.576 -97.9866 347.314 -103.014 332.841C-187.134 287.226 -285.866 257.29 -379.77 249.512C-439.175 244.591 -497.379 249.004 -535.871 261.028C-527.668 296.007 -504.335 332.078 -468.169 366.802C-471.542 343.635 -470.385 322.983 -464.533 305.946C-463.654 303.386 -462.105 301.109 -460.046 299.35C-457.988 297.592 -455.496 296.418 -452.83 295.95C-405.09 287.568 -317.235 309.091 -239.181 348.29C-106.437 414.954 -61.9092 497.889 -47.1819 541.393C-46.4535 543.545 -46.2185 545.833 -46.4946 548.089C-46.7707 550.344 -47.5507 552.508 -48.7767 554.421C-50.0027 556.333 -51.6435 557.946 -53.5773 559.138C-55.5111 560.331 -57.6885 561.073 -59.9481 561.31C-134.006 569.065 -254.379 536.393 -359.479 480.008C-375.682 471.316 -391.235 462.207 -406.012 452.774C-381.054 498.639 -348.602 540.008 -309.999 575.168C-292.683 591.061 -274.136 605.558 -254.534 618.525C-250.671 616.709 -246.65 614.993 -242.47 613.379C-158.953 581.129 0.783333 597.4 99.3618 648.198C101.899 649.505 104.015 651.503 105.466 653.96C106.917 656.418 107.644 659.236 107.563 662.089C107.482 664.942 106.596 667.714 105.008 670.086C103.42 672.457 101.193 674.331 98.5859 675.492C24.4606 708.502 -50.4734 718.21 -124.408 704.434C-130.314 703.333 -136.21 702.084 -142.096 700.685C-182.136 690.937 -220.43 675.064 -255.625 653.629C-270.46 663.128 -283.759 676.695 -288.182 695.76C-295.947 729.229 -275.744 773.204 -229.757 822.93C-225.093 827.973 -220.52 832.936 -216.035 837.819C-207.645 835.41 -199.028 833.88 -190.321 833.254C-124.034 828.352 -54.9741 864.71 20.4465 944.336C59.3524 927.465 106.286 936.819 152.69 970.722C227.913 1025.68 323.044 1149.47 357.844 1223.44C359.191 1226.3 359.607 1229.51 359.036 1232.62C358.464 1235.73 356.933 1238.59 354.658 1240.78C352.382 1242.98 349.477 1244.41 346.348 1244.87C343.219 1245.33 340.025 1244.8 337.213 1243.35C304.781 1226.97 270.68 1214.13 235.499 1205.05C236.443 1219.82 232.757 1234.52 224.954 1247.1C217.152 1259.68 205.622 1269.51 191.968 1275.23C178.315 1280.95 163.218 1282.27 148.78 1279C134.341 1275.74 121.279 1268.06 111.413 1257.02L42.9458 1181.4C-16.2042 1181.65 -62.3847 1188.79 -91.1577 1197.91L211.323 1348.86C211.46 1348.93 211.597 1349 211.733 1349.07C218.626 1352.78 224.221 1358.5 227.767 1365.48C231.313 1372.46 232.639 1380.35 231.569 1388.11C230.499 1395.86 227.083 1403.1 221.779 1408.86C216.476 1414.61 209.539 1418.61 201.899 1420.31L101.084 1448.92ZM-88.532 1502.72L-85.5024 1583.23C-85.3955 1586.35 -84.131 1589.31 -81.9554 1591.55C-79.7798 1593.79 -76.849 1595.14 -73.7346 1595.33C-70.9023 1595.38 -68.1269 1594.53 -65.8174 1592.89C-63.508 1591.25 -61.7866 1588.91 -60.9069 1586.22L-25.3696 1484.79L-88.532 1502.72ZM-136.174 1280.52C-138.624 1280.06 -141.159 1280.4 -143.393 1281.51C-145.627 1282.62 -147.436 1284.43 -148.546 1286.67L-251.791 1491.23C-252.964 1493.41 -253.6 1495.83 -253.647 1498.31C-253.694 1500.78 -253.151 1503.23 -252.062 1505.45C-250.5 1508.46 -247.945 1510.83 -244.83 1512.17C-241.716 1513.51 -238.235 1513.72 -234.978 1512.79L-119.692 1480.08L-126.761 1292.19C-126.776 1289.74 -127.537 1287.34 -128.943 1285.33C-130.35 1283.32 -132.335 1281.78 -134.635 1280.92C-135.139 1280.75 -135.653 1280.62 -136.174 1280.52L-136.174 1280.52ZM-360.319 1309.02C-392.45 1312.56 -430.476 1318.7 -441.391 1334.77C-443.56 1337.97 -446.079 1343.48 -442.922 1354.46C-439.322 1366.98 -403.799 1407.39 -365.086 1438.78C-362.717 1440.79 -359.883 1442.16 -356.843 1442.78C-353.804 1443.4 -350.658 1443.24 -347.695 1442.33C-336.065 1438.35 -336.144 1424.91 -336.446 1420.89C-338.115 1398.6 -346.121 1361.11 -360.319 1309.02L-360.319 1309.02ZM57.7807 1370.38L57.6565 1370.36C54.8063 1369.85 51.8675 1370.37 49.3685 1371.83C46.8695 1373.29 44.9744 1375.6 44.0239 1378.34L22.5129 1439.73L69.745 1426.33L67.7288 1381.74C67.6007 1379 66.5473 1376.39 64.7404 1374.32C62.9335 1372.26 60.48 1370.87 57.7808 1370.38L57.7807 1370.38ZM-234.249 1139.31C-239.715 1139.76 -245.157 1140.17 -250.534 1140.57C-295.003 1143.9 -337.005 1147.04 -351.771 1168.54C-360.212 1180.83 -360.315 1200.94 -352.075 1228.3C-346.942 1245.34 -342.245 1261.35 -337.984 1276.32C-330.807 1275.6 -324.108 1274.88 -318.382 1274.05C-268.565 1266.83 -237.2 1251.83 -225.157 1229.44C-212.515 1205.94 -220.329 1173.35 -234.249 1139.31ZM84.6539 1182.34L133.924 1236.76C137.552 1240.83 141.958 1244.14 146.882 1246.49C151.806 1248.83 157.149 1250.17 162.598 1250.43C168.046 1250.68 173.49 1249.84 178.611 1247.96C183.731 1246.08 188.424 1243.2 192.415 1239.48C198.02 1234.22 202.039 1227.5 204.018 1220.08C205.996 1212.65 205.854 1204.82 203.608 1197.47C164.413 1189.33 124.64 1184.27 84.6539 1182.34ZM-224.283 873.785C-237.602 880.964 -248.489 891.935 -255.565 905.309C-285.208 961.238 -254.181 1025.76 -226.806 1082.69C-224.078 1088.37 -221.397 1093.94 -218.825 1099.41C-217.644 1101.92 -216.454 1104.47 -215.254 1107.08C-173.312 1102.32 -135.994 1092.38 -122.957 1059.84C-106.309 1018.29 -140.318 966.814 -224.283 873.785ZM14.7844 982.932C-8.66614 1001.93 -21.5684 1033.94 -14.453 1060.93C-10.3465 1076.5 -0.82678 1087.92 10.271 1100.18L56.4367 1151.17C60.1479 1151.22 63.8823 1151.29 67.64 1151.39C104.076 1152.36 140.407 1155.78 176.387 1161.61L14.7844 982.932ZM224.506 1171.12C253.341 1177.77 281.642 1186.56 309.172 1197.41C267.206 1128.36 193.406 1037.98 134.823 995.177C94.2615 965.543 63.5084 963.242 42.6808 968.625L217.253 1161.64C219.933 1164.59 222.36 1167.76 224.506 1171.12ZM557.539 1196.04C565.432 1203.26 573.901 1209.83 582.86 1215.67C610.347 1233.32 634.345 1236.85 654.191 1226.17C672.315 1216.42 687.445 1199.79 699.03 1179.85C682.867 1165.52 668.549 1149.24 656.406 1131.38C643.776 1112.93 634.493 1092.4 628.982 1070.73L580.18 1078.44C586.082 1116.94 581.658 1161.04 562.148 1189.84C560.676 1192.01 559.14 1194.08 557.539 1196.04ZM373.855 1111.08C395.321 1145.2 442.667 1186.05 495.699 1191.52C500.696 1192.09 505.749 1191.93 510.7 1191.05C503.966 1183.1 498.875 1176.28 495.677 1171.77C476.105 1144.22 465.775 1119 460.837 1097.32L373.855 1111.08ZM490.982 1092.55C496.85 1114.76 506.817 1135.68 520.369 1154.24C525.22 1161.07 530.529 1167.77 536.135 1174.2C536.452 1173.76 536.764 1173.31 537.073 1172.85C551.877 1151 555.152 1114.73 550.325 1083.17L490.982 1092.55ZM658.983 1065.98C663.77 1083.29 671.397 1099.69 681.553 1114.5C690.545 1127.76 700.93 1140.03 712.53 1151.08C724.268 1119.55 728.363 1084.6 723.254 1056.41C723.219 1056.22 723.184 1056.03 723.149 1055.83L658.983 1065.98ZM512.408 1016.13C511.018 1015.86 509.593 1015.83 508.192 1016.03C498.63 1017.44 492.361 1030.05 489.684 1041.39C488.08 1048.31 487.259 1055.38 487.237 1062.48L542.855 1053.69C541.483 1050 539.888 1046.41 538.078 1042.92C533.991 1035.13 523.932 1018.27 512.408 1016.13ZM157.288 808.752C172.094 819.548 186.303 831.14 199.853 843.476C241.052 881.115 277.013 924.115 306.771 971.322C307.65 940.189 311.81 909.236 319.182 878.975C280.716 845.7 246.035 802.289 226.007 748.835C206.096 772.003 182.952 792.182 157.288 808.752ZM680.683 985.718C678.477 985.247 676.18 985.472 674.108 986.364C665.635 989.822 658.238 1002.76 655.702 1018.55C654.812 1024.33 654.442 1030.17 654.596 1036.01L715.303 1026.41C709.209 1010.12 700.947 998.227 690.349 990.391C687.522 988.122 684.217 986.524 680.683 985.718ZM353.532 867.949C395.245 900.671 440.031 921.271 472.237 928.035C484.67 891.334 502.595 856.731 525.402 825.404C515.321 811.548 503.797 798.801 491.025 787.378C462.607 762.308 437.622 756.498 414.643 769.619C387.864 784.909 366.893 822.743 353.532 867.95L353.532 867.949ZM31.0128 782.973C19.0516 780.675 6.86186 779.789 -5.30598 780.334C-24.0287 781.275 -42.3282 787.902 -47.871 795.75C-48.598 796.689 -49.0657 797.804 -49.2274 798.981C-49.389 800.158 -49.239 801.357 -48.7922 802.458C-43.3332 820.718 4.5509 836.15 59.5147 820.05C72.179 816.356 84.6122 811.912 96.7487 806.742C76.1392 795.597 53.984 787.586 31.0128 782.973ZM562.662 826.203C580.338 854.206 594.715 884.159 605.506 915.466C636.355 868.218 670.453 830.791 707.147 803.953C745.994 775.54 786.813 759.445 828.47 756.114C830.705 755.935 832.936 755.796 835.163 755.695C829.892 731.526 818.909 712.965 800.015 704.002C777.648 693.391 741.6 697.75 701.118 715.966C655.087 736.68 603.723 775.064 562.662 826.203ZM-221.537 638.159C-194.253 652.826 -165.202 663.936 -135.094 671.219C-72.8698 686.005 -9.60344 682.485 53.4186 660.79C-33.1803 627.185 -152.429 616.726 -221.537 638.159ZM290.577 402.722C279.762 422.911 264.09 460.726 251.879 512.817C243.143 550.084 232.109 614.007 239.737 676.778C246.398 664.84 252.395 652.543 257.7 639.944C284.174 577.298 291.675 514.483 293.304 472.818C294.458 449.418 293.545 425.962 290.577 402.722ZM-429 400.088C-402.483 419.99 -374.451 437.788 -345.16 453.32C-254.29 502.071 -152.593 532.348 -83.3419 532.205C-119.743 451.91 -203.694 400.003 -252.773 375.355C-327.392 337.881 -399.585 322.154 -438.233 324.695C-442.023 344.426 -438.787 370.672 -429 400.088ZM-60.6727 357.947C-59.9288 359.644 -59.1758 361.333 -58.4139 363.017C-21.4384 444.71 36.7071 511.275 110.933 557.339C89.6545 498.396 42.3527 424.631 -60.6727 357.947ZM454.505 513.008C457.206 536.19 477.652 555.656 507.723 562.72C571.692 577.745 665.998 563.397 757.486 526.078C679.929 514.085 527.834 495.449 454.505 513.008L454.505 513.008ZM70.0203 170.326C82.1708 189.014 97.1176 205.727 114.339 219.88L142.755 184.667L70.0203 170.326ZM567.903 237.623L652.296 254.263L593.315 204.215L567.903 237.623ZM428.379 210.113L492.211 222.699L496.694 80.8866L428.379 210.113ZM308.7 186.517L360.483 196.727L361.802 88.3754L308.7 186.517ZM197.822 164.655L239.334 172.84L239.074 113.535L197.822 164.655Z" fill="#19194B"/>
</svg>
