<svg width="1440" height="1890" viewBox="0 0 1440 1890" fill="none" xmlns="http://www.w3.org/2000/svg">
<path opacity="0.1" d="M928.1 1822.82C918.349 1821.97 909.185 1817.8 902.139 1811.01C895.093 1804.22 890.593 1795.21 889.392 1785.5L859.687 1577.96L800.897 1601L770.349 1725.81C768.179 1735 763.066 1743.22 755.789 1749.24C748.513 1755.25 739.47 1758.72 730.039 1759.12C719.455 1759.47 709.119 1755.86 701.042 1749.01C692.965 1742.17 687.725 1732.56 686.34 1722.06L676.546 1649.73L572.079 1690.66C562.487 1694.37 551.918 1694.69 542.117 1691.58C532.317 1688.47 523.87 1682.11 518.172 1673.55C514.215 1667.42 511.782 1660.43 511.075 1653.17C510.369 1645.91 511.41 1638.58 514.111 1631.81L596.857 1418.74C600.42 1409.38 607.248 1401.63 616.079 1396.92C624.911 1392.21 635.148 1390.86 644.902 1393.1C653.284 1395.1 660.86 1399.6 666.62 1406.01C672.38 1412.41 676.052 1420.43 677.145 1428.97L701.329 1607.56L775.275 1578.59L795.764 1494.88C798.105 1485.32 803.693 1476.88 811.573 1471C819.452 1465.12 829.132 1462.15 838.955 1462.62C848.778 1463.09 858.133 1466.96 865.417 1473.56C872.702 1480.17 877.463 1489.1 878.886 1498.83L884.192 1535.91L975.367 1500.18C975.713 1500.05 976.064 1499.93 976.42 1499.82C977.988 1499.33 979.371 1498.38 980.384 1497.09C981.397 1495.8 981.991 1494.23 982.088 1492.59C982.185 1490.95 981.779 1489.32 980.925 1487.92C980.072 1486.52 978.81 1485.41 977.31 1484.75L633.259 1352.93C630.826 1352 628.676 1350.45 627.016 1348.44C625.357 1346.43 624.245 1344.03 623.79 1341.46C623.334 1338.9 623.549 1336.26 624.415 1333.8C625.281 1331.34 626.767 1329.15 628.73 1327.44C652.517 1306.68 707.56 1289.13 775.471 1279.74L744.394 1251.47C730.351 1238.7 715.978 1224.44 708.049 1203.03C694.399 1166.19 706.529 1121.49 735.264 1092.15C662.046 1029.62 599.616 1003.78 544.889 1013.22C543.465 1013.47 542.056 1013.74 540.662 1014.04C627.001 1093.41 674.989 1150.63 657.539 1210.4C644.128 1256.33 602.214 1274.63 556.476 1285.36C562.172 1296.57 567.013 1308.2 570.955 1320.14C579.815 1347.82 579.93 1371.29 571.305 1391.89C557.415 1425.06 521.784 1448.28 462.378 1462.87C457.65 1464.03 452.453 1465.15 446.949 1466.27C465.862 1516.41 477.144 1552.57 481.192 1575.91C485.397 1600.16 475.048 1621.77 454.826 1630.96C447.321 1634.31 439.082 1635.69 430.894 1634.97C422.705 1634.24 414.837 1631.43 408.038 1626.81C381.024 1608.94 321.804 1563.36 311.178 1536.52C304.613 1519.94 305.014 1504.7 312.369 1491.22C327.246 1463.97 367.509 1451.97 405.836 1443.74C400.745 1430.85 395.247 1417.21 389.343 1402.82C374.662 1367.06 373.365 1339.1 385.378 1317.36C404.971 1281.9 453.31 1273.52 504.487 1264.65C506.278 1264.34 508.072 1264.03 509.867 1263.72C507.239 1259.32 504.532 1254.86 501.785 1250.33C467.193 1193.3 424.143 1122.31 453.985 1049.8C460.99 1032.65 472.365 1017.63 486.979 1006.24C484.519 1004.04 482.027 1001.82 479.503 999.57C420.381 946.929 393.409 897.421 399.338 852.421C402.109 831.386 412.123 812.454 428.776 796.362C411.1 786.297 394.084 775.116 377.832 762.886C325.805 723.797 280.517 673.632 250.31 621.632C245.475 613.308 241.109 605.097 237.214 596.999C221.052 586.71 205.557 575.409 190.822 563.165C146.078 525.693 118.405 485.55 108.57 443.851C107.797 440.574 108.141 437.132 109.548 434.072C110.955 431.013 113.344 428.511 116.335 426.964C156.835 406.019 223.553 392.904 294.806 391.883C383.091 390.617 477.244 407.558 562.1 439.24C541.663 383.273 531.23 324.757 532.679 270.702C532.753 267.912 533.599 265.198 535.122 262.86C536.645 260.522 538.785 258.652 541.306 257.456C543.827 256.26 546.63 255.786 549.404 256.085C552.178 256.385 554.815 257.447 557.022 259.154L744.231 403.89L766.496 370.054C733.383 347.573 708.205 320.601 690.963 289.136C689.645 286.725 689.01 284.001 689.126 281.256C689.241 278.512 690.103 275.85 691.618 273.559C693.133 271.267 695.245 269.432 697.725 268.251C700.205 267.07 702.96 266.588 705.694 266.856L826.605 278.705L894.721 175.189C896.436 172.583 898.915 170.572 901.819 169.432C904.723 168.291 907.908 168.077 910.938 168.82C913.968 169.562 916.693 171.225 918.741 173.578C920.788 175.932 922.057 178.862 922.372 181.965L933.275 289.159L941.307 289.946L1011.99 122.287C1013.31 119.175 1015.62 116.592 1018.57 114.951C1021.53 113.311 1024.94 112.706 1028.28 113.234C1031.61 113.763 1034.68 115.394 1036.98 117.866C1039.28 120.339 1040.68 123.512 1040.97 126.877L1055.78 301.165L1062.52 301.825L1146.1 98.096C1147.4 94.9366 1149.73 92.3095 1152.71 90.6431C1155.69 88.9767 1159.14 88.3693 1162.51 88.92C1165.89 89.4708 1168.97 91.147 1171.26 93.6756C1173.56 96.2041 1174.93 99.4357 1175.15 102.843L1188.99 314.22L1201.63 315.458L1239.8 253.674C1240.87 251.928 1242.3 250.421 1243.98 249.243C1245.66 248.065 1247.56 247.242 1249.57 246.823C1251.58 246.405 1253.65 246.4 1255.66 246.809C1257.67 247.217 1259.58 248.032 1261.26 249.202L1385.47 335.399C1388.22 337.306 1390.26 340.071 1391.27 343.26C1392.27 346.449 1392.19 349.883 1391.04 353.022C1389.89 356.162 1387.72 358.83 1384.89 360.608C1382.06 362.386 1378.71 363.173 1375.39 362.847L1217.44 347.368L1191.15 389.937C1189.46 392.662 1186.96 394.782 1183.99 395.99C1181.02 397.198 1177.75 397.432 1174.64 396.658C1171.53 395.885 1168.75 394.143 1166.7 391.685C1164.64 389.228 1163.42 386.181 1163.22 382.985L1160.52 341.79L1081.94 334.09L1061.21 384.633C1059.92 387.769 1057.62 390.381 1054.67 392.049C1051.71 393.718 1048.29 394.346 1044.94 393.831C1041.59 393.317 1038.51 391.691 1036.19 389.215C1033.88 386.738 1032.46 383.555 1032.18 380.178L1027.81 328.784L960.505 322.188L939.773 371.363C938.469 374.455 936.173 377.025 933.247 378.668C930.32 380.311 926.93 380.932 923.612 380.435C920.293 379.937 917.234 378.349 914.918 375.92C912.602 373.491 911.161 370.361 910.821 367.022L905.716 316.819L841.817 310.557L808.88 360.611C1022.42 475.501 1459.91 392.038 1465.12 391.017C1468.67 390.323 1472.35 390.923 1475.49 392.709L1653.51 493.892C1656.59 495.643 1658.96 498.422 1660.2 501.743C1661.44 505.063 1661.47 508.713 1660.29 512.055C1659.11 515.398 1656.79 518.219 1653.75 520.025C1650.7 521.831 1647.11 522.508 1643.61 521.938C1641.14 521.535 1394.72 482.047 1239.28 518.503C1191.05 529.814 1165.14 549.922 1154.31 570.108C1264.24 541.239 1489.34 558.307 1503.67 560.639C1506.71 561.133 1509.52 562.54 1511.73 564.672C1513.94 566.803 1515.45 569.559 1516.06 572.571C1516.66 575.583 1516.34 578.708 1515.12 581.529C1513.9 584.351 1511.86 586.735 1509.25 588.363C1407.85 651.738 1295.66 685.684 1213.14 678.468C1209.61 678.16 1206.15 677.778 1202.74 677.318C1162.48 671.901 1131.44 647.795 1121.37 616.082C1084.92 638.117 1073.28 669.649 1078.83 692.559C1085.69 720.945 1121.02 748.779 1199.57 741.773C1368.94 726.664 1655.66 577.288 1723.18 538.113C1725.35 536.854 1727.8 536.156 1730.3 536.08C1732.81 536.003 1735.3 536.553 1737.54 537.678L1794.04 566.034C1797.59 567.815 1800.29 570.922 1801.57 574.681C1802.85 578.441 1802.59 582.552 1800.86 586.125C1731.94 728.34 1699.54 863.723 1699.22 865.074C1698.6 867.699 1697.29 870.11 1695.42 872.057C1693.56 874.004 1691.2 875.416 1688.61 876.145C1686.01 876.875 1683.26 876.896 1680.66 876.207C1678.05 875.518 1675.67 874.143 1673.78 872.225C1656.3 854.551 1626.05 838.066 1587.38 835.809C1589.89 857.073 1590.6 878.51 1589.51 899.893C1586.33 974.649 1566.6 1052.32 1555.44 1086.43C1554.65 1088.84 1553.27 1091.01 1551.43 1092.74C1549.58 1094.48 1547.33 1095.72 1544.88 1096.36L1497.58 1108.63C1507.5 1143.74 1505.89 1189.11 1492.91 1230.03C1524.27 1249.61 1562.72 1265.98 1607.97 1278.97C1611.13 1279.88 1613.92 1281.8 1615.89 1284.44C1617.86 1287.07 1618.92 1290.28 1618.91 1293.57C1618.89 1296.87 1617.8 1300.06 1615.8 1302.68C1613.8 1305.29 1611 1307.18 1607.82 1308.06C1520.24 1332.25 1477.15 1389.44 1457.87 1425.98C1478.69 1420.92 1500.59 1422.65 1520.37 1430.92C1563.41 1448.59 1593.74 1484.73 1608.08 1535.43C1614.55 1558.38 1617.47 1582.19 1616.73 1606.03C1616.55 1609.06 1615.46 1611.96 1613.61 1614.36C1611.75 1616.76 1609.22 1618.54 1606.34 1619.48C1603.46 1620.42 1600.36 1620.47 1597.45 1619.63C1594.54 1618.79 1591.95 1617.09 1590.01 1614.75C1542.6 1557.46 1502.19 1545.14 1474.43 1546.43C1488.6 1552.89 1501.09 1562.53 1510.94 1574.59C1526.82 1594.58 1532.83 1619.6 1528.79 1648.96C1520.62 1708.32 1465.92 1736.55 1449.28 1735.1C1445.34 1734.75 1441.68 1732.87 1439.11 1729.86C1436.54 1726.85 1435.25 1722.95 1435.53 1719C1439.49 1662.18 1419.7 1640.2 1413.54 1634.82C1413.09 1634.43 1412.64 1634.06 1412.21 1633.72C1405.29 1668.98 1382.87 1693.73 1347.72 1704.31C1301.09 1718.35 1241.77 1703.73 1225.92 1681.92C1224.58 1680.07 1223.67 1677.94 1223.27 1675.7C1222.87 1673.45 1222.98 1671.14 1223.6 1668.94C1224.21 1666.75 1225.32 1664.72 1226.84 1663.01C1228.35 1661.3 1230.23 1659.96 1232.34 1659.08C1302.98 1629.71 1351.96 1571.98 1363.38 1504.66C1370.78 1461.02 1359.84 1421.23 1334.12 1398.22C1294.97 1363.17 1253.31 1367.32 1225.58 1376.73C1261.39 1391.25 1297.85 1416.96 1315.58 1451.83C1330.93 1481.99 1330.53 1515.66 1314.44 1549.21C1313.13 1551.92 1311.05 1554.18 1308.46 1555.7C1305.87 1557.22 1302.88 1557.94 1299.87 1557.75C1296.87 1557.56 1293.99 1556.48 1291.61 1554.65C1289.22 1552.82 1287.44 1550.32 1286.49 1547.46C1285.11 1543.41 1251.26 1447.53 1149.65 1459.15C1112.13 1463.44 1091.51 1483.6 1080.7 1500.17C1148.43 1492.1 1203.93 1505.42 1235.52 1538.02C1255.86 1559.01 1263.95 1586.59 1257.73 1613.71C1257.14 1616.26 1255.9 1618.62 1254.13 1620.55C1252.35 1622.48 1250.11 1623.92 1247.61 1624.72C1245.12 1625.52 1242.45 1625.65 1239.89 1625.11C1237.33 1624.57 1234.94 1623.37 1232.98 1621.64C1194.42 1587.46 1131.93 1591.79 1077.48 1632.41C1036.44 1663.04 1010.37 1710.16 1001.07 1729C986.569 1758.36 971.168 1796.67 971.013 1797.05C970.949 1797.21 970.882 1797.37 970.812 1797.53C967.229 1805.68 961.182 1812.5 953.521 1817.04C945.859 1821.57 936.969 1823.59 928.1 1822.82ZM888.59 1566.64L919.303 1781.22C919.602 1783.79 920.649 1786.21 922.312 1788.19C923.976 1790.17 926.184 1791.62 928.664 1792.36C931.49 1793.09 934.482 1792.8 937.118 1791.55C939.753 1790.3 941.866 1788.16 943.088 1785.51C944.669 1781.58 959.467 1745 973.974 1715.62C984.241 1694.83 1013.12 1642.74 1059.41 1608.2C1115.16 1566.6 1179.12 1557.4 1227.52 1581.73C1224.85 1573.18 1220.15 1565.4 1213.82 1559.05C1185.62 1529.94 1127.46 1520.69 1058.25 1534.31C1055.76 1534.79 1053.19 1534.65 1050.77 1533.88C1048.35 1533.12 1046.17 1531.76 1044.42 1529.93C1042.66 1528.09 1041.4 1525.85 1040.74 1523.4C1040.08 1520.95 1040.05 1518.38 1040.65 1515.91C1041.42 1512.77 1060.32 1438.95 1146.22 1429.13C1212.26 1421.57 1254.81 1451.71 1278.89 1478.31C1285.36 1485.49 1291.26 1493.16 1296.53 1501.25C1297.08 1488.86 1294.36 1476.54 1288.65 1465.53C1269.94 1428.75 1220.82 1402.27 1181.97 1395.11C1179.07 1394.57 1176.38 1393.2 1174.25 1391.15C1172.11 1389.1 1170.63 1386.47 1169.98 1383.59C1169.32 1380.7 1169.53 1377.69 1170.57 1374.92C1171.62 1372.16 1173.45 1369.76 1175.84 1368.02C1193.15 1356.37 1212.48 1348.06 1232.85 1343.51C1277.62 1333.54 1319.61 1344.68 1354.27 1375.7C1387.77 1405.68 1402.31 1455.78 1393.17 1509.71C1381.52 1578.43 1336.44 1638.26 1270.54 1674.25C1288.16 1679.58 1314.42 1682.78 1339.01 1675.38C1367.57 1666.79 1382.77 1646.12 1384.18 1613.96C1384.33 1610.6 1385.59 1607.39 1387.77 1604.83C1389.95 1602.27 1392.92 1600.51 1396.21 1599.83C1408.12 1597.36 1421.69 1601.82 1433.42 1612.07C1458.31 1633.82 1464.9 1670.05 1466.01 1696.84C1474.83 1690.97 1482.32 1683.3 1487.98 1674.34C1493.64 1665.38 1497.35 1655.33 1498.85 1644.84C1501.73 1623.98 1497.83 1606.67 1487.28 1593.39C1468.09 1569.24 1433.53 1564.35 1423.39 1563.42C1420.42 1563.15 1417.6 1562.01 1415.28 1560.14C1412.96 1558.27 1411.25 1555.76 1410.35 1552.91C1409.46 1550.07 1409.42 1547.03 1410.25 1544.17C1411.09 1541.3 1412.74 1538.75 1415.02 1536.83C1416.19 1535.84 1444.23 1512.67 1488.57 1516.55L1488.81 1516.57C1520.86 1519.44 1552.61 1535.31 1583.56 1563.85C1582.34 1556.76 1580.75 1549.74 1578.77 1542.83C1566.8 1501.24 1543.29 1472.99 1508.9 1458.87C1470.76 1443.22 1440.01 1465.92 1438.72 1466.9C1436.22 1468.79 1433.19 1469.86 1430.06 1469.96C1426.93 1470.06 1423.84 1469.18 1421.23 1467.45C1418.61 1465.72 1416.6 1463.22 1415.47 1460.3C1414.34 1457.37 1414.14 1454.17 1414.91 1451.13C1416.14 1446.35 1443.53 1344.85 1557.13 1294.16C1530.89 1284.69 1505.6 1272.75 1481.61 1258.51C1469.96 1282.49 1453.78 1303.27 1433.13 1317.12C1405.05 1335.95 1369.62 1335.34 1330.68 1315.38C1318.29 1308.94 1306.51 1301.38 1295.5 1292.8C1283.37 1299.94 1269.47 1303.53 1255.4 1303.14C1251.27 1303.12 1247.14 1302.92 1243.03 1302.56C1175.96 1296.7 1112.19 1247.63 1089.39 1202.19C1088.38 1200.17 1087.84 1197.96 1087.79 1195.71C1087.75 1193.46 1088.21 1191.22 1089.14 1189.17C1090.07 1187.12 1091.45 1185.3 1093.17 1183.85C1094.9 1182.4 1096.92 1181.35 1099.1 1180.79L1205.13 1153.28C1203.73 1142.36 1203.73 1131.29 1205.16 1120.37C1208.96 1092.31 1223.03 1073.27 1243.76 1068.13C1266.43 1062.51 1289.45 1075.51 1308.58 1104.72C1312.5 1110.79 1315.91 1117.17 1318.78 1123.8L1368.92 1110.79C1367.54 1101.88 1367.1 1092.84 1367.59 1083.83C1369.26 1056.95 1381.24 1034.5 1398.84 1025.23C1412.81 1017.88 1429.19 1019.04 1444.96 1028.48C1462.78 1039.16 1476.8 1056.15 1487.41 1080.05L1529.21 1069.21C1547.49 1009.92 1567.17 908.333 1557.12 836.952C1554.53 837.293 1551.91 837.698 1549.27 838.17C1471.35 852.089 1400.67 920.896 1350.25 1031.91C1348.98 1034.71 1346.88 1037.06 1344.24 1038.64C1341.6 1040.21 1338.55 1040.95 1335.48 1040.74C1332.41 1040.53 1329.48 1039.4 1327.08 1037.48C1324.67 1035.56 1322.91 1032.96 1322.02 1030.01C1317.86 1016.15 1300.36 973.175 1270.06 931.691C1252.82 963.112 1240.59 997.027 1233.8 1032.22C1233.15 1035.7 1231.29 1038.85 1228.55 1041.1C1225.81 1043.36 1222.36 1044.57 1218.81 1044.54C1215.62 1044.51 1212.21 1044.34 1208.61 1044.03C1175.71 1041.15 1126.8 1026.25 1078.35 997.846C1073.3 1045.65 1076.4 1096.48 1087.95 1135.67C1089 1139.23 1088.7 1143.06 1087.11 1146.42C1085.51 1149.78 1082.73 1152.43 1079.3 1153.87C1075.87 1155.31 1072.04 1155.43 1068.52 1154.22C1065.01 1153 1062.06 1150.53 1060.26 1147.28C1027.25 1087.95 971.14 1025.47 910.157 980.155C892.721 967.102 874.355 955.338 855.206 944.959C837.02 956.462 817.811 966.262 797.824 974.236C733.165 1000.21 665.167 989.388 649.339 950.61C647.048 945.319 646.035 939.562 646.38 933.807C646.726 928.051 648.421 922.458 651.329 917.479C662.847 897.271 692.248 886.347 713.927 883.133C745.924 878.388 793.005 880.891 853.289 909.894C884.67 887.402 911.181 858.799 931.229 825.803C905.404 748.821 911.823 661.787 918.563 614.06C927.153 553.235 947.246 481.239 967.564 467.616C971.175 464.991 975.618 463.769 980.063 464.178C984.508 464.588 988.653 466.601 991.723 469.843C1003.02 481.64 1010.71 524.512 1013.85 557.641C1019.02 611.432 1016.02 665.695 1004.95 718.588C996.885 757.027 983.213 794.072 964.371 828.533C965.556 831.532 966.8 834.503 968.104 837.448C987.968 882.241 1020.41 918.629 1056.34 946.488C1067.61 898.621 1087.78 857.732 1116.88 837.147C1139.53 821.115 1177.48 809.911 1229.59 847.58C1242.84 857.253 1255.17 868.132 1266.41 880.079C1304.51 824.385 1353.34 780.543 1398.6 754.637C1445.42 727.841 1488.86 719.447 1520.91 731.002C1550.77 741.765 1571.02 766.701 1581.51 805.457C1616.38 806.143 1649.61 816.4 1675.92 834.736C1699.46 749.581 1730.01 666.518 1767.25 586.395L1731.23 568.321C1651.4 613.531 1371.69 756.754 1202.25 771.869C1160.26 775.615 1125.18 770.586 1097.98 756.921C1072.53 744.134 1055.3 723.8 1049.46 699.666C1038.73 655.348 1066.88 608.897 1118.62 583.225C1123.67 547.327 1155.34 507.153 1232.38 489.085C1300.3 473.155 1391.03 468.834 1502.04 476.241C1527.6 477.947 1551.35 480.115 1571.96 482.295L1465.36 421.709C1435.71 427.113 1292.02 451.73 1136.75 451.641C1034.22 451.582 946.563 440.933 876.215 419.987C847.121 411.575 818.997 400.113 792.311 385.791L760.51 434.12C759.366 435.858 757.875 437.341 756.131 438.476C754.388 439.612 752.428 440.374 750.375 440.717C748.323 441.059 746.222 440.974 744.204 440.466C742.186 439.959 740.295 439.04 738.648 437.767L563.4 302.279C566.344 352.397 579.371 405.293 600.888 455.047C610.424 459.274 619.79 463.692 628.989 468.302C709.587 508.713 814.124 582.49 854.429 704.477C855.33 707.205 855.434 710.133 854.731 712.918C854.027 715.703 852.544 718.229 850.456 720.201C848.367 722.174 845.76 723.509 842.939 724.052C840.118 724.595 837.201 724.323 834.53 723.267C734.776 683.84 653.371 613.145 599.116 518.827C591.509 505.604 584.496 491.991 578.106 478.104C490.169 440.936 389.236 420.748 295.24 422.095C235.775 422.948 178.406 432.953 141.345 448.611C152.87 482.552 179.524 516.117 218.791 547.103C213.203 524.424 212.358 503.806 216.522 486.323C217.148 483.696 218.466 481.284 220.34 479.34C222.214 477.395 224.575 475.988 227.178 475.266C273.773 462.331 363.092 475.216 444.385 506.599C582.639 559.973 634.867 638.025 653.693 679.801C654.625 681.868 655.079 684.117 655.023 686.383C654.966 688.649 654.401 690.874 653.368 692.891C652.336 694.909 650.862 696.669 649.057 698.04C647.252 699.411 645.162 700.358 642.941 700.811C570.151 715.667 447.466 694.852 337.656 649.016C320.726 641.949 304.402 634.407 288.817 626.468C318.031 669.601 354.252 707.544 395.981 738.729C414.712 752.837 434.528 765.441 455.246 776.424C458.906 774.247 462.733 772.155 466.728 770.148C546.545 730.056 706.733 730.782 809.528 771.7C812.173 772.753 814.468 774.533 816.146 776.833C817.824 779.133 818.818 781.861 819.014 784.702C819.209 787.543 818.597 790.381 817.249 792.889C815.901 795.398 813.871 797.474 811.394 798.879C740.977 838.818 667.506 855.697 592.759 849.16C586.788 848.637 580.813 847.966 574.833 847.146C534.132 841.334 494.573 829.272 457.554 811.387C443.741 822.253 431.846 837.009 429.295 856.368C424.818 890.352 449.128 932.067 499.596 977.003C504.714 981.559 509.735 986.046 514.66 990.461C522.758 987.259 531.168 984.907 539.753 983.444C605.101 972.173 677.19 1001.6 759.774 1073.39C796.777 1052.88 844.285 1057.63 893.639 1086.81C973.645 1134.12 1080.07 1247.85 1121.77 1317.94C1123.38 1320.65 1124.11 1323.8 1123.84 1326.94C1123.57 1330.09 1122.33 1333.07 1120.28 1335.47C1118.23 1337.87 1115.49 1339.57 1112.42 1340.33C1109.36 1341.09 1106.14 1340.87 1103.21 1339.71C1069.42 1326.57 1034.32 1317.11 998.505 1311.49C1000.87 1326.07 998.629 1341.02 992.096 1354.27C985.564 1367.51 975.064 1378.39 962.059 1385.39C949.054 1392.39 934.191 1395.16 919.538 1393.31C904.886 1391.47 891.173 1385.1 880.309 1375.09L805.016 1306.61C746.305 1312.57 701.138 1324.13 673.449 1335.97L988.391 1456.63C988.534 1456.69 988.677 1456.75 988.819 1456.8C996.022 1459.82 1002.13 1464.96 1006.33 1471.55C1010.52 1478.14 1012.6 1485.85 1012.29 1493.65C1011.97 1501.45 1009.28 1508.97 1004.57 1515.2C999.86 1521.43 993.358 1526.07 985.935 1528.5L888.59 1566.64ZM705.501 1638.38L716.288 1718.04C716.695 1721.12 718.237 1723.95 720.614 1725.96C722.99 1727.97 726.031 1729.02 729.142 1728.91C731.96 1728.7 734.633 1727.58 736.768 1725.73C738.903 1723.87 740.386 1721.39 740.999 1718.63L766.49 1614.48L705.501 1638.38ZM636.729 1422.35C634.251 1422.12 631.767 1422.71 629.656 1424.03C627.545 1425.35 625.923 1427.32 625.037 1429.64L542.277 1642.75C541.323 1645.02 540.925 1647.49 541.117 1649.95C541.309 1652.41 542.086 1654.79 543.382 1656.89C545.223 1659.73 547.99 1661.84 551.212 1662.87C554.433 1663.89 557.911 1663.77 561.055 1662.53L672.373 1618.91L647.202 1433.03C646.95 1430.59 645.963 1428.29 644.373 1426.42C642.782 1424.56 640.662 1423.22 638.295 1422.59C637.779 1422.47 637.255 1422.39 636.728 1422.35L636.729 1422.35ZM416.908 1472.3C385.344 1478.91 348.178 1488.69 338.892 1505.7C337.046 1509.08 335.078 1514.8 339.273 1525.4C344.058 1537.49 383.235 1574.18 424.709 1601.61C427.255 1603.37 430.203 1604.46 433.28 1604.78C436.358 1605.1 439.467 1604.65 442.321 1603.45C453.485 1598.38 452.108 1585.04 451.42 1581.08C447.61 1559.1 436.037 1522.65 416.908 1472.3L416.908 1472.3ZM838.004 1492.84L837.878 1492.83C834.999 1492.59 832.131 1493.4 829.791 1495.09C827.451 1496.79 825.792 1499.26 825.112 1502.07L809.683 1565.11L855.289 1547.24L848.98 1503.16C848.588 1500.45 847.29 1497.96 845.296 1496.08C843.302 1494.2 840.732 1493.06 838.004 1492.84L838.004 1492.84ZM525.699 1291.6C520.315 1292.57 514.95 1293.5 509.649 1294.42C465.814 1302.02 424.41 1309.2 411.825 1331.98C404.63 1345 406.47 1364.97 417.295 1391.35C424.04 1407.78 430.25 1423.22 435.927 1437.67C442.984 1436.26 449.566 1434.9 455.172 1433.52C503.943 1421.54 533.638 1403.61 543.434 1380.22C553.717 1355.66 542.81 1324.06 525.699 1291.6ZM846.523 1303.52L900.705 1352.8C904.702 1356.49 909.396 1359.35 914.512 1361.21C919.628 1363.06 925.063 1363.87 930.498 1363.6C935.933 1363.32 941.258 1361.97 946.161 1359.6C951.064 1357.24 955.446 1353.93 959.049 1349.85C964.107 1344.09 967.449 1337.02 968.696 1329.46C969.943 1321.9 969.046 1314.13 966.105 1307.05C926.398 1302.75 886.415 1301.57 846.523 1303.52ZM509.944 1026.97C497.412 1035.39 487.661 1047.33 481.927 1061.3C457.894 1119.7 494.937 1180.77 527.62 1234.66C530.877 1240.03 534.078 1245.31 537.16 1250.49C538.575 1252.86 540.004 1255.29 541.448 1257.76C582.636 1248.98 618.732 1235.51 628.534 1201.93C641.051 1159.06 602.308 1111.24 509.944 1026.97ZM757.88 1112.26C736.429 1133.39 726.71 1166.42 736.383 1192.54C741.965 1207.6 752.52 1218.02 764.725 1229.12L815.493 1275.29C819.183 1274.98 822.898 1274.69 826.639 1274.43C862.914 1271.88 899.319 1271.76 935.611 1274.07L757.88 1112.26ZM984.311 1278.87C1013.59 1282.69 1042.54 1288.68 1070.92 1296.8C1022.58 1232.28 940.567 1149.66 878.26 1112.82C835.12 1087.31 804.36 1088 784.199 1095.36L976.193 1270.16C979.14 1272.83 981.856 1275.74 984.311 1278.87ZM1317.42 1271.44C1325.95 1277.85 1335 1283.55 1344.46 1288.49C1373.46 1303.35 1397.63 1304.54 1416.3 1292.02C1433.36 1280.59 1446.77 1262.61 1456.35 1241.7C1438.92 1229.03 1423.13 1214.25 1409.34 1197.68C1395.02 1180.58 1383.82 1161.09 1376.25 1140.1L1328.54 1152.48C1338.12 1190.14 1337.99 1234.36 1321.4 1264.84C1320.14 1267.14 1318.82 1269.34 1317.42 1271.44ZM1126.81 1204.82C1151.43 1236.62 1202.39 1272.62 1255.57 1272.93C1260.59 1273.01 1265.59 1272.37 1270.42 1271.01C1262.97 1263.77 1257.26 1257.48 1253.64 1253.32C1231.55 1227.85 1218.85 1203.81 1211.86 1182.75L1126.81 1204.82ZM1241.33 1175.11C1249.3 1196.6 1261.22 1216.41 1276.47 1233.52C1281.95 1239.83 1287.87 1245.98 1294.05 1251.82C1294.33 1251.35 1294.59 1250.88 1294.86 1250.39C1307.44 1227.26 1307.19 1190.94 1299.35 1160.06L1241.33 1175.11ZM1405.59 1132.49C1412.01 1149.22 1421.17 1164.76 1432.68 1178.49C1442.9 1190.79 1454.39 1201.97 1466.98 1211.83C1475.59 1179.38 1476.28 1144.28 1468.48 1116.78C1468.43 1116.59 1468.38 1116.41 1468.32 1116.22L1405.59 1132.49ZM1255.22 1097.15C1253.82 1097.02 1252.4 1097.12 1251.03 1097.46C1241.67 1099.78 1236.66 1112.91 1235.1 1124.43C1234.17 1131.45 1234.04 1138.56 1234.71 1145.61L1289.08 1131.5C1287.37 1127.98 1285.44 1124.56 1283.3 1121.28C1278.49 1113.93 1266.87 1098.17 1255.22 1097.15ZM882.558 925.533C898.303 934.824 913.533 944.962 928.18 955.902C972.726 989.297 1012.59 1028.52 1046.7 1072.52C1044.56 1041.52 1045.7 1010.39 1050.1 979.625C1008.69 950.298 970.058 910.543 945.007 859.398C927.474 884.327 906.441 906.6 882.558 925.533ZM1419.38 1050.7C1417.14 1050.44 1414.88 1050.89 1412.91 1051.97C1404.83 1056.23 1398.74 1069.78 1397.75 1085.71C1397.42 1091.53 1397.62 1097.37 1398.34 1103.16L1457.69 1087.76C1450.06 1072.17 1440.71 1061.16 1429.43 1054.4C1426.4 1052.42 1422.97 1051.16 1419.38 1050.7ZM1083.15 965.358C1127.73 993.821 1174.19 1009.95 1206.82 1013.55C1215.62 975.91 1230.08 939.818 1249.7 906.507C1238.35 893.722 1225.68 882.178 1211.89 872.068C1181.25 849.92 1155.88 846.564 1134.33 861.813C1109.21 879.583 1092.05 919.177 1083.15 965.358L1083.15 965.358ZM754.678 912.134C742.578 911.007 730.388 911.305 718.359 913.022C699.858 915.765 682.327 924.114 677.581 932.441C676.95 933.445 676.593 934.596 676.546 935.781C676.5 936.966 676.764 938.142 677.314 939.192C684.499 956.796 733.538 967.495 786.562 946.198C798.78 941.306 810.697 935.692 822.249 929.386C800.707 920.31 777.934 914.496 754.678 912.134ZM1286.78 903.701C1307.03 929.8 1324.2 958.154 1337.94 988.199C1364.01 938.303 1394.26 897.844 1428.1 867.649C1463.93 835.683 1502.91 815.757 1543.95 808.425C1546.15 808.032 1548.35 807.678 1550.56 807.363C1542.99 783.872 1530.29 766.503 1510.66 759.427C1487.43 751.051 1452.05 758.862 1413.61 780.862C1369.91 805.877 1322.61 848.954 1286.78 903.701ZM489.908 792.733C518.418 804.661 548.339 812.887 578.939 817.21C642.156 825.882 704.639 816.273 765.123 788.643C675.885 763.639 556.461 764.773 489.908 792.733ZM975.689 509.473C966.9 530.565 954.991 569.63 947.897 622.535C942.823 660.384 938.041 724.925 951.68 786.52C957.141 774.022 961.908 761.232 965.959 748.208C986.196 683.444 987.575 620.344 985.168 578.814C984.053 555.467 980.881 532.263 975.689 509.473ZM260.901 576.372C289.154 593.573 318.709 608.538 349.296 621.132C444.238 660.762 548.147 681.003 616.899 674.171C572.996 597.955 484.619 554.522 433.503 534.788C355.787 504.785 282.581 496.142 244.449 502.399C242.592 522.358 248.341 548.107 260.901 576.372ZM622.575 498.944C623.478 500.557 624.389 502.162 625.308 503.76C669.916 581.309 734.085 641.79 812.24 680.361C785.417 623.887 731.321 555.208 622.575 498.944ZM1149.12 603.149C1154.04 625.909 1176.23 643.263 1206.77 647.373C1271.74 656.112 1364 632.755 1451.24 586.859C1373.07 582.442 1220.24 578.63 1149.12 603.149ZM734.227 300.013C748.098 317.396 764.555 332.548 783.022 344.938L807.837 307.227L734.227 300.013ZM1235.12 318.74L1320.53 327.111L1257.13 283.111L1235.12 318.74ZM1093.92 304.902L1158.52 311.233L1149.27 169.982L1093.92 304.902ZM972.798 293.032L1025.2 298.168L1016.05 190.449L972.798 293.032ZM860.585 282.035L902.597 286.153L896.61 227.288L860.585 282.035Z" fill="#19194B"/>
</svg>
