<svg width="1065" height="788" viewBox="0 0 1065 788" fill="none" xmlns="http://www.w3.org/2000/svg">
<path opacity="0.1" d="M1183.91 1569.57C1176.22 1572.07 1167.89 1571.86 1160.34 1568.97C1152.78 1566.08 1146.44 1560.67 1142.39 1553.67L1052.71 1405.28L1015.4 1441.81L1032.48 1546.7C1033.79 1554.39 1032.56 1562.31 1028.96 1569.23C1025.37 1576.16 1019.6 1581.73 1012.55 1585.08C1004.61 1588.76 995.577 1589.36 987.215 1586.76C978.853 1584.15 971.759 1578.53 967.312 1570.98L936.484 1519.09L870.184 1584.01C864.08 1589.93 856.139 1593.59 847.673 1594.39C839.207 1595.19 830.721 1593.07 823.617 1588.4C818.625 1585.01 814.515 1580.48 811.631 1575.18C808.746 1569.88 807.172 1563.97 807.038 1557.93L801.179 1368.99C800.869 1360.72 803.563 1352.62 808.763 1346.18C813.964 1339.74 821.319 1335.4 829.471 1333.96C836.496 1332.77 843.718 1333.74 850.173 1336.76C856.629 1339.78 862.012 1344.69 865.606 1350.84L941.725 1478.98L988.655 1433.03L977.203 1362.68C975.898 1354.66 977.425 1346.42 981.521 1339.4C985.618 1332.37 992.03 1326.99 999.659 1324.17C1007.29 1321.35 1015.66 1321.28 1023.34 1323.95C1031.02 1326.63 1037.53 1331.89 1041.76 1338.84L1057.78 1365.35L1115.64 1308.69C1115.86 1308.47 1116.09 1308.26 1116.32 1308.07C1117.36 1307.19 1118.11 1306.02 1118.46 1304.71C1118.81 1303.4 1118.76 1302.01 1118.3 1300.73C1117.85 1299.45 1117.01 1298.35 1115.91 1297.55C1114.81 1296.76 1113.49 1296.33 1112.13 1296.31L807.625 1307.13C805.472 1307.21 803.335 1306.73 801.423 1305.74C799.511 1304.74 797.888 1303.27 796.712 1301.47C795.536 1299.66 794.847 1297.58 794.712 1295.43C794.576 1293.28 795 1291.13 795.941 1289.19C807.34 1265.7 843.573 1234.56 892.235 1205.46L859.443 1193.99C844.626 1188.8 829.076 1182.59 816.123 1168.86C793.826 1145.22 788.617 1107.28 801.01 1075.65C725.068 1051.71 669.191 1052.21 630.581 1077.08C629.576 1077.73 628.592 1078.4 627.629 1079.08C719.002 1111.6 774.024 1139.65 780.053 1190.79C784.686 1230.09 758.692 1257.56 727.338 1280.51C735.298 1287.2 742.74 1294.49 749.6 1302.3C765.29 1320.52 772.961 1338.34 773.051 1356.81C773.196 1386.55 753.574 1415.74 713.065 1446.04C709.841 1448.46 706.247 1450.99 702.421 1453.62C733.018 1485.68 753.292 1509.56 763.916 1526.02C774.953 1543.12 774.057 1562.91 761.633 1576.45C757.003 1581.42 751.177 1585.14 744.709 1587.23C738.241 1589.32 731.345 1589.73 724.675 1588.41C698.336 1583.53 638.524 1567.97 621.764 1550.97C611.407 1540.47 606.787 1528.74 608.033 1516.1C610.551 1490.55 637.325 1468.41 663.842 1449.76C655.8 1441.58 647.207 1432.98 638.063 1423.93C615.331 1401.45 605.311 1380.59 607.431 1360.16C610.888 1326.84 644.978 1304.83 681.07 1281.54C682.333 1280.73 683.598 1279.91 684.864 1279.09C681.444 1276.6 677.94 1274.07 674.385 1271.51C629.622 1239.27 573.914 1199.15 573.198 1134.3C572.989 1118.98 576.796 1103.88 584.241 1090.48C581.658 1089.6 579.042 1088.72 576.394 1087.82C514.376 1066.85 477.846 1037.88 467.818 1001.71C463.131 984.798 464.637 967.15 472.114 949.518C455.406 947.568 438.839 944.555 422.515 940.497C370.277 927.552 319.592 903.997 279.793 874.172C273.423 869.398 267.446 864.558 261.864 859.652C246.236 857.042 230.789 853.446 215.615 848.886C169.444 834.819 135.406 813.202 114.445 784.636C112.797 782.391 111.947 779.659 112.03 776.876C112.112 774.092 113.122 771.415 114.899 769.271C138.962 740.239 185.514 708.697 239.426 684.895C306.225 655.403 383.374 637.875 458.209 634.574C424.566 598.573 397.715 557.398 381.351 515.779C380.507 513.632 380.273 511.293 380.677 509.021C381.081 506.749 382.106 504.633 383.639 502.908C385.171 501.183 387.152 499.917 389.36 499.248C391.569 498.58 393.919 498.536 396.151 499.122L585.435 548.81L591.451 515.857C558.979 509.444 531.097 497.047 507.803 478.666C506.021 477.256 504.658 475.387 503.859 473.261C503.06 471.134 502.856 468.83 503.269 466.596C503.682 464.362 504.696 462.282 506.202 460.582C507.709 458.881 509.65 457.624 511.818 456.944L607.692 426.894L626.096 326.081C626.56 323.543 627.797 321.21 629.639 319.404C631.481 317.598 633.837 316.406 636.383 315.992C638.93 315.578 641.542 315.963 643.861 317.093C646.18 318.223 648.092 320.043 649.336 322.304L692.273 400.383L698.643 398.387L698.276 247.914C698.269 245.121 699.198 242.406 700.915 240.203C702.632 238 705.038 236.436 707.748 235.76C710.458 235.084 713.316 235.336 715.866 236.475C718.417 237.615 720.511 239.576 721.817 242.045L789.414 369.936L794.755 368.262L792.55 186.163C792.516 183.339 793.439 180.587 795.17 178.355C796.901 176.123 799.337 174.544 802.08 173.874C804.824 173.204 807.714 173.483 810.278 174.666C812.842 175.85 814.93 177.867 816.201 180.389L895.04 336.829L905.062 333.688L914.149 274.322C914.406 272.645 915.001 271.037 915.9 269.598C916.798 268.158 917.98 266.917 919.374 265.949C920.768 264.981 922.345 264.308 924.008 263.969C925.67 263.631 927.385 263.635 929.046 263.981L1051.46 289.463C1054.16 290.027 1056.61 291.473 1058.41 293.575C1060.2 295.678 1061.25 298.317 1061.39 301.08C1061.52 303.842 1060.74 306.572 1059.16 308.841C1057.58 311.11 1055.29 312.79 1052.65 313.617L927.405 352.872L921.145 393.775C920.744 396.393 919.522 398.816 917.654 400.694C915.786 402.573 913.369 403.809 910.753 404.224C908.137 404.639 905.457 404.213 903.099 403.005C900.742 401.798 898.829 399.872 897.637 397.507L882.272 367.019L819.967 386.547L820.514 431.724C820.548 434.527 819.638 437.26 817.931 439.484C816.224 441.708 813.818 443.292 811.102 443.984C808.385 444.675 805.515 444.433 802.952 443.295C800.39 442.158 798.284 440.192 796.974 437.714L777.041 400.002L723.676 416.728L723.783 460.862C723.79 463.637 722.872 466.336 721.175 468.532C719.479 470.728 717.099 472.297 714.412 472.99C711.724 473.684 708.883 473.463 706.335 472.363C703.787 471.262 701.678 469.345 700.341 466.913L680.231 430.345L629.565 446.226L620.665 494.973C820.352 513.432 1126.42 308.526 1130.06 306.065C1132.54 304.39 1135.53 303.658 1138.5 304.002L1306.72 323.504C1309.63 323.842 1312.33 325.193 1314.35 327.32C1316.36 329.447 1317.57 332.215 1317.75 335.14C1317.93 338.066 1317.08 340.962 1315.34 343.322C1313.6 345.683 1311.09 347.358 1308.24 348.053C1306.23 348.545 1105.88 398.113 999.331 476.093C966.27 500.289 953.043 523.969 951.324 542.834C1025.68 485.336 1202.55 425.59 1214.22 422.734C1216.69 422.13 1219.28 422.293 1221.65 423.201C1224.03 424.109 1226.07 425.719 1227.5 427.816C1228.94 429.913 1229.7 432.398 1229.68 434.938C1229.67 437.479 1228.88 439.955 1227.42 442.037C1170.71 523.049 1096.27 585.143 1031.12 606.316C1028.34 607.22 1025.58 608.047 1022.83 608.8C990.434 617.686 959.019 609.363 941.1 588.478C920.478 617.028 921.805 644.794 933.428 660.443C947.829 679.833 983.714 689.607 1041.25 658.891C1165.3 592.659 1335.31 386.295 1374.04 334.656C1375.29 332.997 1376.92 331.674 1378.81 330.806C1380.69 329.938 1382.76 329.553 1384.83 329.685L1437.01 333.013C1440.28 333.223 1443.35 334.713 1445.53 337.163C1447.72 339.613 1448.85 342.825 1448.69 346.105C1442.18 476.637 1461.26 590.168 1461.46 591.3C1461.83 593.498 1461.61 595.758 1460.82 597.843C1460.03 599.928 1458.69 601.764 1456.95 603.158C1455.21 604.553 1453.13 605.456 1450.92 605.774C1448.71 606.092 1446.46 605.813 1444.4 604.966C1425.38 597.16 1397.02 594.385 1366.86 605.16C1375.64 620.538 1383.11 636.628 1389.19 653.258C1410.93 711.193 1421.01 776.698 1423.53 806.271C1423.71 808.358 1423.36 810.457 1422.52 812.374C1421.67 814.291 1420.36 815.965 1418.7 817.241L1386.65 841.867C1405.56 865.384 1418.99 900.451 1422.33 935.789C1452.53 940.565 1487.09 940.605 1525.74 935.873C1528.44 935.542 1531.18 936.103 1533.53 937.471C1535.89 938.839 1537.73 940.939 1538.78 943.451C1539.83 945.964 1540.03 948.751 1539.36 951.388C1538.68 954.025 1537.15 956.369 1535.02 958.062C1476.16 1004.78 1461.85 1062.24 1458.97 1096.28C1473.19 1085.71 1490.42 1079.95 1508.15 1079.85C1546.63 1079.39 1581.39 1097.1 1608.69 1131.06C1621.03 1146.45 1630.95 1163.63 1638.09 1182.02C1638.93 1184.38 1639.04 1186.94 1638.4 1189.36C1637.77 1191.79 1636.42 1193.97 1634.53 1195.61C1632.64 1197.26 1630.29 1198.3 1627.81 1198.6C1625.32 1198.9 1622.8 1198.44 1620.57 1197.29C1565.96 1169 1531.22 1172.68 1510.5 1182.62C1523.38 1182.97 1536 1186.27 1547.4 1192.27C1565.95 1202.35 1578.6 1219.46 1585.01 1243.11C1597.97 1290.94 1565.46 1330.11 1552.32 1334.38C1549.21 1335.39 1545.82 1335.14 1542.89 1333.68C1539.96 1332.22 1537.72 1329.66 1536.65 1326.57C1521.31 1282.04 1499.14 1271.7 1492.71 1269.59C1492.24 1269.44 1491.79 1269.3 1491.34 1269.18C1497.47 1298.26 1488.4 1324.35 1465.06 1343.76C1434.1 1369.51 1384.22 1377.55 1365.1 1366.07C1363.48 1365.1 1362.11 1363.77 1361.07 1362.19C1360.04 1360.61 1359.38 1358.82 1359.14 1356.94C1358.9 1355.07 1359.09 1353.17 1359.69 1351.38C1360.29 1349.59 1361.29 1347.96 1362.61 1346.61C1406.89 1301.42 1425.53 1241.65 1412.47 1186.71C1404 1151.11 1382.81 1124.35 1355.8 1115.14C1314.67 1101.11 1284.3 1117.73 1266.23 1133.85C1298.18 1133.33 1334.24 1141.13 1359.01 1161.94C1380.44 1179.94 1391.01 1205.7 1389.6 1236.44C1389.49 1238.93 1388.64 1241.32 1387.15 1243.32C1385.67 1245.31 1383.62 1246.82 1381.28 1247.65C1378.93 1248.48 1376.39 1248.59 1373.99 1247.96C1371.58 1247.34 1369.41 1246.01 1367.76 1244.15C1365.41 1241.51 1308.65 1179.45 1235.06 1221.13C1207.88 1236.52 1198.7 1258.53 1195.83 1274.64C1244.77 1246.61 1291.33 1238.82 1325.91 1253.42C1348.18 1262.83 1363.25 1281.21 1367.28 1303.87C1367.66 1306 1367.47 1308.2 1366.75 1310.24C1366.02 1312.28 1364.77 1314.1 1363.13 1315.52C1361.49 1316.93 1359.51 1317.9 1357.38 1318.31C1355.25 1318.73 1353.06 1318.59 1351 1317.9C1310.6 1304.34 1264.43 1327.83 1236.11 1376.35C1214.76 1412.93 1210.14 1457.23 1209.15 1474.57C1207.6 1501.61 1208.25 1535.75 1208.26 1536.09C1208.26 1536.23 1208.26 1536.37 1208.26 1536.52C1208.16 1543.88 1205.77 1551.03 1201.4 1556.96C1197.03 1562.88 1190.92 1567.29 1183.91 1569.57ZM1071.06 1387.32L1163.77 1540.74C1164.83 1542.6 1166.41 1544.11 1168.32 1545.08C1170.23 1546.05 1172.38 1546.44 1174.5 1546.2C1176.89 1545.84 1179.07 1544.66 1180.67 1542.85C1182.28 1541.05 1183.19 1538.74 1183.27 1536.32C1183.2 1532.82 1182.65 1500.19 1184.2 1473.14C1185.29 1454 1190.45 1405.01 1214.53 1363.76C1243.52 1314.07 1289.24 1286.41 1333.95 1289.29C1329.15 1283.64 1323.06 1279.24 1316.19 1276.44C1285.31 1263.4 1238.05 1275.15 1189.76 1307.88C1188.03 1309.06 1186.02 1309.78 1183.93 1309.98C1181.85 1310.17 1179.74 1309.84 1177.82 1309.02C1175.89 1308.19 1174.2 1306.89 1172.91 1305.24C1171.62 1303.58 1170.76 1301.63 1170.42 1299.56C1169.99 1296.93 1160.53 1234.62 1222.75 1199.38C1270.57 1172.3 1312.71 1181.48 1339.63 1193.96C1346.88 1197.33 1353.85 1201.26 1360.48 1205.72C1356.89 1196.11 1350.84 1187.61 1342.93 1181.07C1316.81 1159.12 1270.86 1154.83 1238.97 1161.94C1236.58 1162.47 1234.09 1162.29 1231.81 1161.42C1229.52 1160.55 1227.54 1159.03 1226.11 1157.04C1224.68 1155.06 1223.87 1152.7 1223.77 1150.25C1223.67 1147.81 1224.29 1145.39 1225.55 1143.3C1234.96 1128.83 1246.99 1116.26 1261.02 1106.21C1291.89 1084.16 1327.45 1079.07 1363.86 1091.49C1399.05 1103.48 1426.31 1136.92 1436.78 1180.93C1450.11 1237.01 1435.13 1297.12 1396.59 1345.81C1411.73 1344.18 1432.75 1338.13 1449.08 1324.55C1468.05 1308.78 1472.94 1288.14 1463.62 1263.2C1462.65 1260.59 1462.57 1257.74 1463.4 1255.09C1464.23 1252.43 1465.92 1250.13 1468.21 1248.55C1476.48 1242.82 1488.25 1241.84 1500.49 1245.85C1526.47 1254.36 1543.19 1279.81 1552.69 1299.85C1557.52 1292.53 1560.74 1284.27 1562.15 1275.62C1563.56 1266.97 1563.14 1258.12 1560.89 1249.65C1556.34 1232.84 1547.78 1220.92 1535.46 1214.22C1513.05 1202.04 1485.16 1209.49 1477.14 1212.06C1474.79 1212.81 1472.28 1212.85 1469.91 1212.18C1467.54 1211.5 1465.42 1210.14 1463.82 1208.27C1462.22 1206.39 1461.21 1204.09 1460.92 1201.64C1460.62 1199.19 1461.06 1196.72 1462.18 1194.52C1462.75 1193.38 1476.6 1166.69 1511.61 1155.31L1511.8 1155.25C1537.13 1147.08 1566.43 1148.9 1599.21 1160.63C1595.99 1155.62 1592.51 1150.79 1588.77 1146.17C1566.22 1118.38 1539.19 1104.47 1508.45 1104.84C1474.36 1105.24 1458.28 1132.46 1457.62 1133.62C1456.33 1135.87 1454.37 1137.66 1452.02 1138.75C1449.66 1139.84 1447.03 1140.17 1444.48 1139.7C1441.93 1139.22 1439.59 1137.97 1437.79 1136.11C1435.98 1134.25 1434.8 1131.87 1434.4 1129.31C1433.79 1125.28 1421.84 1039.16 1491.94 963.865C1468.9 965.13 1445.8 964.213 1422.93 961.126C1421.81 983.145 1416.21 1004.19 1404.96 1021.41C1389.67 1044.81 1362.51 1055.8 1326.41 1053.19C1314.89 1052.29 1303.49 1050.34 1292.33 1047.37C1285.4 1056.72 1275.98 1063.94 1265.15 1068.2C1262 1069.51 1258.79 1070.7 1255.54 1071.75C1202.59 1088.96 1138.19 1072.21 1106.15 1044.99C1104.73 1043.78 1103.6 1042.27 1102.84 1040.57C1102.08 1038.87 1101.71 1037.02 1101.75 1035.16C1101.8 1033.3 1102.26 1031.47 1103.1 1029.81C1103.95 1028.15 1105.15 1026.7 1106.63 1025.56L1178.46 970.36C1173.86 962.496 1170.29 954.072 1167.84 945.297C1161.67 922.703 1166.23 903.662 1180.35 893.055C1195.79 881.453 1217.51 883.908 1241.52 899.967C1246.46 903.318 1251.12 907.072 1255.45 911.189L1289.41 885.086C1285.48 878.745 1282.22 872.011 1279.69 864.994C1272.28 843.989 1274.14 823.027 1284.54 810.287C1292.8 800.176 1305.64 795.762 1320.7 797.857C1337.72 800.225 1353.88 808.629 1369.68 823.395L1398 801.634C1392.75 750.596 1374.91 666.9 1344.19 615.811C1342.33 616.907 1340.47 618.062 1338.61 619.275C1283.79 655.05 1252.22 730.268 1249.71 831.074C1249.65 833.616 1248.81 836.078 1247.31 838.131C1245.81 840.184 1243.72 841.732 1241.32 842.566C1238.92 843.4 1236.32 843.481 1233.87 842.799C1231.42 842.117 1229.24 840.704 1227.61 838.748C1219.96 829.538 1192.75 802.478 1156.28 780.69C1153.31 810.179 1154.96 839.95 1161.16 868.932C1161.79 871.798 1161.39 874.794 1160.03 877.396C1158.68 879.997 1156.45 882.037 1153.73 883.159C1151.3 884.168 1148.64 885.141 1145.8 886.063C1119.82 894.506 1077.77 898.966 1031.71 893.001C1043.32 931.023 1062.1 968.718 1083.56 994.814C1085.51 997.19 1086.52 1000.2 1086.39 1003.27C1086.26 1006.35 1085 1009.26 1082.86 1011.47C1080.71 1013.67 1077.83 1015 1074.76 1015.21C1071.69 1015.42 1068.66 1014.5 1066.23 1012.61C1021.93 978.103 959.028 948.673 897.96 933.881C880.469 929.578 862.687 926.558 844.755 924.845C834.628 939.478 823.172 953.146 810.533 965.675C769.703 1006.34 714.442 1020.07 689.863 995.669C686.409 992.382 683.777 988.327 682.181 983.834C680.584 979.341 680.067 974.535 680.672 969.805C682.91 950.7 701.762 932.883 717.227 923.431C740.052 909.48 776.701 896.171 831.965 898.77C848.586 871.508 859.525 841.167 864.125 809.571C819.59 759.312 796.352 690.982 786.061 652.471C772.946 603.392 764.977 542.091 776.042 525.155C777.943 521.99 780.93 519.624 784.446 518.5C787.963 517.375 791.768 517.568 795.153 519.044C807.567 524.373 827.27 554.527 840.371 578.73C861.685 618.01 876.933 660.288 885.6 704.13C891.882 735.998 893.445 768.617 890.237 800.939C892.107 802.839 894.015 804.699 895.959 806.519C925.555 834.199 962.007 851.418 998.366 861.014C991.476 820.934 993.621 783.288 1009.12 758.217C1021.18 738.691 1046.45 717.9 1098.29 729.736C1111.51 732.818 1124.41 737.117 1136.83 742.578C1147.83 687.871 1170.84 638.716 1196.92 604.369C1223.9 568.842 1254.26 548.416 1282.39 546.855C1308.6 545.401 1332.07 557.84 1352.58 583.953C1379.35 573.208 1407.96 570.278 1433.91 575.736C1424.32 503.301 1420.74 430.197 1423.19 357.172L1389.93 355.05C1343.77 415.263 1177.12 614.676 1053.02 680.935C1022.26 697.355 993.93 704.862 968.81 703.249C945.302 701.739 925.612 691.829 913.368 675.343C890.883 645.071 897.298 600.615 928.391 564.353C920.637 535.393 931.766 494.575 984.573 455.928C1031.13 421.853 1098.8 389.246 1185.7 359.014C1205.71 352.054 1224.49 346.03 1240.89 341.029L1140.16 329.351C1119.33 343.048 1017.91 408.218 899.672 458.325C821.603 491.411 751.433 511.629 691.111 518.416C666.245 521.413 641.131 521.776 616.189 519.496L607.596 566.563C607.287 568.256 606.632 569.866 605.671 571.294C604.71 572.722 603.465 573.936 602.013 574.86C600.561 575.784 598.934 576.398 597.234 576.663C595.534 576.929 593.797 576.841 592.132 576.404L414.942 529.89C433.378 567.093 460.387 603.151 492.845 634.073C501.469 634.21 510.028 634.546 518.52 635.083C592.935 639.802 696.354 662.187 766.455 742.027C768.022 743.812 769.048 746.007 769.412 748.354C769.777 750.702 769.464 753.104 768.512 755.281C767.559 757.457 766.006 759.316 764.034 760.641C762.062 761.966 759.753 762.701 757.379 762.761C668.699 764.98 583.885 737.468 512.105 683.199C502.042 675.591 492.304 667.494 482.952 658.988C403.999 659.108 320.639 676.355 249.519 707.754C204.527 727.619 164.087 753.773 140.933 777.669C160.674 799.782 191.811 816.721 231.716 827.622C220.134 812.162 212.828 796.739 210.348 782.085C209.976 779.883 210.201 777.621 210.999 775.535C211.797 773.449 213.14 771.615 214.887 770.225C246.179 745.321 318.337 726.267 390.364 723.89C512.858 719.846 577.838 762.388 605.669 788.106C607.046 789.379 608.119 790.944 608.808 792.688C609.498 794.431 609.786 796.307 609.652 798.177C609.518 800.046 608.965 801.862 608.034 803.489C607.102 805.116 605.817 806.512 604.273 807.575C553.661 842.405 453.54 866.204 355.135 866.794C339.964 866.885 325.1 866.418 310.67 865.411C346.847 888.806 386.681 905.987 428.525 916.242C447.343 920.929 466.501 924.121 485.822 925.787C487.904 922.947 490.142 920.118 492.535 917.299C540.341 860.987 662.52 809.777 753.996 807.71C756.35 807.657 758.672 808.27 760.693 809.479C762.714 810.687 764.352 812.443 765.418 814.543C766.485 816.642 766.936 819 766.721 821.345C766.505 823.69 765.631 825.927 764.199 827.797C723.499 880.955 673.023 917.546 614.008 936.723C609.294 938.254 604.528 939.674 599.711 940.982C566.849 949.709 532.837 953.31 498.876 951.657C491.872 964.393 487.585 979.47 491.899 995.031C499.472 1022.35 531.458 1046.25 584.398 1064.15C589.766 1065.96 595.038 1067.76 600.214 1069.53C605.344 1064.47 610.986 1059.96 617.049 1056.08C663.154 1026.38 727.543 1025.49 813.606 1053.45C835.147 1025.88 872.85 1014.15 919.851 1020.41C996.042 1030.57 1113.81 1082.77 1168.2 1122.64C1170.31 1124.19 1171.88 1126.35 1172.69 1128.83C1173.5 1131.31 1173.52 1133.98 1172.73 1136.47C1171.95 1138.96 1170.41 1141.14 1168.32 1142.71C1166.24 1144.28 1163.71 1145.15 1161.1 1145.21C1131.14 1146.13 1101.36 1150.27 1072.28 1157.57C1078.79 1167.9 1081.92 1180.01 1081.23 1192.2C1080.53 1204.4 1076.06 1216.07 1068.42 1225.6C1060.78 1235.13 1050.36 1242.04 1038.61 1245.37C1026.86 1248.7 1014.36 1248.28 1002.86 1244.18L923.41 1216.37C880.643 1239.89 849.992 1263.27 832.739 1281.24L1111.48 1271.32C1111.61 1271.32 1111.74 1271.32 1111.86 1271.32C1118.32 1271.28 1124.64 1273.23 1129.96 1276.89C1135.28 1280.54 1139.35 1285.74 1141.64 1291.78C1143.92 1297.83 1144.3 1304.42 1142.73 1310.68C1141.15 1316.95 1137.7 1322.58 1132.84 1326.82L1071.06 1387.32ZM954.86 1501.09L988.811 1558.25C990.119 1560.47 992.205 1562.12 994.664 1562.88C997.123 1563.64 999.778 1563.46 1002.11 1562.37C1004.19 1561.3 1005.86 1559.58 1006.89 1557.48C1007.91 1555.38 1008.24 1553.01 1007.81 1550.71L993.566 1463.19L954.86 1501.09ZM832.698 1358.86C830.739 1359.49 829.038 1360.74 827.857 1362.42C826.676 1364.11 826.078 1366.13 826.155 1368.19L832.015 1557.16C832.023 1559.2 832.519 1561.21 833.46 1563.02C834.401 1564.83 835.761 1566.39 837.426 1567.57C839.744 1569.14 842.533 1569.85 845.317 1569.59C848.102 1569.33 850.711 1568.12 852.702 1566.15L923.349 1496.98L844.122 1363.6C843.143 1361.83 841.647 1360.4 839.834 1359.49C838.02 1358.59 835.975 1358.25 833.969 1358.54C833.538 1358.62 833.114 1358.72 832.698 1358.86L832.698 1358.86ZM681.498 1467.92C659.607 1483.15 634.473 1502.6 632.901 1518.56C632.589 1521.73 632.939 1526.72 639.557 1533.43C647.105 1541.08 688.785 1556.35 729.224 1563.84C731.73 1564.35 734.326 1564.23 736.773 1563.48C739.219 1562.73 741.438 1561.38 743.225 1559.55C750.083 1552.08 744.726 1542.37 742.921 1539.57C732.919 1524.08 712.33 1500.06 681.498 1467.92L681.498 1467.92ZM1008.7 1347.48L1008.6 1347.51C1006.33 1348.27 1004.41 1349.81 1003.18 1351.85C1001.94 1353.9 1001.48 1356.32 1001.87 1358.67L1010.49 1411.65L1039.44 1383.31L1020.39 1351.79C1019.22 1349.86 1017.42 1348.38 1015.3 1347.59C1013.17 1346.81 1010.85 1346.77 1008.7 1347.48L1008.7 1347.48ZM705.927 1295.2C702.142 1297.68 698.358 1300.13 694.62 1302.54C663.706 1322.49 634.507 1341.33 632.286 1362.74C631.017 1374.98 638.872 1389.59 655.634 1406.17C666.078 1416.49 675.796 1426.24 684.788 1435.41C689.705 1432.06 694.274 1428.89 698.097 1426.03C731.354 1401.16 748.165 1377.91 748.063 1356.93C747.955 1334.92 729.441 1314.39 705.927 1295.2ZM954.009 1200.61L1011.18 1220.62C1015.42 1222.14 1019.91 1222.79 1024.41 1222.55C1028.9 1222.31 1033.3 1221.17 1037.35 1219.21C1041.4 1217.24 1045.01 1214.49 1047.98 1211.11C1050.95 1207.73 1053.22 1203.78 1054.64 1199.52C1056.63 1193.5 1056.89 1187.04 1055.4 1180.88C1053.9 1174.72 1050.71 1169.1 1046.18 1164.66C1014.57 1174.21 983.748 1186.23 954.009 1200.61ZM608.422 1098.84C601.601 1109.3 598.039 1121.55 598.186 1134.03C598.762 1186.25 646.697 1220.78 688.989 1251.24C693.204 1254.27 697.347 1257.26 701.366 1260.2C703.212 1261.55 705.083 1262.94 706.981 1264.36C735.5 1244.36 758.623 1222.44 755.236 1193.72C750.912 1157.03 705.964 1133.15 608.422 1098.84ZM824.725 1083.65C815.223 1106.67 818.5 1134.96 834.301 1151.71C843.419 1161.38 854.82 1165.89 867.697 1170.4L921.266 1189.15C923.974 1187.72 926.709 1186.3 929.471 1184.89C956.261 1171.22 983.937 1159.37 1012.31 1149.4L824.725 1083.65ZM1050.94 1137.32C1074.46 1130.76 1098.43 1125.97 1122.66 1122.98C1065.01 1089.49 975.884 1053.09 916.548 1045.18C875.465 1039.7 852.27 1050.17 839.299 1062.28L1041.94 1133.31C1045.05 1134.39 1048.06 1135.73 1050.94 1137.32ZM1302.11 1024.02C1310.68 1026.14 1319.41 1027.56 1328.21 1028.27C1355.09 1030.21 1373.87 1023.31 1384.04 1007.74C1393.33 993.523 1397.74 975.505 1398.27 956.487C1380.91 952.479 1364.11 946.326 1348.26 938.17C1331.83 929.78 1317.01 918.562 1304.47 905.032L1272.14 929.873C1291.61 955.446 1305.79 989.148 1303.01 1017.71C1302.8 1019.87 1302.5 1021.97 1302.11 1024.02ZM1135.49 1034.9C1164.5 1051.16 1214.93 1062.09 1255.52 1045.14C1259.36 1043.58 1262.96 1041.48 1266.2 1038.88C1258.19 1035.78 1251.81 1032.84 1247.71 1030.84C1222.66 1018.59 1205.23 1004.39 1193.1 990.622L1135.49 1034.9ZM1213.06 975.277C1226.08 989.06 1241.55 1000.29 1258.69 1008.39C1264.9 1011.43 1271.39 1014.19 1277.99 1016.64C1278.05 1016.19 1278.1 1015.75 1278.14 1015.29C1280.25 993.618 1268.32 966.044 1252.37 945.07L1213.06 975.277ZM1324.34 889.76C1334.63 900.417 1346.63 909.291 1359.83 916.02C1371.58 922.085 1383.94 926.877 1396.71 930.313C1392.78 902.835 1381.96 875.89 1367.14 857.474C1367.04 857.349 1366.94 857.223 1366.84 857.098L1324.34 889.76ZM1198.45 911.44C1197.34 911.796 1196.29 912.335 1195.36 913.034C1188.98 917.824 1189.41 929.441 1191.95 938.714C1193.51 944.358 1195.71 949.809 1198.49 954.962L1235.33 926.651C1232.88 924.524 1230.31 922.549 1227.62 920.736C1221.59 916.698 1207.65 908.451 1198.45 911.44ZM859.3 901.218C874.288 903.203 889.158 905.999 903.843 909.595C948.546 920.623 991.566 937.602 1031.75 960.076C1020.11 937.167 1010.92 913.094 1004.32 888.257C963.322 879.313 921.067 861.532 885.469 830.692C880.177 855.335 871.364 879.088 859.3 901.218ZM1308.41 823.033C1306.62 823.562 1305.05 824.632 1303.9 826.095C1299.12 831.943 1298.86 844.234 1303.25 856.68C1304.89 861.217 1306.92 865.598 1309.34 869.772L1349.55 838.87C1338.7 829.466 1328.03 824.106 1317.25 822.608C1314.31 822.079 1311.29 822.224 1308.41 823.033ZM1024.87 866.718C1068 873.98 1108.58 871.244 1134.59 863.444C1129.13 831.943 1128.47 799.795 1132.64 768.097C1119.87 762.032 1106.49 757.339 1092.73 754.098C1062.25 747.138 1041.85 752.782 1030.37 771.354C1017 792.997 1016.72 828.687 1024.87 866.718L1024.87 866.718ZM757.62 932.341C748.045 935.393 738.862 939.558 730.258 944.752C717.061 952.819 706.413 964.839 705.491 972.712C705.335 973.68 705.436 974.672 705.783 975.589C706.13 976.506 706.712 977.316 707.47 977.937C718.628 989.017 759.416 981.315 792.899 947.969C800.62 940.297 807.878 932.173 814.634 923.639C795.302 923.691 776.087 926.624 757.62 932.341ZM1159.96 753.981C1183.82 767.303 1206.05 783.34 1226.22 801.772C1229.94 755.364 1239.89 714.791 1255.89 680.869C1272.84 644.957 1296.07 617.193 1324.95 598.348C1326.5 597.338 1328.06 596.357 1329.64 595.405C1316.28 579.969 1301 570.849 1283.78 571.805C1263.38 572.938 1238.97 590.314 1216.82 619.483C1191.63 652.649 1169.55 700.725 1159.96 753.981ZM517.479 927.002C543.036 926.869 568.472 923.463 593.164 916.866C644.09 903.04 688.551 875.535 725.667 834.956C649.654 844.758 559.108 884.212 517.479 927.002ZM795.753 554.395C795.878 573.291 799.435 606.877 811.131 649.444C819.498 679.897 836.713 730.575 867 773.057C867.118 761.778 866.614 750.501 865.49 739.278C859.967 683.436 840.628 634.955 825.376 604.118C816.983 586.705 807.07 570.066 795.753 554.395ZM273.23 836.295C300.297 840.26 327.632 842.102 354.985 841.806C440.067 841.295 525.71 823.127 575.84 795.71C517.791 751.876 436.478 747.37 391.188 748.865C322.331 751.138 263.81 768.214 236.803 785.299C241.839 801.093 254.536 818.837 273.23 836.295ZM523.539 660.483C524.748 661.419 525.96 662.346 527.176 663.266C586.193 707.886 654.585 733.193 726.546 737.301C687.877 702.976 624.504 668.175 523.539 660.483ZM958.051 569.664C969.151 585.399 991.646 591.442 1016.23 584.701C1068.51 570.36 1131.2 522.766 1182.78 459.637C1121.84 481.534 1004.27 528.017 958.051 569.664L958.051 569.664ZM544.254 472.965C560.43 481.717 577.854 487.933 595.916 491.398L602.621 454.671L544.254 472.965ZM931.616 325.365L999.339 304.138L936.856 291.131L931.616 325.365ZM819.651 360.459L870.875 344.403L818.191 239.863L819.651 360.459ZM723.612 390.561L765.167 377.536L723.388 298.493L723.612 390.561ZM634.636 418.449L667.948 408.008L644.369 365.131L634.636 418.449Z" fill="#19194B"/>
</svg>
