<svg width="953" height="615" viewBox="0 0 953 615" fill="none" xmlns="http://www.w3.org/2000/svg">
<path opacity="0.1" d="M1071.91 1396.57C1064.22 1399.07 1055.89 1398.86 1048.34 1395.97C1040.78 1393.08 1034.44 1387.67 1030.39 1380.67L940.713 1232.28L903.403 1268.81L920.478 1373.7C921.794 1381.39 920.56 1389.31 916.964 1396.23C913.367 1403.16 907.605 1408.73 900.554 1412.08C892.609 1415.76 883.577 1416.36 875.215 1413.76C866.853 1411.15 859.759 1405.53 855.312 1397.98L824.484 1346.09L758.184 1411.01C752.08 1416.93 744.139 1420.59 735.673 1421.39C727.207 1422.19 718.721 1420.07 711.617 1415.4C706.625 1412.01 702.515 1407.48 699.631 1402.18C696.746 1396.88 695.172 1390.97 695.038 1384.93L689.179 1195.99C688.869 1187.72 691.563 1179.62 696.763 1173.18C701.964 1166.74 709.319 1162.4 717.471 1160.96C724.496 1159.77 731.718 1160.74 738.173 1163.76C744.629 1166.78 750.012 1171.69 753.606 1177.84L829.725 1305.98L876.655 1260.03L865.203 1189.68C863.898 1181.66 865.425 1173.42 869.521 1166.4C873.618 1159.37 880.03 1153.99 887.659 1151.17C895.288 1148.35 903.659 1148.28 911.34 1150.95C919.02 1153.63 925.531 1158.89 929.758 1165.84L945.778 1192.35L1003.64 1135.69C1003.86 1135.47 1004.09 1135.26 1004.32 1135.07C1005.36 1134.19 1006.11 1133.02 1006.46 1131.71C1006.81 1130.4 1006.76 1129.01 1006.3 1127.73C1005.85 1126.45 1005.01 1125.35 1003.91 1124.55C1002.81 1123.76 1001.49 1123.33 1000.13 1123.31L695.625 1134.13C693.472 1134.21 691.335 1133.73 689.423 1132.74C687.511 1131.74 685.888 1130.27 684.712 1128.47C683.536 1126.66 682.847 1124.58 682.712 1122.43C682.576 1120.28 683 1118.13 683.941 1116.19C695.34 1092.7 731.573 1061.56 780.235 1032.46L747.443 1020.99C732.626 1015.8 717.076 1009.59 704.123 995.858C681.826 972.22 676.617 934.275 689.01 902.651C613.068 878.714 557.191 879.213 518.581 904.084C517.576 904.731 516.592 905.395 515.629 906.076C607.002 938.596 662.024 966.651 668.053 1017.79C672.686 1057.09 646.692 1084.56 615.338 1107.51C623.298 1114.2 630.74 1121.49 637.6 1129.3C653.29 1147.52 660.961 1165.34 661.051 1183.81C661.196 1213.55 641.574 1242.74 601.065 1273.04C597.841 1275.46 594.247 1277.99 590.421 1280.62C621.018 1312.68 641.292 1336.56 651.916 1353.02C662.953 1370.12 662.057 1389.91 649.633 1403.45C645.003 1408.42 639.177 1412.14 632.709 1414.23C626.241 1416.32 619.345 1416.73 612.675 1415.41C586.336 1410.53 526.524 1394.97 509.764 1377.97C499.407 1367.47 494.787 1355.74 496.033 1343.1C498.551 1317.55 525.325 1295.41 551.842 1276.76C543.8 1268.58 535.207 1259.98 526.063 1250.93C503.331 1228.45 493.311 1207.59 495.431 1187.16C498.888 1153.84 532.978 1131.83 569.07 1108.54C570.333 1107.73 571.598 1106.91 572.864 1106.09C569.444 1103.6 565.94 1101.07 562.385 1098.51C517.622 1066.27 461.914 1026.15 461.198 961.304C460.989 945.983 464.796 930.875 472.241 917.484C469.658 916.604 467.042 915.716 464.394 914.821C402.376 893.852 365.846 864.879 355.818 828.706C351.131 811.798 352.637 794.15 360.114 776.518C343.406 774.568 326.839 771.555 310.515 767.497C258.277 754.552 207.592 730.997 167.793 701.172C161.423 696.398 155.446 691.558 149.864 686.652C134.236 684.042 118.789 680.446 103.615 675.886C57.4443 661.819 23.4059 640.202 2.44504 611.636C0.797489 609.391 -0.052681 606.659 0.029538 603.876C0.111766 601.092 1.12167 598.415 2.89888 596.271C26.9621 567.239 73.5142 535.697 127.426 511.895C194.225 482.403 271.374 464.875 346.209 461.574C312.566 425.573 285.715 384.398 269.351 342.779C268.507 340.632 268.273 338.293 268.677 336.021C269.081 333.749 270.106 331.633 271.639 329.908C273.171 328.183 275.152 326.917 277.36 326.248C279.569 325.58 281.919 325.536 284.151 326.122L473.435 375.81L479.451 342.857C446.979 336.444 419.097 324.047 395.803 305.666C394.021 304.256 392.658 302.387 391.859 300.261C391.06 298.134 390.856 295.83 391.269 293.596C391.682 291.362 392.696 289.282 394.202 287.582C395.709 285.881 397.65 284.624 399.818 283.944L495.692 253.894L514.096 153.081C514.56 150.543 515.797 148.21 517.639 146.404C519.481 144.598 521.837 143.406 524.383 142.992C526.93 142.578 529.542 142.963 531.861 144.093C534.18 145.223 536.092 147.043 537.336 149.304L580.273 227.383L586.643 225.387L586.276 74.9137C586.269 72.1207 587.198 69.4059 588.915 67.2029C590.632 64.9999 593.038 63.4356 595.748 62.76C598.458 62.0843 601.316 62.3362 603.866 63.4755C606.417 64.6147 608.511 66.5755 609.817 69.0449L677.414 196.936L682.755 195.262L680.55 13.1629C680.516 10.3389 681.439 7.58665 683.17 5.35489C684.901 3.12314 687.337 1.54355 690.08 0.873717C692.824 0.203885 695.714 0.483324 698.278 1.66647C700.842 2.84962 702.93 4.86668 704.201 7.38874L783.04 163.829L793.062 160.688L802.149 101.322C802.406 99.6449 803.001 98.0374 803.9 96.5978C804.798 95.1583 805.98 93.9168 807.374 92.9491C808.768 91.9814 810.345 91.3078 812.008 90.9694C813.67 90.6309 815.385 90.6348 817.046 90.9806L939.455 116.463C942.163 117.027 944.608 118.473 946.405 120.575C948.203 122.678 949.252 125.317 949.388 128.08C949.524 130.842 948.74 133.572 947.158 135.841C945.576 138.11 943.286 139.79 940.646 140.617L815.405 179.872L809.145 220.775C808.744 223.393 807.522 225.816 805.654 227.694C803.786 229.573 801.369 230.809 798.753 231.224C796.137 231.639 793.457 231.213 791.099 230.005C788.742 228.798 786.829 226.872 785.637 224.507L770.272 194.019L707.967 213.547L708.514 258.724C708.548 261.527 707.638 264.26 705.931 266.484C704.224 268.708 701.818 270.292 699.102 270.984C696.385 271.675 693.515 271.433 690.952 270.295C688.39 269.158 686.284 267.192 684.974 264.714L665.041 227.002L611.676 243.728L611.783 287.862C611.79 290.637 610.872 293.336 609.175 295.532C607.479 297.728 605.099 299.297 602.412 299.99C599.724 300.684 596.883 300.463 594.335 299.363C591.787 298.262 589.678 296.345 588.341 293.913L568.231 257.345L517.565 273.226L508.665 321.973C708.352 340.432 1014.42 135.526 1018.06 133.065C1020.54 131.39 1023.53 130.658 1026.5 131.002L1194.72 150.504C1197.63 150.842 1200.33 152.193 1202.35 154.32C1204.36 156.447 1205.57 159.215 1205.75 162.14C1205.93 165.066 1205.08 167.962 1203.34 170.322C1201.6 172.683 1199.09 174.358 1196.24 175.053C1194.23 175.545 993.88 225.113 887.331 303.093C854.27 327.289 841.043 350.969 839.324 369.834C913.679 312.336 1090.55 252.59 1102.22 249.734C1104.69 249.13 1107.28 249.293 1109.65 250.201C1112.03 251.109 1114.07 252.719 1115.5 254.816C1116.94 256.913 1117.7 259.398 1117.68 261.938C1117.67 264.479 1116.88 266.955 1115.42 269.037C1058.71 350.049 984.272 412.143 919.12 433.316C916.337 434.22 913.581 435.047 910.834 435.8C878.434 444.686 847.019 436.363 829.1 415.478C808.478 444.028 809.805 471.794 821.428 487.443C835.829 506.833 871.714 516.607 929.248 485.891C1053.3 419.659 1223.31 213.295 1262.04 161.656C1263.29 159.997 1264.92 158.674 1266.81 157.806C1268.69 156.938 1270.76 156.553 1272.83 156.685L1325.01 160.013C1328.28 160.223 1331.35 161.713 1333.53 164.163C1335.72 166.613 1336.85 169.825 1336.69 173.105C1330.18 303.637 1349.26 417.168 1349.46 418.3C1349.83 420.498 1349.61 422.758 1348.82 424.843C1348.03 426.928 1346.69 428.764 1344.95 430.158C1343.21 431.553 1341.13 432.456 1338.92 432.774C1336.71 433.092 1334.46 432.813 1332.4 431.966C1313.38 424.16 1285.02 421.385 1254.86 432.16C1263.64 447.538 1271.11 463.628 1277.19 480.258C1298.93 538.193 1309.01 603.698 1311.53 633.271C1311.71 635.358 1311.36 637.457 1310.52 639.374C1309.67 641.291 1308.36 642.965 1306.7 644.241L1274.65 668.867C1293.56 692.384 1306.99 727.451 1310.33 762.789C1340.53 767.565 1375.09 767.605 1413.74 762.873C1416.44 762.542 1419.18 763.103 1421.53 764.471C1423.89 765.839 1425.73 767.939 1426.78 770.451C1427.83 772.964 1428.03 775.751 1427.36 778.388C1426.68 781.025 1425.15 783.369 1423.02 785.062C1364.16 831.778 1349.85 889.241 1346.97 923.284C1361.19 912.705 1378.42 906.946 1396.15 906.848C1434.63 906.391 1469.39 924.101 1496.69 958.064C1509.03 973.448 1518.95 990.631 1526.09 1009.02C1526.93 1011.38 1527.04 1013.94 1526.4 1016.36C1525.77 1018.79 1524.42 1020.97 1522.53 1022.61C1520.64 1024.26 1518.29 1025.3 1515.81 1025.6C1513.32 1025.9 1510.8 1025.44 1508.57 1024.29C1453.96 995.996 1419.22 999.676 1398.5 1009.62C1411.38 1009.97 1424 1013.27 1435.4 1019.27C1453.95 1029.35 1466.6 1046.46 1473.01 1070.11C1485.97 1117.94 1453.46 1157.11 1440.32 1161.38C1437.21 1162.39 1433.82 1162.14 1430.89 1160.68C1427.96 1159.22 1425.72 1156.66 1424.65 1153.57C1409.31 1109.04 1387.14 1098.7 1380.71 1096.59C1380.24 1096.44 1379.79 1096.3 1379.34 1096.18C1385.47 1125.26 1376.4 1151.35 1353.06 1170.76C1322.1 1196.51 1272.22 1204.55 1253.1 1193.07C1251.48 1192.1 1250.11 1190.77 1249.07 1189.19C1248.04 1187.61 1247.38 1185.82 1247.14 1183.94C1246.9 1182.07 1247.09 1180.17 1247.69 1178.38C1248.29 1176.59 1249.29 1174.96 1250.61 1173.61C1294.89 1128.42 1313.53 1068.65 1300.47 1013.71C1292 978.106 1270.81 951.349 1243.8 942.137C1202.67 928.113 1172.3 944.732 1154.23 960.854C1186.18 960.333 1222.24 968.131 1247.01 988.938C1268.44 1006.94 1279.01 1032.7 1277.6 1063.44C1277.49 1065.93 1276.64 1068.32 1275.15 1070.32C1273.67 1072.31 1271.62 1073.82 1269.28 1074.65C1266.93 1075.48 1264.39 1075.59 1261.99 1074.96C1259.58 1074.34 1257.41 1073.01 1255.76 1071.15C1253.41 1068.51 1196.65 1006.45 1123.06 1048.13C1095.88 1063.52 1086.7 1085.53 1083.83 1101.64C1132.77 1073.61 1179.33 1065.82 1213.91 1080.42C1236.18 1089.83 1251.25 1108.21 1255.28 1130.87C1255.66 1133 1255.47 1135.2 1254.75 1137.24C1254.02 1139.28 1252.77 1141.1 1251.13 1142.52C1249.49 1143.93 1247.51 1144.9 1245.38 1145.31C1243.25 1145.73 1241.06 1145.59 1239 1144.9C1198.6 1131.34 1152.43 1154.83 1124.11 1203.35C1102.76 1239.93 1098.14 1284.23 1097.15 1301.57C1095.6 1328.61 1096.25 1362.75 1096.26 1363.09C1096.26 1363.23 1096.26 1363.37 1096.26 1363.52C1096.16 1370.88 1093.77 1378.03 1089.4 1383.96C1085.03 1389.88 1078.92 1394.29 1071.91 1396.57ZM959.057 1214.32L1051.77 1367.74C1052.83 1369.6 1054.41 1371.11 1056.32 1372.08C1058.23 1373.05 1060.38 1373.44 1062.5 1373.2C1064.89 1372.84 1067.07 1371.66 1068.67 1369.85C1070.28 1368.05 1071.19 1365.74 1071.27 1363.32C1071.2 1359.82 1070.65 1327.19 1072.2 1300.14C1073.29 1281 1078.45 1232.01 1102.53 1190.76C1131.52 1141.07 1177.24 1113.41 1221.95 1116.29C1217.15 1110.64 1211.06 1106.24 1204.19 1103.44C1173.31 1090.4 1126.05 1102.15 1077.76 1134.88C1076.03 1136.06 1074.02 1136.78 1071.93 1136.98C1069.85 1137.17 1067.74 1136.84 1065.82 1136.02C1063.89 1135.19 1062.2 1133.89 1060.91 1132.24C1059.62 1130.58 1058.76 1128.63 1058.42 1126.56C1057.99 1123.93 1048.53 1061.62 1110.75 1026.38C1158.57 999.297 1200.71 1008.48 1227.63 1020.96C1234.88 1024.33 1241.85 1028.26 1248.48 1032.72C1244.89 1023.11 1238.84 1014.61 1230.93 1008.07C1204.81 986.122 1158.86 981.831 1126.97 988.935C1124.58 989.467 1122.09 989.287 1119.81 988.417C1117.52 987.547 1115.54 986.025 1114.11 984.041C1112.68 982.056 1111.87 979.696 1111.77 977.253C1111.67 974.81 1112.29 972.391 1113.55 970.296C1122.96 955.834 1134.99 943.258 1149.02 933.215C1179.89 911.161 1215.45 906.069 1251.86 918.485C1287.05 930.485 1314.31 963.922 1324.78 1007.93C1338.11 1064.01 1323.13 1124.12 1284.59 1172.81C1299.73 1171.18 1320.75 1165.13 1337.08 1151.55C1356.05 1135.78 1360.94 1115.14 1351.62 1090.2C1350.65 1087.59 1350.57 1084.74 1351.4 1082.09C1352.23 1079.43 1353.92 1077.13 1356.21 1075.55C1364.48 1069.82 1376.25 1068.84 1388.49 1072.85C1414.47 1081.36 1431.19 1106.81 1440.69 1126.85C1445.52 1119.53 1448.74 1111.27 1450.15 1102.62C1451.56 1093.97 1451.14 1085.12 1448.89 1076.65C1444.34 1059.84 1435.78 1047.92 1423.46 1041.22C1401.05 1029.04 1373.16 1036.49 1365.14 1039.06C1362.79 1039.81 1360.28 1039.85 1357.91 1039.18C1355.54 1038.5 1353.42 1037.14 1351.82 1035.27C1350.22 1033.39 1349.21 1031.09 1348.92 1028.64C1348.62 1026.19 1349.06 1023.72 1350.18 1021.52C1350.75 1020.38 1364.6 993.687 1399.61 982.313L1399.8 982.251C1425.13 974.08 1454.43 975.898 1487.21 987.626C1483.99 982.621 1480.51 977.795 1476.77 973.17C1454.22 945.377 1427.19 931.47 1396.45 931.835C1362.36 932.241 1346.28 959.462 1345.62 960.622C1344.33 962.87 1342.37 964.663 1340.02 965.752C1337.66 966.84 1335.03 967.17 1332.48 966.697C1329.93 966.224 1327.59 964.971 1325.79 963.11C1323.98 961.25 1322.8 958.875 1322.4 956.312C1321.79 952.28 1309.84 866.157 1379.94 790.865C1356.9 792.13 1333.8 791.213 1310.93 788.126C1309.81 810.145 1304.21 831.191 1292.96 848.407C1277.67 871.813 1250.51 882.802 1214.41 880.19C1202.89 879.289 1191.49 877.34 1180.33 874.366C1173.4 883.723 1163.98 890.943 1153.15 895.199C1150 896.514 1146.79 897.699 1143.54 898.753C1090.59 915.962 1026.19 899.214 994.153 871.988C992.733 870.782 991.601 869.273 990.84 867.573C990.079 865.872 989.707 864.023 989.753 862.161C989.799 860.298 990.261 858.469 991.104 856.808C991.948 855.147 993.153 853.696 994.63 852.56L1066.46 797.36C1061.86 789.496 1058.29 781.072 1055.84 772.297C1049.67 749.703 1054.23 730.662 1068.35 720.055C1083.79 708.453 1105.51 710.908 1129.52 726.967C1134.46 730.318 1139.12 734.072 1143.45 738.189L1177.41 712.086C1173.48 705.745 1170.22 699.011 1167.69 691.994C1160.28 670.989 1162.14 650.027 1172.54 637.287C1180.8 627.176 1193.64 622.762 1208.7 624.857C1225.72 627.225 1241.88 635.629 1257.68 650.395L1286 628.634C1280.75 577.596 1262.91 493.9 1232.19 442.811C1230.33 443.907 1228.47 445.062 1226.61 446.275C1171.79 482.05 1140.22 557.268 1137.71 658.074C1137.65 660.616 1136.81 663.078 1135.31 665.131C1133.81 667.184 1131.72 668.732 1129.32 669.566C1126.92 670.4 1124.32 670.481 1121.87 669.799C1119.42 669.117 1117.24 667.704 1115.61 665.748C1107.96 656.538 1080.75 629.478 1044.28 607.69C1041.31 637.179 1042.96 666.95 1049.16 695.932C1049.79 698.798 1049.39 701.794 1048.03 704.396C1046.68 706.997 1044.45 709.037 1041.73 710.159C1039.3 711.168 1036.64 712.141 1033.8 713.063C1007.82 721.506 965.774 725.966 919.712 720.001C931.319 758.023 950.103 795.718 971.56 821.814C973.513 824.19 974.521 827.202 974.392 830.275C974.263 833.347 973.005 836.264 970.859 838.467C968.713 840.67 965.831 842.004 962.763 842.215C959.695 842.425 956.657 841.496 954.231 839.607C909.933 805.103 847.028 775.673 785.96 760.881C768.469 756.578 750.687 753.558 732.755 751.845C722.628 766.478 711.172 780.146 698.533 792.675C657.703 833.339 602.442 847.075 577.863 822.669C574.409 819.382 571.777 815.327 570.181 810.834C568.584 806.341 568.067 801.535 568.672 796.805C570.91 777.7 589.762 759.883 605.227 750.431C628.052 736.48 664.701 723.171 719.965 725.77C736.586 698.508 747.525 668.167 752.125 636.571C707.59 586.312 684.352 517.982 674.061 479.471C660.946 430.392 652.977 369.091 664.042 352.155C665.943 348.99 668.93 346.624 672.446 345.5C675.963 344.375 679.768 344.568 683.153 346.044C695.567 351.373 715.27 381.527 728.371 405.73C749.685 445.01 764.933 487.288 773.6 531.13C779.882 562.998 781.445 595.617 778.237 627.939C780.107 629.839 782.015 631.699 783.959 633.519C813.555 661.199 850.007 678.418 886.366 688.014C879.476 647.934 881.621 610.288 897.116 585.217C909.183 565.691 934.451 544.9 986.293 556.736C999.506 559.818 1012.41 564.117 1024.83 569.578C1035.83 514.871 1058.84 465.716 1084.92 431.369C1111.9 395.842 1142.26 375.416 1170.39 373.855C1196.6 372.401 1220.07 384.84 1240.58 410.953C1267.35 400.208 1295.96 397.278 1321.91 402.736C1312.32 330.301 1308.74 257.197 1311.19 184.172L1277.93 182.05C1231.77 242.263 1065.12 441.676 941.017 507.935C910.262 524.355 881.93 531.862 856.81 530.249C833.302 528.739 813.612 518.829 801.368 502.343C778.883 472.071 785.298 427.615 816.391 391.353C808.637 362.393 819.766 321.575 872.573 282.928C919.131 248.853 986.802 216.246 1073.7 186.014C1093.71 179.054 1112.49 173.03 1128.89 168.029L1028.16 156.351C1007.33 170.048 905.906 235.218 787.672 285.325C709.603 318.411 639.433 338.629 579.111 345.416C554.245 348.413 529.131 348.776 504.189 346.496L495.596 393.563C495.287 395.256 494.632 396.866 493.671 398.294C492.71 399.722 491.465 400.936 490.013 401.86C488.561 402.784 486.934 403.398 485.234 403.663C483.534 403.929 481.797 403.841 480.132 403.404L302.942 356.89C321.378 394.093 348.387 430.151 380.845 461.073C389.469 461.21 398.028 461.546 406.52 462.083C480.935 466.802 584.354 489.187 654.455 569.027C656.022 570.812 657.048 573.007 657.412 575.354C657.777 577.702 657.464 580.104 656.512 582.281C655.559 584.457 654.006 586.316 652.034 587.641C650.062 588.966 647.753 589.701 645.379 589.761C556.699 591.98 471.885 564.468 400.105 510.199C390.042 502.591 380.304 494.494 370.952 485.988C291.999 486.108 208.639 503.355 137.519 534.754C92.5266 554.619 52.0867 580.773 28.9331 604.669C48.6739 626.782 79.8108 643.721 119.716 654.622C108.134 639.162 100.828 623.739 98.3485 609.085C97.976 606.883 98.2005 604.621 98.9988 602.535C99.797 600.449 101.14 598.615 102.887 597.225C134.179 572.321 206.337 553.267 278.364 550.89C400.858 546.846 465.838 589.388 493.669 615.106C495.046 616.379 496.119 617.944 496.808 619.688C497.498 621.431 497.786 623.307 497.652 625.177C497.518 627.046 496.965 628.862 496.034 630.489C495.102 632.116 493.817 633.512 492.273 634.575C441.661 669.405 341.54 693.204 243.135 693.794C227.964 693.885 213.1 693.418 198.67 692.411C234.847 715.806 274.681 732.987 316.525 743.242C335.343 747.929 354.501 751.121 373.822 752.787C375.904 749.947 378.142 747.118 380.535 744.299C428.341 687.987 550.52 636.777 641.996 634.71C644.35 634.657 646.672 635.27 648.693 636.479C650.714 637.687 652.352 639.443 653.418 641.543C654.485 643.642 654.936 646 654.721 648.345C654.505 650.69 653.631 652.927 652.199 654.797C611.499 707.955 561.023 744.546 502.008 763.723C497.294 765.254 492.528 766.674 487.711 767.982C454.849 776.709 420.837 780.31 386.876 778.657C379.872 791.393 375.585 806.47 379.899 822.031C387.472 849.348 419.458 873.249 472.398 891.148C477.766 892.964 483.038 894.756 488.214 896.526C493.344 891.472 498.986 886.964 505.049 883.076C551.154 853.379 615.543 852.49 701.606 880.449C723.147 852.877 760.85 841.146 807.851 847.413C884.042 857.572 1001.81 909.765 1056.2 949.644C1058.31 951.187 1059.88 953.35 1060.69 955.83C1061.5 958.309 1061.52 960.981 1060.73 963.47C1059.95 965.959 1058.41 968.14 1056.32 969.708C1054.24 971.276 1051.71 972.152 1049.1 972.212C1019.14 973.133 989.362 977.275 960.283 984.567C966.793 994.901 969.92 1007.01 969.227 1019.2C968.534 1031.4 964.056 1043.07 956.417 1052.6C948.778 1062.13 938.358 1069.04 926.607 1072.37C914.856 1075.7 902.36 1075.28 890.857 1071.18L811.41 1043.37C768.643 1066.89 737.992 1090.27 720.739 1108.24L999.484 1098.32C999.61 1098.32 999.738 1098.32 999.864 1098.32C1006.32 1098.28 1012.64 1100.23 1017.96 1103.89C1023.28 1107.54 1027.35 1112.74 1029.64 1118.78C1031.92 1124.83 1032.3 1131.42 1030.73 1137.68C1029.15 1143.95 1025.7 1149.58 1020.84 1153.82L959.057 1214.32ZM842.86 1328.09L876.811 1385.25C878.119 1387.47 880.205 1389.12 882.664 1389.88C885.123 1390.64 887.778 1390.46 890.112 1389.37C892.186 1388.3 893.86 1386.58 894.887 1384.48C895.914 1382.38 896.238 1380.01 895.814 1377.71L881.566 1290.19L842.86 1328.09ZM720.698 1185.86C718.739 1186.49 717.038 1187.74 715.857 1189.42C714.676 1191.11 714.078 1193.13 714.155 1195.19L720.015 1384.16C720.023 1386.2 720.519 1388.21 721.46 1390.02C722.401 1391.83 723.761 1393.39 725.426 1394.57C727.744 1396.14 730.533 1396.85 733.317 1396.59C736.102 1396.33 738.711 1395.12 740.702 1393.15L811.349 1323.98L732.122 1190.6C731.143 1188.83 729.647 1187.4 727.834 1186.49C726.02 1185.59 723.975 1185.25 721.969 1185.54C721.538 1185.62 721.114 1185.72 720.698 1185.86L720.698 1185.86ZM569.498 1294.92C547.607 1310.15 522.473 1329.6 520.901 1345.56C520.589 1348.73 520.939 1353.72 527.557 1360.43C535.105 1368.08 576.785 1383.35 617.224 1390.84C619.73 1391.35 622.326 1391.23 624.773 1390.48C627.219 1389.73 629.438 1388.38 631.225 1386.55C638.083 1379.08 632.726 1369.37 630.921 1366.57C620.919 1351.08 600.33 1327.06 569.498 1294.92L569.498 1294.92ZM896.699 1174.48L896.6 1174.51C894.333 1175.27 892.409 1176.81 891.175 1178.85C889.941 1180.9 889.477 1183.32 889.867 1185.67L898.492 1238.65L927.435 1210.31L908.39 1178.79C907.217 1176.86 905.421 1175.38 903.298 1174.59C901.174 1173.81 898.848 1173.77 896.698 1174.48L896.699 1174.48ZM593.927 1122.2C590.142 1124.68 586.358 1127.13 582.62 1129.54C551.706 1149.49 522.507 1168.33 520.286 1189.74C519.017 1201.98 526.872 1216.59 543.634 1233.17C554.078 1243.49 563.796 1253.24 572.788 1262.41C577.705 1259.06 582.274 1255.89 586.097 1253.03C619.354 1228.16 636.165 1204.91 636.063 1183.93C635.955 1161.92 617.441 1141.39 593.927 1122.2ZM842.009 1027.61L899.18 1047.62C903.416 1049.14 907.913 1049.79 912.406 1049.55C916.9 1049.31 921.301 1048.17 925.349 1046.21C929.398 1044.24 933.013 1041.49 935.982 1038.11C938.952 1034.73 941.216 1030.78 942.641 1026.52C944.63 1020.5 944.891 1014.04 943.396 1007.88C941.902 1001.72 938.71 996.096 934.184 991.656C902.567 1001.21 871.748 1013.23 842.009 1027.61ZM496.422 925.845C489.601 936.3 486.039 948.545 486.186 961.028C486.762 1013.25 534.697 1047.78 576.989 1078.24C581.204 1081.27 585.347 1084.26 589.366 1087.2C591.212 1088.55 593.083 1089.94 594.981 1091.36C623.5 1071.36 646.623 1049.44 643.236 1020.72C638.912 984.034 593.964 960.146 496.422 925.845ZM712.725 910.653C703.223 933.669 706.5 961.959 722.301 978.712C731.419 988.378 742.82 992.895 755.697 997.402L809.266 1016.15C811.974 1014.72 814.709 1013.3 817.471 1011.89C844.261 998.223 871.937 986.369 900.312 976.404L712.725 910.653ZM938.936 964.319C962.456 957.764 986.431 952.97 1010.66 949.978C953.014 916.486 863.884 880.094 804.548 872.183C763.465 866.704 740.27 877.166 727.299 889.282L929.941 960.309C933.047 961.39 936.056 962.731 938.936 964.319ZM1190.11 851.022C1198.68 853.143 1207.41 854.562 1216.21 855.266C1243.09 857.211 1261.87 850.305 1272.04 834.739C1281.33 820.523 1285.74 802.505 1286.27 783.487C1268.91 779.479 1252.11 773.326 1236.26 765.17C1219.83 756.78 1205.01 745.562 1192.47 732.032L1160.14 756.873C1179.61 782.446 1193.79 816.148 1191.01 844.715C1190.8 846.869 1190.5 848.972 1190.11 851.022ZM1023.49 861.898C1052.5 878.158 1102.93 889.093 1143.52 872.14C1147.36 870.584 1150.96 868.476 1154.2 865.881C1146.19 862.778 1139.81 859.84 1135.71 857.838C1110.66 845.586 1093.23 831.387 1081.1 817.622L1023.49 861.898ZM1101.06 802.277C1114.08 816.06 1129.55 827.29 1146.69 835.389C1152.9 838.426 1159.39 841.192 1165.99 843.638C1166.05 843.194 1166.1 842.747 1166.14 842.294C1168.25 820.618 1156.32 793.044 1140.37 772.07L1101.06 802.277ZM1212.34 716.76C1222.63 727.417 1234.63 736.291 1247.83 743.02C1259.58 749.085 1271.94 753.877 1284.71 757.313C1280.78 729.835 1269.96 702.89 1255.14 684.474C1255.04 684.349 1254.94 684.223 1254.84 684.098L1212.34 716.76ZM1086.45 738.44C1085.34 738.796 1084.29 739.335 1083.36 740.034C1076.98 744.824 1077.41 756.441 1079.95 765.714C1081.51 771.358 1083.71 776.809 1086.49 781.962L1123.33 753.651C1120.88 751.524 1118.31 749.549 1115.62 747.736C1109.59 743.698 1095.65 735.451 1086.45 738.44ZM747.3 728.218C762.288 730.203 777.158 732.999 791.843 736.595C836.546 747.623 879.566 764.602 919.751 787.076C908.109 764.167 898.915 740.094 892.323 715.257C851.322 706.313 809.067 688.532 773.469 657.692C768.177 682.335 759.364 706.088 747.3 728.218ZM1196.41 650.033C1194.62 650.562 1193.05 651.632 1191.9 653.095C1187.12 658.943 1186.86 671.234 1191.25 683.68C1192.89 688.217 1194.92 692.598 1197.34 696.772L1237.55 665.87C1226.7 656.466 1216.03 651.106 1205.25 649.608C1202.31 649.079 1199.29 649.224 1196.41 650.033ZM912.868 693.718C956.003 700.98 996.585 698.244 1022.59 690.444C1017.13 658.943 1016.47 626.795 1020.64 595.097C1007.87 589.032 994.493 584.339 980.732 581.098C950.249 574.138 929.851 579.782 918.373 598.354C904.997 619.997 904.721 655.687 912.868 693.718L912.868 693.718ZM645.62 759.341C636.045 762.393 626.862 766.558 618.258 771.752C605.061 779.819 594.413 791.839 593.491 799.712C593.335 800.68 593.436 801.672 593.783 802.589C594.13 803.506 594.712 804.316 595.47 804.937C606.628 816.017 647.416 808.315 680.899 774.969C688.62 767.297 695.878 759.173 702.634 750.639C683.302 750.691 664.087 753.624 645.62 759.341ZM1047.96 580.981C1071.82 594.303 1094.05 610.34 1114.22 628.772C1117.94 582.364 1127.89 541.791 1143.89 507.869C1160.84 471.957 1184.07 444.193 1212.95 425.348C1214.5 424.338 1216.06 423.357 1217.64 422.405C1204.28 406.969 1189 397.849 1171.78 398.805C1151.38 399.938 1126.97 417.314 1104.82 446.483C1079.63 479.649 1057.55 527.725 1047.96 580.981ZM405.479 754.002C431.036 753.869 456.472 750.463 481.164 743.866C532.09 730.04 576.551 702.535 613.667 661.956C537.654 671.758 447.108 711.212 405.479 754.002ZM683.753 381.395C683.878 400.291 687.435 433.877 699.131 476.444C707.498 506.897 724.713 557.575 755 600.057C755.118 588.778 754.614 577.501 753.49 566.278C747.967 510.436 728.628 461.955 713.376 431.118C704.983 413.705 695.07 397.066 683.753 381.395ZM161.23 663.295C188.297 667.26 215.632 669.102 242.985 668.806C328.067 668.295 413.71 650.127 463.84 622.71C405.791 578.876 324.478 574.37 279.188 575.865C210.331 578.138 151.81 595.214 124.803 612.299C129.839 628.093 142.536 645.837 161.23 663.295ZM411.539 487.483C412.748 488.419 413.96 489.346 415.176 490.266C474.193 534.886 542.585 560.193 614.546 564.301C575.877 529.976 512.504 495.175 411.539 487.483ZM846.051 396.664C857.151 412.399 879.646 418.442 904.225 411.701C956.51 397.36 1019.2 349.766 1070.78 286.637C1009.84 308.534 892.267 355.017 846.051 396.664L846.051 396.664ZM432.254 299.965C448.43 308.717 465.854 314.933 483.916 318.398L490.621 281.671L432.254 299.965ZM819.616 152.365L887.339 131.138L824.856 118.131L819.616 152.365ZM707.651 187.459L758.875 171.403L706.191 66.8627L707.651 187.459ZM611.612 217.561L653.167 204.536L611.388 125.493L611.612 217.561ZM522.636 245.449L555.948 235.008L532.369 192.131L522.636 245.449Z" fill="#19194B"/>
</svg>
