<svg width="49" height="40" viewBox="0 0 49 40" fill="none" xmlns="http://www.w3.org/2000/svg">
<path d="M48.8592 23.0027C48.8426 21.9476 48.8071 20.9809 48.7503 20.0714L48.2513 20.1026C48.1876 19.0813 48.0969 18.1347 47.9763 17.2173L48.472 17.1521C48.3434 16.1744 48.1811 15.2282 47.9812 14.2605L47.4915 14.3616C47.3955 13.8965 47.2905 13.4259 47.1762 12.9437C47.1001 12.6226 46.9626 12.3348 46.7798 12.0882L47.1815 11.7905C46.7195 11.167 46.0174 10.7568 45.2465 10.6583L45.1831 11.1543C44.8778 11.1153 44.5587 11.1355 44.2407 11.2248C43.7282 11.3688 43.2333 11.5135 42.7546 11.659L42.6092 11.1806C41.5493 11.5027 40.5672 11.8294 39.6493 12.163L39.82 12.6329C38.7915 13.0067 37.8456 13.3888 36.9621 13.7826L36.7585 13.3259C35.761 13.7705 34.8403 14.2306 33.9685 14.7111L34.2099 15.149C33.2908 15.6557 32.4261 16.1857 31.5817 16.7457L31.3054 16.329C30.4473 16.898 29.6113 17.4966 28.7627 18.131L29.0621 18.5315C28.6553 18.8356 28.2451 19.1483 27.8274 19.4706C27.6903 19.5763 27.5659 19.6954 27.4559 19.8251L27.0746 19.5016C26.806 19.8182 26.6078 20.1884 26.4978 20.5873L26.9798 20.7202C26.9352 20.882 26.9084 21.0493 26.901 21.2196C26.8795 21.7167 26.8693 22.2047 26.8702 22.6836L26.3702 22.6845C26.3721 23.7126 26.4241 24.7004 26.5233 25.6464L27.0205 25.5943C27.1259 26.5997 27.2855 27.5552 27.495 28.4594L27.0079 28.5722C27.2406 29.5765 27.5341 30.521 27.8836 31.4038L28.3485 31.2197C28.7169 32.1503 29.1483 33.0075 29.636 33.7896L29.2117 34.0541C29.7524 34.9212 30.3617 35.7016 31.0321 36.392L31.3908 36.0437C32.0654 36.7383 32.8031 37.337 33.5957 37.8369L33.329 38.2598C34.1649 38.787 35.0604 39.2094 36.0066 39.5229L36.1639 39.0483C36.611 39.1965 37.0704 39.3195 37.541 39.4168C37.6065 39.4303 37.6727 39.4404 37.7393 39.4471L37.6895 39.9446C37.8572 39.9614 38.0266 39.9608 38.194 39.9425L38.1396 39.4455C38.2058 39.4382 38.2715 39.4275 38.3362 39.4133C38.869 39.2964 39.3748 39.1427 39.8548 38.9567L40.0354 39.4229C41.1052 39.0084 42.056 38.4399 42.8989 37.7606L42.5852 37.3713C43.4172 36.7009 44.1431 35.9146 44.7737 35.0553L45.1768 35.3511C45.8368 34.4517 46.3919 33.4804 46.8549 32.4862L46.4016 32.2751C46.87 31.2695 47.2427 30.2377 47.5329 29.2332L48.0133 29.372C48.3446 28.225 48.5698 27.1161 48.7088 26.122L48.2136 26.0528C48.2945 25.4739 48.3452 24.9368 48.3701 24.4577C48.3701 23.956 48.3665 23.4745 48.3592 23.0106L48.8592 23.0027Z" stroke="#8C8CA5" stroke-miterlimit="5.75877" stroke-linejoin="round" stroke-dasharray="3 3"/>
<path d="M22.489 13.0027C22.4725 11.9476 22.437 10.9809 22.3802 10.0714L21.8812 10.1026C21.8175 9.0813 21.7268 8.1347 21.6062 7.21726L22.1019 7.15206C21.9733 6.17445 21.811 5.22817 21.6111 4.26046L21.1214 4.36161C21.0253 3.89654 20.9204 3.42594 20.8061 2.94369C20.73 2.6226 20.5925 2.33484 20.4097 2.08816L20.8114 1.79048C20.3494 1.16698 19.6473 0.756798 18.8763 0.658326L18.813 1.1543C18.5076 1.11529 18.1885 1.1355 17.8706 1.22484C17.3581 1.36885 16.8632 1.51348 16.3845 1.65896L16.2391 1.18056C15.1791 1.50273 14.1971 1.82938 13.2791 2.16299L13.4499 2.63292C12.4214 3.0067 11.4755 3.38877 10.592 3.78258L10.3884 3.32589C9.39085 3.77052 8.47015 4.23063 7.59843 4.71114L7.8398 5.14902C6.92065 5.65566 6.05599 6.18572 5.2116 6.74566L4.93527 6.32896C4.07718 6.898 3.24115 7.49664 2.39259 8.131L2.69197 8.53146C2.28514 8.8356 1.87495 9.14834 1.45733 9.47055C1.3202 9.57635 1.19576 9.69539 1.08575 9.82506L0.704474 9.5016C0.43588 9.81819 0.237686 10.1884 0.1277 10.5873L0.609714 10.7202C0.565086 10.882 0.538273 11.0493 0.53089 11.2196C0.509342 11.7167 0.499175 12.2047 0.500053 12.6836L5.40457e-05 12.6845C0.00193937 13.7126 0.0539492 14.7004 0.153134 15.6464L0.650408 15.5943C0.755821 16.5997 0.91534 17.5552 1.12485 18.4594L0.637758 18.5722C0.870469 19.5765 1.16398 20.521 1.51349 21.4038L1.97838 21.2197C2.34681 22.1503 2.7782 23.0075 3.26588 23.7896L2.84162 24.0541C3.38232 24.9212 3.99162 25.7016 4.66201 26.392L5.02072 26.0437C5.69526 26.7383 6.43298 27.337 7.22558 27.8369L6.95887 28.2598C7.79479 28.787 8.69029 29.2094 9.63645 29.5229L9.79374 29.0483C10.2409 29.1965 10.7003 29.3195 11.1709 29.4168C11.2364 29.4303 11.3026 29.4404 11.3692 29.4471L11.3194 29.9446C11.4871 29.9614 11.6565 29.9608 11.8239 29.9425L11.7695 29.4455C11.8357 29.4382 11.9014 29.4275 11.966 29.4133C12.4989 29.2964 13.0047 29.1427 13.4847 28.9567L13.6653 29.4229C14.7351 29.0084 15.6859 28.4399 16.5288 27.7606L16.2151 27.3713C17.0471 26.7009 17.773 25.9146 18.4036 25.0553L18.8067 25.3511C19.4666 24.4517 20.0218 23.4804 20.4848 22.4862L20.0315 22.2751C20.4999 21.2695 20.8726 20.2377 21.1628 19.2332L21.6431 19.372C21.9745 18.225 22.1997 17.1161 22.3386 16.122L21.8435 16.0528C21.9244 15.4739 21.9751 14.9368 22 14.4577C21.9999 13.956 21.9964 13.4745 21.9891 13.0106L22.489 13.0027Z" stroke="#8C8CA5" stroke-miterlimit="5.75877" stroke-linejoin="round" stroke-dasharray="3 3"/>
</svg>
