<svg width="8" height="11" viewBox="0 0 8 11" fill="none" xmlns="http://www.w3.org/2000/svg">
<path fill-rule="evenodd" clip-rule="evenodd" d="M4.30878 0.81009C4.63751 0.721123 4.94109 0.669189 5.23352 0.669189C5.85743 0.669189 6.39141 0.896995 6.77552 1.36879L6.77822 1.37212C7.06387 1.73204 7.23683 2.18498 7.34325 2.77324C7.44988 3.35628 7.49921 4.45991 7.49999 5.58518C7.50078 6.71717 7.45231 7.91449 7.35249 8.69547C7.30532 9.05802 7.15943 9.56272 6.73991 9.97476C6.31751 10.3896 5.66074 10.6692 4.67107 10.6692C4.27218 10.6692 3.91139 10.6249 3.69653 10.5985C3.68815 10.5974 3.68 10.5964 3.67208 10.5955L3.67106 10.5953L3.61688 10.5891L3.61512 10.5889C3.24069 10.5434 2.44459 10.4439 1.71034 10.132C0.983481 9.82315 0.220174 9.26162 0.0898274 8.24003L0.0896987 8.23901C-0.039214 7.20577 -0.0202768 5.23582 0.0899213 4.38563C0.199095 3.55984 0.680479 2.82492 1.40647 2.22503C2.13283 1.62484 3.12363 1.14106 4.30636 0.810755L4.30878 0.81009Z" fill="white"/>
</svg>
